<?xml version="1.0" standalone="no"?>
<!DOCTYPE svg PUBLIC "-//W3C//DTD SVG 1.1//EN" "http://www.w3.org/Graphics/SVG/1.1/DTD/svg11.dtd" >
<svg xmlns="http://www.w3.org/2000/svg" xmlns:xlink="http://www.w3.org/1999/xlink" version="1.1">
<metadata>
Created by FontForge 20170910 at Thu Aug 30 13:18:12 2012
 By Jimmy Wärting
2009 - 2011, The League of Moveable Type
</metadata>
<defs>
<font id="LeagueGothic" horiz-adv-x="337" >
  <font-face
    font-family="LeagueGothic"
    font-weight="400"
    font-stretch="normal"
    units-per-em="1000"
    panose-1="0 0 5 0 0 0 0 0 0 0"
    ascent="735"
    descent="-265"
    x-height="547"
    cap-height="735"
    bbox="-32 -250 777 952"
    underline-thickness="50"
    underline-position="-100"
    stemv="101"
    unicode-range="U+0020-FB02"
  />
<missing-glyph horiz-adv-x="154"
 />
    <glyph glyph-name=".notdef" horiz-adv-x="154"
 />
    <glyph glyph-name="Aacute" unicode="&#xc1;" horiz-adv-x="374"
d="M300 890h-105l-52 -90h78zM10 0h105l20 150h104l20 -150h105l-111 735h-132zM193 496l31 -232h-74l31 232l3 19h6z" />
    <glyph glyph-name="Abreve" unicode="&#x102;" horiz-adv-x="374"
d="M298 871l-52 46c-4 -5 -9 -9 -15 -12c-11 -7 -24 -11 -43 -11c-9 0 -17 1 -24 3c-14 4 -25 11 -32 20l-54 -46c8 -9 18 -17 29 -24c19 -12 46 -23 81 -23c17 0 33 2 46 7c27 9 47 23 64 40zM10 0h105l20 150h104l20 -150h105l-111 735h-132zM193 496l31 -232h-74l31 232
l3 19h6z" />
    <glyph glyph-name="Acircumflex" unicode="&#xc2;" horiz-adv-x="374"
d="M241 890h-107l-69 -90h92l30 35l31 -35h92zM10 0h105l20 150h104l20 -150h105l-111 735h-132zM193 496l31 -232h-74l31 232l3 19h6z" />
    <glyph glyph-name="Adieresis" unicode="&#xc4;" horiz-adv-x="374"
d="M70 898v-98h93v98h-93zM211 898v-98h93v98h-93zM10 0h105l20 150h104l20 -150h105l-111 735h-132zM193 496l31 -232h-74l31 232l3 19h6z" />
    <glyph glyph-name="Agrave" unicode="&#xc0;" horiz-adv-x="374"
d="M174 890h-105l79 -90h78zM10 0h105l20 150h104l20 -150h105l-111 735h-132zM193 496l31 -232h-74l31 232l3 19h6z" />
    <glyph glyph-name="Amacron" unicode="&#x100;" horiz-adv-x="374"
d="M91 909v-79h194v79h-194zM10 0h105l20 150h104l20 -150h105l-111 735h-132zM193 496l31 -232h-74l31 232l3 19h6z" />
    <glyph glyph-name="Aogonek" unicode="&#x104;" horiz-adv-x="374"
d="M364 0h-47c-17 -15 -29 -30 -38 -50c-5 -10 -7 -21 -7 -33c0 -29 27 -38 50 -38c17 0 30 4 42 9l-8 -67c-21 -7 -34 -9 -51 -9c-65 0 -102 40 -102 85c0 28 16 53 33 72c9 11 20 22 33 31h-10l-20 150h-104l-20 -150h-105l111 735h132zM150 264h74l-31 232l-3 19h-6
l-3 -19z" />
    <glyph glyph-name="Aring" unicode="&#xc5;" horiz-adv-x="374"
d="M113 860c0 -41 34 -70 75 -70s74 29 74 70s-33 70 -74 70s-75 -29 -75 -70zM151 860c0 19 18 35 37 35s37 -16 37 -35s-18 -35 -37 -35s-37 16 -37 35zM10 0h105l20 150h104l20 -150h105l-111 735h-132zM193 496l31 -232h-74l31 232l3 19h6z" />
    <glyph glyph-name="Atilde" unicode="&#xc3;" horiz-adv-x="374"
d="M90 871v-74c5 3 10 5 16 8c11 4 22 8 37 8c16 -1 31 -4 45 -10c13 -6 28 -9 43 -9c7 0 14 1 20 3c12 3 24 8 33 16v74c-5 -3 -10 -5 -16 -8c-11 -4 -22 -8 -37 -8c-15 1 -30 5 -44 11c-14 5 -29 8 -44 8c-7 0 -14 -1 -20 -3c-12 -4 -24 -9 -33 -16zM10 0h105l20 150h104
l20 -150h105l-111 735h-132zM193 496l31 -232h-74l31 232l3 19h6z" />
    <glyph glyph-name="AE" unicode="&#xc6;" horiz-adv-x="537"
d="M270 150v-150h247v111h-139v202h100v118h-100v193h139v111h-304l-205 -735h107l44 150h111zM192 264l73 251h5v-251h-78z" />
    <glyph glyph-name="B" unicode="B" horiz-adv-x="364"
d="M40 0h133c64 3 107 28 132 66s35 87 35 142c0 37 -4 67 -12 90c-16 47 -36 75 -63 90c25 23 42 43 53 67s14 50 14 85c0 73 -17 121 -50 152s-83 43 -147 43h-95v-735zM148 432v196c9 0 30 1 48 -11s32 -36 32 -87s-14 -75 -32 -87s-39 -11 -48 -11zM148 107v226
c9 0 30 2 48 -11s32 -42 32 -102s-14 -89 -32 -102s-39 -11 -48 -11z" />
    <glyph glyph-name="C" unicode="C" horiz-adv-x="346"
d="M321 252h-101v-101c0 -11 -1 -20 -4 -27c-5 -15 -14 -27 -37 -27c-9 0 -16 3 -21 8c-10 11 -16 25 -17 46v433c1 10 2 19 5 27c5 13 14 27 33 27c11 0 20 -3 25 -8c11 -12 16 -26 16 -46v-101h101v101c-1 29 -7 56 -18 79c-9 20 -23 40 -43 55s-47 25 -83 25
s-64 -10 -84 -25s-33 -35 -42 -55c-11 -23 -17 -50 -18 -79v-433c1 -30 7 -57 18 -80c9 -20 22 -39 42 -54c20 -16 48 -25 84 -25s63 9 83 25c20 15 34 34 43 54c11 23 17 50 18 80v101z" />
    <glyph glyph-name="Cacute" unicode="&#x106;" horiz-adv-x="346"
d="M253 915h-105l-52 -90h78zM321 252h-101v-101c0 -11 -1 -20 -4 -27c-5 -15 -14 -27 -37 -27c-9 0 -16 3 -21 8c-10 11 -16 25 -17 46v433c1 10 2 19 5 27c5 13 14 27 33 27c11 0 20 -3 25 -8c11 -12 16 -26 16 -46v-101h101v101c-1 29 -7 56 -18 79c-9 20 -23 40 -43 55
s-47 25 -83 25s-64 -10 -84 -25s-33 -35 -42 -55c-11 -23 -17 -50 -18 -79v-433c1 -30 7 -57 18 -80c9 -20 22 -39 42 -54c20 -16 48 -25 84 -25s63 9 83 25c20 15 34 34 43 54c11 23 17 50 18 80v101z" />
    <glyph glyph-name="Ccaron" unicode="&#x10c;" horiz-adv-x="346"
d="M121 825h107l69 90h-92l-31 -35l-30 35h-92zM321 252h-101v-101c0 -11 -1 -20 -4 -27c-5 -15 -14 -27 -37 -27c-9 0 -16 3 -21 8c-10 11 -16 25 -17 46v433c1 10 2 19 5 27c5 13 14 27 33 27c11 0 20 -3 25 -8c11 -12 16 -26 16 -46v-101h101v101c-1 29 -7 56 -18 79
c-9 20 -23 40 -43 55s-47 25 -83 25s-64 -10 -84 -25s-33 -35 -42 -55c-11 -23 -17 -50 -18 -79v-433c1 -30 7 -57 18 -80c9 -20 22 -39 42 -54c20 -16 48 -25 84 -25s63 9 83 25c20 15 34 34 43 54c11 23 17 50 18 80v101z" />
    <glyph glyph-name="Ccedilla" unicode="&#xc7;" horiz-adv-x="346"
d="M321 252h-101v-101c0 -11 -1 -20 -4 -27c-5 -15 -14 -27 -37 -27c-9 0 -16 3 -21 8c-10 11 -16 25 -17 46v433c1 10 2 19 5 27c5 13 14 27 33 27c11 0 20 -3 25 -8c11 -12 16 -26 16 -46v-101h101v101c-1 29 -7 56 -18 79c-9 20 -23 40 -43 55s-47 25 -83 25
s-64 -10 -84 -25s-33 -35 -42 -55c-11 -23 -17 -50 -18 -79v-433c1 -30 7 -57 18 -80c9 -20 22 -39 42 -54c20 -16 48 -25 84 -25s63 9 83 25c20 15 34 34 43 54c11 23 17 50 18 80v101zM215 -123v69h-84v-69h31l-20 -65h51z" />
    <glyph glyph-name="Ccircumflex" unicode="&#x108;" horiz-adv-x="346"
d="M228 915h-107l-69 -90h92l30 35l31 -35h92zM321 252h-101v-101c0 -11 -1 -20 -4 -27c-5 -15 -14 -27 -37 -27c-9 0 -16 3 -21 8c-10 11 -16 25 -17 46v433c1 10 2 19 5 27c5 13 14 27 33 27c11 0 20 -3 25 -8c11 -12 16 -26 16 -46v-101h101v101c-1 29 -7 56 -18 79
c-9 20 -23 40 -43 55s-47 25 -83 25s-64 -10 -84 -25s-33 -35 -42 -55c-11 -23 -17 -50 -18 -79v-433c1 -30 7 -57 18 -80c9 -20 22 -39 42 -54c20 -16 48 -25 84 -25s63 9 83 25c20 15 34 34 43 54c11 23 17 50 18 80v101z" />
    <glyph glyph-name="Cdotaccent" unicode="&#x10a;" horiz-adv-x="346"
d="M124 923v-101h101v101h-101zM321 252h-101v-101c0 -11 -1 -20 -4 -27c-5 -15 -14 -27 -37 -27c-9 0 -16 3 -21 8c-10 11 -16 25 -17 46v433c1 10 2 19 5 27c5 13 14 27 33 27c11 0 20 -3 25 -8c11 -12 16 -26 16 -46v-101h101v101c-1 29 -7 56 -18 79
c-9 20 -23 40 -43 55s-47 25 -83 25s-64 -10 -84 -25s-33 -35 -42 -55c-11 -23 -17 -50 -18 -79v-433c1 -30 7 -57 18 -80c9 -20 22 -39 42 -54c20 -16 48 -25 84 -25s63 9 83 25c20 15 34 34 43 54c11 23 17 50 18 80v101z" />
    <glyph glyph-name="D" unicode="D" horiz-adv-x="372"
d="M40 0h85c100 0 154 20 183 76c28 56 32 147 32 291s-4 236 -32 292c-29 56 -83 76 -183 76h-85v-735zM148 108v519c37 0 58 -4 69 -39c5 -18 9 -44 10 -78c1 -35 1 -82 1 -142s0 -107 -1 -142s-5 -61 -10 -78c-11 -36 -32 -40 -69 -40z" />
    <glyph glyph-name="Eth" unicode="&#xd0;" horiz-adv-x="372"
d="M10 431v-111h30v-320h85c100 0 154 20 183 76c28 56 32 147 32 291s-4 236 -32 292c-29 56 -83 76 -183 76h-85v-304h-30zM148 431v196c37 0 58 -4 69 -39c5 -18 9 -44 10 -78c1 -35 1 -82 1 -142s0 -107 -1 -142s-5 -61 -10 -78c-11 -36 -32 -40 -69 -40v212h41v111h-41
z" />
    <glyph glyph-name="Dcaron" unicode="&#x10e;" horiz-adv-x="372"
d="M134 825h107l69 90h-92l-31 -35l-30 35h-92zM40 0h85c100 0 154 20 183 76c28 56 32 147 32 291s-4 236 -32 292c-29 56 -83 76 -183 76h-85v-735zM148 108v519c37 0 58 -4 69 -39c5 -18 9 -44 10 -78c1 -35 1 -82 1 -142s0 -107 -1 -142s-5 -61 -10 -78
c-11 -36 -32 -40 -69 -40z" />
    <glyph glyph-name="Dcroat" unicode="&#x110;" horiz-adv-x="372"
d="M40 735h85c100 0 154 -20 183 -76c28 -56 32 -148 32 -292s-4 -235 -32 -291c-29 -56 -83 -76 -183 -76h-85v331h-59v79h59v325zM148 331v-223c37 0 58 4 69 40c5 17 9 43 10 78s1 82 1 142s0 107 -1 142c-1 34 -5 60 -10 78c-11 35 -32 39 -69 39v-217h27v-79h-27z" />
    <glyph glyph-name="E" unicode="E" horiz-adv-x="307"
d="M40 735v-735h247v111h-139v202h100v118h-100v193h139v111h-247z" />
    <glyph glyph-name="Eacute" unicode="&#xc9;" horiz-adv-x="307"
d="M272 890h-105l-52 -90h78zM40 735v-735h247v111h-139v202h100v118h-100v193h139v111h-247z" />
    <glyph glyph-name="Ebreve" unicode="&#x114;" horiz-adv-x="307"
d="M265 871l-52 46c-4 -5 -9 -9 -15 -12c-11 -7 -24 -11 -43 -11c-9 0 -17 1 -24 3c-14 4 -25 11 -32 20l-54 -46c8 -9 18 -17 29 -24c19 -12 46 -23 81 -23c17 0 33 2 46 7c27 9 47 23 64 40zM40 735v-735h247v111h-139v202h100v118h-100v193h139v111h-247z" />
    <glyph glyph-name="Ecaron" unicode="&#x11a;" horiz-adv-x="307"
d="M101 825h107l69 90h-92l-31 -35l-30 35h-92zM40 735v-735h247v111h-139v202h100v118h-100v193h139v111h-247z" />
    <glyph glyph-name="Ecircumflex" unicode="&#xca;" horiz-adv-x="307"
d="M217 890h-107l-69 -90h92l30 35l31 -35h92zM40 735v-735h247v111h-139v202h100v118h-100v193h139v111h-247z" />
    <glyph glyph-name="Edieresis" unicode="&#xcb;" horiz-adv-x="307"
d="M46 898v-98h93v98h-93zM187 898v-98h93v98h-93zM40 735v-735h247v111h-139v202h100v118h-100v193h139v111h-247z" />
    <glyph glyph-name="Edotaccent" unicode="&#x116;" horiz-adv-x="307"
d="M104 923v-101h101v101h-101zM40 735v-735h247v111h-139v202h100v118h-100v193h139v111h-247z" />
    <glyph glyph-name="Egrave" unicode="&#xc8;" horiz-adv-x="307"
d="M159 890h-105l79 -90h78zM40 735v-735h247v111h-139v202h100v118h-100v193h139v111h-247z" />
    <glyph glyph-name="Emacron" unicode="&#x112;" horiz-adv-x="307"
d="M58 909v-79h194v79h-194zM40 735v-735h247v111h-139v202h100v118h-100v193h139v111h-247z" />
    <glyph glyph-name="Eogonek" unicode="&#x118;" horiz-adv-x="307"
d="M287 0h-46c-17 -15 -29 -30 -38 -50c-5 -10 -7 -21 -7 -33c0 -29 27 -38 50 -38c17 0 30 4 42 9l-8 -67c-21 -7 -34 -9 -51 -9c-65 0 -102 40 -102 85c0 28 16 53 33 72c9 11 20 22 33 31h-153v735h247v-111h-139v-193h100v-118h-100v-202h139v-111z" />
    <glyph glyph-name="F" unicode="F" horiz-adv-x="301"
d="M297 624v111h-257v-735h108v320h100v111h-100v193h149z" />
    <glyph glyph-name="G" unicode="G" horiz-adv-x="360"
d="M213 471h108v113c-1 29 -7 56 -18 79c-9 20 -23 40 -43 55s-47 25 -83 25s-64 -10 -84 -25s-33 -35 -42 -55c-11 -23 -17 -50 -18 -79v-433c-1 -30 3 -57 12 -80c8 -20 20 -39 38 -54c18 -16 42 -25 77 -25s64 18 84 43l13 -35h64v366h-151v-91h43v-133
c0 -11 -1 -20 -4 -27c-4 -15 -13 -27 -32 -27c-9 0 -16 3 -21 8c-10 11 -15 25 -15 46v442c0 10 1 19 4 27c4 13 13 27 32 27c9 0 17 -3 22 -8c10 -12 14 -26 14 -46v-113z" />
    <glyph glyph-name="Gbreve" unicode="&#x11e;" horiz-adv-x="360"
d="M291 871l-52 46c-4 -5 -9 -9 -15 -12c-11 -7 -24 -11 -43 -11c-9 0 -17 1 -24 3c-14 4 -25 11 -32 20l-54 -46c8 -9 18 -17 29 -24c19 -12 46 -23 81 -23c17 0 33 2 46 7c27 9 47 23 64 40zM213 471h108v113c-1 29 -7 56 -18 79c-9 20 -23 40 -43 55s-47 25 -83 25
s-64 -10 -84 -25s-33 -35 -42 -55c-11 -23 -17 -50 -18 -79v-433c-1 -30 3 -57 12 -80c8 -20 20 -39 38 -54c18 -16 42 -25 77 -25s64 18 84 43l13 -35h64v366h-151v-91h43v-133c0 -11 -1 -20 -4 -27c-4 -15 -13 -27 -32 -27c-9 0 -16 3 -21 8c-10 11 -15 25 -15 46v442
c0 10 1 19 4 27c4 13 13 27 32 27c9 0 17 -3 22 -8c10 -12 14 -26 14 -46v-113z" />
    <glyph glyph-name="Gcircumflex" unicode="&#x11c;" horiz-adv-x="360"
d="M235 915h-107l-69 -90h92l30 35l31 -35h92zM213 471h108v113c-1 29 -7 56 -18 79c-9 20 -23 40 -43 55s-47 25 -83 25s-64 -10 -84 -25s-33 -35 -42 -55c-11 -23 -17 -50 -18 -79v-433c-1 -30 3 -57 12 -80c8 -20 20 -39 38 -54c18 -16 42 -25 77 -25s64 18 84 43l13 -35
h64v366h-151v-91h43v-133c0 -11 -1 -20 -4 -27c-4 -15 -13 -27 -32 -27c-9 0 -16 3 -21 8c-10 11 -15 25 -15 46v442c0 10 1 19 4 27c4 13 13 27 32 27c9 0 17 -3 22 -8c10 -12 14 -26 14 -46v-113z" />
    <glyph glyph-name="Gcommaaccent" unicode="&#x122;" horiz-adv-x="360"
d="M213 471h108v113c-1 29 -7 56 -18 79c-9 20 -23 40 -43 55s-47 25 -83 25s-64 -10 -84 -25s-33 -35 -42 -55c-11 -23 -17 -50 -18 -79v-433c-1 -30 3 -57 12 -80c8 -20 20 -39 38 -54c18 -16 42 -25 77 -25s64 18 84 43l13 -35h64v366h-151v-91h43v-133
c0 -11 -1 -20 -4 -27c-4 -15 -13 -27 -32 -27c-9 0 -16 3 -21 8c-10 11 -15 25 -15 46v442c0 10 1 19 4 27c4 13 13 27 32 27c9 0 17 -3 22 -8c10 -12 14 -26 14 -46v-113zM215 -123v69h-84v-69h31l-20 -65h51z" />
    <glyph glyph-name="Gdotaccent" unicode="&#x120;" horiz-adv-x="360"
d="M131 923v-101h101v101h-101zM213 471h108v113c-1 29 -7 56 -18 79c-9 20 -23 40 -43 55s-47 25 -83 25s-64 -10 -84 -25s-33 -35 -42 -55c-11 -23 -17 -50 -18 -79v-433c-1 -30 3 -57 12 -80c8 -20 20 -39 38 -54c18 -16 42 -25 77 -25s64 18 84 43l13 -35h64v366h-151
v-91h43v-133c0 -11 -1 -20 -4 -27c-4 -15 -13 -27 -32 -27c-9 0 -16 3 -21 8c-10 11 -15 25 -15 46v442c0 10 1 19 4 27c4 13 13 27 32 27c9 0 17 -3 22 -8c10 -12 14 -26 14 -46v-113z" />
    <glyph glyph-name="H" unicode="H" horiz-adv-x="380"
d="M232 320v-320h108v735h-108v-304h-84v304h-108v-735h108v320h84z" />
    <glyph glyph-name="Hbar" unicode="&#x126;" horiz-adv-x="380"
d="M380 627v-79h-40v-548h-108v320h-84v-320h-108v548h-39v79h39v108h108v-108h84v108h108v-108h40zM232 431v117h-84v-117h84z" />
    <glyph glyph-name="Hcircumflex" unicode="&#x124;" horiz-adv-x="380"
d="M245 915h-107l-69 -90h92l30 35l31 -35h92zM232 320v-320h108v735h-108v-304h-84v304h-108v-735h108v320h84z" />
    <glyph glyph-name="I" unicode="I" horiz-adv-x="188"
d="M40 735v-735h108v735h-108z" />
    <glyph glyph-name="IJ" unicode="&#x132;" horiz-adv-x="395"
d="M40 735v-735h108v735h-108zM194 99v-106c64 -4 106 12 131 39s35 64 35 104v599h-108v-582c0 -17 -3 -29 -9 -36c-12 -16 -28 -21 -49 -18z" />
    <glyph glyph-name="Iacute" unicode="&#xcd;" horiz-adv-x="196"
d="M199 890h-105l-52 -90h78zM40 735v-735h108v735h-108z" />
    <glyph glyph-name="Ibreve" unicode="&#x12c;" horiz-adv-x="188"
d="M205 871l-52 46c-4 -5 -9 -9 -15 -12c-11 -7 -24 -11 -43 -11c-9 0 -17 1 -24 3c-14 4 -25 11 -32 20l-54 -46c8 -9 18 -17 29 -24c19 -12 46 -23 81 -23c17 0 33 2 46 7c27 9 47 23 64 40zM40 735v-735h108v735h-108z" />
    <glyph glyph-name="Icircumflex" unicode="&#xce;" horiz-adv-x="181"
d="M144 890h-107l-69 -90h92l30 35l31 -35h92zM36 735v-735h108v735h-108z" />
    <glyph glyph-name="Idieresis" unicode="&#xcf;" horiz-adv-x="182"
d="M-26 898v-98h93v98h-93zM115 898v-98h93v98h-93zM37 735v-735h108v735h-108z" />
    <glyph glyph-name="Idotaccent" unicode="&#x130;" horiz-adv-x="188"
d="M45 923v-101h101v101h-101zM40 735v-735h108v735h-108z" />
    <glyph glyph-name="Igrave" unicode="&#xcc;" horiz-adv-x="196"
d="M102 890h-105l79 -90h78zM48 735v-735h108v735h-108z" />
    <glyph glyph-name="Imacron" unicode="&#x12a;" horiz-adv-x="188"
d="M-2 909v-79h194v79h-194zM40 735v-735h108v735h-108z" />
    <glyph glyph-name="Iogonek" unicode="&#x12e;" horiz-adv-x="188"
d="M148 0h-46c-17 -15 -29 -30 -38 -50c-5 -10 -7 -21 -7 -33c0 -29 27 -38 50 -38c17 0 30 4 42 9l-8 -67c-21 -7 -34 -9 -51 -9c-65 0 -102 40 -102 85c0 28 16 53 33 72c9 11 20 22 33 31h-14v735h108v-735z" />
    <glyph glyph-name="Itilde" unicode="&#x128;" horiz-adv-x="188"
d="M-2 899v-74c5 3 10 5 16 8c11 4 22 8 37 8c16 -1 31 -4 45 -10c13 -6 28 -9 43 -9c7 0 14 1 20 3c12 3 24 8 33 16v74c-5 -3 -10 -5 -16 -8c-11 -4 -22 -8 -37 -8c-15 1 -30 5 -44 11c-14 5 -29 8 -44 8c-7 0 -14 -1 -20 -3c-12 -4 -24 -9 -33 -16zM40 735v-735h108v735
h-108z" />
    <glyph glyph-name="J" unicode="J" horiz-adv-x="207"
d="M6 99v-106c64 -4 106 12 131 39s35 64 35 104v599h-108v-582c0 -17 -3 -29 -9 -36c-12 -16 -28 -21 -49 -18z" />
    <glyph glyph-name="Jcircumflex" unicode="&#x134;" horiz-adv-x="207"
d="M158 915h-107l-69 -90h92l30 35l31 -35h92zM6 99v-106c64 -4 106 12 131 39s35 64 35 104v599h-108v-582c0 -17 -3 -29 -9 -36c-12 -16 -28 -21 -49 -18z" />
    <glyph glyph-name="K" unicode="K" horiz-adv-x="375"
d="M148 735h-108v-735h108v260l25 60l6 15h3l3 -15l75 -320h105l-112 493l99 242h-105l-90 -245l-5 -12h-4v257z" />
    <glyph glyph-name="Kcommaaccent" unicode="&#x136;" horiz-adv-x="375"
d="M148 735h-108v-735h108v260l25 60l6 15h3l3 -15l75 -320h105l-112 493l99 242h-105l-90 -245l-5 -12h-4v257zM215 -123v69h-84v-69h31l-20 -65h51z" />
    <glyph glyph-name="L" unicode="L" horiz-adv-x="295"
d="M40 735v-735h251v100h-143v635h-108z" />
    <glyph glyph-name="Lacute" unicode="&#x139;" horiz-adv-x="295"
d="M227 915h-105l-52 -90h78zM40 735v-735h251v100h-143v635h-108z" />
    <glyph glyph-name="Lcaron" unicode="&#x13d;" horiz-adv-x="295"
d="M289 737v111h-105v-111h35l-35 -130h50zM40 735v-735h251v100h-143v635h-108z" />
    <glyph glyph-name="Ldot" unicode="&#x13f;" horiz-adv-x="295"
d="M40 735v-735h251v100h-143v635h-108zM186 440v-111h105v111h-105z" />
    <glyph glyph-name="Lslash" unicode="&#x141;" horiz-adv-x="307"
d="M20 382v-108l32 25v-299h251v100h-143v283l59 46v108l-59 -46v244h-108v-328z" />
    <glyph glyph-name="M" unicode="M" horiz-adv-x="484"
d="M219 0h46l69 462l4 31h6v-493h100v735h-132l-64 -336l-5 -39h-2l-5 39l-64 336h-132v-735h100v493h6l4 -31z" />
    <glyph glyph-name="N" unicode="N" horiz-adv-x="395"
d="M154 383l105 -383h96v735h-99v-417h-6l-9 34l-105 383h-96v-735h99v417h6z" />
    <glyph glyph-name="Nacute" unicode="&#x143;" horiz-adv-x="395"
d="M277 915h-105l-52 -90h78zM154 383l105 -383h96v735h-99v-417h-6l-9 34l-105 383h-96v-735h99v417h6z" />
    <glyph glyph-name="Ncaron" unicode="&#x147;" horiz-adv-x="395"
d="M145 825h107l69 90h-92l-31 -35l-30 35h-92zM154 383l105 -383h96v735h-99v-417h-6l-9 34l-105 383h-96v-735h99v417h6z" />
    <glyph glyph-name="Ncommaaccent" unicode="&#x145;" horiz-adv-x="395"
d="M154 383l105 -383h96v735h-99v-417h-6l-9 34l-105 383h-96v-735h99v417h6zM215 -123v69h-84v-69h31l-20 -65h51z" />
    <glyph glyph-name="Eng" unicode="&#x14a;" horiz-adv-x="395"
d="M256 735h99v-735c-2 -32 -11 -62 -29 -84c-21 -25 -57 -41 -110 -37v101c17 -3 32 2 42 17c1 1 1 2 2 3h-1l-105 383l-9 34h-6v-417h-99v735h96l105 -383l9 -34h6v417z" />
    <glyph glyph-name="Ntilde" unicode="&#xd1;" horiz-adv-x="395"
d="M101 871v-74c5 3 10 5 16 8c11 4 22 8 37 8c16 -1 31 -4 45 -10c13 -6 28 -9 43 -9c7 0 14 1 20 3c12 3 24 8 33 16v74c-5 -3 -10 -5 -16 -8c-11 -4 -22 -8 -37 -8c-15 1 -30 5 -44 11c-14 5 -29 8 -44 8c-7 0 -14 -1 -20 -3c-12 -4 -24 -9 -33 -16zM154 383l105 -383h96
v735h-99v-417h-6l-9 34l-105 383h-96v-735h99v417h6z" />
    <glyph glyph-name="O" unicode="O" horiz-adv-x="354"
d="M321 151v433c-1 29 -7 56 -18 79c-9 20 -23 40 -43 55s-47 25 -83 25s-64 -10 -84 -25s-33 -35 -42 -55c-11 -23 -17 -50 -18 -79v-433c1 -30 7 -57 18 -80c9 -20 22 -39 42 -54c20 -16 48 -25 84 -25s63 9 83 25c20 15 34 34 43 54c11 23 17 50 18 80zM213 584v-433
c0 -11 -1 -20 -4 -27c-4 -15 -13 -27 -32 -27c-9 0 -16 3 -21 8c-10 11 -15 25 -15 46v433c0 10 1 19 4 27c4 13 13 27 32 27c9 0 17 -3 22 -8c10 -12 14 -26 14 -46z" />
    <glyph glyph-name="Oacute" unicode="&#xd3;" horiz-adv-x="354"
d="M296 890h-105l-52 -90h78zM321 151v433c-1 29 -7 56 -18 79c-9 20 -23 40 -43 55s-47 25 -83 25s-64 -10 -84 -25s-33 -35 -42 -55c-11 -23 -17 -50 -18 -79v-433c1 -30 7 -57 18 -80c9 -20 22 -39 42 -54c20 -16 48 -25 84 -25s63 9 83 25c20 15 34 34 43 54
c11 23 17 50 18 80zM213 584v-433c0 -11 -1 -20 -4 -27c-4 -15 -13 -27 -32 -27c-9 0 -16 3 -21 8c-10 11 -15 25 -15 46v433c0 10 1 19 4 27c4 13 13 27 32 27c9 0 17 -3 22 -8c10 -12 14 -26 14 -46z" />
    <glyph glyph-name="Obreve" unicode="&#x14e;" horiz-adv-x="354"
d="M288 871l-52 46c-4 -5 -9 -9 -15 -12c-11 -7 -24 -11 -43 -11c-9 0 -17 1 -24 3c-14 4 -25 11 -32 20l-54 -46c8 -9 18 -17 29 -24c19 -12 46 -23 81 -23c17 0 33 2 46 7c27 9 47 23 64 40zM321 151v433c-1 29 -7 56 -18 79c-9 20 -23 40 -43 55s-47 25 -83 25
s-64 -10 -84 -25s-33 -35 -42 -55c-11 -23 -17 -50 -18 -79v-433c1 -30 7 -57 18 -80c9 -20 22 -39 42 -54c20 -16 48 -25 84 -25s63 9 83 25c20 15 34 34 43 54c11 23 17 50 18 80zM213 584v-433c0 -11 -1 -20 -4 -27c-4 -15 -13 -27 -32 -27c-9 0 -16 3 -21 8
c-10 11 -15 25 -15 46v433c0 10 1 19 4 27c4 13 13 27 32 27c9 0 17 -3 22 -8c10 -12 14 -26 14 -46z" />
    <glyph glyph-name="Ocircumflex" unicode="&#xd4;" horiz-adv-x="354"
d="M231 890h-107l-69 -90h92l30 35l31 -35h92zM321 151v433c-1 29 -7 56 -18 79c-9 20 -23 40 -43 55s-47 25 -83 25s-64 -10 -84 -25s-33 -35 -42 -55c-11 -23 -17 -50 -18 -79v-433c1 -30 7 -57 18 -80c9 -20 22 -39 42 -54c20 -16 48 -25 84 -25s63 9 83 25
c20 15 34 34 43 54c11 23 17 50 18 80zM213 584v-433c0 -11 -1 -20 -4 -27c-4 -15 -13 -27 -32 -27c-9 0 -16 3 -21 8c-10 11 -15 25 -15 46v433c0 10 1 19 4 27c4 13 13 27 32 27c9 0 17 -3 22 -8c10 -12 14 -26 14 -46z" />
    <glyph glyph-name="Odieresis" unicode="&#xd6;" horiz-adv-x="354"
d="M60 898v-98h93v98h-93zM201 898v-98h93v98h-93zM321 151v433c-1 29 -7 56 -18 79c-9 20 -23 40 -43 55s-47 25 -83 25s-64 -10 -84 -25s-33 -35 -42 -55c-11 -23 -17 -50 -18 -79v-433c1 -30 7 -57 18 -80c9 -20 22 -39 42 -54c20 -16 48 -25 84 -25s63 9 83 25
c20 15 34 34 43 54c11 23 17 50 18 80zM213 584v-433c0 -11 -1 -20 -4 -27c-4 -15 -13 -27 -32 -27c-9 0 -16 3 -21 8c-10 11 -15 25 -15 46v433c0 10 1 19 4 27c4 13 13 27 32 27c9 0 17 -3 22 -8c10 -12 14 -26 14 -46z" />
    <glyph glyph-name="Ograve" unicode="&#xd2;" horiz-adv-x="354"
d="M164 890h-105l79 -90h78zM321 151v433c-1 29 -7 56 -18 79c-9 20 -23 40 -43 55s-47 25 -83 25s-64 -10 -84 -25s-33 -35 -42 -55c-11 -23 -17 -50 -18 -79v-433c1 -30 7 -57 18 -80c9 -20 22 -39 42 -54c20 -16 48 -25 84 -25s63 9 83 25c20 15 34 34 43 54
c11 23 17 50 18 80zM213 584v-433c0 -11 -1 -20 -4 -27c-4 -15 -13 -27 -32 -27c-9 0 -16 3 -21 8c-10 11 -15 25 -15 46v433c0 10 1 19 4 27c4 13 13 27 32 27c9 0 17 -3 22 -8c10 -12 14 -26 14 -46z" />
    <glyph glyph-name="Ohungarumlaut" unicode="&#x150;" horiz-adv-x="354"
d="M183 915h-105l-52 -90h78zM331 915h-105l-52 -90h78zM321 151v433c-1 29 -7 56 -18 79c-9 20 -23 40 -43 55s-47 25 -83 25s-64 -10 -84 -25s-33 -35 -42 -55c-11 -23 -17 -50 -18 -79v-433c1 -30 7 -57 18 -80c9 -20 22 -39 42 -54c20 -16 48 -25 84 -25s63 9 83 25
c20 15 34 34 43 54c11 23 17 50 18 80zM213 584v-433c0 -11 -1 -20 -4 -27c-4 -15 -13 -27 -32 -27c-9 0 -16 3 -21 8c-10 11 -15 25 -15 46v433c0 10 1 19 4 27c4 13 13 27 32 27c9 0 17 -3 22 -8c10 -12 14 -26 14 -46z" />
    <glyph glyph-name="Omacron" unicode="&#x14c;" horiz-adv-x="354"
d="M81 909v-79h194v79h-194zM321 151v433c-1 29 -7 56 -18 79c-9 20 -23 40 -43 55s-47 25 -83 25s-64 -10 -84 -25s-33 -35 -42 -55c-11 -23 -17 -50 -18 -79v-433c1 -30 7 -57 18 -80c9 -20 22 -39 42 -54c20 -16 48 -25 84 -25s63 9 83 25c20 15 34 34 43 54
c11 23 17 50 18 80zM213 584v-433c0 -11 -1 -20 -4 -27c-4 -15 -13 -27 -32 -27c-9 0 -16 3 -21 8c-10 11 -15 25 -15 46v433c0 10 1 19 4 27c4 13 13 27 32 27c9 0 17 -3 22 -8c10 -12 14 -26 14 -46z" />
    <glyph glyph-name="Oslash" unicode="&#xd8;" horiz-adv-x="354"
d="M29 -10h63l7 23c19 -13 45 -21 78 -21c36 0 63 9 83 25c20 15 34 34 43 54c11 23 17 50 18 80v433c0 9 -1 18 -3 28c-3 17 -8 39 -19 60l22 73h-60l-7 -23c-20 13 -45 21 -77 21c-36 0 -64 -10 -84 -25s-33 -35 -42 -55c-11 -23 -17 -50 -18 -79v-433c0 -9 1 -18 2 -27
c3 -16 6 -37 17 -57zM141 355v229c0 10 1 19 4 27c4 13 13 27 32 27c16 0 25 -9 30 -20c4 -12 6 -24 6 -29zM213 389v-238c0 -11 -1 -20 -4 -27c-4 -15 -13 -27 -32 -27c-9 0 -16 3 -21 8c-10 11 -15 25 -15 46z" />
    <glyph glyph-name="Otilde" unicode="&#xd5;" horiz-adv-x="354"
d="M80 871v-74c5 3 10 5 16 8c11 4 22 8 37 8c16 -1 31 -4 45 -10c13 -6 28 -9 43 -9c7 0 14 1 20 3c12 3 24 8 33 16v74c-5 -3 -10 -5 -16 -8c-11 -4 -22 -8 -37 -8c-15 1 -30 5 -44 11c-14 5 -29 8 -44 8c-7 0 -14 -1 -20 -3c-12 -4 -24 -9 -33 -16zM321 151v433
c-1 29 -7 56 -18 79c-9 20 -23 40 -43 55s-47 25 -83 25s-64 -10 -84 -25s-33 -35 -42 -55c-11 -23 -17 -50 -18 -79v-433c1 -30 7 -57 18 -80c9 -20 22 -39 42 -54c20 -16 48 -25 84 -25s63 9 83 25c20 15 34 34 43 54c11 23 17 50 18 80zM213 584v-433
c0 -11 -1 -20 -4 -27c-4 -15 -13 -27 -32 -27c-9 0 -16 3 -21 8c-10 11 -15 25 -15 46v433c0 10 1 19 4 27c4 13 13 27 32 27c9 0 17 -3 22 -8c10 -12 14 -26 14 -46z" />
    <glyph glyph-name="OE" unicode="&#x152;" horiz-adv-x="480"
d="M177 0h283v111h-139v202h100v118h-100v193h139v111h-283c-36 0 -64 -9 -84 -23s-33 -34 -42 -53c-11 -22 -17 -47 -18 -75v-433c1 -29 7 -54 18 -76c9 -19 22 -37 42 -51s48 -24 84 -24zM213 591v-440c0 -11 -1 -20 -4 -27c-4 -15 -13 -27 -32 -27c-9 0 -16 3 -21 8
c-10 11 -15 25 -15 46v433c0 10 1 19 4 27c4 13 13 27 32 27c15 0 24 -8 29 -18s7 -22 7 -29z" />
    <glyph glyph-name="P" unicode="P" horiz-adv-x="352"
d="M40 735v-735h108v294c47 0 94 14 130 48s60 89 60 173s-24 140 -60 174s-83 46 -130 46h-108zM148 404v221c33 0 54 -8 66 -26s15 -47 15 -88s-3 -68 -15 -84c-12 -17 -33 -23 -66 -23z" />
    <glyph glyph-name="Q" unicode="Q" horiz-adv-x="356"
d="M321 151v433c-1 29 -7 56 -18 79c-9 20 -23 40 -43 55s-47 25 -83 25s-64 -10 -84 -25s-33 -35 -42 -55c-11 -23 -17 -50 -18 -79v-433c1 -30 7 -57 18 -80c9 -20 22 -39 42 -54c20 -16 48 -25 84 -25c21 0 39 4 54 9c19 -31 50 -57 111 -57v92c-21 4 -34 14 -43 26
c5 11 10 21 13 32c6 21 9 40 9 57zM213 584v-433c0 -11 -1 -20 -4 -27c-4 -15 -13 -27 -32 -27c-9 0 -16 3 -21 8c-10 11 -15 25 -15 46v433c0 10 1 19 4 27c4 13 13 27 32 27c9 0 17 -3 22 -8c10 -12 14 -26 14 -46z" />
    <glyph glyph-name="R" unicode="R" horiz-adv-x="361"
d="M233 0h108l-69 356c41 28 60 94 60 167c0 139 -55 212 -184 212h-108v-735h108v310h29zM148 410v218c15 0 35 -1 51 -15s29 -42 29 -94s-13 -79 -29 -93s-36 -16 -51 -16z" />
    <glyph glyph-name="Racute" unicode="&#x154;" horiz-adv-x="361"
d="M260 915h-105l-52 -90h78zM233 0h108l-69 356c41 28 60 94 60 167c0 139 -55 212 -184 212h-108v-735h108v310h29zM148 410v218c15 0 35 -1 51 -15s29 -42 29 -94s-13 -79 -29 -93s-36 -16 -51 -16z" />
    <glyph glyph-name="Rcaron" unicode="&#x158;" horiz-adv-x="361"
d="M128 825h107l69 90h-92l-31 -35l-30 35h-92zM233 0h108l-69 356c41 28 60 94 60 167c0 139 -55 212 -184 212h-108v-735h108v310h29zM148 410v218c15 0 35 -1 51 -15s29 -42 29 -94s-13 -79 -29 -93s-36 -16 -51 -16z" />
    <glyph glyph-name="Rcommaaccent" unicode="&#x156;" horiz-adv-x="361"
d="M233 0h108l-69 356c41 28 60 94 60 167c0 139 -55 212 -184 212h-108v-735h108v310h29zM148 410v218c15 0 35 -1 51 -15s29 -42 29 -94s-13 -79 -29 -93s-36 -16 -51 -16zM215 -123v69h-84v-69h31l-20 -65h51z" />
    <glyph glyph-name="S" unicode="S" horiz-adv-x="343"
d="M219 538l106 10c0 41 -6 90 -27 130c-21 39 -59 66 -124 65c-51 -1 -86 -24 -109 -56c-23 -33 -32 -76 -32 -116c0 -20 3 -40 9 -59c11 -39 29 -77 53 -114s47 -71 68 -101c10 -15 19 -30 28 -44c16 -29 28 -57 28 -81c0 -47 -12 -81 -44 -81c-23 0 -35 16 -42 40
c-8 23 -9 54 -9 85l-106 -10c0 -55 5 -108 27 -148s61 -66 130 -66c59 0 96 22 119 56s31 80 31 129c0 40 -13 78 -32 115s-44 75 -69 112c-21 31 -42 60 -58 88s-27 54 -27 79c0 43 9 72 37 73c17 0 28 -14 35 -34c7 -21 8 -48 8 -72z" />
    <glyph glyph-name="Sacute" unicode="&#x15a;" horiz-adv-x="343"
d="M251 915h-105l-52 -90h78zM219 538l106 10c0 41 -6 90 -27 130c-21 39 -59 66 -124 65c-51 -1 -86 -24 -109 -56c-23 -33 -32 -76 -32 -116c0 -20 3 -40 9 -59c11 -39 29 -77 53 -114s47 -71 68 -101c10 -15 19 -30 28 -44c16 -29 28 -57 28 -81c0 -47 -12 -81 -44 -81
c-23 0 -35 16 -42 40c-8 23 -9 54 -9 85l-106 -10c0 -55 5 -108 27 -148s61 -66 130 -66c59 0 96 22 119 56s31 80 31 129c0 40 -13 78 -32 115s-44 75 -69 112c-21 31 -42 60 -58 88s-27 54 -27 79c0 43 9 72 37 73c17 0 28 -14 35 -34c7 -21 8 -48 8 -72z" />
    <glyph glyph-name="Scaron" unicode="&#x160;" horiz-adv-x="343"
d="M118 800h107l69 90h-92l-31 -35l-30 35h-92zM219 538l106 10c0 41 -6 90 -27 130c-21 39 -59 66 -124 65c-51 -1 -86 -24 -109 -56c-23 -33 -32 -76 -32 -116c0 -20 3 -40 9 -59c11 -39 29 -77 53 -114s47 -71 68 -101c10 -15 19 -30 28 -44c16 -29 28 -57 28 -81
c0 -47 -12 -81 -44 -81c-23 0 -35 16 -42 40c-8 23 -9 54 -9 85l-106 -10c0 -55 5 -108 27 -148s61 -66 130 -66c59 0 96 22 119 56s31 80 31 129c0 40 -13 78 -32 115s-44 75 -69 112c-21 31 -42 60 -58 88s-27 54 -27 79c0 43 9 72 37 73c17 0 28 -14 35 -34
c7 -21 8 -48 8 -72z" />
    <glyph glyph-name="Scedilla" unicode="&#x15e;" horiz-adv-x="343"
d="M219 538l106 10c0 41 -6 90 -27 130c-21 39 -59 66 -124 65c-51 -1 -86 -24 -109 -56c-23 -33 -32 -76 -32 -116c0 -20 3 -40 9 -59c11 -39 29 -77 53 -114s47 -71 68 -101c10 -15 19 -30 28 -44c16 -29 28 -57 28 -81c0 -47 -12 -81 -44 -81c-23 0 -35 16 -42 40
c-8 23 -9 54 -9 85l-106 -10c0 -55 5 -108 27 -148s61 -66 130 -66c59 0 96 22 119 56s31 80 31 129c0 40 -13 78 -32 115s-44 75 -69 112c-21 31 -42 60 -58 88s-27 54 -27 79c0 43 9 72 37 73c17 0 28 -14 35 -34c7 -21 8 -48 8 -72zM215 -123v69h-84v-69h31l-20 -65h51z
" />
    <glyph glyph-name="Scircumflex" unicode="&#x15c;" horiz-adv-x="343"
d="M226 915h-107l-69 -90h92l30 35l31 -35h92zM219 538l106 10c0 41 -6 90 -27 130c-21 39 -59 66 -124 65c-51 -1 -86 -24 -109 -56c-23 -33 -32 -76 -32 -116c0 -20 3 -40 9 -59c11 -39 29 -77 53 -114s47 -71 68 -101c10 -15 19 -30 28 -44c16 -29 28 -57 28 -81
c0 -47 -12 -81 -44 -81c-23 0 -35 16 -42 40c-8 23 -9 54 -9 85l-106 -10c0 -55 5 -108 27 -148s61 -66 130 -66c59 0 96 22 119 56s31 80 31 129c0 40 -13 78 -32 115s-44 75 -69 112c-21 31 -42 60 -58 88s-27 54 -27 79c0 43 9 72 37 73c17 0 28 -14 35 -34
c7 -21 8 -48 8 -72z" />
    <glyph glyph-name="T" unicode="T" horiz-adv-x="316"
d="M2 624h102v-624h108v624h102v111h-312v-111z" />
    <glyph glyph-name="Tbar" unicode="&#x166;" horiz-adv-x="316"
d="M314 624h-102v-74h47v-79h-47v-471h-108v471h-39v79h39v74h-102v111h312v-111z" />
    <glyph glyph-name="Tcaron" unicode="&#x164;" horiz-adv-x="316"
d="M106 825h107l69 90h-92l-31 -35l-30 35h-92zM2 624h102v-624h108v624h102v111h-312v-111z" />
    <glyph glyph-name="uni021A" unicode="&#x21a;" horiz-adv-x="316"
d="M2 624h102v-624h108v624h102v111h-312v-111zM215 -123v69h-84v-69h31l-20 -65h51z" />
    <glyph glyph-name="U" unicode="U" horiz-adv-x="366"
d="M327 735h-108v-584c0 -11 -1 -20 -4 -27c-4 -15 -13 -27 -32 -27c-9 0 -16 3 -21 8c-10 11 -15 25 -15 46v584h-108v-584c1 -30 7 -57 18 -80c9 -20 22 -39 42 -54c20 -16 48 -25 84 -25s63 9 83 25c20 15 34 34 43 54c11 23 17 50 18 80v584z" />
    <glyph glyph-name="Uacute" unicode="&#xda;" horiz-adv-x="366"
d="M307 890h-105l-52 -90h78zM327 735h-108v-584c0 -11 -1 -20 -4 -27c-4 -15 -13 -27 -32 -27c-9 0 -16 3 -21 8c-10 11 -15 25 -15 46v584h-108v-584c1 -30 7 -57 18 -80c9 -20 22 -39 42 -54c20 -16 48 -25 84 -25s63 9 83 25c20 15 34 34 43 54c11 23 17 50 18 80v584z
" />
    <glyph glyph-name="Ubreve" unicode="&#x16c;" horiz-adv-x="366"
d="M294 871l-52 46c-4 -5 -9 -9 -15 -12c-11 -7 -24 -11 -43 -11c-9 0 -17 1 -24 3c-14 4 -25 11 -32 20l-54 -46c8 -9 18 -17 29 -24c19 -12 46 -23 81 -23c17 0 33 2 46 7c27 9 47 23 64 40zM327 735h-108v-584c0 -11 -1 -20 -4 -27c-4 -15 -13 -27 -32 -27
c-9 0 -16 3 -21 8c-10 11 -15 25 -15 46v584h-108v-584c1 -30 7 -57 18 -80c9 -20 22 -39 42 -54c20 -16 48 -25 84 -25s63 9 83 25c20 15 34 34 43 54c11 23 17 50 18 80v584z" />
    <glyph glyph-name="Ucircumflex" unicode="&#xdb;" horiz-adv-x="366"
d="M237 890h-107l-69 -90h92l30 35l31 -35h92zM327 735h-108v-584c0 -11 -1 -20 -4 -27c-4 -15 -13 -27 -32 -27c-9 0 -16 3 -21 8c-10 11 -15 25 -15 46v584h-108v-584c1 -30 7 -57 18 -80c9 -20 22 -39 42 -54c20 -16 48 -25 84 -25s63 9 83 25c20 15 34 34 43 54
c11 23 17 50 18 80v584z" />
    <glyph glyph-name="Udieresis" unicode="&#xdc;" horiz-adv-x="366"
d="M66 898v-98h93v98h-93zM207 898v-98h93v98h-93zM327 735h-108v-584c0 -11 -1 -20 -4 -27c-4 -15 -13 -27 -32 -27c-9 0 -16 3 -21 8c-10 11 -15 25 -15 46v584h-108v-584c1 -30 7 -57 18 -80c9 -20 22 -39 42 -54c20 -16 48 -25 84 -25s63 9 83 25c20 15 34 34 43 54
c11 23 17 50 18 80v584z" />
    <glyph glyph-name="Ugrave" unicode="&#xd9;" horiz-adv-x="366"
d="M176 890h-105l79 -90h78zM327 735h-108v-584c0 -11 -1 -20 -4 -27c-4 -15 -13 -27 -32 -27c-9 0 -16 3 -21 8c-10 11 -15 25 -15 46v584h-108v-584c1 -30 7 -57 18 -80c9 -20 22 -39 42 -54c20 -16 48 -25 84 -25s63 9 83 25c20 15 34 34 43 54c11 23 17 50 18 80v584z
" />
    <glyph glyph-name="Uhungarumlaut" unicode="&#x170;" horiz-adv-x="366"
d="M189 915h-105l-52 -90h78zM337 915h-105l-52 -90h78zM327 735h-108v-584c0 -11 -1 -20 -4 -27c-4 -15 -13 -27 -32 -27c-9 0 -16 3 -21 8c-10 11 -15 25 -15 46v584h-108v-584c1 -30 7 -57 18 -80c9 -20 22 -39 42 -54c20 -16 48 -25 84 -25s63 9 83 25
c20 15 34 34 43 54c11 23 17 50 18 80v584z" />
    <glyph glyph-name="Umacron" unicode="&#x16a;" horiz-adv-x="366"
d="M87 909v-79h194v79h-194zM327 735h-108v-584c0 -11 -1 -20 -4 -27c-4 -15 -13 -27 -32 -27c-9 0 -16 3 -21 8c-10 11 -15 25 -15 46v584h-108v-584c1 -30 7 -57 18 -80c9 -20 22 -39 42 -54c20 -16 48 -25 84 -25s63 9 83 25c20 15 34 34 43 54c11 23 17 50 18 80v584z
" />
    <glyph glyph-name="Uogonek" unicode="&#x172;" horiz-adv-x="366"
d="M235 0h47c-17 -15 -29 -30 -38 -50c-5 -10 -7 -21 -7 -33c0 -29 27 -38 50 -38c17 0 30 4 42 9l-8 -67c-21 -7 -34 -9 -51 -9c-65 0 -102 40 -102 85c0 28 16 53 33 72c9 11 19 21 32 30c-14 -4 -31 -7 -50 -7c-36 0 -64 9 -84 25c-20 15 -33 34 -42 54
c-11 23 -17 50 -18 80v584h108v-584c0 -21 5 -35 15 -46c5 -5 12 -8 21 -8c19 0 28 12 32 27c3 7 4 16 4 27v584h108v-584c-1 -30 -7 -57 -18 -80c-9 -20 -23 -39 -43 -54c-9 -7 -19 -13 -31 -17z" />
    <glyph glyph-name="Uring" unicode="&#x16e;" horiz-adv-x="366"
d="M110 882c0 -41 34 -70 75 -70s74 29 74 70s-33 70 -74 70s-75 -29 -75 -70zM148 882c0 19 18 35 37 35s37 -16 37 -35s-18 -35 -37 -35s-37 16 -37 35zM327 735h-108v-584c0 -11 -1 -20 -4 -27c-4 -15 -13 -27 -32 -27c-9 0 -16 3 -21 8c-10 11 -15 25 -15 46v584h-108
v-584c1 -30 7 -57 18 -80c9 -20 22 -39 42 -54c20 -16 48 -25 84 -25s63 9 83 25c20 15 34 34 43 54c11 23 17 50 18 80v584z" />
    <glyph glyph-name="Utilde" unicode="&#x168;" horiz-adv-x="366"
d="M87 899v-74c5 3 10 5 16 8c11 4 22 8 37 8c16 -1 31 -4 45 -10c13 -6 28 -9 43 -9c7 0 14 1 20 3c12 3 24 8 33 16v74c-5 -3 -10 -5 -16 -8c-11 -4 -22 -8 -37 -8c-15 1 -30 5 -44 11c-14 5 -29 8 -44 8c-7 0 -14 -1 -20 -3c-12 -4 -24 -9 -33 -16zM327 735h-108v-584
c0 -11 -1 -20 -4 -27c-4 -15 -13 -27 -32 -27c-9 0 -16 3 -21 8c-10 11 -15 25 -15 46v584h-108v-584c1 -30 7 -57 18 -80c9 -20 22 -39 42 -54c20 -16 48 -25 84 -25s63 9 83 25c20 15 34 34 43 54c11 23 17 50 18 80v584z" />
    <glyph glyph-name="V" unicode="V" horiz-adv-x="350"
d="M236 735l-54 -404l-4 -31h-6l-4 31l-54 404h-105l112 -735h108l112 735h-105z" />
    <glyph glyph-name="W" unicode="W" horiz-adv-x="506"
d="M195 0l50 348l6 43h4l6 -43l50 -348h84l99 735h-100l-43 -382l-2 -24h-8l-3 24l-46 382h-78l-46 -382l-3 -24h-8l-2 24l-43 382h-100l99 -735h84z" />
    <glyph glyph-name="Wcircumflex" unicode="&#x174;" horiz-adv-x="506"
d="M306 915h-107l-69 -90h92l30 35l31 -35h92zM195 0l50 348l6 43h4l6 -43l50 -348h84l99 735h-100l-43 -382l-2 -24h-8l-3 24l-46 382h-78l-46 -382l-3 -24h-8l-2 24l-43 382h-100l99 -735h84z" />
    <glyph glyph-name="X" unicode="X" horiz-adv-x="360"
d="M114 0l62 219l2 9h4l2 -9l62 -219h106l-119 386l117 349h-106l-59 -186l-3 -9h-4l-3 9l-59 186h-106l117 -349l-119 -386h106z" />
    <glyph glyph-name="Y" unicode="Y" horiz-adv-x="342"
d="M167 500l-54 235h-106l110 -422v-313h108v313l110 422h-106l-54 -235l-3 -7h-2z" />
    <glyph glyph-name="Yacute" unicode="&#xdd;" horiz-adv-x="344"
d="M281 890h-105l-52 -90h78zM168 500l-54 235h-106l110 -422v-313h108v313l110 422h-106l-54 -235l-3 -7h-2z" />
    <glyph glyph-name="Ycircumflex" unicode="&#x176;" horiz-adv-x="342"
d="M226 915h-107l-69 -90h92l30 35l31 -35h92zM167 500l-54 235h-106l110 -422v-313h108v313l110 422h-106l-54 -235l-3 -7h-2z" />
    <glyph glyph-name="Ydieresis" unicode="&#x178;" horiz-adv-x="344"
d="M55 898v-98h93v98h-93zM196 898v-98h93v98h-93zM168 500l-54 235h-106l110 -422v-313h108v313l110 422h-106l-54 -235l-3 -7h-2z" />
    <glyph glyph-name="Z" unicode="Z" horiz-adv-x="306"
d="M10 116v-116h286v107h-172l172 521v107h-262v-107h145z" />
    <glyph glyph-name="Zacute" unicode="&#x179;" horiz-adv-x="306"
d="M233 915h-105l-52 -90h78zM10 116v-116h286v107h-172l172 521v107h-262v-107h145z" />
    <glyph glyph-name="Zcaron" unicode="&#x17d;" horiz-adv-x="306"
d="M112 800h107l69 90h-92l-31 -35l-30 35h-92zM10 116v-116h286v107h-172l172 521v107h-262v-107h145z" />
    <glyph glyph-name="Zdotaccent" unicode="&#x17b;" horiz-adv-x="306"
d="M104 923v-101h101v101h-101zM10 116v-116h286v107h-172l172 521v107h-262v-107h145z" />
    <glyph glyph-name="a" unicode="a" horiz-adv-x="323"
d="M193 417v-60c-4 -11 -23 -20 -48 -33s-55 -32 -79 -62s-42 -74 -42 -135c0 -57 14 -91 31 -110c16 -20 37 -25 50 -25c20 0 39 8 53 19s23 24 28 33h7c0 -7 0 -33 9 -44h99c-4 24 -7 46 -7 95v336c0 36 -14 67 -37 89s-53 35 -86 35c-39 0 -73 -16 -97 -43
s-39 -63 -39 -103v-23h101v26s1 18 2 26c3 16 10 29 27 29c13 0 21 -7 25 -17c3 -10 3 -24 3 -33zM193 264v-140c0 -19 -19 -33 -42 -33c-12 0 -19 9 -23 21c-4 11 -5 23 -5 30c0 52 21 101 70 122z" />
    <glyph glyph-name="aacute" unicode="&#xe1;" horiz-adv-x="333"
d="M286 727h-105l-52 -90h78zM193 417v-60c-4 -11 -23 -20 -48 -33s-55 -32 -79 -62s-42 -74 -42 -135c0 -57 14 -91 31 -110c16 -20 37 -25 50 -25c20 0 39 8 53 19s23 24 28 33h7c0 -7 0 -33 9 -44h99c-4 24 -7 46 -7 95v336c0 36 -14 67 -37 89s-53 35 -86 35
c-39 0 -73 -16 -97 -43s-39 -63 -39 -103v-23h101v26s1 18 2 26c3 16 10 29 27 29c13 0 21 -7 25 -17c3 -10 3 -24 3 -33zM193 264v-140c0 -19 -19 -33 -42 -33c-12 0 -19 9 -23 21c-4 11 -5 23 -5 30c0 52 21 101 70 122z" />
    <glyph glyph-name="abreve" unicode="&#x103;" horiz-adv-x="333"
d="M278 683l-52 46c-4 -5 -9 -9 -15 -12c-11 -7 -24 -11 -43 -11c-9 0 -17 1 -24 3c-14 4 -25 11 -32 20l-54 -46c8 -9 18 -17 29 -24c19 -12 46 -23 81 -23c17 0 33 2 46 7c27 9 47 23 64 40zM193 417v-60c-4 -11 -23 -20 -48 -33s-55 -32 -79 -62s-42 -74 -42 -135
c0 -57 14 -91 31 -110c16 -20 37 -25 50 -25c20 0 39 8 53 19s23 24 28 33h7c0 -7 0 -33 9 -44h99c-4 24 -7 46 -7 95v336c0 36 -14 67 -37 89s-53 35 -86 35c-39 0 -73 -16 -97 -43s-39 -63 -39 -103v-23h101v26s1 18 2 26c3 16 10 29 27 29c13 0 21 -7 25 -17
c3 -10 3 -24 3 -33zM193 264v-140c0 -19 -19 -33 -42 -33c-12 0 -19 9 -23 21c-4 11 -5 23 -5 30c0 52 21 101 70 122z" />
    <glyph glyph-name="acircumflex" unicode="&#xe2;" horiz-adv-x="333"
d="M220 727h-107l-69 -90h92l30 35l31 -35h92zM193 417v-60c-4 -11 -23 -20 -48 -33s-55 -32 -79 -62s-42 -74 -42 -135c0 -57 14 -91 31 -110c16 -20 37 -25 50 -25c20 0 39 8 53 19s23 24 28 33h7c0 -7 0 -33 9 -44h99c-4 24 -7 46 -7 95v336c0 36 -14 67 -37 89
s-53 35 -86 35c-39 0 -73 -16 -97 -43s-39 -63 -39 -103v-23h101v26s1 18 2 26c3 16 10 29 27 29c13 0 21 -7 25 -17c3 -10 3 -24 3 -33zM193 264v-140c0 -19 -19 -33 -42 -33c-12 0 -19 9 -23 21c-4 11 -5 23 -5 30c0 52 21 101 70 122z" />
    <glyph glyph-name="adieresis" unicode="&#xe4;" horiz-adv-x="333"
d="M50 735v-98h93v98h-93zM191 735v-98h93v98h-93zM193 417v-60c-4 -11 -23 -20 -48 -33s-55 -32 -79 -62s-42 -74 -42 -135c0 -57 14 -91 31 -110c16 -20 37 -25 50 -25c20 0 39 8 53 19s23 24 28 33h7c0 -7 0 -33 9 -44h99c-4 24 -7 46 -7 95v336c0 36 -14 67 -37 89
s-53 35 -86 35c-39 0 -73 -16 -97 -43s-39 -63 -39 -103v-23h101v26s1 18 2 26c3 16 10 29 27 29c13 0 21 -7 25 -17c3 -10 3 -24 3 -33zM193 264v-140c0 -19 -19 -33 -42 -33c-12 0 -19 9 -23 21c-4 11 -5 23 -5 30c0 52 21 101 70 122z" />
    <glyph glyph-name="agrave" unicode="&#xe0;" horiz-adv-x="333"
d="M155 727h-105l79 -90h78zM193 417v-60c-4 -11 -23 -20 -48 -33s-55 -32 -79 -62s-42 -74 -42 -135c0 -57 14 -91 31 -110c16 -20 37 -25 50 -25c20 0 39 8 53 19s23 24 28 33h7c0 -7 0 -33 9 -44h99c-4 24 -7 46 -7 95v336c0 36 -14 67 -37 89s-53 35 -86 35
c-39 0 -73 -16 -97 -43s-39 -63 -39 -103v-23h101v26s1 18 2 26c3 16 10 29 27 29c13 0 21 -7 25 -17c3 -10 3 -24 3 -33zM193 264v-140c0 -19 -19 -33 -42 -33c-12 0 -19 9 -23 21c-4 11 -5 23 -5 30c0 52 21 101 70 122z" />
    <glyph glyph-name="amacron" unicode="&#x101;" horiz-adv-x="333"
d="M71 721v-79h194v79h-194zM193 417v-60c-4 -11 -23 -20 -48 -33s-55 -32 -79 -62s-42 -74 -42 -135c0 -57 14 -91 31 -110c16 -20 37 -25 50 -25c20 0 39 8 53 19s23 24 28 33h7c0 -7 0 -33 9 -44h99c-4 24 -7 46 -7 95v336c0 36 -14 67 -37 89s-53 35 -86 35
c-39 0 -73 -16 -97 -43s-39 -63 -39 -103v-23h101v26s1 18 2 26c3 16 10 29 27 29c13 0 21 -7 25 -17c3 -10 3 -24 3 -33zM193 264v-140c0 -19 -19 -33 -42 -33c-12 0 -19 9 -23 21c-4 11 -5 23 -5 30c0 52 21 101 70 122z" />
    <glyph glyph-name="aogonek" unicode="&#x105;" horiz-adv-x="333"
d="M301 0h-46c-17 -15 -29 -30 -38 -50c-5 -10 -7 -21 -7 -33c0 -29 27 -38 50 -38c17 0 30 4 42 9l-8 -67c-21 -7 -34 -9 -51 -9c-65 0 -102 40 -102 85c0 28 16 53 33 72c9 11 20 22 33 31h-5c-9 11 -9 37 -9 44h-7c-5 -9 -14 -22 -28 -33s-33 -19 -53 -19
c-13 0 -34 5 -50 25c-17 19 -31 53 -31 110c0 61 18 105 42 135s54 49 79 62s44 22 48 33v60c0 9 0 23 -3 33c-4 10 -12 17 -25 17c-17 0 -24 -13 -27 -29c-1 -8 -2 -17 -2 -26v-26h-101v23c0 40 15 76 39 103s58 43 97 43c33 0 63 -13 86 -35s37 -53 37 -89v-336
c0 -49 3 -71 7 -95zM193 124v140c-49 -21 -70 -70 -70 -122c0 -7 1 -19 5 -30c4 -12 11 -21 23 -21c23 0 42 14 42 33z" />
    <glyph glyph-name="aring" unicode="&#xe5;" horiz-adv-x="333"
d="M92 694c0 -41 34 -70 75 -70s74 29 74 70s-33 70 -74 70s-75 -29 -75 -70zM130 694c0 19 18 35 37 35s37 -16 37 -35s-18 -35 -37 -35s-37 16 -37 35zM193 417v-60c-4 -11 -23 -20 -48 -33s-55 -32 -79 -62s-42 -74 -42 -135c0 -57 14 -91 31 -110c16 -20 37 -25 50 -25
c20 0 39 8 53 19s23 24 28 33h7c0 -7 0 -33 9 -44h99c-4 24 -7 46 -7 95v336c0 36 -14 67 -37 89s-53 35 -86 35c-39 0 -73 -16 -97 -43s-39 -63 -39 -103v-23h101v26s1 18 2 26c3 16 10 29 27 29c13 0 21 -7 25 -17c3 -10 3 -24 3 -33zM193 264v-140c0 -19 -19 -33 -42 -33
c-12 0 -19 9 -23 21c-4 11 -5 23 -5 30c0 52 21 101 70 122z" />
    <glyph glyph-name="atilde" unicode="&#xe3;" horiz-adv-x="333"
d="M70 711v-74c5 3 10 5 16 8c11 4 22 8 37 8c16 -1 31 -4 45 -10c13 -6 28 -9 43 -9c7 0 14 1 20 3c12 3 24 8 33 16v74c-5 -3 -10 -5 -16 -8c-11 -4 -22 -8 -37 -8c-15 1 -30 5 -44 11c-14 5 -29 8 -44 8c-7 0 -14 -1 -20 -3c-12 -4 -24 -9 -33 -16zM193 417v-60
c-4 -11 -23 -20 -48 -33s-55 -32 -79 -62s-42 -74 -42 -135c0 -57 14 -91 31 -110c16 -20 37 -25 50 -25c20 0 39 8 53 19s23 24 28 33h7c0 -7 0 -33 9 -44h99c-4 24 -7 46 -7 95v336c0 36 -14 67 -37 89s-53 35 -86 35c-39 0 -73 -16 -97 -43s-39 -63 -39 -103v-23h101v26
s1 18 2 26c3 16 10 29 27 29c13 0 21 -7 25 -17c3 -10 3 -24 3 -33zM193 264v-140c0 -19 -19 -33 -42 -33c-12 0 -19 9 -23 21c-4 11 -5 23 -5 30c0 52 21 101 70 122z" />
    <glyph glyph-name="ae" unicode="&#xe6;" horiz-adv-x="483"
d="M454 196h-94v-60c0 -11 -1 -20 -4 -28c-4 -15 -13 -27 -32 -27c-9 0 -16 3 -21 8c-9 11 -15 26 -16 47v119h167v159c-1 26 -7 49 -16 70c-16 35 -49 71 -114 71c-35 0 -60 -10 -79 -25c-22 17 -47 25 -74 25c-39 0 -73 -16 -97 -43s-39 -63 -39 -103v-23h101v26
s1 18 2 26c3 16 10 29 27 29c13 0 21 -7 25 -17c3 -10 3 -24 3 -33v-60c-4 -11 -23 -20 -48 -33s-55 -32 -79 -62s-42 -74 -42 -135c0 -57 14 -91 31 -110c16 -20 37 -25 50 -25c44 0 80 28 108 64c17 -33 49 -64 110 -64c33 0 58 7 76 22c36 29 52 66 55 119v63zM287 334
v77c1 11 2 20 5 28c5 15 13 28 32 28c9 0 17 -3 22 -8c10 -12 14 -27 14 -48v-77h-73zM193 264v-140c0 -19 -19 -33 -42 -33c-12 0 -19 9 -23 21c-4 11 -5 23 -5 30c0 52 21 101 70 122z" />
    <glyph glyph-name="b" unicode="b" horiz-adv-x="335"
d="M40 735v-735h101v36c9 -8 17 -15 26 -22c15 -11 35 -22 54 -22c28 0 47 16 60 37c12 20 18 47 18 70v349c0 23 -6 50 -18 71c-13 20 -32 36 -60 36c-9 0 -19 -2 -28 -7c-20 -9 -35 -21 -52 -37v224h-101zM141 120v307c0 16 15 33 30 33s27 -14 27 -33v-307
c0 -19 -12 -33 -27 -33s-30 14 -30 33z" />
    <glyph glyph-name="c" unicode="c" horiz-adv-x="315"
d="M133 126v295c0 20 1 44 28 44c23 0 29 -11 29 -44v-66h101v43c0 61 -11 100 -33 124s-54 33 -97 33c-36 0 -69 -10 -92 -35s-37 -66 -37 -127v-239c0 -61 14 -102 37 -127s56 -35 92 -35c43 0 75 9 97 33s33 63 33 124v53h-101v-76c0 -33 -6 -44 -29 -44
c-27 0 -28 24 -28 44z" />
    <glyph glyph-name="cacute" unicode="&#x107;" horiz-adv-x="315"
d="M237 727h-105l-52 -90h78zM133 126v295c0 20 1 44 28 44c23 0 29 -11 29 -44v-66h101v43c0 61 -11 100 -33 124s-54 33 -97 33c-36 0 -69 -10 -92 -35s-37 -66 -37 -127v-239c0 -61 14 -102 37 -127s56 -35 92 -35c43 0 75 9 97 33s33 63 33 124v53h-101v-76
c0 -33 -6 -44 -29 -44c-27 0 -28 24 -28 44z" />
    <glyph glyph-name="ccaron" unicode="&#x10d;" horiz-adv-x="315"
d="M105 637h107l69 90h-92l-31 -35l-30 35h-92zM133 126v295c0 20 1 44 28 44c23 0 29 -11 29 -44v-66h101v43c0 61 -11 100 -33 124s-54 33 -97 33c-36 0 -69 -10 -92 -35s-37 -66 -37 -127v-239c0 -61 14 -102 37 -127s56 -35 92 -35c43 0 75 9 97 33s33 63 33 124v53
h-101v-76c0 -33 -6 -44 -29 -44c-27 0 -28 24 -28 44z" />
    <glyph glyph-name="ccedilla" unicode="&#xe7;" horiz-adv-x="315"
d="M133 126v295c0 20 1 44 28 44c23 0 29 -11 29 -44v-66h101v43c0 61 -11 100 -33 124s-54 33 -97 33c-36 0 -69 -10 -92 -35s-37 -66 -37 -127v-239c0 -61 14 -102 37 -127s56 -35 92 -35c43 0 75 9 97 33s33 63 33 124v53h-101v-76c0 -33 -6 -44 -29 -44
c-27 0 -28 24 -28 44zM200 -123v69h-84v-69h31l-20 -65h51z" />
    <glyph glyph-name="ccircumflex" unicode="&#x109;" horiz-adv-x="315"
d="M212 727h-107l-69 -90h92l30 35l31 -35h92zM133 126v295c0 20 1 44 28 44c23 0 29 -11 29 -44v-66h101v43c0 61 -11 100 -33 124s-54 33 -97 33c-36 0 -69 -10 -92 -35s-37 -66 -37 -127v-239c0 -61 14 -102 37 -127s56 -35 92 -35c43 0 75 9 97 33s33 63 33 124v53h-101
v-76c0 -33 -6 -44 -29 -44c-27 0 -28 24 -28 44z" />
    <glyph glyph-name="cdotaccent" unicode="&#x10b;" horiz-adv-x="315"
d="M108 735v-101h101v101h-101zM133 126v295c0 20 1 44 28 44c23 0 29 -11 29 -44v-66h101v43c0 61 -11 100 -33 124s-54 33 -97 33c-36 0 -69 -10 -92 -35s-37 -66 -37 -127v-239c0 -61 14 -102 37 -127s56 -35 92 -35c43 0 75 9 97 33s33 63 33 124v53h-101v-76
c0 -33 -6 -44 -29 -44c-27 0 -28 24 -28 44z" />
    <glyph glyph-name="d" unicode="d" horiz-adv-x="335"
d="M295 0v735h-101v-224c-9 8 -17 15 -26 22c-15 11 -35 22 -54 22c-28 0 -47 -16 -59 -36c-13 -21 -19 -48 -19 -71v-349c0 -23 6 -50 19 -70c12 -21 31 -37 59 -37c9 0 19 2 29 7c19 9 34 21 51 37v-36h101zM194 427v-307c0 -19 -15 -33 -30 -33s-27 14 -27 33v307
c0 19 12 33 27 33s30 -17 30 -33z" />
    <glyph glyph-name="eth" unicode="&#xf0;" horiz-adv-x="329"
d="M185 736l-53 -49c1 -3 3 -5 6 -8c4 -5 9 -13 16 -24l-49 -43l27 -31l40 35c11 -25 20 -58 25 -99c-27 23 -53 38 -76 38c-44 0 -64 -29 -74 -60c-10 -32 -10 -67 -10 -76v-283c1 -27 7 -51 16 -72c16 -36 48 -72 113 -72c33 0 58 7 76 22c35 29 51 66 54 119v320
c0 100 -30 170 -61 218l49 43l-27 32l-46 -40l-9 12l-9 9s-5 6 -8 9zM201 411v-275c1 -11 0 -20 -3 -28c-4 -15 -13 -27 -32 -27c-9 0 -16 3 -21 8c-9 11 -14 26 -13 47v275c-1 11 0 20 3 28c4 15 12 28 31 28c9 0 17 -3 22 -8c10 -12 14 -27 13 -48z" />
    <glyph glyph-name="dcaron" unicode="&#x10f;" horiz-adv-x="486"
d="M295 0v735h-101v-224c-9 8 -17 15 -26 22c-15 11 -35 22 -54 22c-28 0 -47 -16 -59 -36c-13 -21 -19 -48 -19 -71v-349c0 -23 6 -50 19 -70c12 -21 31 -37 59 -37c9 0 19 2 29 7c19 9 34 21 51 37v-36h101zM462 624v111h-105v-111h35l-35 -130h50zM194 427v-307
c0 -19 -15 -33 -30 -33s-27 14 -27 33v307c0 19 12 33 27 33s30 -17 30 -33z" />
    <glyph glyph-name="dcroat" unicode="&#x111;" horiz-adv-x="335"
d="M318 692v-95h-23v-597h-101v36c-17 -16 -32 -28 -51 -37c-10 -5 -20 -7 -29 -7c-28 0 -47 16 -59 37c-13 20 -19 47 -19 70v349c0 23 6 50 19 71c12 20 31 36 59 36c19 0 39 -11 54 -22c9 -7 17 -14 26 -22v86h-21v95h21v43h101v-43h23zM194 120v307c0 16 -15 33 -30 33
s-27 -14 -27 -33v-307c0 -19 12 -33 27 -33s30 14 30 33z" />
    <glyph glyph-name="e" unicode="e" horiz-adv-x="322"
d="M293 196h-94v-60c0 -11 -1 -20 -4 -28c-4 -15 -13 -27 -32 -27c-9 0 -16 3 -21 8c-9 11 -15 26 -16 47v119h167v159c-1 26 -7 49 -16 70c-16 35 -49 71 -114 71c-33 0 -58 -7 -75 -22c-36 -30 -53 -69 -56 -122v-275c1 -27 7 -51 16 -72c16 -36 49 -72 114 -72
c33 0 58 7 76 22c36 29 52 66 55 119v63zM126 334v77c1 11 2 20 5 28c5 15 13 28 32 28c9 0 17 -3 22 -8c10 -12 14 -27 14 -48v-77h-73z" />
    <glyph glyph-name="eacute" unicode="&#xe9;" horiz-adv-x="322"
d="M286 727h-105l-52 -90h78zM293 196h-94v-60c0 -11 -1 -20 -4 -28c-4 -15 -13 -27 -32 -27c-9 0 -16 3 -21 8c-9 11 -15 26 -16 47v119h167v159c-1 26 -7 49 -16 70c-16 35 -49 71 -114 71c-33 0 -58 -7 -75 -22c-36 -30 -53 -69 -56 -122v-275c1 -27 7 -51 16 -72
c16 -36 49 -72 114 -72c33 0 58 7 76 22c36 29 52 66 55 119v63zM126 334v77c1 11 2 20 5 28c5 15 13 28 32 28c9 0 17 -3 22 -8c10 -12 14 -27 14 -48v-77h-73z" />
    <glyph glyph-name="ebreve" unicode="&#x115;" horiz-adv-x="322"
d="M272 683l-52 46c-4 -5 -9 -9 -15 -12c-11 -7 -24 -11 -43 -11c-9 0 -17 1 -24 3c-14 4 -25 11 -32 20l-54 -46c8 -9 18 -17 29 -24c19 -12 46 -23 81 -23c17 0 33 2 46 7c27 9 47 23 64 40zM293 196h-94v-60c0 -11 -1 -20 -4 -28c-4 -15 -13 -27 -32 -27
c-9 0 -16 3 -21 8c-9 11 -15 26 -16 47v119h167v159c-1 26 -7 49 -16 70c-16 35 -49 71 -114 71c-33 0 -58 -7 -75 -22c-36 -30 -53 -69 -56 -122v-275c1 -27 7 -51 16 -72c16 -36 49 -72 114 -72c33 0 58 7 76 22c36 29 52 66 55 119v63zM126 334v77c1 11 2 20 5 28
c5 15 13 28 32 28c9 0 17 -3 22 -8c10 -12 14 -27 14 -48v-77h-73z" />
    <glyph glyph-name="ecaron" unicode="&#x11b;" horiz-adv-x="322"
d="M109 637h107l69 90h-92l-31 -35l-30 35h-92zM293 196h-94v-60c0 -11 -1 -20 -4 -28c-4 -15 -13 -27 -32 -27c-9 0 -16 3 -21 8c-9 11 -15 26 -16 47v119h167v159c-1 26 -7 49 -16 70c-16 35 -49 71 -114 71c-33 0 -58 -7 -75 -22c-36 -30 -53 -69 -56 -122v-275
c1 -27 7 -51 16 -72c16 -36 49 -72 114 -72c33 0 58 7 76 22c36 29 52 66 55 119v63zM126 334v77c1 11 2 20 5 28c5 15 13 28 32 28c9 0 17 -3 22 -8c10 -12 14 -27 14 -48v-77h-73z" />
    <glyph glyph-name="ecircumflex" unicode="&#xea;" horiz-adv-x="322"
d="M215 727h-107l-69 -90h92l30 35l31 -35h92zM293 196h-94v-60c0 -11 -1 -20 -4 -28c-4 -15 -13 -27 -32 -27c-9 0 -16 3 -21 8c-9 11 -15 26 -16 47v119h167v159c-1 26 -7 49 -16 70c-16 35 -49 71 -114 71c-33 0 -58 -7 -75 -22c-36 -30 -53 -69 -56 -122v-275
c1 -27 7 -51 16 -72c16 -36 49 -72 114 -72c33 0 58 7 76 22c36 29 52 66 55 119v63zM126 334v77c1 11 2 20 5 28c5 15 13 28 32 28c9 0 17 -3 22 -8c10 -12 14 -27 14 -48v-77h-73z" />
    <glyph glyph-name="edieresis" unicode="&#xeb;" horiz-adv-x="322"
d="M44 735v-98h93v98h-93zM185 735v-98h93v98h-93zM293 196h-94v-60c0 -11 -1 -20 -4 -28c-4 -15 -13 -27 -32 -27c-9 0 -16 3 -21 8c-9 11 -15 26 -16 47v119h167v159c-1 26 -7 49 -16 70c-16 35 -49 71 -114 71c-33 0 -58 -7 -75 -22c-36 -30 -53 -69 -56 -122v-275
c1 -27 7 -51 16 -72c16 -36 49 -72 114 -72c33 0 58 7 76 22c36 29 52 66 55 119v63zM126 334v77c1 11 2 20 5 28c5 15 13 28 32 28c9 0 17 -3 22 -8c10 -12 14 -27 14 -48v-77h-73z" />
    <glyph glyph-name="edotaccent" unicode="&#x117;" horiz-adv-x="322"
d="M112 735v-101h101v101h-101zM293 196h-94v-60c0 -11 -1 -20 -4 -28c-4 -15 -13 -27 -32 -27c-9 0 -16 3 -21 8c-9 11 -15 26 -16 47v119h167v159c-1 26 -7 49 -16 70c-16 35 -49 71 -114 71c-33 0 -58 -7 -75 -22c-36 -30 -53 -69 -56 -122v-275c1 -27 7 -51 16 -72
c16 -36 49 -72 114 -72c33 0 58 7 76 22c36 29 52 66 55 119v63zM126 334v77c1 11 2 20 5 28c5 15 13 28 32 28c9 0 17 -3 22 -8c10 -12 14 -27 14 -48v-77h-73z" />
    <glyph glyph-name="egrave" unicode="&#xe8;" horiz-adv-x="322"
d="M155 727h-105l79 -90h78zM293 196h-94v-60c0 -11 -1 -20 -4 -28c-4 -15 -13 -27 -32 -27c-9 0 -16 3 -21 8c-9 11 -15 26 -16 47v119h167v159c-1 26 -7 49 -16 70c-16 35 -49 71 -114 71c-33 0 -58 -7 -75 -22c-36 -30 -53 -69 -56 -122v-275c1 -27 7 -51 16 -72
c16 -36 49 -72 114 -72c33 0 58 7 76 22c36 29 52 66 55 119v63zM126 334v77c1 11 2 20 5 28c5 15 13 28 32 28c9 0 17 -3 22 -8c10 -12 14 -27 14 -48v-77h-73z" />
    <glyph glyph-name="emacron" unicode="&#x113;" horiz-adv-x="322"
d="M65 721v-79h194v79h-194zM293 196h-94v-60c0 -11 -1 -20 -4 -28c-4 -15 -13 -27 -32 -27c-9 0 -16 3 -21 8c-9 11 -15 26 -16 47v119h167v159c-1 26 -7 49 -16 70c-16 35 -49 71 -114 71c-33 0 -58 -7 -75 -22c-36 -30 -53 -69 -56 -122v-275c1 -27 7 -51 16 -72
c16 -36 49 -72 114 -72c33 0 58 7 76 22c36 29 52 66 55 119v63zM126 334v77c1 11 2 20 5 28c5 15 13 28 32 28c9 0 17 -3 22 -8c10 -12 14 -27 14 -48v-77h-73z" />
    <glyph glyph-name="eogonek" unicode="&#x119;" horiz-adv-x="322"
d="M214 0h34c-17 -15 -29 -30 -38 -50c-5 -10 -7 -21 -7 -33c0 -29 27 -38 50 -38c17 0 30 4 42 9l-8 -67c-21 -7 -34 -9 -51 -9c-65 0 -102 40 -102 85c0 28 16 53 33 72c7 9 16 18 25 25c-9 -1 -19 -2 -30 -2c-65 0 -98 36 -114 72c-9 21 -15 45 -16 72v275
c3 53 20 92 56 122c17 15 42 22 75 22c65 0 98 -36 114 -71c9 -21 15 -44 16 -70v-159h-167v-119c1 -21 7 -36 16 -47c5 -5 12 -8 21 -8c19 0 28 12 32 27c3 8 4 17 4 28v60h94v-63c-3 -53 -19 -90 -55 -119c-7 -6 -15 -11 -24 -14zM126 411v-77h73v77c0 21 -4 36 -14 48
c-5 5 -13 8 -22 8c-19 0 -27 -13 -32 -28c-3 -8 -4 -17 -5 -28z" />
    <glyph glyph-name="f" unicode="f" horiz-adv-x="232"
d="M61 0h101v456h51v91h-51v14v24s1 20 3 30c4 19 12 34 29 34c7 0 14 -1 21 -2c3 -1 6 -1 9 -2v87l-12 3c-8 3 -19 4 -35 4c-59 0 -87 -30 -101 -67s-15 -82 -15 -110v-15h-51v-91h51v-456z" />
    <glyph glyph-name="g" unicode="g" horiz-adv-x="342"
d="M287 264v155c0 3 0 7 -1 10s-1 7 -1 11c-1 3 -2 8 -3 13c12 7 32 12 59 12v90c-16 0 -33 -9 -48 -20c-16 -11 -28 -23 -35 -30c-19 27 -50 50 -101 50c-31 0 -56 -7 -73 -22c-35 -29 -51 -66 -55 -117v-149c1 -15 4 -30 8 -45c7 -25 21 -55 50 -74
c-15 -8 -30 -20 -42 -35s-21 -31 -21 -47c0 -43 28 -64 61 -73c-19 -9 -39 -20 -54 -34s-25 -30 -25 -49c0 -40 16 -66 45 -82c28 -16 69 -23 117 -24c41 0 85 9 118 30c32 21 55 57 55 110c0 48 -19 77 -46 96c-28 19 -62 27 -94 31c-19 3 -37 6 -52 11
c-15 4 -25 11 -25 23c0 9 5 17 14 25c3 -1 7 -1 10 -1h9c31 0 56 7 74 21c35 27 53 63 56 114zM188 412v-150c0 -9 -1 -18 -3 -25c-4 -12 -11 -24 -28 -24c-8 0 -14 3 -18 8c-9 10 -12 22 -11 41v150c-1 9 0 18 2 25c3 12 11 25 27 25c9 0 15 -3 19 -8c8 -11 12 -23 12 -42z
M141 -25l52 -10c25 -4 38 -9 46 -16c7 -7 8 -14 8 -23c0 -13 -11 -22 -26 -28s-34 -9 -51 -9c-47 0 -66 17 -66 38s16 36 37 48z" />
    <glyph glyph-name="gbreve" unicode="&#x11f;" horiz-adv-x="342"
d="M282 683l-52 46c-4 -5 -9 -9 -15 -12c-11 -7 -24 -11 -43 -11c-9 0 -17 1 -24 3c-14 4 -25 11 -32 20l-54 -46c8 -9 18 -17 29 -24c19 -12 46 -23 81 -23c17 0 33 2 46 7c27 9 47 23 64 40zM287 264v155c0 3 0 7 -1 10s-1 7 -1 11c-1 3 -2 8 -3 13c12 7 32 12 59 12v90
c-16 0 -33 -9 -48 -20c-16 -11 -28 -23 -35 -30c-19 27 -50 50 -101 50c-31 0 -56 -7 -73 -22c-35 -29 -51 -66 -55 -117v-149c1 -15 4 -30 8 -45c7 -25 21 -55 50 -74c-15 -8 -30 -20 -42 -35s-21 -31 -21 -47c0 -43 28 -64 61 -73c-19 -9 -39 -20 -54 -34s-25 -30 -25 -49
c0 -40 16 -66 45 -82c28 -16 69 -23 117 -24c41 0 85 9 118 30c32 21 55 57 55 110c0 48 -19 77 -46 96c-28 19 -62 27 -94 31c-19 3 -37 6 -52 11c-15 4 -25 11 -25 23c0 9 5 17 14 25c3 -1 7 -1 10 -1h9c31 0 56 7 74 21c35 27 53 63 56 114zM188 412v-150
c0 -9 -1 -18 -3 -25c-4 -12 -11 -24 -28 -24c-8 0 -14 3 -18 8c-9 10 -12 22 -11 41v150c-1 9 0 18 2 25c3 12 11 25 27 25c9 0 15 -3 19 -8c8 -11 12 -23 12 -42zM141 -25l52 -10c25 -4 38 -9 46 -16c7 -7 8 -14 8 -23c0 -13 -11 -22 -26 -28s-34 -9 -51 -9
c-47 0 -66 17 -66 38s16 36 37 48z" />
    <glyph glyph-name="gcircumflex" unicode="&#x11d;" horiz-adv-x="342"
d="M226 727h-107l-69 -90h92l30 35l31 -35h92zM287 264v155c0 3 0 7 -1 10s-1 7 -1 11c-1 3 -2 8 -3 13c12 7 32 12 59 12v90c-16 0 -33 -9 -48 -20c-16 -11 -28 -23 -35 -30c-19 27 -50 50 -101 50c-31 0 -56 -7 -73 -22c-35 -29 -51 -66 -55 -117v-149c1 -15 4 -30 8 -45
c7 -25 21 -55 50 -74c-15 -8 -30 -20 -42 -35s-21 -31 -21 -47c0 -43 28 -64 61 -73c-19 -9 -39 -20 -54 -34s-25 -30 -25 -49c0 -40 16 -66 45 -82c28 -16 69 -23 117 -24c41 0 85 9 118 30c32 21 55 57 55 110c0 48 -19 77 -46 96c-28 19 -62 27 -94 31
c-19 3 -37 6 -52 11c-15 4 -25 11 -25 23c0 9 5 17 14 25c3 -1 7 -1 10 -1h9c31 0 56 7 74 21c35 27 53 63 56 114zM188 412v-150c0 -9 -1 -18 -3 -25c-4 -12 -11 -24 -28 -24c-8 0 -14 3 -18 8c-9 10 -12 22 -11 41v150c-1 9 0 18 2 25c3 12 11 25 27 25c9 0 15 -3 19 -8
c8 -11 12 -23 12 -42zM141 -25l52 -10c25 -4 38 -9 46 -16c7 -7 8 -14 8 -23c0 -13 -11 -22 -26 -28s-34 -9 -51 -9c-47 0 -66 17 -66 38s16 36 37 48z" />
    <glyph glyph-name="gcommaaccent" unicode="&#x123;" horiz-adv-x="342"
d="M118 793v-111h105v111h-35l35 130h-50zM287 264v155c0 3 0 7 -1 10s-1 7 -1 11c-1 3 -2 8 -3 13c12 7 32 12 59 12v90c-16 0 -33 -9 -48 -20c-16 -11 -28 -23 -35 -30c-19 27 -50 50 -101 50c-31 0 -56 -7 -73 -22c-35 -29 -51 -66 -55 -117v-149c1 -15 4 -30 8 -45
c7 -25 21 -55 50 -74c-15 -8 -30 -20 -42 -35s-21 -31 -21 -47c0 -43 28 -64 61 -73c-19 -9 -39 -20 -54 -34s-25 -30 -25 -49c0 -40 16 -66 45 -82c28 -16 69 -23 117 -24c41 0 85 9 118 30c32 21 55 57 55 110c0 48 -19 77 -46 96c-28 19 -62 27 -94 31
c-19 3 -37 6 -52 11c-15 4 -25 11 -25 23c0 9 5 17 14 25c3 -1 7 -1 10 -1h9c31 0 56 7 74 21c35 27 53 63 56 114zM188 412v-150c0 -9 -1 -18 -3 -25c-4 -12 -11 -24 -28 -24c-8 0 -14 3 -18 8c-9 10 -12 22 -11 41v150c-1 9 0 18 2 25c3 12 11 25 27 25c9 0 15 -3 19 -8
c8 -11 12 -23 12 -42zM141 -25l52 -10c25 -4 38 -9 46 -16c7 -7 8 -14 8 -23c0 -13 -11 -22 -26 -28s-34 -9 -51 -9c-47 0 -66 17 -66 38s16 36 37 48z" />
    <glyph glyph-name="gdotaccent" unicode="&#x121;" horiz-adv-x="342"
d="M122 735v-101h101v101h-101zM287 264v155c0 3 0 7 -1 10s-1 7 -1 11c-1 3 -2 8 -3 13c12 7 32 12 59 12v90c-16 0 -33 -9 -48 -20c-16 -11 -28 -23 -35 -30c-19 27 -50 50 -101 50c-31 0 -56 -7 -73 -22c-35 -29 -51 -66 -55 -117v-149c1 -15 4 -30 8 -45
c7 -25 21 -55 50 -74c-15 -8 -30 -20 -42 -35s-21 -31 -21 -47c0 -43 28 -64 61 -73c-19 -9 -39 -20 -54 -34s-25 -30 -25 -49c0 -40 16 -66 45 -82c28 -16 69 -23 117 -24c41 0 85 9 118 30c32 21 55 57 55 110c0 48 -19 77 -46 96c-28 19 -62 27 -94 31
c-19 3 -37 6 -52 11c-15 4 -25 11 -25 23c0 9 5 17 14 25c3 -1 7 -1 10 -1h9c31 0 56 7 74 21c35 27 53 63 56 114zM188 412v-150c0 -9 -1 -18 -3 -25c-4 -12 -11 -24 -28 -24c-8 0 -14 3 -18 8c-9 10 -12 22 -11 41v150c-1 9 0 18 2 25c3 12 11 25 27 25c9 0 15 -3 19 -8
c8 -11 12 -23 12 -42zM141 -25l52 -10c25 -4 38 -9 46 -16c7 -7 8 -14 8 -23c0 -13 -11 -22 -26 -28s-34 -9 -51 -9c-47 0 -66 17 -66 38s16 36 37 48z" />
    <glyph glyph-name="h" unicode="h"
d="M141 0v431c3 5 6 9 9 13c7 7 13 13 24 13c12 0 24 -3 24 -24v-433h101v448c0 23 -6 50 -18 71c-12 20 -31 36 -58 36c-9 0 -17 -2 -26 -7c-18 -10 -33 -25 -44 -36c-6 -6 -10 -10 -12 -11v234h-101v-735h101z" />
    <glyph glyph-name="hbar" unicode="&#x127;"
d="M141 612v-111c2 1 6 5 12 11c11 11 26 26 44 36c9 5 17 7 26 7c27 0 46 -16 58 -36c12 -21 18 -48 18 -71v-448h-101v433c0 21 -12 24 -24 24c-11 0 -17 -6 -24 -13c-3 -4 -6 -8 -9 -13v-431h-101v612h-38v79h38v44h101v-44h55v-79h-55z" />
    <glyph glyph-name="hcircumflex" unicode="&#x125;"
d="M141 639v-138c2 1 6 5 12 11c11 11 26 26 44 36c9 5 17 7 26 7c27 0 46 -16 58 -36c12 -21 18 -48 18 -71v-448h-101v433c0 21 -12 24 -24 24c-11 0 -17 -6 -24 -13c-3 -4 -6 -8 -9 -13v-431h-101v735h101v-8h82l69 -90h-92l-31 35z" />
    <glyph glyph-name="i" unicode="i" horiz-adv-x="181"
d="M40 735v-101h101v101h-101zM40 0h101v547h-101v-547z" />
    <glyph glyph-name="dotlessi" unicode="&#x131;" horiz-adv-x="181"
d="M40 0h101v547h-101v-547z" />
    <glyph glyph-name="iacute" unicode="&#xed;" horiz-adv-x="181"
d="M197 727h-105l-52 -90h78zM40 0h101v547h-101v-547z" />
    <glyph glyph-name="ibreve" unicode="&#x12d;" horiz-adv-x="181"
d="M202 683l-52 46c-4 -5 -9 -9 -15 -12c-11 -7 -24 -11 -43 -11c-9 0 -17 1 -24 3c-14 4 -25 11 -32 20l-54 -46c8 -9 18 -17 29 -24c19 -12 46 -23 81 -23c17 0 33 2 46 7c27 9 47 23 64 40zM40 0h101v547h-101v-547z" />
    <glyph glyph-name="icircumflex" unicode="&#xee;" horiz-adv-x="181"
d="M144 727h-107l-69 -90h92l30 35l31 -35h92zM40 0h101v547h-101v-547z" />
    <glyph glyph-name="idieresis" unicode="&#xef;" horiz-adv-x="182"
d="M-26 735v-98h93v98h-93zM115 735v-98h93v98h-93zM40 0h101v547h-101v-547z" />
    <glyph glyph-name="igrave" unicode="&#xec;" horiz-adv-x="181"
d="M89 727h-105l79 -90h78zM40 0h101v547h-101v-547z" />
    <glyph glyph-name="ij" unicode="&#x133;" horiz-adv-x="359"
d="M40 735v-101h101v101h-101zM218 735v-101h101v101h-101zM40 0h101v547h-101v-547zM319 547h-101v-560v-23s-1 -18 -2 -26c-4 -17 -12 -31 -29 -31c-6 0 -12 1 -19 2c-3 1 -6 1 -9 2v-93c3 -1 6 -2 10 -3c7 -2 18 -3 34 -3c57 0 88 29 102 66c14 36 14 80 14 108v561z" />
    <glyph glyph-name="imacron" unicode="&#x12b;" horiz-adv-x="181"
d="M-5 721v-79h194v79h-194zM40 0h101v547h-101v-547z" />
    <glyph glyph-name="iogonek" unicode="&#x12f;" horiz-adv-x="181"
d="M141 735v-101h-101v101h101zM141 0h-16c-17 -15 -29 -30 -38 -50c-5 -10 -7 -21 -7 -33c0 -29 27 -38 50 -38c17 0 30 4 42 9l-8 -67c-21 -7 -34 -9 -51 -9c-65 0 -102 40 -102 85c0 28 16 53 33 72c9 11 20 22 33 31h-37v547h101v-547z" />
    <glyph glyph-name="itilde" unicode="&#x129;" horiz-adv-x="181"
d="M-5 711v-74c5 3 10 5 16 8c11 4 22 8 37 8c16 -1 31 -4 45 -10c13 -6 28 -9 43 -9c7 0 14 1 20 3c12 3 24 8 33 16v74c-5 -3 -10 -5 -16 -8c-11 -4 -22 -8 -37 -8c-15 1 -30 5 -44 11c-14 5 -29 8 -44 8c-7 0 -14 -1 -20 -3c-12 -4 -24 -9 -33 -16zM40 0h101v547h-101
v-547z" />
    <glyph glyph-name="j" unicode="j" horiz-adv-x="178"
d="M37 735v-101h101v101h-101zM138 547h-101v-560v-23s-1 -18 -2 -26c-4 -17 -12 -31 -29 -31c-6 0 -12 1 -19 2c-3 1 -6 1 -9 2v-93c3 -1 6 -2 10 -3c7 -2 18 -3 34 -3c57 0 88 29 102 66c14 36 14 80 14 108v561z" />
    <glyph glyph-name="jcircumflex" unicode="&#x135;" horiz-adv-x="178"
d="M213 645h-75v-11h-101v11h-69l69 90h107zM37 -13v560h101v-561c0 -28 0 -72 -14 -108c-14 -37 -45 -66 -102 -66c-16 0 -27 1 -34 3c-4 1 -7 2 -10 3v93c3 -1 6 -1 9 -2c7 -1 13 -2 19 -2c17 0 25 14 29 31c1 8 2 17 2 26v23z" />
    <glyph glyph-name="k" unicode="k" horiz-adv-x="313"
d="M141 735h-101v-735h101v189l13 32l3 8h5l2 -8l50 -221h97l-92 369l73 178h-91l-49 -143l-6 -18h-5v349z" />
    <glyph glyph-name="kcommaaccent" unicode="&#x137;" horiz-adv-x="313"
d="M141 735h-101v-735h101v189l13 32l3 8h5l2 -8l50 -221h97l-92 369l73 178h-91l-49 -143l-6 -18h-5v349zM215 -123v69h-84v-69h31l-20 -65h51z" />
    <glyph glyph-name="kgreenlandic" unicode="&#x138;" horiz-adv-x="313"
d="M141 735h-101v-735h101v189l13 32l3 8h5l2 -8l50 -221h97l-92 369l73 178h-91l-49 -143l-6 -18h-5v349z" />
    <glyph glyph-name="l" unicode="l" horiz-adv-x="181"
d="M40 0h101v735h-101v-735z" />
    <glyph glyph-name="lacute" unicode="&#x13a;" horiz-adv-x="181"
d="M170 838h-105l-52 -90h78zM40 0h101v735h-101v-735z" />
    <glyph glyph-name="lcaron" unicode="&#x13e;" horiz-adv-x="332"
d="M40 0h101v735h-101v-735zM308 624v111h-105v-111h35l-35 -130h50z" />
    <glyph glyph-name="lcommaaccent" unicode="&#x13c;" horiz-adv-x="181"
d="M40 0h101v735h-101v-735zM135 -116v69h-84v-69h31l-20 -65h51z" />
    <glyph glyph-name="ldot" unicode="&#x140;" horiz-adv-x="286"
d="M40 0h101v735h-101v-735zM181 428v-111h105v111h-105z" />
    <glyph glyph-name="lslash" unicode="&#x142;" horiz-adv-x="229"
d="M64 0h101v391l49 38v108l-49 -38v236h-101v-315l-49 -38v-108l49 38v-312z" />
    <glyph glyph-name="m" unicode="m" horiz-adv-x="499"
d="M301 0v431c3 5 7 9 11 13c7 7 16 13 27 13s27 -3 27 -24v-433h95v448c0 23 -6 50 -18 71c-12 20 -31 36 -58 36c-9 0 -18 -3 -27 -8c-19 -11 -36 -24 -49 -38c-7 -7 -12 -12 -16 -15c-11 32 -32 61 -68 61c-9 0 -17 -2 -26 -7c-18 -10 -35 -25 -46 -36
c-6 -6 -10 -10 -12 -11v46h-101v-547h101v431c3 5 7 9 11 13c7 7 16 13 27 13s27 -3 27 -24v-433h95z" />
    <glyph glyph-name="n" unicode="n"
d="M141 0v431c3 5 6 9 9 13c7 7 13 13 24 13c12 0 24 -3 24 -24v-433h101v448c0 23 -6 50 -18 71c-12 20 -31 36 -58 36c-9 0 -17 -2 -26 -7c-18 -10 -33 -25 -44 -36c-6 -6 -10 -10 -12 -11v46h-101v-547h101z" />
    <glyph glyph-name="nacute" unicode="&#x144;"
d="M248 727h-105l-52 -90h78zM141 0v431c3 5 6 9 9 13c7 7 13 13 24 13c12 0 24 -3 24 -24v-433h101v448c0 23 -6 50 -18 71c-12 20 -31 36 -58 36c-9 0 -17 -2 -26 -7c-18 -10 -33 -25 -44 -36c-6 -6 -10 -10 -12 -11v46h-101v-547h101z" />
    <glyph glyph-name="napostrophe" unicode="&#x149;"
d="M86 635v69h-84v-69h31l-20 -65h51zM141 0v431c3 5 6 9 9 13c7 7 13 13 24 13c12 0 24 -3 24 -24v-433h101v448c0 23 -6 50 -18 71c-12 20 -31 36 -58 36c-9 0 -17 -2 -26 -7c-18 -10 -33 -25 -44 -36c-6 -6 -10 -10 -12 -11v46h-101v-547h101z" />
    <glyph glyph-name="ncaron" unicode="&#x148;"
d="M116 637h107l69 90h-92l-31 -35l-30 35h-92zM141 0v431c3 5 6 9 9 13c7 7 13 13 24 13c12 0 24 -3 24 -24v-433h101v448c0 23 -6 50 -18 71c-12 20 -31 36 -58 36c-9 0 -17 -2 -26 -7c-18 -10 -33 -25 -44 -36c-6 -6 -10 -10 -12 -11v46h-101v-547h101z" />
    <glyph glyph-name="ncommaaccent" unicode="&#x146;"
d="M141 0v431c3 5 6 9 9 13c7 7 13 13 24 13c12 0 24 -3 24 -24v-433h101v448c0 23 -6 50 -18 71c-12 20 -31 36 -58 36c-9 0 -17 -2 -26 -7c-18 -10 -33 -25 -44 -36c-6 -6 -10 -10 -12 -11v46h-101v-547h101zM215 -123v69h-84v-69h31l-20 -65h51z" />
    <glyph glyph-name="eng" unicode="&#x14b;"
d="M299 452v-471c0 -31 -9 -61 -33 -81c-24 -21 -62 -35 -121 -32v84c20 -4 33 1 45 13c5 6 8 16 8 29v439c0 21 -12 24 -24 24c-11 0 -17 -6 -24 -13c-3 -4 -6 -8 -9 -13v-431h-101v547h101v-46c2 1 6 5 12 11c11 11 26 26 44 36c9 5 17 7 26 7c27 0 46 -16 58 -36
c11 -20 17 -45 18 -67z" />
    <glyph glyph-name="ntilde" unicode="&#xf1;"
d="M72 711v-74c5 3 10 5 16 8c11 4 22 8 37 8c16 -1 31 -4 45 -10c13 -6 28 -9 43 -9c7 0 14 1 20 3c12 3 24 8 33 16v74c-5 -3 -10 -5 -16 -8c-11 -4 -22 -8 -37 -8c-15 1 -30 5 -44 11c-14 5 -29 8 -44 8c-7 0 -14 -1 -20 -3c-12 -4 -24 -9 -33 -16zM141 0v431
c3 5 6 9 9 13c7 7 13 13 24 13c12 0 24 -3 24 -24v-433h101v448c0 23 -6 50 -18 71c-12 20 -31 36 -58 36c-9 0 -17 -2 -26 -7c-18 -10 -33 -25 -44 -36c-6 -6 -10 -10 -12 -11v46h-101v-547h101z" />
    <glyph glyph-name="o" unicode="o" horiz-adv-x="321"
d="M290 133v281c-1 26 -7 49 -16 70c-16 35 -49 71 -114 71c-33 0 -58 -7 -75 -22c-35 -30 -51 -69 -54 -122v-275c1 -27 7 -51 16 -72c16 -36 48 -72 113 -72c33 0 58 7 76 22c35 29 51 66 54 119zM195 411v-275c1 -11 0 -20 -3 -28c-4 -15 -13 -27 -32 -27
c-9 0 -16 3 -21 8c-9 11 -14 26 -13 47v275c-1 11 0 20 3 28c4 15 12 28 31 28c9 0 17 -3 22 -8c10 -12 14 -27 13 -48z" />
    <glyph glyph-name="oacute" unicode="&#xf3;" horiz-adv-x="321"
d="M284 727h-105l-52 -90h78zM290 133v281c-1 26 -7 49 -16 70c-16 35 -49 71 -114 71c-33 0 -58 -7 -75 -22c-35 -30 -51 -69 -54 -122v-275c1 -27 7 -51 16 -72c16 -36 48 -72 113 -72c33 0 58 7 76 22c35 29 51 66 54 119zM195 411v-275c1 -11 0 -20 -3 -28
c-4 -15 -13 -27 -32 -27c-9 0 -16 3 -21 8c-9 11 -14 26 -13 47v275c-1 11 0 20 3 28c4 15 12 28 31 28c9 0 17 -3 22 -8c10 -12 14 -27 13 -48z" />
    <glyph glyph-name="obreve" unicode="&#x14f;" horiz-adv-x="321"
d="M272 683l-52 46c-4 -5 -9 -9 -15 -12c-11 -7 -24 -11 -43 -11c-9 0 -17 1 -24 3c-14 4 -25 11 -32 20l-54 -46c8 -9 18 -17 29 -24c19 -12 46 -23 81 -23c17 0 33 2 46 7c27 9 47 23 64 40zM290 133v281c-1 26 -7 49 -16 70c-16 35 -49 71 -114 71c-33 0 -58 -7 -75 -22
c-35 -30 -51 -69 -54 -122v-275c1 -27 7 -51 16 -72c16 -36 48 -72 113 -72c33 0 58 7 76 22c35 29 51 66 54 119zM195 411v-275c1 -11 0 -20 -3 -28c-4 -15 -13 -27 -32 -27c-9 0 -16 3 -21 8c-9 11 -14 26 -13 47v275c-1 11 0 20 3 28c4 15 12 28 31 28c9 0 17 -3 22 -8
c10 -12 14 -27 13 -48z" />
    <glyph glyph-name="ocircumflex" unicode="&#xf4;" horiz-adv-x="321"
d="M214 727h-107l-69 -90h92l30 35l31 -35h92zM290 133v281c-1 26 -7 49 -16 70c-16 35 -49 71 -114 71c-33 0 -58 -7 -75 -22c-35 -30 -51 -69 -54 -122v-275c1 -27 7 -51 16 -72c16 -36 48 -72 113 -72c33 0 58 7 76 22c35 29 51 66 54 119zM195 411v-275
c1 -11 0 -20 -3 -28c-4 -15 -13 -27 -32 -27c-9 0 -16 3 -21 8c-9 11 -14 26 -13 47v275c-1 11 0 20 3 28c4 15 12 28 31 28c9 0 17 -3 22 -8c10 -12 14 -27 13 -48z" />
    <glyph glyph-name="odieresis" unicode="&#xf6;" horiz-adv-x="321"
d="M44 735v-98h93v98h-93zM185 735v-98h93v98h-93zM290 133v281c-1 26 -7 49 -16 70c-16 35 -49 71 -114 71c-33 0 -58 -7 -75 -22c-35 -30 -51 -69 -54 -122v-275c1 -27 7 -51 16 -72c16 -36 48 -72 113 -72c33 0 58 7 76 22c35 29 51 66 54 119zM195 411v-275
c1 -11 0 -20 -3 -28c-4 -15 -13 -27 -32 -27c-9 0 -16 3 -21 8c-9 11 -14 26 -13 47v275c-1 11 0 20 3 28c4 15 12 28 31 28c9 0 17 -3 22 -8c10 -12 14 -27 13 -48z" />
    <glyph glyph-name="ograve" unicode="&#xf2;" horiz-adv-x="321"
d="M153 727h-105l79 -90h78zM290 133v281c-1 26 -7 49 -16 70c-16 35 -49 71 -114 71c-33 0 -58 -7 -75 -22c-35 -30 -51 -69 -54 -122v-275c1 -27 7 -51 16 -72c16 -36 48 -72 113 -72c33 0 58 7 76 22c35 29 51 66 54 119zM195 411v-275c1 -11 0 -20 -3 -28
c-4 -15 -13 -27 -32 -27c-9 0 -16 3 -21 8c-9 11 -14 26 -13 47v275c-1 11 0 20 3 28c4 15 12 28 31 28c9 0 17 -3 22 -8c10 -12 14 -27 13 -48z" />
    <glyph glyph-name="ohungarumlaut" unicode="&#x151;" horiz-adv-x="321"
d="M166 727h-105l-52 -90h78zM314 727h-105l-52 -90h78zM290 133v281c-1 26 -7 49 -16 70c-16 35 -49 71 -114 71c-33 0 -58 -7 -75 -22c-35 -30 -51 -69 -54 -122v-275c1 -27 7 -51 16 -72c16 -36 48 -72 113 -72c33 0 58 7 76 22c35 29 51 66 54 119zM195 411v-275
c1 -11 0 -20 -3 -28c-4 -15 -13 -27 -32 -27c-9 0 -16 3 -21 8c-9 11 -14 26 -13 47v275c-1 11 0 20 3 28c4 15 12 28 31 28c9 0 17 -3 22 -8c10 -12 14 -27 13 -48z" />
    <glyph glyph-name="omacron" unicode="&#x14d;" horiz-adv-x="321"
d="M65 721v-79h194v79h-194zM290 133v281c-1 26 -7 49 -16 70c-16 35 -49 71 -114 71c-33 0 -58 -7 -75 -22c-35 -30 -51 -69 -54 -122v-275c1 -27 7 -51 16 -72c16 -36 48 -72 113 -72c33 0 58 7 76 22c35 29 51 66 54 119zM195 411v-275c1 -11 0 -20 -3 -28
c-4 -15 -13 -27 -32 -27c-9 0 -16 3 -21 8c-9 11 -14 26 -13 47v275c-1 11 0 20 3 28c4 15 12 28 31 28c9 0 17 -3 22 -8c10 -12 14 -27 13 -48z" />
    <glyph glyph-name="oslash" unicode="&#xf8;" horiz-adv-x="321"
d="M61 -38h39l10 38c15 -5 31 -8 50 -8c33 0 58 7 76 22c35 29 51 66 54 119v281c-1 14 -3 28 -6 41c-7 23 -17 50 -40 71l15 59h-37l-10 -39c-15 5 -32 9 -52 9c-33 0 -58 -7 -75 -22c-35 -30 -51 -69 -54 -122v-275c0 -15 2 -29 5 -42c5 -24 17 -52 40 -73zM126 213v198
c-1 11 0 20 3 28c4 15 12 28 31 28c15 0 22 -6 27 -17zM195 333v-197c1 -11 0 -20 -3 -28c-4 -15 -13 -27 -32 -27c-12 0 -21 5 -26 15z" />
    <glyph glyph-name="otilde" unicode="&#xf5;" horiz-adv-x="321"
d="M64 711v-74c5 3 10 5 16 8c11 4 22 8 37 8c16 -1 31 -4 45 -10c13 -6 28 -9 43 -9c7 0 14 1 20 3c12 3 24 8 33 16v74c-5 -3 -10 -5 -16 -8c-11 -4 -22 -8 -37 -8c-15 1 -30 5 -44 11c-14 5 -29 8 -44 8c-7 0 -14 -1 -20 -3c-12 -4 -24 -9 -33 -16zM290 133v281
c-1 26 -7 49 -16 70c-16 35 -49 71 -114 71c-33 0 -58 -7 -75 -22c-35 -30 -51 -69 -54 -122v-275c1 -27 7 -51 16 -72c16 -36 48 -72 113 -72c33 0 58 7 76 22c35 29 51 66 54 119zM195 411v-275c1 -11 0 -20 -3 -28c-4 -15 -13 -27 -32 -27c-9 0 -16 3 -21 8
c-9 11 -14 26 -13 47v275c-1 11 0 20 3 28c4 15 12 28 31 28c9 0 17 -3 22 -8c10 -12 14 -27 13 -48z" />
    <glyph glyph-name="oe" unicode="&#x153;" horiz-adv-x="486"
d="M457 196h-94v-60c0 -11 -1 -20 -4 -28c-4 -15 -13 -27 -32 -27c-16 0 -26 11 -31 23s-6 25 -6 29v122h167v159c-1 26 -7 49 -16 70c-16 35 -49 71 -114 71c-39 0 -64 -12 -83 -29c-19 17 -45 29 -84 29c-33 0 -58 -7 -75 -22c-35 -30 -51 -69 -54 -122v-275
c1 -27 7 -51 16 -72c16 -36 48 -72 113 -72c37 0 64 12 83 28c19 -17 46 -28 83 -28c33 0 58 7 76 22c36 29 52 66 55 119v63zM195 411v-275c1 -11 0 -20 -3 -28c-4 -15 -13 -27 -32 -27c-9 0 -16 3 -21 8c-9 11 -14 26 -13 47v275c-1 11 0 20 3 28c4 15 12 28 31 28
c9 0 17 -3 22 -8c10 -12 14 -27 13 -48zM290 334v80c0 5 1 18 6 30s15 23 31 23c9 0 17 -3 22 -8c10 -12 14 -27 14 -48v-77h-73z" />
    <glyph glyph-name="p" unicode="p" horiz-adv-x="335"
d="M40 547v-735h101v224c9 -8 17 -15 26 -22c15 -11 35 -22 54 -22c28 0 47 16 60 37c12 20 18 47 18 70v349c0 23 -6 50 -18 71c-13 20 -32 36 -60 36c-9 0 -19 -2 -28 -7c-20 -9 -35 -21 -52 -37v36h-101zM141 120v307c0 19 15 33 30 33s27 -14 27 -33v-307
c0 -19 -12 -33 -27 -33s-30 17 -30 33z" />
    <glyph glyph-name="thorn" unicode="&#xfe;" horiz-adv-x="335"
d="M40 735v-923h101v224c9 -8 17 -15 26 -22c15 -11 35 -22 54 -22c28 0 47 16 60 37c12 20 18 47 18 70v349c0 23 -6 50 -18 71c-13 20 -32 36 -60 36c-9 0 -19 -2 -28 -7c-20 -9 -35 -21 -52 -37v224h-101zM141 120v307c0 19 15 33 30 33s27 -14 27 -33v-307
c0 -19 -12 -33 -27 -33s-30 17 -30 33z" />
    <glyph glyph-name="q" unicode="q" horiz-adv-x="335"
d="M295 -188v735h-101v-36c-9 8 -17 15 -26 22c-15 11 -35 22 -54 22c-28 0 -47 -16 -59 -36c-13 -21 -19 -48 -19 -71v-349c0 -23 6 -50 19 -70c12 -21 31 -37 59 -37c9 0 19 2 29 7c19 9 34 21 51 37v-224h101zM194 427v-307c0 -16 -15 -33 -30 -33s-27 14 -27 33v307
c0 19 12 33 27 33s30 -14 30 -33z" />
    <glyph glyph-name="r" unicode="r" horiz-adv-x="246"
d="M242 443v112c-37 0 -61 -14 -77 -29c-16 -16 -23 -33 -24 -40v61h-101v-547h101v380c0 17 3 34 22 50c16 15 35 17 51 17c9 0 19 -1 28 -4z" />
    <glyph glyph-name="racute" unicode="&#x155;" horiz-adv-x="246"
d="M203 727h-105l-52 -90h78zM242 443v112c-37 0 -61 -14 -77 -29c-16 -16 -23 -33 -24 -40v61h-101v-547h101v380c0 17 3 34 22 50c16 15 35 17 51 17c9 0 19 -1 28 -4z" />
    <glyph glyph-name="rcaron" unicode="&#x159;" horiz-adv-x="246"
d="M71 637h107l69 90h-92l-31 -35l-30 35h-92zM242 443v112c-37 0 -61 -14 -77 -29c-16 -16 -23 -33 -24 -40v61h-101v-547h101v380c0 17 3 34 22 50c16 15 35 17 51 17c9 0 19 -1 28 -4z" />
    <glyph glyph-name="rcommaaccent" unicode="&#x157;" horiz-adv-x="246"
d="M242 443v112c-37 0 -61 -14 -77 -29c-16 -16 -23 -33 -24 -40v61h-101v-547h101v380c0 17 3 34 22 50c16 15 35 17 51 17c9 0 19 -1 28 -4zM133 -117v69h-84v-69h31l-20 -65h51z" />
    <glyph glyph-name="s" unicode="s" horiz-adv-x="308"
d="M193 407h94c0 31 -3 69 -20 98s-50 51 -109 50c-48 -1 -79 -22 -98 -50c-19 -29 -25 -66 -25 -98c0 -40 13 -70 31 -97s41 -48 65 -71c31 -31 63 -64 63 -97c0 -32 -6 -66 -35 -66c-21 0 -32 14 -39 31c-7 16 -8 37 -8 52h-94c0 -29 4 -71 24 -105s56 -62 117 -62
c48 0 80 21 101 50c20 28 28 65 28 100c0 36 -13 67 -30 95c-17 27 -42 51 -63 72c-16 15 -32 31 -44 47c-13 16 -22 34 -22 51c0 13 1 30 6 42c4 12 12 22 25 22c16 0 24 -10 29 -22c4 -13 4 -29 4 -42z" />
    <glyph glyph-name="sacute" unicode="&#x15b;" horiz-adv-x="308"
d="M234 727h-105l-52 -90h78zM193 407h94c0 31 -3 69 -20 98s-50 51 -109 50c-48 -1 -79 -22 -98 -50c-19 -29 -25 -66 -25 -98c0 -40 13 -70 31 -97s41 -48 65 -71c31 -31 63 -64 63 -97c0 -32 -6 -66 -35 -66c-21 0 -32 14 -39 31c-7 16 -8 37 -8 52h-94
c0 -29 4 -71 24 -105s56 -62 117 -62c48 0 80 21 101 50c20 28 28 65 28 100c0 36 -13 67 -30 95c-17 27 -42 51 -63 72c-16 15 -32 31 -44 47c-13 16 -22 34 -22 51c0 13 1 30 6 42c4 12 12 22 25 22c16 0 24 -10 29 -22c4 -13 4 -29 4 -42z" />
    <glyph glyph-name="scaron" unicode="&#x161;" horiz-adv-x="308"
d="M101 637h107l69 90h-92l-31 -35l-30 35h-92zM193 407h94c0 31 -3 69 -20 98s-50 51 -109 50c-48 -1 -79 -22 -98 -50c-19 -29 -25 -66 -25 -98c0 -40 13 -70 31 -97s41 -48 65 -71c31 -31 63 -64 63 -97c0 -32 -6 -66 -35 -66c-21 0 -32 14 -39 31c-7 16 -8 37 -8 52h-94
c0 -29 4 -71 24 -105s56 -62 117 -62c48 0 80 21 101 50c20 28 28 65 28 100c0 36 -13 67 -30 95c-17 27 -42 51 -63 72c-16 15 -32 31 -44 47c-13 16 -22 34 -22 51c0 13 1 30 6 42c4 12 12 22 25 22c16 0 24 -10 29 -22c4 -13 4 -29 4 -42z" />
    <glyph glyph-name="scedilla" unicode="&#x15f;" horiz-adv-x="308"
d="M193 407h94c0 31 -3 69 -20 98s-50 51 -109 50c-48 -1 -79 -22 -98 -50c-19 -29 -25 -66 -25 -98c0 -40 13 -70 31 -97s41 -48 65 -71c31 -31 63 -64 63 -97c0 -32 -6 -66 -35 -66c-21 0 -32 14 -39 31c-7 16 -8 37 -8 52h-94c0 -29 4 -71 24 -105s56 -62 117 -62
c48 0 80 21 101 50c20 28 28 65 28 100c0 36 -13 67 -30 95c-17 27 -42 51 -63 72c-16 15 -32 31 -44 47c-13 16 -22 34 -22 51c0 13 1 30 6 42c4 12 12 22 25 22c16 0 24 -10 29 -22c4 -13 4 -29 4 -42zM197 -123v69h-84v-69h31l-20 -65h51z" />
    <glyph glyph-name="scircumflex" unicode="&#x15d;" horiz-adv-x="308"
d="M209 727h-107l-69 -90h92l30 35l31 -35h92zM193 407h94c0 31 -3 69 -20 98s-50 51 -109 50c-48 -1 -79 -22 -98 -50c-19 -29 -25 -66 -25 -98c0 -40 13 -70 31 -97s41 -48 65 -71c31 -31 63 -64 63 -97c0 -32 -6 -66 -35 -66c-21 0 -32 14 -39 31c-7 16 -8 37 -8 52h-94
c0 -29 4 -71 24 -105s56 -62 117 -62c48 0 80 21 101 50c20 28 28 65 28 100c0 36 -13 67 -30 95c-17 27 -42 51 -63 72c-16 15 -32 31 -44 47c-13 16 -22 34 -22 51c0 13 1 30 6 42c4 12 12 22 25 22c16 0 24 -10 29 -22c4 -13 4 -29 4 -42z" />
    <glyph glyph-name="germandbls" unicode="&#xdf;" horiz-adv-x="358"
d="M169 547v-69c20 0 37 -7 47 -35s15 -77 15 -162c0 -80 -5 -127 -15 -154s-27 -33 -47 -33v-94c52 0 93 9 121 49s42 111 42 232c0 73 -7 127 -20 165s-31 60 -54 73c27 20 43 49 43 85c0 37 -11 73 -32 98s-55 41 -100 41c-48 0 -81 -17 -104 -42s-33 -61 -33 -98v-603
h101v603c0 27 11 50 36 50c29 0 42 -22 42 -49c0 -35 -19 -57 -42 -57z" />
    <glyph glyph-name="longs" unicode="&#x17f;" horiz-adv-x="232"
d="M18 0h77v565c0 63 18 80 66 80c15 0 29 -1 43 -4l12 78c-26 5 -50 8 -71 8c-75 0 -127 -33 -127 -154v-573z" />
    <glyph glyph-name="t" unicode="t" horiz-adv-x="245"
d="M162 682h-101v-135h-51v-91h51v-280c0 -32 1 -78 15 -116s42 -68 101 -68c16 0 29 1 39 3c5 1 10 3 15 4v99c-4 -1 -8 -1 -12 -2c-7 -1 -17 -2 -25 -2c-16 0 -24 15 -28 33s-4 40 -4 57v272h69v91h-69v135z" />
    <glyph glyph-name="tbar" unicode="&#x167;" horiz-adv-x="245"
d="M231 456h-69v-272c0 -17 0 -39 4 -57s12 -33 28 -33c8 0 18 1 25 2c4 1 8 1 12 2v-99c-5 -1 -10 -3 -15 -4c-10 -2 -23 -3 -39 -3c-59 0 -87 30 -101 68s-15 84 -15 116v280h-51v91h51v95h-34v79h194v-79h-59v-95h69v-91z" />
    <glyph glyph-name="tcaron" unicode="&#x165;" horiz-adv-x="396"
d="M372 624v111h-105v-111h35l-35 -130h50zM162 682h-101v-135h-51v-91h51v-280c0 -32 1 -78 15 -116s42 -68 101 -68c16 0 29 1 39 3c5 1 10 3 15 4v99c-4 -1 -8 -1 -12 -2c-7 -1 -17 -2 -25 -2c-16 0 -24 15 -28 33s-4 40 -4 57v272h69v91h-69v135z" />
    <glyph glyph-name="uni021B" unicode="&#x21b;" horiz-adv-x="245"
d="M162 682h-101v-135h-51v-91h51v-280c0 -32 1 -78 15 -116s42 -68 101 -68c16 0 29 1 39 3c5 1 10 3 15 4v99c-4 -1 -8 -1 -12 -2c-7 -1 -17 -2 -25 -2c-16 0 -24 15 -28 33s-4 40 -4 57v272h69v91h-69v135zM215 -123v69h-84v-69h31l-20 -65h51z" />
    <glyph glyph-name="u" unicode="u"
d="M196 547v-431c-3 -5 -6 -10 -9 -13c-7 -7 -13 -13 -24 -13c-12 0 -24 3 -24 24v433h-101v-448c0 -23 6 -50 18 -70c12 -21 31 -37 58 -37c9 0 18 3 27 8c18 10 32 24 44 36c5 5 9 9 11 10v-46h101v547h-101z" />
    <glyph glyph-name="uacute" unicode="&#xfa;"
d="M291 727h-105l-52 -90h78zM196 547v-431c-3 -5 -6 -10 -9 -13c-7 -7 -13 -13 -24 -13c-12 0 -24 3 -24 24v433h-101v-448c0 -23 6 -50 18 -70c12 -21 31 -37 58 -37c9 0 18 3 27 8c18 10 32 24 44 36c5 5 9 9 11 10v-46h101v547h-101z" />
    <glyph glyph-name="ubreve" unicode="&#x16d;"
d="M280 683l-52 46c-4 -5 -9 -9 -15 -12c-11 -7 -24 -11 -43 -11c-9 0 -17 1 -24 3c-14 4 -25 11 -32 20l-54 -46c8 -9 18 -17 29 -24c19 -12 46 -23 81 -23c17 0 33 2 46 7c27 9 47 23 64 40zM196 547v-431c-3 -5 -6 -10 -9 -13c-7 -7 -13 -13 -24 -13c-12 0 -24 3 -24 24
v433h-101v-448c0 -23 6 -50 18 -70c12 -21 31 -37 58 -37c9 0 18 3 27 8c18 10 32 24 44 36c5 5 9 9 11 10v-46h101v547h-101z" />
    <glyph glyph-name="ucircumflex" unicode="&#xfb;"
d="M222 727h-107l-69 -90h92l30 35l31 -35h92zM196 547v-431c-3 -5 -6 -10 -9 -13c-7 -7 -13 -13 -24 -13c-12 0 -24 3 -24 24v433h-101v-448c0 -23 6 -50 18 -70c12 -21 31 -37 58 -37c9 0 18 3 27 8c18 10 32 24 44 36c5 5 9 9 11 10v-46h101v547h-101z" />
    <glyph glyph-name="udieresis" unicode="&#xfc;"
d="M52 735v-98h93v98h-93zM193 735v-98h93v98h-93zM196 547v-431c-3 -5 -6 -10 -9 -13c-7 -7 -13 -13 -24 -13c-12 0 -24 3 -24 24v433h-101v-448c0 -23 6 -50 18 -70c12 -21 31 -37 58 -37c9 0 18 3 27 8c18 10 32 24 44 36c5 5 9 9 11 10v-46h101v547h-101z" />
    <glyph glyph-name="ugrave" unicode="&#xf9;"
d="M160 727h-105l79 -90h78zM196 547v-431c-3 -5 -6 -10 -9 -13c-7 -7 -13 -13 -24 -13c-12 0 -24 3 -24 24v433h-101v-448c0 -23 6 -50 18 -70c12 -21 31 -37 58 -37c9 0 18 3 27 8c18 10 32 24 44 36c5 5 9 9 11 10v-46h101v547h-101z" />
    <glyph glyph-name="uhungarumlaut" unicode="&#x171;"
d="M174 727h-105l-52 -90h78zM322 727h-105l-52 -90h78zM196 547v-431c-3 -5 -6 -10 -9 -13c-7 -7 -13 -13 -24 -13c-12 0 -24 3 -24 24v433h-101v-448c0 -23 6 -50 18 -70c12 -21 31 -37 58 -37c9 0 18 3 27 8c18 10 32 24 44 36c5 5 9 9 11 10v-46h101v547h-101z" />
    <glyph glyph-name="umacron" unicode="&#x16b;"
d="M73 721v-79h194v79h-194zM196 547v-431c-3 -5 -6 -10 -9 -13c-7 -7 -13 -13 -24 -13c-12 0 -24 3 -24 24v433h-101v-448c0 -23 6 -50 18 -70c12 -21 31 -37 58 -37c9 0 18 3 27 8c18 10 32 24 44 36c5 5 9 9 11 10v-46h101v547h-101z" />
    <glyph glyph-name="uogonek" unicode="&#x173;"
d="M297 0h-46c-17 -15 -29 -30 -38 -50c-5 -10 -7 -21 -7 -33c0 -29 27 -38 50 -38c17 0 30 4 42 9l-8 -67c-21 -7 -34 -9 -51 -9c-65 0 -102 40 -102 85c0 28 16 53 33 72c9 11 20 22 33 31h-7v46c-2 -1 -6 -5 -11 -10c-12 -12 -26 -26 -44 -36c-9 -5 -18 -8 -27 -8
c-27 0 -46 16 -58 37c-12 20 -18 47 -18 70v448h101v-433c0 -21 12 -24 24 -24c11 0 17 6 24 13c3 3 6 8 9 13v431h101v-547z" />
    <glyph glyph-name="uring" unicode="&#x16f;"
d="M95 694c0 -41 34 -70 75 -70s74 29 74 70s-33 70 -74 70s-75 -29 -75 -70zM133 694c0 19 18 35 37 35s37 -16 37 -35s-18 -35 -37 -35s-37 16 -37 35zM196 547v-431c-3 -5 -6 -10 -9 -13c-7 -7 -13 -13 -24 -13c-12 0 -24 3 -24 24v433h-101v-448c0 -23 6 -50 18 -70
c12 -21 31 -37 58 -37c9 0 18 3 27 8c18 10 32 24 44 36c5 5 9 9 11 10v-46h101v547h-101z" />
    <glyph glyph-name="utilde" unicode="&#x169;"
d="M73 711v-74c5 3 10 5 16 8c11 4 22 8 37 8c16 -1 31 -4 45 -10c13 -6 28 -9 43 -9c7 0 14 1 20 3c12 3 24 8 33 16v74c-5 -3 -10 -5 -16 -8c-11 -4 -22 -8 -37 -8c-15 1 -30 5 -44 11c-14 5 -29 8 -44 8c-7 0 -14 -1 -20 -3c-12 -4 -24 -9 -33 -16zM196 547v-431
c-3 -5 -6 -10 -9 -13c-7 -7 -13 -13 -24 -13c-12 0 -24 3 -24 24v433h-101v-448c0 -23 6 -50 18 -70c12 -21 31 -37 58 -37c9 0 18 3 27 8c18 10 32 24 44 36c5 5 9 9 11 10v-46h101v547h-101z" />
    <glyph glyph-name="v" unicode="v" horiz-adv-x="294"
d="M97 0h100l89 547h-98l-33 -317l-4 -35h-8l-4 35l-33 317h-98z" />
    <glyph glyph-name="w" unicode="w" horiz-adv-x="442"
d="M267 0h84l81 547h-92l-32 -286l-4 -31h-6l-5 31l-42 286h-60l-42 -286l-5 -31h-6l-4 31l-32 286h-92l81 -547h84l39 261l5 31h4l5 -31z" />
    <glyph glyph-name="wcircumflex" unicode="&#x175;" horiz-adv-x="442"
d="M276 727h-107l-69 -90h92l30 35l31 -35h92zM267 0h84l81 547h-92l-32 -286l-4 -31h-6l-5 31l-42 286h-60l-42 -286l-5 -31h-6l-4 31l-32 286h-92l81 -547h84l39 261l5 31h4l5 -31z" />
    <glyph glyph-name="x" unicode="x" horiz-adv-x="302"
d="M102 282l-94 -282h98l41 138l3 15h2l3 -15l41 -138h98l-94 282l86 265h-95l-36 -128l-3 -15h-2l-3 15l-36 128h-95z" />
    <glyph glyph-name="y" unicode="y" horiz-adv-x="310"
d="M16 -104v-90c12 -1 24 -2 33 -2h12c40 0 72 20 96 49s39 67 44 106l97 588h-99l-40 -336l-2 -28h-4l-2 28l-40 336h-99l93 -563c0 -10 -1 -20 -4 -30c-6 -21 -17 -38 -33 -50s-41 -10 -46 -9c-3 0 -5 0 -6 1z" />
    <glyph glyph-name="yacute" unicode="&#xfd;" horiz-adv-x="310"
d="M270 727h-105l-52 -90h78zM16 -104v-90c12 -1 24 -2 33 -2h12c40 0 72 20 96 49s39 67 44 106l97 588h-99l-40 -336l-2 -28h-4l-2 28l-40 336h-99l93 -563c0 -10 -1 -20 -4 -30c-6 -21 -17 -38 -33 -50s-41 -10 -46 -9c-3 0 -5 0 -6 1z" />
    <glyph glyph-name="ycircumflex" unicode="&#x177;" horiz-adv-x="310"
d="M210 727h-107l-69 -90h92l30 35l31 -35h92zM16 -104v-90c12 -1 24 -2 33 -2h12c40 0 72 20 96 49s39 67 44 106l97 588h-99l-40 -336l-2 -28h-4l-2 28l-40 336h-99l93 -563c0 -10 -1 -20 -4 -30c-6 -21 -17 -38 -33 -50s-41 -10 -46 -9c-3 0 -5 0 -6 1z" />
    <glyph glyph-name="ydieresis" unicode="&#xff;" horiz-adv-x="310"
d="M38 735v-98h93v98h-93zM179 735v-98h93v98h-93zM16 -104v-90c12 -1 24 -2 33 -2h12c40 0 72 20 96 49s39 67 44 106l97 588h-99l-40 -336l-2 -28h-4l-2 28l-40 336h-99l93 -563c0 -10 -1 -20 -4 -30c-6 -21 -17 -38 -33 -50s-41 -10 -46 -9c-3 0 -5 0 -6 1z" />
    <glyph glyph-name="z" unicode="z" horiz-adv-x="260"
d="M6 82v-82h246v92h-139l139 373v82h-224v-92h117z" />
    <glyph glyph-name="zacute" unicode="&#x17a;" horiz-adv-x="260"
d="M210 727h-105l-52 -90h78zM6 82v-82h246v92h-139l139 373v82h-224v-92h117z" />
    <glyph glyph-name="zcaron" unicode="&#x17e;" horiz-adv-x="260"
d="M81 637h107l69 90h-92l-31 -35l-30 35h-92zM6 82v-82h246v92h-139l139 373v82h-224v-92h117z" />
    <glyph glyph-name="zdotaccent" unicode="&#x17c;" horiz-adv-x="260"
d="M81 735v-101h101v101h-101zM6 82v-82h246v92h-139l139 373v82h-224v-92h117z" />
    <glyph glyph-name="fi" unicode="&#xfb01;" horiz-adv-x="377"
d="M236 0h101v547h-175v14v25c0 10 1 20 4 30c5 19 14 35 37 35c17 0 31 -2 40 -3c5 -1 10 -2 14 -3v90c-7 1 -15 2 -22 3c-13 3 -31 4 -50 4c-63 0 -94 -30 -109 -68c-16 -38 -15 -84 -15 -112v-15h-51v-91h51v-456h101v456h74v-456z" />
    <glyph glyph-name="fl" unicode="&#xfb02;" horiz-adv-x="377"
d="M236 0h101v735h-80c-7 1 -15 2 -22 3c-13 3 -31 4 -50 4c-63 0 -94 -30 -109 -68c-16 -38 -15 -84 -15 -112v-15h-51v-91h51v-456h101v456h51v91h-51v14v25c0 10 1 20 4 30c5 19 14 35 37 35c15 0 24 -1 33 -2v-649z" />
    <glyph glyph-name="zero" unicode="0" horiz-adv-x="354"
d="M321 151v433c-1 29 -7 56 -18 79c-9 20 -23 40 -43 55s-47 25 -83 25s-64 -10 -84 -25s-33 -35 -42 -55c-11 -23 -17 -50 -18 -79v-433c1 -30 7 -57 18 -80c9 -20 22 -39 42 -54c20 -16 48 -25 84 -25s63 9 83 25c20 15 34 34 43 54c11 23 17 50 18 80zM213 584v-433
c0 -11 -1 -20 -4 -27c-4 -15 -13 -27 -32 -27c-9 0 -16 3 -21 8c-10 11 -15 25 -15 46v433c0 10 1 19 4 27c4 13 13 27 32 27c9 0 17 -3 22 -8c10 -12 14 -26 14 -46z" />
    <glyph glyph-name="one" unicode="1" horiz-adv-x="232"
d="M12 576h72v-576h108v735h-65c-6 -13 -14 -26 -24 -38c-19 -20 -46 -43 -91 -52v-69z" />
    <glyph glyph-name="two" unicode="2" horiz-adv-x="357"
d="M30 502h108v51c0 24 2 46 7 63c5 16 14 27 29 27c16 0 25 -13 30 -30s6 -40 6 -60c-1 -45 -14 -95 -31 -146s-39 -101 -62 -145c-27 -52 -57 -104 -90 -155v-107h293v107h-171c28 47 70 122 106 206c35 83 63 172 63 247c0 51 -8 97 -30 130c-22 32 -59 53 -114 53
c-59 0 -95 -23 -116 -58s-28 -83 -28 -132v-51z" />
    <glyph glyph-name="three" unicode="3" horiz-adv-x="335"
d="M112 332h9c23 -1 41 -6 53 -13c23 -15 30 -40 30 -76c-1 -19 -1 -40 -1 -63c0 -21 0 -44 -4 -62s-13 -31 -30 -31c-13 0 -22 6 -28 26c-6 19 -9 50 -9 99h-106c0 -41 2 -97 21 -141c19 -45 54 -79 122 -79c23 0 42 4 58 13c31 17 51 46 63 78c11 32 17 63 18 84
c1 11 1 18 1 21c0 85 -10 161 -62 202l1 1c33 33 52 85 52 194c0 9 -1 49 -19 86s-53 72 -121 72s-101 -34 -119 -78c-18 -45 -19 -101 -19 -142h106c0 49 2 80 7 100c4 19 12 25 25 25c17 0 26 -13 30 -32s4 -42 4 -63v-59s-2 -29 -7 -39c-9 -21 -30 -30 -75 -33v-90z" />
    <glyph glyph-name="four" unicode="4" horiz-adv-x="334"
d="M179 160v-160h99v160h50v95h-50v480h-108l-158 -480v-95h167zM104 255l63 230l6 22h6v-252h-75z" />
    <glyph glyph-name="five" unicode="5" horiz-adv-x="344"
d="M210 348v-164c0 -37 -3 -63 -8 -77s-14 -21 -25 -21c-13 0 -21 7 -26 22c-5 14 -7 40 -7 77v29h-108c0 -49 2 -104 21 -147c19 -44 53 -75 120 -75c65 0 101 31 120 71c19 39 21 86 21 121v164c0 12 -2 50 -18 85s-46 67 -102 67c-7 1 -15 0 -22 -3
c-15 -5 -28 -13 -40 -22v153h168v107h-261v-387h91c0 8 4 22 12 34c8 11 18 20 30 20c23 0 34 -23 34 -54z" />
    <glyph glyph-name="six" unicode="6" horiz-adv-x="342"
d="M314 151v150c0 20 -2 60 -18 93s-46 62 -102 62c-19 0 -35 -7 -54 -18v131c0 28 2 48 7 61c4 13 13 19 26 19c16 0 24 -7 28 -26s5 -51 5 -100h108v46c0 25 -1 70 -20 107c-19 36 -53 67 -121 67s-102 -31 -121 -67c-19 -37 -20 -82 -20 -107v-418c0 -17 2 -57 21 -92
c19 -36 53 -67 120 -67c65 0 101 31 120 67c19 35 21 75 21 92zM140 119v223c1 11 10 30 33 30s33 -24 33 -33v-220c0 -9 -10 -33 -33 -33c-25 0 -33 24 -33 33z" />
    <glyph glyph-name="seven" unicode="7" horiz-adv-x="288"
d="M166 628l-110 -628h112l108 627v108h-272v-107h162z" />
    <glyph glyph-name="eight" unicode="8" horiz-adv-x="340"
d="M314 157v86c0 55 -19 110 -56 145c33 33 50 84 50 135v62c0 9 0 49 -18 86s-52 72 -120 72s-101 -35 -119 -72s-19 -77 -19 -86v-62c0 -51 17 -102 50 -135c-37 -35 -56 -90 -56 -145v-86c0 -7 1 -27 6 -51c5 -25 17 -53 38 -75s53 -39 100 -39s79 17 100 39s33 50 38 75
c5 24 6 44 6 51zM202 547c0 -39 -2 -67 -5 -84c-4 -18 -13 -27 -27 -27s-23 9 -26 27c-8 35 -7 134 2 163c4 15 12 22 24 22c14 0 23 -8 27 -25c3 -17 5 -42 5 -76zM209 200c0 -34 -2 -61 -5 -80c-4 -19 -15 -29 -34 -29c-15 0 -25 8 -30 25c-10 32 -11 139 -3 182
c3 21 14 32 33 32s30 -11 34 -32c3 -21 5 -54 5 -98z" />
    <glyph glyph-name="nine" unicode="9" horiz-adv-x="342"
d="M28 584v-143c0 -20 2 -60 18 -93s46 -62 102 -62c19 0 35 7 54 18v-138c0 -28 -2 -48 -6 -61c-5 -13 -14 -19 -27 -19c-16 0 -24 7 -28 26s-5 51 -5 100h-108v-46c0 -27 1 -70 20 -106c19 -37 53 -68 121 -68s102 31 121 68c19 36 20 79 20 106v418c0 17 -2 57 -21 93
c-19 35 -55 66 -120 66c-67 0 -101 -31 -120 -66c-19 -36 -21 -76 -21 -93zM202 616v-216c-1 -11 -10 -30 -33 -30s-33 24 -33 33v213c0 9 10 33 33 33c25 0 33 -24 33 -33z" />
    <glyph glyph-name="asterisk" unicode="*" horiz-adv-x="331"
d="M128 735l9 -86l-80 34l-21 -72l84 -17l-56 -67l64 -39l37 74l38 -74l64 39l-56 67l84 17l-21 72l-80 -34l9 86h-75z" />
    <glyph glyph-name="backslash" unicode="\" horiz-adv-x="387"
d="M383 -88l-300 914h-79l297 -914h82z" />
    <glyph glyph-name="bullet" unicode="&#x2022;" horiz-adv-x="324"
d="M40 399c0 -35 14 -65 36 -87s52 -36 87 -36c33 0 64 14 86 36s35 52 35 87c0 33 -13 64 -35 86s-53 35 -86 35c-35 0 -65 -13 -87 -35s-36 -53 -36 -86z" />
    <glyph glyph-name="colon" unicode=":" horiz-adv-x="177"
d="M36 547v-111h105v111h-105zM36 111v-111h105v111h-105z" />
    <glyph glyph-name="comma" unicode="," horiz-adv-x="151"
d="M127 0v111h-105v-111h35l-35 -130h50z" />
    <glyph glyph-name="ellipsis" unicode="&#x2026;" horiz-adv-x="471"
d="M26 111v-111h105v111h-105zM183 111v-111h105v111h-105zM340 111v-111h105v111h-105z" />
    <glyph glyph-name="exclam" unicode="!" horiz-adv-x="189"
d="M36 735l27 -537h63l27 537h-117zM42 111v-111h105v111h-105z" />
    <glyph glyph-name="exclamdown" unicode="&#xa1;" horiz-adv-x="189"
d="M42 547v-111h105v111h-105zM63 349l-27 -537h117l-27 537h-63z" />
    <glyph glyph-name="numbersign" unicode="#" horiz-adv-x="602"
d="M37 309l-13 -95h97l-29 -214h96l29 214h127l-29 -214h96l29 214h93l13 95h-93l18 126h94l13 95h-94l28 205h-96l-28 -205h-127l28 205h-96l-28 -205h-96l-13 -95h96l-18 -126h-97zM230 309l18 126h127l-18 -126h-127z" />
    <glyph glyph-name="period" unicode="." horiz-adv-x="157"
d="M26 111v-111h105v111h-105z" />
    <glyph glyph-name="periodcentered" unicode="&#xb7;" horiz-adv-x="105"
d="M0 428v-111h105v111h-105z" />
    <glyph glyph-name="question" unicode="?" horiz-adv-x="315"
d="M103 198h93v125c0 19 2 36 6 53c8 32 21 60 35 84c7 11 13 22 19 32c21 36 39 66 39 107c0 20 -4 54 -22 84s-52 55 -108 56c-47 1 -82 -22 -106 -49c-25 -28 -42 -59 -47 -75l87 -41c3 9 10 28 21 44c11 15 24 27 43 27c15 0 24 -8 29 -18c4 -10 5 -21 4 -28
c-3 -13 -12 -32 -26 -55c-15 -25 -32 -53 -45 -89s-22 -79 -22 -132v-125zM97 111v-111h105v111h-105z" />
    <glyph glyph-name="questiondown" unicode="&#xbf;" horiz-adv-x="315"
d="M218 436v111h-105v-111h105zM212 349h-93v-125c0 -19 -2 -36 -6 -52c-8 -33 -20 -61 -34 -84c-7 -12 -14 -23 -20 -33c-21 -36 -39 -66 -39 -107c0 -20 5 -53 23 -83s51 -56 107 -57c45 -1 82 22 107 50c24 27 39 58 46 74l-87 41c-3 -11 -10 -28 -21 -43
c-11 -16 -26 -28 -43 -28c-15 0 -24 9 -28 19c-5 10 -6 20 -5 27c3 13 12 32 26 55c15 25 32 53 45 89c12 36 22 79 22 132v125z" />
    <glyph glyph-name="quotedbl" unicode="&#x22;" horiz-adv-x="260"
d="M53 466h75l15 269h-105zM177 466h75l15 269h-105z" />
    <glyph glyph-name="quotesingle" unicode="'" horiz-adv-x="151"
d="M43 466h75l15 269h-105z" />
    <glyph glyph-name="semicolon" unicode=";" horiz-adv-x="177"
d="M36 547v-111h105v111h-105zM141 0v111h-105v-111h35l-35 -130h50z" />
    <glyph glyph-name="slash" unicode="/" horiz-adv-x="352"
d="M269 735l-265 -807h82l262 807h-79z" />
    <glyph glyph-name="underscore" unicode="_" horiz-adv-x="591"
d="M36 -75v-84h519v84h-519z" />
    <glyph glyph-name="braceleft" unicode="{" horiz-adv-x="336"
d="M308 659v84c-77 1 -131 -6 -165 -33s-49 -72 -49 -147v-194c0 -7 -3 -24 -12 -39c-9 -16 -25 -29 -52 -29v-80c27 -1 43 -15 52 -30c9 -16 12 -31 12 -38v-194c0 -75 15 -120 49 -147s88 -34 165 -33v84c-43 0 -72 3 -91 18s-27 38 -27 78v194c0 52 -23 83 -62 108
c39 24 62 55 62 108v194c0 40 8 63 27 78s48 18 91 18z" />
    <glyph glyph-name="braceright" unicode="}" horiz-adv-x="336"
d="M242 369v194c0 75 -14 120 -48 147s-89 34 -166 33v-84c43 0 72 -3 91 -18s27 -38 27 -78v-194c0 -53 23 -84 62 -108c-39 -25 -62 -56 -62 -108v-194c0 -40 -8 -63 -27 -78s-48 -18 -91 -18v-84c77 -1 132 6 166 33s48 72 48 147v194c0 7 3 22 12 38c9 15 25 29 52 30
v80c-27 0 -43 13 -52 29c-9 15 -12 32 -12 39z" />
    <glyph glyph-name="bracketleft" unicode="[" horiz-adv-x="263"
d="M235 639v96h-195v-839h195v96h-99v647h99z" />
    <glyph glyph-name="bracketright" unicode="]" horiz-adv-x="263"
d="M28 735v-96h99v-647h-99v-96h195v839h-195z" />
    <glyph glyph-name="parenleft" unicode="(" horiz-adv-x="274"
d="M254 735l-79 41c-27 -42 -51 -88 -72 -137c-36 -84 -71 -199 -71 -324c0 -63 7 -122 22 -177c29 -112 68 -200 121 -283l79 41c-24 34 -45 73 -63 116c-32 75 -63 178 -63 303c0 63 7 120 20 171c26 102 58 180 106 249z" />
    <glyph glyph-name="parenright" unicode=")" horiz-adv-x="274"
d="M99 776l-79 -41c23 -35 44 -74 63 -117c31 -75 63 -178 63 -303c0 -63 -7 -119 -20 -170c-27 -102 -59 -181 -106 -249l79 -41c26 41 50 87 71 136c36 84 72 199 72 324c0 63 -7 122 -22 178c-30 111 -69 199 -121 283z" />
    <glyph glyph-name="emdash" unicode="&#x2014;" horiz-adv-x="475"
d="M36 412v-95h403v95h-403z" />
    <glyph glyph-name="endash" unicode="&#x2013;" horiz-adv-x="394"
d="M36 412v-95h322v95h-322z" />
    <glyph glyph-name="hyphen" unicode="-" horiz-adv-x="217"
d="M36 317v-95h145v95h-145z" />
    <glyph glyph-name="quotedblbase" unicode="&#x201e;" horiz-adv-x="305"
d="M131 0v111h-105v-111h35l-35 -130h50zM279 0v111h-105v-111h35l-35 -130h50z" />
    <glyph glyph-name="quotedblleft" unicode="&#x201c;" horiz-adv-x="305"
d="M26 605v-111h105v111h-35l35 130h-50zM174 605v-111h105v111h-35l35 130h-50z" />
    <glyph glyph-name="quotedblright" unicode="&#x201d;" horiz-adv-x="305"
d="M131 624v111h-105v-111h35l-35 -130h50zM279 624v111h-105v-111h35l-35 -130h50z" />
    <glyph glyph-name="quoteleft" unicode="&#x2018;" horiz-adv-x="151"
d="M24 605v-111h105v111h-35l35 130h-50z" />
    <glyph glyph-name="quoteright" unicode="&#x2019;" horiz-adv-x="151"
d="M127 624v111h-105v-111h35l-35 -130h50z" />
    <glyph glyph-name="quotesinglbase" unicode="&#x201a;" horiz-adv-x="151"
d="M127 0v111h-105v-111h35l-35 -130h50z" />
    <glyph glyph-name="space" unicode=" " horiz-adv-x="154"
 />
    <glyph glyph-name="cent" unicode="&#xa2;" horiz-adv-x="311"
d="M194 765h-60v-118c-60 -9 -102 -53 -102 -160v-239c0 -108 42 -152 102 -161v-147h60v148c61 9 93 51 93 155v53h-92v-76c0 -33 -13 -44 -36 -44c-27 0 -35 24 -35 44v295c0 20 8 44 35 44c23 0 36 -11 36 -44v-66h92v43c0 52 -8 88 -23 112c-16 24 -39 37 -70 42v119z
" />
    <glyph glyph-name="dollar" unicode="$" horiz-adv-x="338"
d="M200 795h-60v-64c-40 -9 -67 -33 -83 -64s-22 -67 -22 -103c0 -21 3 -41 10 -61c12 -40 33 -76 57 -111s43 -60 63 -86c9 -13 18 -27 27 -41c16 -28 28 -57 28 -85c0 -24 -3 -46 -10 -62c-7 -17 -18 -28 -35 -28c-23 0 -37 11 -47 28c-10 16 -15 39 -16 63l-94 -6
c1 -41 11 -80 30 -111s48 -53 92 -61v-108h60v106c45 5 75 29 94 62c19 32 26 74 26 118c0 21 -3 42 -9 62c-13 39 -34 76 -58 110c-12 17 -23 33 -34 48c-19 25 -40 53 -56 81c-16 27 -28 56 -28 84c0 20 4 39 10 54s15 25 31 25c31 1 41 -28 45 -61l94 12
c-4 33 -13 66 -31 91s-44 43 -84 47v61z" />
    <glyph glyph-name="Euro" unicode="&#x20ac;" horiz-adv-x="397"
d="M26 468v-67h52v-67h-52v-67h52v-116c1 -30 7 -57 18 -80c9 -20 22 -39 42 -54c20 -16 48 -25 84 -25s63 9 83 25c20 15 34 34 43 54c11 23 17 50 18 80v41h-101v-41c0 -11 -1 -20 -4 -27c-5 -15 -14 -27 -37 -27c-9 0 -16 3 -21 8c-10 11 -16 25 -17 46v116h114v67h-114
v67h114v67h-114v116c1 10 2 19 5 27c5 13 14 27 33 27c11 0 20 -3 25 -8c11 -12 16 -26 16 -46v-41h101v41c-1 29 -7 56 -18 79c-9 20 -23 40 -43 55s-47 25 -83 25s-64 -10 -84 -25s-33 -35 -42 -55c-11 -23 -17 -50 -18 -79v-116h-52z" />
    <glyph glyph-name="sterling" unicode="&#xa3;" horiz-adv-x="399"
d="M249 547h104c0 49 -8 99 -32 136c-24 36 -65 61 -130 60c-55 -1 -90 -25 -113 -60s-31 -81 -31 -122s19 -104 38 -167l3 -10h-72v-67h92c9 -31 15 -60 15 -85c0 -28 -7 -66 -18 -97c-17 -3 -32 -11 -45 -22c-25 -23 -43 -49 -58 -82l71 -39c3 9 8 18 14 25
c9 12 23 25 42 25s40 -13 63 -25s46 -25 70 -25c64 0 115 63 123 186l-92 11c-1 -34 -6 -58 -14 -71c-8 -14 -17 -21 -26 -22c-11 1 -22 4 -31 11c-10 6 -21 12 -34 18c19 39 28 80 28 107c0 23 -4 52 -12 85h85v67h-103l-3 12c-17 56 -34 112 -34 165c0 19 2 39 10 55
c7 16 18 27 34 27c23 0 37 -11 45 -29s11 -43 11 -67z" />
    <glyph glyph-name="yen" unicode="&#xa5;" horiz-adv-x="352"
d="M36 233v-67h86v-166h108v166h86v67h-86v67h86v67h-72l96 368h-106l-54 -235l-3 -7h-2l-3 7l-54 235h-106l96 -368h-72v-67h86v-67h-86z" />
    <glyph glyph-name="asciitilde" unicode="~" horiz-adv-x="625"
d="M55 660l66 -28c6 17 14 31 23 44c16 23 40 44 75 44c31 0 59 -17 87 -36c39 -25 77 -49 133 -49c27 0 51 8 71 23c39 31 67 71 88 128l-66 28c-7 -17 -14 -32 -23 -45c-15 -23 -39 -44 -70 -44s-58 16 -85 35c-39 24 -75 50 -135 50c-29 0 -54 -8 -75 -23
c-41 -32 -70 -71 -89 -127z" />
    <glyph glyph-name="equal" unicode="=" horiz-adv-x="517"
d="M36 506v-84h445v84h-445zM36 317v-84h445v84h-445z" />
    <glyph glyph-name="greater" unicode="&#x3e;" horiz-adv-x="517"
d="M481 317v78l-445 232v-97l341 -174l-341 -174v-97z" />
    <glyph glyph-name="less" unicode="&#x3c;" horiz-adv-x="517"
d="M36 395v-78l445 -232v97l-341 174l341 174v97z" />
    <glyph glyph-name="minus" unicode="&#x2212;" horiz-adv-x="379"
d="M36 401v-84h307v84h-307z" />
    <glyph glyph-name="percent" unicode="%" horiz-adv-x="489"
d="M182 445v213c-1 16 -4 30 -10 42c-11 21 -28 43 -67 43c-20 0 -35 -4 -45 -13c-21 -18 -33 -40 -33 -72v-213c0 -17 3 -31 9 -43c11 -23 29 -43 69 -43c19 0 34 4 44 13c20 17 32 40 33 73zM77 0h67l267 735h-64zM122 658v-213c0 -11 -2 -27 -17 -27c-17 0 -19 16 -18 27
v213c-1 5 0 9 1 13c3 7 6 14 17 14c5 0 8 -1 10 -4c4 -6 7 -14 7 -23zM463 77v213c-1 16 -4 30 -10 43c-11 21 -28 43 -67 43c-20 0 -35 -4 -45 -13c-21 -18 -33 -41 -33 -73v-213c0 -17 3 -31 9 -43c11 -21 29 -42 69 -42c19 0 34 4 44 13c20 17 32 39 33 72zM403 290v-213
c0 -5 -1 -10 -2 -14c-3 -7 -6 -14 -15 -14c-5 0 -9 2 -11 5c-5 6 -8 12 -7 23v213c-1 5 0 9 1 13c3 7 6 14 17 14c5 0 8 -1 10 -4c4 -6 7 -14 7 -23z" />
    <glyph glyph-name="plus" unicode="+" horiz-adv-x="518"
d="M36 401v-84h181v-169h84v169h181v84h-181v169h-84v-169h-181z" />
    <glyph glyph-name="ampersand" unicode="&#x26;" horiz-adv-x="417"
d="M397 319l-86 16c-3 -17 -10 -66 -23 -103c-19 28 -40 66 -72 139c29 38 53 75 72 111c38 71 31 134 14 181c-15 40 -47 80 -115 80c-34 0 -60 -8 -78 -25c-36 -33 -53 -75 -54 -135c0 -77 17 -144 52 -216c-41 -63 -83 -130 -83 -213c0 -44 16 -83 42 -113
s63 -49 106 -49c45 0 87 27 123 68c11 -12 22 -22 33 -30c23 -17 42 -29 55 -34c7 -3 11 -4 14 -4v115c-3 1 -9 5 -17 11c-8 5 -17 14 -28 26c16 32 27 69 34 101s10 61 11 74zM225 586c0 -39 -25 -86 -49 -123c-9 22 -16 42 -20 61c-9 37 -9 73 -4 96c4 19 14 37 35 37
c11 0 19 -4 24 -11c11 -15 15 -35 14 -60zM238 128c-19 -24 -34 -42 -61 -42c-14 0 -25 7 -34 21c-18 27 -17 71 -12 100c5 28 11 48 22 65c31 -57 58 -101 85 -144z" />
    <glyph glyph-name="at" unicode="@" horiz-adv-x="426"
d="M398 195v387c0 24 -9 65 -36 99c-28 34 -74 62 -147 62s-119 -28 -146 -62c-28 -34 -37 -75 -37 -99v-434c0 -23 9 -62 37 -95c27 -33 73 -61 146 -61c84 0 129 34 156 70l-74 42c-16 -20 -39 -31 -82 -31c-37 0 -60 13 -74 29c-14 15 -19 34 -19 46v434c0 11 5 30 19 47
c14 16 37 30 74 30s61 -14 75 -30c14 -17 18 -36 18 -47v-22c-3 6 -8 11 -13 16c-9 8 -23 17 -42 17c-53 0 -71 -38 -71 -83v-237c0 -47 18 -84 71 -84c9 0 18 2 25 5c14 7 23 15 30 28l10 -27h80zM308 502v-222c0 -19 -9 -26 -24 -26s-23 9 -23 26v222c0 17 8 26 23 26
s24 -10 24 -26z" />
    <glyph glyph-name="bar" unicode="|" horiz-adv-x="174"
d="M40 -250h94v1076h-94v-1076z" />
    <glyph glyph-name="copyright" unicode="&#xa9;" horiz-adv-x="803"
d="M26 367c0 -103 42 -197 110 -265s162 -110 265 -110c104 0 198 42 266 110s110 162 110 265c0 104 -42 198 -110 266s-162 110 -266 110c-103 0 -197 -42 -265 -110s-110 -162 -110 -266zM84 367c0 87 36 167 94 225s136 93 223 93s167 -35 225 -93s93 -138 93 -225
s-35 -165 -93 -223s-138 -94 -225 -94s-165 36 -223 94s-94 136 -94 223zM492 299h-67v-61c1 -6 0 -11 -2 -16c-3 -8 -9 -15 -22 -15c-6 0 -11 2 -14 5c-7 6 -10 14 -10 26v259c0 5 1 10 3 15c3 8 9 16 21 16c7 0 12 -2 15 -5c7 -7 10 -15 9 -26v-61h67v61
c-1 18 -5 34 -12 48c-12 24 -33 48 -80 48c-24 0 -42 -5 -55 -15c-25 -20 -39 -45 -39 -81v-259c0 -18 4 -34 11 -48c12 -24 35 -48 83 -48c23 0 41 5 53 15c24 20 36 45 39 81v61z" />
    <glyph glyph-name="registered" unicode="&#xae;" horiz-adv-x="803"
d="M26 367c0 -103 42 -197 110 -265s162 -110 265 -110c104 0 198 42 266 110s110 162 110 265c0 104 -42 198 -110 266s-162 110 -266 110c-103 0 -197 -42 -265 -110s-110 -162 -110 -266zM84 367c0 87 36 167 94 225s136 93 223 93s167 -35 225 -93s93 -138 93 -225
s-35 -165 -93 -223s-138 -94 -225 -94s-165 36 -223 94s-94 136 -94 223zM401 582h-96v-429h71v178h27l46 -178h74l-52 195c40 33 43 65 43 108c0 79 -33 126 -113 126zM376 519h22c21 0 35 -9 41 -21s7 -28 7 -43s-1 -30 -7 -42s-20 -20 -41 -20h-22v126z" />
    <glyph glyph-name="trademark" unicode="&#x2122;" horiz-adv-x="458"
d="M36 684h51v-283h55v283h51v51h-157v-51zM304 401h25l38 219v-219h51v334h-67l-33 -156h-3l-33 156h-67v-334h50v219z" />
    <glyph glyph-name="asciicircum" unicode="^" horiz-adv-x="538"
d="M326 735h-114l-186 -340h97l146 265l146 -265h97z" />
    <glyph glyph-name="acute" unicode="&#xb4;" horiz-adv-x="500"
d="M357 727h-105l-52 -90h78z" />
    <glyph glyph-name="breve" unicode="&#x2d8;" horiz-adv-x="500"
d="M360 683l-52 46c-4 -5 -9 -9 -15 -12c-11 -7 -24 -11 -43 -11c-9 0 -17 1 -24 3c-14 4 -25 11 -32 20l-54 -46c8 -9 18 -17 29 -24c19 -12 46 -23 81 -23c17 0 33 2 46 7c27 9 47 23 64 40z" />
    <glyph glyph-name="caron" unicode="&#x2c7;" horiz-adv-x="499"
d="M196 637h107l69 90h-92l-31 -35l-30 35h-92z" />
    <glyph glyph-name="cedilla" unicode="&#xb8;" horiz-adv-x="500"
d="M292 -123v69h-84v-69h31l-20 -65h51z" />
    <glyph glyph-name="circumflex" unicode="&#x2c6;" horiz-adv-x="499"
d="M303 727h-107l-69 -90h92l30 35l31 -35h92z" />
    <glyph glyph-name="dieresis" unicode="&#xa8;" horiz-adv-x="500"
d="M133 735v-98h93v98h-93zM274 735v-98h93v98h-93z" />
    <glyph glyph-name="dotaccent" unicode="&#x2d9;" horiz-adv-x="499"
d="M199 735v-101h101v101h-101z" />
    <glyph glyph-name="grave" unicode="`" horiz-adv-x="500"
d="M248 727h-105l79 -90h78z" />
    <glyph glyph-name="hungarumlaut" unicode="&#x2dd;" horiz-adv-x="500"
d="M262 727h-105l-52 -90h78zM410 727h-105l-52 -90h78z" />
    <glyph glyph-name="macron" unicode="&#xaf;" horiz-adv-x="500"
d="M153 721v-79h194v79h-194z" />
    <glyph glyph-name="ogonek" unicode="&#x2db;" horiz-adv-x="500"
d="M284 0h-48c-13 -9 -24 -20 -33 -31c-17 -19 -33 -44 -33 -72c0 -45 37 -85 102 -85c17 0 30 2 51 9l8 67c-12 -5 -25 -9 -42 -9c-23 0 -50 9 -50 38c0 12 2 23 7 33c9 20 21 35 38 50z" />
    <glyph glyph-name="ring" unicode="&#x2da;" horiz-adv-x="499"
d="M175 694c0 -41 34 -70 75 -70s74 29 74 70s-33 70 -74 70s-75 -29 -75 -70zM213 694c0 19 18 35 37 35s37 -16 37 -35s-18 -35 -37 -35s-37 16 -37 35z" />
    <glyph glyph-name="tilde" unicode="&#x2dc;" horiz-adv-x="500"
d="M153 711v-74c5 3 10 5 16 8c11 4 22 8 37 8c16 -1 31 -4 45 -10c13 -6 28 -9 43 -9c7 0 14 1 20 3c12 3 24 8 33 16v74c-5 -3 -10 -5 -16 -8c-11 -4 -22 -8 -37 -8c-15 1 -30 5 -44 11c-14 5 -29 8 -44 8c-7 0 -14 -1 -20 -3c-12 -4 -24 -9 -33 -16z" />
    <glyph glyph-name="A" unicode="A" horiz-adv-x="374"
d="M10 0h105l20 150h104l20 -150h105l-111 735h-132zM193 496l31 -232h-74l31 232l3 19h6z" />
    <glyph glyph-name="Lcommaaccent" unicode="&#x13b;" horiz-adv-x="295"
d="M40 735v-735h251v100h-143v635h-108zM215 -123v69h-84v-69h31l-20 -65h51z" />
    <glyph glyph-name="Thorn" unicode="&#xde;" horiz-adv-x="354"
d="M40 735v-735h108v176c47 0 94 14 130 48s60 89 60 173s-24 140 -60 174s-83 46 -130 46h-1v118h-107zM148 286v221c33 0 54 -8 66 -26s15 -47 15 -88s-3 -68 -15 -84c-12 -17 -33 -23 -66 -23z" />
    <glyph glyph-name="uni0093" horiz-adv-x="305"
d="M26 605v-111h105v111h-35l35 130h-50zM174 605v-111h105v111h-35l35 130h-50z" />
    <glyph glyph-name="uni0094" horiz-adv-x="305"
d="M131 624v111h-105v-111h35l-35 -130h50zM279 624v111h-105v-111h35l-35 -130h50z" />
    <glyph glyph-name="uni201F" unicode="&#x201f;" horiz-adv-x="305"
d="M131 735h-105v-111l55 -130h50l-35 130h35v111zM279 735h-105v-111l55 -130h50l-35 130h35v111z" />
    </font>
</defs>
</svg>
