<?xml version="1.0" standalone="no"?>
<!DOCTYPE svg PUBLIC "-//W3C//DTD SVG 1.1//EN" "http://www.w3.org/Graphics/SVG/1.1/DTD/svg11.dtd" >
<svg xmlns="http://www.w3.org/2000/svg" xmlns:xlink="http://www.w3.org/1999/xlink" version="1.1">
<metadata>
Created by FontForge 20170910 at Thu Sep 27 11:07:13 2012
 By Jimmy Wärting
(c) 2011 Microsoft Corporation. All Rights Reserved.
</metadata>
<defs>
<font id="SegoeWP-Light" horiz-adv-x="1096" >
  <font-face 
    font-family="Segoe WP Light"
    font-weight="200"
    font-stretch="normal"
    units-per-em="2048"
    panose-1="2 11 3 2 4 2 4 2 2 3"
    ascent="1638"
    descent="-410"
    x-height="1024"
    cap-height="1485"
    bbox="-342 -602 2357 2130"
    underline-thickness="119"
    underline-position="-237"
    unicode-range="U+000D-FFE6"
  />
<missing-glyph horiz-adv-x="1322" 
d="M166 0v1398h990v-1398h-990zM314 148h694v1102h-694v-1102z" />
    <glyph glyph-name=".notdef" horiz-adv-x="1322" 
d="M166 0v1398h990v-1398h-990zM314 148h694v1102h-694v-1102z" />
    <glyph glyph-name="uni000D" unicode="&#xd;" horiz-adv-x="0" 
 />
    <glyph glyph-name="glyph2" horiz-adv-x="199" 
 />
    <glyph glyph-name="space" unicode=" " horiz-adv-x="561" 
 />
    <glyph glyph-name="exclam" unicode="!" horiz-adv-x="712" 
d="M237 102q0 52 35 86.5t86 34.5q49 0 84 -34.5t35 -86.5q0 -49 -35 -83.5t-84 -34.5q-51 0 -86 32.5t-35 85.5zM376 360h-43l-78 947l-4 90q0 114 103 114q104 0 104 -114l-6 -117z" />
    <glyph glyph-name="quotedbl" unicode="&#x22;" horiz-adv-x="602" 
d="M210 1520v-586h-106v586h106zM499 1520v-586h-106v586h106z" />
    <glyph glyph-name="numbersign" unicode="#" horiz-adv-x="1669" 
d="M972 1540l-178 -512h280l183 512h133l-181 -512h336l-39 -113h-337l-105 -294h361l-39 -113h-361l-180 -508h-135l182 508h-285l-182 -508h-135l180 508h-348l43 113h344l107 294h-373l37 113h374l183 512h135zM1033 915h-282l-103 -294h283z" />
    <glyph glyph-name="dollar" unicode="$" horiz-adv-x="1189" 
d="M540 -219l4 168v51q-217 0 -383 102q37 82 59 170q134 -190 320 -190l6 590q-201 49 -291 135t-90 231q0 146 98.5 246t272.5 125v41l-4 115q12 -6 43 -6l51 6l-4 -148q186 0 323 -94q-49 -68 -84 -137q-53 141 -239 160v-525l49 -10q356 -80 356 -375
q0 -168 -103.5 -281.5t-293.5 -148.5v-53l4 -172q-29 8 -47 8q-10 0 -24.5 -3t-22.5 -5zM546 844v495q-106 0 -175 -70.5t-69 -168.5q0 -187 244 -256zM622 88q114 14 182 92t68 199q0 110 -56.5 170.5t-193.5 103.5v-565z" />
    <glyph glyph-name="percent" unicode="%" horiz-adv-x="1669" 
d="M411 1411q141 0 233.5 -96t92.5 -254q0 -168 -96.5 -262t-252.5 -94q-141 0 -227 96t-86 258q0 153 95 252.5t241 99.5zM378 -203h-100l1018 1815h96zM1273 694q141 0 233.5 -96t92.5 -254q0 -168 -96.5 -262t-251.5 -94q-142 0 -228 96t-86 258q0 154 95.5 253t240.5 99
zM409 1346q-82 0 -128 -75t-46 -206q0 -158 41 -226.5t133 -68.5q168 0 168 279q0 157 -38 227t-130 70zM1271 629q-82 0 -128 -75t-46 -206q0 -158 41 -226.5t133 -68.5q168 0 168 279q0 157 -38 227t-130 70z" />
    <glyph glyph-name="ampersand" unicode="&#x26;" horiz-adv-x="1544" 
d="M978 246q-100 121 -198 246q-123 155 -209 270q-129 -74 -189.5 -163t-60.5 -206q0 -137 91 -232t226 -95q103 0 191 47t149 133zM1165 0q-68 102 -144 186q-196 -215 -469 -215q-184 0 -293.5 99.5t-109.5 263.5q0 149 92 260t293 219q-147 178 -147 342q0 152 90 242
t243 90q127 0 202 -66.5t75 -183.5q0 -92 -74 -195.5t-211 -187.5q180 -254 385 -473q66 86 127.5 198.5t108.5 233.5l88 -84q-70 -115 -134.5 -208t-146.5 -193q123 -148 193 -224q49 -53 104 -104q-55 8 -137 8h-61.5t-73.5 -8zM677 903q209 152 209 328q0 88 -45 141
t-121 53q-88 0 -140 -56t-52 -152q0 -136 149 -314z" />
    <glyph glyph-name="quotesingle" unicode="'" horiz-adv-x="311" 
d="M210 1520v-586h-106v586h106z" />
    <glyph glyph-name="parenleft" unicode="(" horiz-adv-x="595" 
d="M483 -276q-174 184 -256 402t-82 488q0 533 336 893l45 -39q-133 -180 -189.5 -380.5t-56.5 -464.5q0 -281 57.5 -487t186.5 -361z" />
    <glyph glyph-name="parenright" unicode=")" horiz-adv-x="595" 
d="M114 1511q170 -178 256 -395t86 -477q0 -279 -84 -503t-254 -408l-45 39q131 174 189.5 377.5t58.5 467.5q0 281 -57.5 482.5t-190.5 365.5z" />
    <glyph glyph-name="asterisk" unicode="*" horiz-adv-x="1073" 
d="M564 1075q0 -84 15 -174q8 -49 32 -158q-32 9 -73 9q-37 0 -70 -9q18 107 26.5 177.5t8.5 154.5q-143 -98 -260 -203q-25 68 -70 119q80 35 152.5 67t148.5 70q-76 37 -156.5 70t-150.5 53q41 49 72 125l266 -196q0 80 -10.5 152.5t-34.5 178.5q33 -8 69 -8q39 0 70 8
q-14 -102 -22.5 -176.5t-8.5 -154.5q74 51 134.5 97t126.5 107q24 -59 69 -120q-69 -27 -153 -66q-66 -31 -148 -72q152 -67 307 -122q-47 -58 -71 -123z" />
    <glyph glyph-name="plus" unicode="+" horiz-adv-x="1808" 
d="M956 1294v-596h584v-102h-584v-596h-102v596h-586v102h586v596h102z" />
    <glyph glyph-name="comma" unicode="," horiz-adv-x="593" 
d="M129 -393l-35 16l154 518q30 101 98 101q80 0 80 -82q0 -35 -27 -84z" />
    <glyph glyph-name="hyphen" unicode="-" horiz-adv-x="1808" 
d="M268 698h1272v-102h-1272v102z" />
    <glyph glyph-name="period" unicode="." horiz-adv-x="593" 
d="M176 100q0 52 35 86.5t86 34.5q49 0 84 -34.5t35 -86.5q0 -49 -35 -83.5t-84 -34.5q-51 0 -86 32.5t-35 85.5z" />
    <glyph glyph-name="slash" unicode="/" horiz-adv-x="610" 
d="M-47 -201l596 1829h96l-596 -1829h-96z" />
    <glyph glyph-name="zero" unicode="0" horiz-adv-x="1189" 
d="M270 711q0 -349 74 -509.5t252 -160.5q186 0 258 170q65 154 65 526q0 330 -76.5 486.5t-246.5 156.5q-178 0 -252 -159.5t-74 -509.5zM88 709q0 741 506 741q508 0 508 -741q0 -365 -129 -551.5t-379 -186.5q-506 0 -506 738z" />
    <glyph glyph-name="one" unicode="1" horiz-adv-x="1191" 
d="M540 0q0 195 7.5 474.5t7.5 297.5q0 117 -2.5 264.5t-4.5 274.5l-329 -193q-17 37 -31 57.5t-39 43.5q133 49 276 116q115 54 316 158q0 -51 -7 -324.5t-7 -506.5q0 -21 10 -418q4 -158 4 -244q-21 4 -51.5 6t-57.5 2h-38.5t-53.5 -8z" />
    <glyph glyph-name="two" unicode="2" horiz-adv-x="1191" 
d="M102 0v37q250 246 375 385q168 188 237 319q82 156 82 308q0 149 -68.5 234t-185.5 85q-200 0 -278 -256q-43 70 -86 121q143 217 401 217q193 0 300.5 -105.5t107.5 -289.5q0 -105 -41 -198t-129 -195q-35 -41 -119 -128.5t-164 -171.5q-94 -98 -199 -215l213 -4
q240 0 453 21l-4 -66l6 -98q-72 0 -251 4t-195 4q-80 0 -240 -4t-215 -4z" />
    <glyph glyph-name="three" unicode="3" horiz-adv-x="1191" 
d="M266 1184q-45 73 -86 121q72 69 162 107t196 38q179 0 282 -93t103 -253q0 -238 -301 -352q187 0 280 -89.5t93 -254.5q0 -197 -144.5 -317t-385.5 -120q-203 0 -330 74q12 39 22.5 86t10.5 88q45 -80 126 -126t183 -46q156 0 239 93t83 278q0 139 -71 216t-200 77
q-51 0 -123 -13l4 43l-4 47l47 -4q287 0 287 312q0 129 -62.5 203.5t-168.5 74.5q-82 0 -146.5 -50t-95.5 -140z" />
    <glyph glyph-name="four" unicode="4" horiz-adv-x="1191" 
d="M704 0q10 106 10 276q0 33 -1 65t-5 62l-322 5q-94 0 -181 -2.5t-165 -4.5v33q104 139 237.5 327.5t233.5 336.5q51 76 227 342h140q0 -56 -5.5 -284t-5.5 -355q0 -70 2 -137.5t5 -128.5l67 -5l125 5v-132l-195 5l-4 -144q0 -45 2 -128t9 -136q-37 6 -48.5 7t-37.5 1
q-47 0 -88 -8zM216 530h498v715q-60 -67 -178 -237q-129 -185 -320 -478z" />
    <glyph glyph-name="five" unicode="5" horiz-adv-x="1191" 
d="M289 694l-27 6q12 111 12 244q0 275 -18 465q65 -8 128.5 -10t158.5 -2q77 0 124 2q238 10 287 10l-6 -84l4 -65q-47 6 -126 8t-95 2h-356q-17 -185 -17 -406v-69q72 49 244 49q184 0 289.5 -105.5t105.5 -294.5q0 -215 -145.5 -344t-397.5 -129q-192 0 -319 78
q25 86 39 180q98 -182 309 -182q150 0 240 102.5t90 286.5q0 154 -79 239t-220 85q-127 0 -225 -66z" />
    <glyph glyph-name="six" unicode="6" horiz-adv-x="1191" 
d="M306 670q146 184 367 184q184 0 292.5 -108.5t108.5 -292.5q0 -220 -129 -351t-346 -131q-223 0 -349 159t-126 450q0 391 186 634q181 236 461 236q70 0 144 -20l-5 -54l7 -49q-66 47 -166 47q-183 0 -308 -178q-137 -197 -137 -526zM321 416q0 -168 79.5 -271.5
t200.5 -103.5q131 0 209 99.5t78 279.5q0 354 -275 354q-127 0 -209.5 -98t-82.5 -260z" />
    <glyph glyph-name="seven" unicode="7" horiz-adv-x="1191" 
d="M184 0q41 61 141 227q154 254 248 416q154 264 346 604h-401q-205 0 -328 -14l4 84l-6 92q49 0 261 -5t329 -5h41h35h30h27q43 0 88 2t86 8v-53q-305 -522 -506 -891q-184 -338 -237 -465q-17 4 -40.5 6t-39.5 2q-19 0 -35 -2t-43 -6z" />
    <glyph glyph-name="eight" unicode="8" horiz-adv-x="1189" 
d="M448 801q-258 82 -258 297q0 159 110.5 255.5t294.5 96.5q195 0 299.5 -86t104.5 -240q0 -239 -254 -317q327 -82 327 -387q0 -207 -129 -328t-348 -121q-227 0 -353 109.5t-126 308.5q0 154 80 252t252 160zM309 391q0 -170 74.5 -257t211.5 -87q133 0 207 88t74 256
q0 373 -271 373q-296 0 -296 -373zM376 1104q0 -273 219 -273q111 0 171.5 69t60.5 198q0 276 -226 276q-106 0 -165.5 -69.5t-59.5 -200.5z" />
    <glyph glyph-name="nine" unicode="9" horiz-adv-x="1191" 
d="M511 569q-180 0 -290.5 113t-110.5 303q0 205 134 335t349 130q224 0 347.5 -156.5t123.5 -449.5q0 -400 -174 -636.5t-452 -236.5q-56 0 -106 8.5t-103 28.5l4 47l-6 72q108 -84 227 -84q199 0 315 211q105 188 105 453l-4 55q-107 -193 -359 -193zM581 1380
q-131 0 -214 -108.5t-83 -286.5q0 -154 78 -242t213 -88q137 0 213 94.5t76 272.5q0 174 -74 266t-209 92z" />
    <glyph glyph-name="colon" unicode=":" horiz-adv-x="708" 
d="M235 100q0 52 35 86.5t86 34.5q49 0 84 -34.5t35 -86.5q0 -49 -35 -83.5t-84 -34.5q-51 0 -86 32.5t-35 85.5zM235 854q0 51 35 86t86 35q49 0 84 -35t35 -86q0 -49 -35 -84t-84 -35q-51 0 -86 33t-35 86z" />
    <glyph glyph-name="semicolon" unicode=";" horiz-adv-x="708" 
d="M247 856q0 51 35 86t86 35q49 0 84 -35t35 -86q0 -49 -35 -84t-84 -35q-51 0 -86 33t-35 86zM180 -393l-35 16l154 518q30 101 98 101q80 0 80 -82q0 -35 -27 -84z" />
    <glyph glyph-name="less" unicode="&#x3c;" horiz-adv-x="1808" 
d="M1527 1087l-1083 -440l1083 -438v-115l-1247 510v86l1247 512v-115z" />
    <glyph glyph-name="equal" unicode="=" horiz-adv-x="1808" 
d="M1540 897v-104h-1272v104h1272zM1540 502v-105h-1272v105h1272z" />
    <glyph glyph-name="greater" unicode="&#x3e;" horiz-adv-x="1808" 
d="M1527 690v-86l-1247 -510v115l1083 438l-1083 440v115z" />
    <glyph glyph-name="question" unicode="?" horiz-adv-x="835" 
d="M323 100q0 52 35 86.5t86 34.5q49 0 84 -34.5t35 -86.5q0 -49 -35 -83.5t-84 -34.5q-51 0 -86 32.5t-35 85.5zM567 453l-19 -64q-34 -10 -73 -10q-117 0 -182.5 69.5t-65.5 186.5q0 70 32.5 129t102.5 133l143 150q50 51 74.5 96t24.5 106q0 86 -49.5 137.5t-133.5 51.5
q-151 0 -210 -138l-23 134q133 77 254 77q141 0 226 -82.5t85 -226.5q0 -143 -135 -284l-121 -130q-69 -75 -98 -118q-35 -54 -35 -105q0 -57 34 -91t93 -34q29 0 76 13z" />
    <glyph glyph-name="at" unicode="@" horiz-adv-x="2170" 
d="M1281 498l66 262q-19 96 -80.5 153.5t-147.5 57.5q-163 0 -268.5 -142.5t-105.5 -357.5q0 -119 57 -184.5t162 -65.5q112 0 199 75t118 202zM1375 885l64 133h100l-149 -594q-6 -25 -11.5 -55.5t-5.5 -42.5q0 -105 111 -105q190 0 319 191q123 180 123 419
q0 267 -206.5 441t-540.5 174q-406 0 -670 -258t-264 -645q0 -340 235.5 -547t602.5 -207q182 0 355 53.5t318 151.5l41 -60q-313 -233 -692 -233q-436 0 -704 229q-279 238 -279 639q0 410 308 691.5t751 281.5q368 0 616 -199.5t248 -517.5q0 -280 -160 -481
q-168 -211 -426 -211q-202 0 -202 160l2 31q-109 -191 -314 -191q-164 0 -247.5 88t-83.5 258q0 248 143 414t350 166q201 0 268 -174z" />
    <glyph glyph-name="A" unicode="A" horiz-adv-x="1343" 
d="M-10 0q356 774 672 1511h41q106 -264 211 -520q94 -227 211 -504q129 -307 208 -487q-47 8 -106 8h-46t-65 -8q-43 131 -82 233q-51 136 -104 261l-37 86l-266 4l-268 -4q-29 -64 -88 -213q-70 -177 -138 -367q-12 4 -31.5 6t-39.5 2q-31 0 -48.5 -4t-23.5 -4zM627 1214
l-231 -534l163 -4l291 4l-37 90z" />
    <glyph glyph-name="B" unicode="B" horiz-adv-x="1294" 
d="M382 739v-215q0 -147 2 -241.5t11 -182.5q84 -18 147 -18q193 0 302.5 90t109.5 250q0 170 -102.5 248t-317.5 78zM569 1485q256 0 384 -79t128 -255q0 -141 -83 -231.5t-253 -122.5q405 -43 405 -359q0 -217 -147.5 -331.5t-437.5 -114.5q-50 0 -140 4t-116 4
q-29 0 -54.5 -1t-54.5 -7q6 71 10 308t4 448q0 165 -1 381.5t-13 355.5l106 -8q19 0 107 4t156 4zM382 834l6 -3q27 -4 61 -6t62 -2q195 0 284 79t89 237q0 137 -76 202q-82 72 -254 72q-63 0 -88 -2q-47 -8 -67 -10q-6 -31 -11.5 -137.5t-5.5 -141.5v-288z" />
    <glyph glyph-name="C" unicode="C" horiz-adv-x="1423" 
d="M1333 92q-166 -121 -487 -121q-361 0 -559.5 201t-198.5 567q0 351 217 561.5t590 210.5q254 0 467 -106q-35 -109 -35 -207q-152 232 -440 232q-271 0 -422.5 -180.5t-151.5 -512.5q0 -319 150.5 -501.5t408.5 -182.5q248 0 473 183z" />
    <glyph glyph-name="D" unicode="D" horiz-adv-x="1638" 
d="M194 1485q25 0 86 -4t76 -4q39 0 209 4t291 4q329 0 506.5 -183.5t177.5 -517.5q0 -385 -218.5 -588.5t-638.5 -203.5q-61 0 -186 4t-131 4h-80t-92 -8q6 71 10 308t4 448q0 165 -1 381.5t-13 355.5zM389 92q55 0 138 -5t89 -5q713 0 713 661q0 351 -144.5 505.5
t-470.5 154.5q-47 0 -159.5 -6t-167.5 -6q-5 -111 -6 -287t-1 -309q0 -136 2 -321t7 -382z" />
    <glyph glyph-name="E" unicode="E" horiz-adv-x="1075" 
d="M386 741v-106q0 -72 6.5 -276.5t6.5 -258.5h45q90 0 239.5 6.5t282.5 18.5l-2 -66l2 -67q-41 4 -154.5 6t-218.5 2h-393q6 72 10 307.5t4 444.5q0 440 -2 531t-12 202q49 0 149.5 -5t137.5 -5q78 0 263 5t218 5l-4 -74l4 -70q-162 33 -524 33h-51q0 -51 -2.5 -122.5
t-4.5 -135.5v-282h172q45 0 178.5 6t192.5 6l-4 -62l4 -61q-192 18 -371 18h-172z" />
    <glyph glyph-name="F" unicode="F" horiz-adv-x="1069" 
d="M388 741v-499q0 -105 3.5 -160t11.5 -82q-45 8 -101 8q-55 0 -100 -8q6 72 10 305.5t4 442.5q0 165 -1 381.5t-13 355.5q49 0 149.5 -5t137.5 -5q78 0 263 5t218 5l-4 -74l4 -70q-162 33 -524 33h-51q0 -51 -2.5 -122.5t-4.5 -135.5v-282h172q45 0 178.5 6t192.5 6
l-4 -62l4 -61q-192 18 -371 18h-172z" />
    <glyph glyph-name="G" unicode="G" horiz-adv-x="1585" 
d="M1476 66q-159 -46 -302.5 -70.5t-274.5 -24.5q-373 0 -590 203t-217 545q0 360 232.5 576t625.5 216q318 0 535 -139q-19 -55 -30 -97t-22 -93q-170 248 -516 248q-274 0 -442 -186.5t-168 -504.5q0 -315 175 -500.5t460 -185.5q176 0 348 74q4 45 5 117.5t1 97.5
q0 68 -5 143.5t-9 132.5q18 -4 48 -6t52 -2h49q37 6 52 8q0 -43 -7.5 -171t-7.5 -168q0 -125 8 -213z" />
    <glyph glyph-name="H" unicode="H" horiz-adv-x="1662" 
d="M399 1485q-6 -45 -10.5 -209t-4.5 -346v-80q23 -2 145 -4t306 -2l446 4v82q0 92 -4 203q-10 274 -10 352q45 -8 100 -8q56 0 101 8q-6 -72 -10.5 -300.5t-4.5 -436.5q0 -168 1 -388.5t14 -359.5q-45 8 -101 8q-55 0 -100 -8q6 201 10 345t4 302v103q-26 2 -175.5 4
t-270.5 2q-127 0 -235.5 -3t-215.5 -5v-99q0 -162 1 -358.5t14 -290.5q-45 8 -101 8q-55 0 -100 -8q6 72 10 305.5t4 442.5q0 165 -1 381.5t-13 355.5q45 -8 100 -8q56 0 101 8z" />
    <glyph glyph-name="I" unicode="I" horiz-adv-x="595" 
d="M399 1485q-6 -72 -10.5 -300.5t-4.5 -436.5q0 -168 1 -388.5t14 -359.5q-45 8 -101 8q-55 0 -100 -8q6 72 10 305.5t4 442.5q0 165 -1 381.5t-13 355.5q45 -8 100 -8q56 0 101 8z" />
    <glyph glyph-name="J" unicode="J" horiz-adv-x="598" 
d="M412 1485q-6 -72 -10 -300.5t-4 -436.5v-549q0 -248 -98.5 -363t-340.5 -139l-12 63q176 23 231 140q48 98 48 370v478q0 165 -1.5 381.5t-13.5 355.5q45 -8 101 -8q55 0 100 8z" />
    <glyph glyph-name="K" unicode="K" horiz-adv-x="1298" 
d="M391 791q100 0 680 694q41 -8 96 -8q65 0 98 8q-72 -55 -205 -187q-82 -81 -161 -161l-318 -316q82 -104 205 -248q31 -36 237 -272q132 -151 263 -301q-58 8 -127 8h-53.5t-69.5 -8q-131 182 -254 336l-250 307q-86 107 -152 107v-258q0 -86 7.5 -258.5t7.5 -233.5
q-45 8 -101 8q-55 0 -100 -8q6 72 10 305.5t4 442.5q0 165 -1 381.5t-13 355.5q45 -8 100 -8q56 0 101 8q-6 -70 -10.5 -159t-4.5 -196v-331q0 -4 11 -8z" />
    <glyph glyph-name="L" unicode="L" horiz-adv-x="1064" 
d="M389 1485q-6 -72 -10.5 -300.5t-4.5 -436.5q0 -66 8.5 -295.5t8.5 -348.5l147 -4q279 0 443 35l-5 -69l5 -66l-504 8q-76 0 -158 -3t-131 -5q6 72 10 305.5t4 442.5q0 165 -1 381.5t-13 355.5q45 -8 100 -8q56 0 101 8z" />
    <glyph glyph-name="M" unicode="M" horiz-adv-x="1904" 
d="M75 0q41 176 100.5 581.5t124.5 929.5h37q154 -311 307.5 -610t300.5 -569q310 549 643 1179h29q43 -413 49 -475q35 -305 58 -504q32 -266 65 -532q-20 4 -47 6t-51 2q-55 0 -98 -8q0 264 -20.5 481t-49.5 387q-6 39 -43 215q-143 -239 -272 -481q-99 -184 -183 -364
q-71 -156 -100 -238h-31q-26 96 -82 213q-47 102 -125 244l-338 624q-49 -342 -77.5 -649t-28.5 -432q-35 8 -80 8h-53q-25 -6 -35 -8z" />
    <glyph glyph-name="N" unicode="N" horiz-adv-x="1617" 
d="M190 0q6 63 10 475t4 805v231h41q193 -223 375 -421q137 -150 358 -379q195 -203 334 -342l4 190q0 223 -5 449.5t-9 476.5q31 -8 68 -8t63 8q0 -160 -7 -509t-7 -513l4 -492h-29q-98 125 -243 285q-130 143 -312 336l-526 553l-6 -283q0 -6 10 -473q4 -186 4 -389
q-33 8 -70 8q-34 0 -61 -8z" />
    <glyph glyph-name="O" unicode="O" horiz-adv-x="1781" 
d="M891 -29q-373 0 -587 206t-214 562q0 351 219 561.5t582 210.5q370 0 584 -207.5t214 -564.5q0 -344 -220 -556t-578 -212zM891 53q278 0 430.5 178.5t152.5 509.5q0 338 -148.5 513.5t-434.5 175.5q-279 0 -432.5 -180.5t-153.5 -516.5q0 -327 151.5 -503.5
t434.5 -176.5z" />
    <glyph glyph-name="P" unicode="P" horiz-adv-x="1193" 
d="M376 672v-305q0 -11 11 -205q4 -78 4 -162q-45 8 -101 8q-55 0 -100 -8q6 72 10 305.5t4 442.5q0 165 -1 381.5t-13 355.5l106 -8q56 0 195 4t166 4q235 0 362 -98.5t127 -278.5q0 -209 -155.5 -324.5t-446.5 -115.5zM376 754l99 -4q467 0 467 340q0 170 -100.5 241.5
t-319.5 71.5l-135 -6q0 -90 -5.5 -250t-5.5 -197v-196z" />
    <glyph glyph-name="Q" unicode="Q" horiz-adv-x="1781" 
d="M983 -23l-127 -6q-340 0 -553 213t-213 555q0 351 219 561.5t582 210.5q370 0 584 -207.5t214 -564.5q0 -274 -139 -464.5t-403 -272.5q235 -180 528 -379q-45 -14 -82 -36.5t-82 -59.5q-262 250 -528 450zM891 53q278 0 430.5 178.5t152.5 509.5q0 338 -148.5 513.5
t-434.5 175.5q-279 0 -432.5 -180.5t-153.5 -516.5q0 -327 151.5 -503.5t434.5 -176.5z" />
    <glyph glyph-name="R" unicode="R" horiz-adv-x="1290" 
d="M386 723v-397q0 -160 15 -326q-45 8 -101 8q-55 0 -100 -8q6 72 10 305.5t4 442.5q0 165 -1 381.5t-13 355.5l96 -8q47 0 179.5 4t166.5 4q490 0 490 -352q0 -324 -434 -402q75 -102 186 -242q121 -151 210 -262.5t181 -226.5q-22 4 -59 6t-68 2l-127 -8
q-114 166 -168.5 239.5t-101.5 135.5l-236 303q-36 49 -88 49zM386 791l72 -5q485 0 485 320q0 297 -374 297l-168 -6q-8 -60 -11.5 -109t-3.5 -117v-380z" />
    <glyph glyph-name="S" unicode="S" horiz-adv-x="1064" 
d="M92 86q27 84 33 111q14 59 14 118q49 -122 143.5 -190t215.5 -68q139 0 225 86t86 234q0 104 -51.5 164.5t-167.5 109.5l-176 74q-148 59 -218.5 146t-70.5 219q0 184 127 302.5t329 118.5q179 0 330 -79q-35 -76 -59 -168q-115 168 -299 168q-119 0 -189.5 -75
t-70.5 -200q0 -96 50 -154.5t167 -109.5l176 -76q156 -65 222.5 -148t66.5 -225q0 -211 -141.5 -342t-376.5 -131q-215 0 -365 115z" />
    <glyph glyph-name="T" unicode="T" horiz-adv-x="1181" 
d="M678 1382v-645q0 -166 1 -382t13 -355q-45 8 -100 8t-100 -8q6 72 10 300t4 437v645h-64q-249 0 -399 -26l4 61l-4 68q70 0 301 -4t246 -4q98 0 243.5 2t305.5 6l-6 -64q0 -41 6 -65q-74 14 -173.5 20t-209.5 6h-78z" />
    <glyph glyph-name="U" unicode="U" horiz-adv-x="1628" 
d="M1302 1485q14 -4 34.5 -6t37.5 -2h38q27 6 37 8q0 -62 -4 -144q-10 -202 -10 -254v-260q0 -272 -25 -401q-41 -213 -163 -324q-146 -131 -431 -131q-323 0 -470.5 158t-147.5 496q6 147 11 296.5t5 233.5q0 78 -5 168l-9 162q18 -4 49 -6t51 -2q52 0 101 8
q-6 -277 -10.5 -479.5t-4.5 -362.5q0 -258 91 -397q112 -174 374 -174q230 0 342 133q123 145 123 461v415q0 150 -4 243t-10 161z" />
    <glyph glyph-name="V" unicode="V" horiz-adv-x="1343" 
d="M604 0q-152 395 -299 768q-162 410 -291 717q20 -4 49 -6t55 -2q58 0 107 8q100 -283 156 -426q102 -271 163 -426q21 -53 172 -420q68 164 172 432q66 168 161 427t149 413q30 -8 71 -8q19 0 35.5 1t36.5 7q-102 -246 -205 -498q-45 -113 -196 -495q-142 -359 -193 -492
q-33 8 -71 8h-30t-42 -8z" />
    <glyph glyph-name="W" unicode="W" horiz-adv-x="2131" 
d="M501 0q-199 655 -465 1485q47 -8 104 -8h64q29 6 41 8q88 -330 175 -627t202 -653q215 588 407 1280q31 -8 70 -8h41q20 6 29 8q63 -207 129 -406q96 -295 139 -424q63 -186 149 -428q111 316 201 616t178 642q31 -8 70 -8h43q22 6 31 8l-496 -1485q-35 8 -76 8
q-49 0 -78 -12q-176 596 -399 1216q-119 -358 -185.5 -557.5t-133.5 -402.5q-48 -135 -89 -252q-32 8 -75 8h-31t-45 -8z" />
    <glyph glyph-name="X" unicode="X" horiz-adv-x="1214" 
d="M45 0l436 657l53 78l-38 70q-99 172 -404 680q47 -8 115 -8q20 0 44.5 1t67.5 7q191 -371 279 -512l49 -78l51 76q113 166 299 514q33 -8 78 -8q12 0 30.5 1t49.5 7q-117 -168 -199 -289q-110 -147 -145 -215q-39 -59 -78 -119l-37 -55l47 -76l443 -731q-25 4 -55.5 6
t-61.5 2h-51.5t-69.5 -8q-84 170 -155 297q-64 113 -154 264l-53 86l-52 -76q-53 -75 -131 -209q-86 -147 -198 -362q-17 4 -38.5 6t-39.5 2q-47 0 -82 -8z" />
    <glyph glyph-name="Y" unicode="Y" horiz-adv-x="1204" 
d="M516 0q0 55 7 163.5t7 145.5q0 64 -5 171.5t-5 125.5q-139 242 -174 301.5t-172 292t-168 285.5q20 -4 53 -6t66 -2h71q31 6 46 8q53 -123 119.5 -252t134 -244t153.5 -244q225 367 391 740q17 -4 39.5 -6t40.5 -2q43 0 82 8q-272 -441 -494 -844l-6 -227q0 -103 3 -194
t10 -220q-21 4 -46.5 6t-50.5 2h-63q-27 -6 -39 -8z" />
    <glyph glyph-name="Z" unicode="Z" horiz-adv-x="1300" 
d="M18 0q233 328 477 690q236 350 453 688l-170 6q-92 0 -236 -8q-321 -18 -415 -18l4 63l-4 64q65 0 299.5 -4t273.5 -4q104 0 253.5 2t319.5 6q-528 -703 -954 -1374l258 -5q121 0 348.5 11.5t309.5 11.5l-5 -66l5 -63q-21 0 -275 3t-420 5q-129 0 -280.5 -3t-241.5 -5z
" />
    <glyph glyph-name="bracketleft" unicode="[" horiz-adv-x="598" 
d="M163 -238q0 29 4 166.5t4 245.5v895q0 100 -3 200.5t-5 211.5h322v-74q-39 8 -84 8h-101q0 -78 -5 -262t-5 -264v-680q0 -262 10 -381h101q14 0 34.5 1t49.5 7v-74h-322z" />
    <glyph glyph-name="backslash" unicode="\" horiz-adv-x="610" 
d="M-47 1628h96l596 -1829h-96z" />
    <glyph glyph-name="bracketright" unicode="]" horiz-adv-x="598" 
d="M483 -238q0 29 -4.5 166.5t-4.5 245.5v895q0 100 2 200.5t7 211.5h-322v-74q39 8 84 8h100q0 -78 5.5 -262t5.5 -264v-680q0 -262 -11 -381h-100h-49q-25 6 -35 8v-74h322z" />
    <glyph glyph-name="asciicircum" unicode="^" horiz-adv-x="2170" 
d="M1159 1546l563 -590h-154l-483 482l-485 -482h-154l565 590h148z" />
    <glyph glyph-name="underscore" unicode="_" horiz-adv-x="1085" 
d="M1085 -406v-106h-1085v106h1085z" />
    <glyph glyph-name="grave" unicode="`" horiz-adv-x="1085" 
d="M728 1163h-71l-350 217q-66 39 -66 86q0 33 21.5 54.5t56.5 21.5q24 0 48 -15.5t54 -45.5z" />
    <glyph glyph-name="a" unicode="a" horiz-adv-x="1044" 
d="M698 125q-140 -145 -322 -145q-299 0 -299 270q0 225 250 280q141 27 282 56q62 16 93 43v47q0 149 -53.5 218t-184.5 69q-176 0 -281 -158h-16l4 115q148 124 350 124q183 0 261.5 -89t78.5 -277v-459q0 -86 14.5 -114.5t73.5 -28.5l37 4l11 -45q-19 -6 -73 -20.5
t-106 -14.5q-100 0 -120 125zM702 539q-256 -43 -342 -86q-107 -56 -107 -177q0 -100 51.5 -155t143.5 -55q80 0 161 53q93 61 93 139v281z" />
    <glyph glyph-name="b" unicode="b" horiz-adv-x="1191" 
d="M335 1626q0 -125 -2 -205q-8 -319 -8 -366l4 -209q131 198 346 198q203 0 318.5 -132t115.5 -361q0 -258 -130 -414.5t-345 -156.5q-172 0 -321 135q-56 -43 -115 -115h-43q0 57 5 366.5t5 581.5q0 223 -4 387t-6 291q20 -4 39.5 -6t48.5 -2q23 0 41 2t51 6zM628 963
q-154 0 -235.5 -127t-81.5 -371q0 -410 297 -410q153 0 239 126t86 362q0 207 -77.5 313.5t-227.5 106.5z" />
    <glyph glyph-name="c" unicode="c" horiz-adv-x="1003" 
d="M954 86q-74 -57 -163 -81.5t-208 -24.5q-227 0 -367.5 144t-140.5 386q0 244 147.5 389t391.5 145q184 0 352 -88q-37 -88 -57 -186q-93 205 -295 205q-172 0 -267.5 -122t-95.5 -341q0 -213 103.5 -335t275.5 -122t326 156l-7 -80z" />
    <glyph glyph-name="d" unicode="d" horiz-adv-x="1216" 
d="M880 0q10 55 10 127l-6 84q-121 -231 -373 -231q-196 0 -316 140t-120 374q0 247 130 398.5t331 151.5q223 0 344 -200q6 55 8 211.5t2 181.5q0 92 -5 235.5t-5 153.5q20 -4 39.5 -6t48.5 -2q22 0 40.5 2t51.5 6q0 -125 -5 -363.5t-5 -304.5q0 -307 3 -539.5t7 -418.5
q-43 8 -92 8q-25 0 -43.5 -2t-44.5 -6zM579 963q-154 0 -236 -127t-82 -371q0 -410 297 -410q154 0 240 126t86 362q0 207 -78 313.5t-227 106.5z" />
    <glyph glyph-name="e" unicode="e" horiz-adv-x="1097" 
d="M267 600h572v37q0 162 -72 250t-198 88q-127 0 -214.5 -101.5t-87.5 -273.5zM958 104q-168 -124 -369 -124q-229 0 -370.5 147t-141.5 383q0 244 137 389t363 145q209 0 321.5 -120.5t112.5 -348.5v-51h-748q0 -225 94.5 -341.5t270.5 -116.5q186 0 336 147
q-4 -25 -5 -62.5t-1 -46.5z" />
    <glyph glyph-name="f" unicode="f" horiz-adv-x="600" 
d="M650 1622l-20 -166q-55 25 -125 25q-184 0 -184 -201q0 -135 18 -272h72l151 4v-90l-217 10v-393q0 -125 5 -318.5t5 -220.5q-16 4 -41.5 6t-50.5 2q-49 0 -88 -8q0 115 5 307.5t5 231.5v393l-145 -4v86q29 -2 77 -4t68 -2q0 276 119 447t303 171z" />
    <glyph glyph-name="g" unicode="g" horiz-adv-x="993" 
d="M307 393q-217 68 -217 291q0 166 115.5 263t316.5 97q57 0 141 -10t113 -10q49 0 98 4q70 10 113 14v-96l-135 6h-43q81 -110 81 -247q0 -162 -104 -254.5t-287 -92.5q-28 0 -67 4.5t-51 4.5q-103 0 -103 -103q0 -63 40 -90t130 -27h121q229 0 332.5 -62t103.5 -232
q0 -199 -151.5 -325t-401.5 -126q-182 0 -287.5 85t-105.5 228q0 215 242 293q-78 19 -122 67t-44 115q0 113 172 203zM446 0q-119 0 -188.5 -73.5t-69.5 -184.5q0 -123 82 -198.5t217 -75.5q164 0 266.5 86t102.5 217q0 143 -99 190q-80 39 -311 39zM729 700
q0 283 -226 283q-110 0 -175.5 -76t-65.5 -207q0 -137 63.5 -210.5t177.5 -73.5q226 0 226 284z" />
    <glyph glyph-name="h" unicode="h" horiz-adv-x="1183" 
d="M341 1626q0 -121 -5 -358.5t-5 -241.5q0 -65 2 -104t4 -76q70 102 150 150t186 48q184 0 256 -96q84 -112 84 -409q0 -125 5 -318.5t5 -220.5q-16 4 -41.5 6t-50.5 2q-49 0 -88 -8q0 115 5 307.5t5 231.5q0 206 -51 295q-57 98 -195 98q-143 0 -215 -121
q-61 -104 -61 -272q0 -142 3 -282t7 -257q-43 8 -92 8q-25 0 -43 -2t-45 -6q0 57 5 366.5t5 581.5q0 223 -4 387t-6 291q20 -4 39.5 -6t48.5 -2q23 0 41 2t51 6z" />
    <glyph glyph-name="i" unicode="i" horiz-adv-x="536" 
d="M157 1403q0 47 30.5 77.5t78.5 30.5q45 0 77.5 -30.5t32.5 -77.5q0 -45 -32.5 -78t-77.5 -33q-48 0 -78.5 31t-30.5 80zM360 1024q0 -102 -5 -274t-5 -211q0 -125 5 -318.5t5 -220.5q-17 4 -42.5 6t-49.5 2q-50 0 -88 -8q0 115 5 307.5t5 231.5q0 114 -2 184
q-8 281 -8 301q38 -8 88 -8h47q32 6 45 8z" />
    <glyph glyph-name="j" unicode="j" horiz-adv-x="536" 
d="M-26 -592l-14 45q154 19 197 154q32 102 32 420v512q0 114 -2 184q-8 281 -8 301q39 -8 88 -8h47q33 6 45 8q0 -102 -5 -274t-5 -211q0 -78 5 -336t5 -295q0 -250 -83 -363.5t-302 -136.5zM155 1403q0 47 30.5 77.5t77.5 30.5q45 0 78 -30.5t33 -77.5q0 -45 -33 -78
t-78 -33q-47 0 -77.5 31t-30.5 80z" />
    <glyph glyph-name="k" unicode="k" horiz-adv-x="1054" 
d="M347 1626q0 -110 -5 -326.5t-5 -304.5v-377q0 -36 37 -36q104 0 452 442q41 -8 97 -8h53q29 6 41 8q-53 -37 -123 -98q-61 -54 -158 -146l-196 -184l510 -596q-25 4 -58.5 6t-62.5 2q-64 0 -113 -8q-397 537 -459 537q-20 0 -20 -29q0 -133 5 -307t5 -201q-43 8 -92 8
q-25 0 -43 -2t-45 -6q0 57 5 366.5t5 581.5q0 223 -4 387t-6 291q20 -4 39.5 -6t48.5 -2q23 0 41 2t51 6z" />
    <glyph glyph-name="l" unicode="l" horiz-adv-x="505" 
d="M341 1626q0 -125 -5 -363.5t-5 -304.5q0 -307 3 -539.5t7 -418.5q-43 8 -92 8q-25 0 -43 -2t-45 -6q0 57 5 366.5t5 581.5q0 223 -4 387t-6 291q20 -4 39.5 -6t48.5 -2q23 0 41 2t51 6z" />
    <glyph glyph-name="m" unicode="m" horiz-adv-x="1796" 
d="M347 1024q-8 -86 -9 -120t-1 -54q78 102 160 148t180 46q102 0 174 -57t100 -160q62 105 155 161t202 56q200 0 263.5 -101t63.5 -404q0 -125 5.5 -318.5t5.5 -220.5q-17 4 -42.5 6t-50.5 2q-49 0 -88 -8q0 115 5.5 307.5t5.5 231.5q0 217 -55.5 305t-190.5 88
q-145 0 -203 -129q-41 -90 -41 -264q0 -125 5 -318.5t5 -220.5q-16 4 -41.5 6t-50.5 2q-49 0 -88 -8q0 115 5 307.5t5 231.5q0 213 -48 303t-171 90q-139 0 -204.5 -102.5t-65.5 -290.5q0 -125 5 -318.5t5 -220.5q-16 4 -41.5 6t-50.5 2q-49 0 -88 -8q0 115 5 307.5t5 231.5
q0 114 -2 184q-8 281 -8 301q39 -8 88 -8h47q33 6 45 8z" />
    <glyph glyph-name="n" unicode="n" horiz-adv-x="1146" 
d="M347 1024q-8 -86 -9 -120t-1 -54q78 102 160 148t180 46q131 0 207 -90q102 -123 102 -415q0 -125 5 -318.5t5 -220.5q-16 4 -41.5 6t-50.5 2q-49 0 -88 -8q0 115 5 307.5t5 231.5q0 213 -48 303t-171 90q-139 0 -204.5 -102.5t-65.5 -290.5q0 -125 5 -318.5t5 -220.5
q-16 4 -41.5 6t-50.5 2q-49 0 -88 -8q0 115 5 307.5t5 231.5q0 114 -2 184q-8 281 -8 301q39 -8 88 -8h47q33 6 45 8z" />
    <glyph glyph-name="o" unicode="o" horiz-adv-x="1183" 
d="M591 -20q-225 0 -369.5 148t-144.5 384t146.5 384t367.5 148q227 0 370.5 -147t143.5 -385q0 -240 -144.5 -386t-369.5 -146zM591 49q160 0 245 113.5t85 337.5q0 233 -84 354t-248 121q-328 0 -328 -461q0 -465 330 -465z" />
    <glyph glyph-name="p" unicode="p" horiz-adv-x="1212" 
d="M345 1024q-8 -82 -9 -118t-1 -62q68 104 152 152t204 48q211 0 325 -136t114 -398q0 -248 -125 -389t-330 -141q-223 0 -340 178v-281q0 -57 5 -226t5 -253q-39 8 -90 8q-49 0 -90 -8q0 57 5 366.5t5 581.5q0 223 -4 387t-6 291q20 -4 39.5 -6t48.5 -2q23 0 41 2t51 6z
M640 963q-153 0 -235 -127t-82 -371q0 -410 297 -410q153 0 239 126t86 362q0 207 -77.5 313.5t-227.5 106.5z" />
    <glyph glyph-name="q" unicode="q" horiz-adv-x="1212" 
d="M947 1024q9 -82 10 -112.5t1 -67.5q-68 104 -152 152t-205 48q-211 0 -324.5 -136t-113.5 -398q0 -248 125 -389t330 -141q223 0 340 178v-281q0 -57 -5.5 -227t-5.5 -252q33 8 90 8h41.5t49.5 -8q0 57 -5.5 366.5t-5.5 581.5q0 221 3.5 362.5t7.5 315.5q-21 -4 -40.5 -6
t-47.5 -2q-23 0 -41.5 2t-51.5 6zM652 963q154 0 236 -127t82 -371q0 -410 -297 -410q-154 0 -240 126t-86 362q0 207 78 313.5t227 106.5z" />
    <glyph glyph-name="r" unicode="r" horiz-adv-x="712" 
d="M335 1024q-6 -51 -8 -137t-2 -103q121 250 279 250q14 0 35.5 -2t45.5 -8q-6 -33 -8 -94.5t-2 -71.5l-18 -10q-51 29 -103 29q-106 0 -167.5 -92.5t-61.5 -245.5q0 -125 5 -318.5t5 -220.5q-8 2 -37.5 5t-54.5 3q-49 0 -88 -8q0 115 5 307.5t5 231.5q0 114 -2 184
q-8 281 -8 301q39 -8 88 -8h47q33 6 45 8z" />
    <glyph glyph-name="s" unicode="s" horiz-adv-x="774" 
d="M717 322q0 -148 -105.5 -245t-277.5 -97q-168 0 -281 77q14 39 28.5 84t22.5 84q107 -164 266 -164q97 0 153 52.5t56 144.5q0 74 -40 113t-130 65l-100 29q-125 35 -180.5 99.5t-55.5 178.5q0 131 91.5 216t242.5 85q76 0 144.5 -18t126.5 -53q-35 -80 -45 -137
q-123 143 -252 143q-82 0 -133.5 -49t-51.5 -133q0 -74 38 -115t126 -68l148 -43q110 -32 159.5 -89.5t49.5 -159.5z" />
    <glyph glyph-name="t" unicode="t" horiz-adv-x="628" 
d="M26 934l6 45l-4 45q18 -4 58 -6t77 -2v76l-6 180q107 16 180 55q-6 -39 -10 -120t-4 -132v-59q43 0 158.5 4t130.5 4q-6 -31 -6 -92q-27 4 -113 6t-164 2l-6 -109q0 -86 -5 -265t-5 -238q0 -146 42 -209.5t144 -63.5q59 0 150 45l16 -49q-109 -71 -238 -71
q-147 0 -210.5 69.5t-63.5 226.5q0 60 5 271t5 319v74h-24z" />
    <glyph glyph-name="u" unicode="u" horiz-adv-x="1191" 
d="M847 0q4 12 7.5 37.5t3.5 54.5v37q-7 35 -7 45q-106 -194 -348 -194q-342 0 -342 354v205q0 114 -2 184q-8 281 -8 301q39 -8 88 -8h47q33 6 45 8q0 -102 -5 -274t-5 -211q0 -283 53 -371t195 -88q184 0 248 151q41 97 41 308q0 127 -2.5 279.5t-8.5 205.5q39 -8 88 -8
h47q33 6 46 8q0 -102 -5.5 -274t-5.5 -211q0 -125 5.5 -318.5t5.5 -220.5q-17 4 -42.5 6t-50.5 2q-49 0 -88 -8z" />
    <glyph glyph-name="v" unicode="v" horiz-adv-x="993" 
d="M432 0q-33 102 -93.5 260t-138 339t-186.5 425q41 -8 96 -8h62q28 6 41 8q69 -262 319 -823q105 205 184.5 405.5t137.5 417.5q30 -8 69 -8t66 8q-109 -240 -217 -496q-84 -194 -138.5 -333.5t-72.5 -194.5l-68 8q-28 0 -41 -2q-14 -6 -20 -6z" />
    <glyph glyph-name="w" unicode="w" horiz-adv-x="1603" 
d="M395 0q-62 254 -379 1024q20 -4 46 -6t50 -2q56 0 99 8q65 -264 270 -795q162 359 285 795q14 -4 28.5 -6t36.5 -2l62 8q71 -266 149 -487q68 -195 123 -306q68 142 164 400q61 168 137 393q37 -8 68 -8q28 0 65 8q-168 -377 -266 -618q-111 -271 -148 -406q-26 8 -63 8
q-39 0 -64 -8q-18 123 -266 782q-98 -235 -168.5 -439t-105.5 -343q-27 8 -62 8q-39 0 -61 -8z" />
    <glyph glyph-name="x" unicode="x" horiz-adv-x="1019" 
d="M475 430l-154 -194q-96 -121 -151 -236q-17 4 -38.5 6t-39.5 2q-43 0 -82 -8q86 90 156 174q37 45 112 145l144 187l-103 143q-63 88 -135 182.5t-149 192.5q49 -8 110 -8h68q30 6 43 8l96 -143l176 -252l129 168q62 77 101.5 133.5t58.5 93.5q20 -4 36.5 -6t41.5 -2
q20 0 38.5 2t41.5 6q-164 -182 -267 -309l-129 -160l203 -283q27 -36 59 -82q64 -84 152 -190q-55 8 -117 8h-45.5t-64.5 -8q-37 63 -94 150q-50 73 -117 169z" />
    <glyph glyph-name="y" unicode="y" horiz-adv-x="1013" 
d="M450 6l-90 240q-41 102 -102 246q-72 165 -238 532q47 -8 106 -8h64q29 6 41 8q33 -117 82 -249t151 -380l76 -186l78 180q160 367 244 635q30 -8 73 -8h35q25 6 37 8q-49 -94 -98 -201.5t-109 -244.5l-291 -658q-86 -194 -120 -282q-54 -134 -78 -230q-31 6 -40 7t-34 1
l-76 -8q62 105 111 203q27 51 129 280z" />
    <glyph glyph-name="z" unicode="z" horiz-adv-x="976" 
d="M-4 0v45q225 279 389 490q189 241 297 399h-86q-219 0 -483 -29l4 56l-8 63q41 -4 153.5 -6t212.5 -2q80 0 257 4t184 4v-43q-156 -197 -248 -315q-74 -95 -223 -297q-125 -168 -201 -279q223 0 377.5 9.5t281.5 23.5l-4 -49l6 -74q-53 0 -223 3t-274 5q-74 0 -239 -4
t-173 -4z" />
    <glyph glyph-name="braceleft" unicode="{" horiz-adv-x="1085" 
d="M905 1454h-39q-145 0 -190.5 -55.5t-45.5 -214.5v-256q0 -168 -38 -242q-46 -88 -170 -123q122 -35 165 -116.5t43 -247.5v-256q0 -160 42 -215.5t186 -55.5h47v-110h-49q-219 0 -288 79.5t-69 311.5v258q0 162 -60 230.5t-208 68.5l-47 -4v119l47 -4q148 0 208 66.5
t60 230.5v256q0 229 69 311t288 82h49v-113z" />
    <glyph glyph-name="bar" unicode="|" horiz-adv-x="1085" 
d="M600 1659v-2171h-115v2171h115z" />
    <glyph glyph-name="braceright" unicode="}" horiz-adv-x="1085" 
d="M184 1454h39q145 0 190 -55.5t45 -214.5v-256q0 -168 42 -249t167 -116q-123 -35 -166 -116.5t-43 -247.5v-256q0 -160 -38 -211q-46 -60 -189 -60h-47v-110h49q219 0 291 84q66 75 66 307v258q0 162 60 230.5t208 68.5l47 -4v119l-47 -4q-148 0 -208 66.5t-60 230.5v256
q0 229 -66 307q-72 86 -291 86h-49v-113z" />
    <glyph glyph-name="asciitilde" unicode="~" horiz-adv-x="1808" 
d="M1622 676q-213 -152 -412 -152q-119 0 -313.5 73t-296.5 73q-97 0 -192 -41t-220 -129v118q221 154 412 154q116 0 314 -72.5t296 -72.5q94 0 194.5 42t217.5 126v-119z" />
    <glyph glyph-name="Adieresis" unicode="&#xc4;" horiz-adv-x="1288" 
d="M59 0q356 774 672 1511h41q106 -264 211 -520q94 -227 211 -504q129 -307 208 -487q-47 8 -106 8h-46t-65 -8q-43 131 -82 233q-51 136 -104 261l-37 86l-266 4l-268 -4q-29 -64 -88 -213q-70 -177 -138 -367q-12 4 -31.5 6t-39.5 2q-31 0 -48.5 -4t-23.5 -4zM696 1214
l-231 -534l163 -4l291 4l-37 90zM881 1530q-27 0 -49 19.5t-22 52.5q0 31 21.5 50t47.5 19q29 0 52.5 -19.5t23.5 -49.5q0 -31 -21.5 -51.5t-52.5 -20.5zM548 1530q-28 0 -50 19.5t-22 52.5q0 31 22 50t48 19q29 0 52 -19.5t23 -49.5q0 -31 -21 -51.5t-52 -20.5z" />
    <glyph glyph-name="Aring" unicode="&#xc5;" horiz-adv-x="1288" 
d="M1118 0l-164 446h-622l-164 -446h-109l519 1374q-134 42 -134 176q0 81 59 133t142 52q86 0 143.5 -50.5t57.5 -134.5q0 -129 -131 -174l514 -1376h-111zM645 1667q-57 0 -92 -32t-35 -85q0 -52 36.5 -84t90.5 -32q57 0 93 32t36 84q0 57 -37.5 87t-91.5 30zM678 1200
q-11 30 -18 59q-7 25 -15 50h-4q-17 -66 -33 -107l-241 -665h553z" />
    <glyph glyph-name="Ccedilla" unicode="&#xc7;" horiz-adv-x="1272" 
d="M1137 47q-216 -85 -420 -70v-94q225 0 225 -147q0 -170 -254 -170q-36 0 -80 4v74q50 -6 86 -6q160 0 160 92q0 86 -145 86q-32 0 -64 -4v174q-252 46 -394 237t-142 465q0 349 201 559.5t511 210.5q165 0 316 -53v-105q-151 68 -318 68q-270 0 -439 -183t-169 -487
q0 -293 161.5 -462.5t409.5 -169.5q198 0 355 77v-96z" />
    <glyph glyph-name="Eacute" unicode="&#xc9;" horiz-adv-x="1024" 
d="M370 741v-106q0 -72 6.5 -276.5t6.5 -258.5h45q90 0 239.5 6.5t282.5 18.5l-2 -66l2 -67q-41 4 -154.5 6t-218.5 2h-393q6 72 10 307.5t4 444.5q0 440 -2 531t-12 202q49 0 149.5 -5t137.5 -5q78 0 263 5t218 5l-4 -74l4 -70q-162 33 -524 33h-51q0 -51 -2.5 -122.5
t-4.5 -135.5v-282h172q45 0 178.5 6t192.5 6l-4 -62l4 -61q-192 18 -371 18h-172zM489 1533h-90l234 328h104z" />
    <glyph glyph-name="Ntilde" unicode="&#xd1;" horiz-adv-x="1452" 
d="M184 0q6 63 10 475t4 805v231h41q193 -223 375 -421q137 -150 358 -379q195 -203 334 -342l4 190q0 223 -5 449.5t-9 476.5q31 -8 68 -8t63 8q0 -160 -7 -509t-7 -513l4 -492h-29q-98 125 -243 285q-130 143 -312 336l-526 553l-6 -283q0 -6 10 -473q4 -186 4 -389
q-33 8 -70 8q-34 0 -61 -8zM1095 1768q0 -103 -48.5 -163t-130.5 -60q-66 0 -151 76q-64 55 -119 55q-102 0 -102 -143h-72q0 100 48 160.5t128 60.5q72 0 160 -72q67 -59 117 -59q40 0 68 37t28 108h74z" />
    <glyph glyph-name="Odieresis" unicode="&#xd6;" horiz-adv-x="1559" 
d="M910 -29q-373 0 -587 206t-214 562q0 351 219 561.5t582 210.5q370 0 584 -207.5t214 -564.5q0 -344 -220 -556t-578 -212zM910 53q278 0 430.5 178.5t152.5 509.5q0 338 -148.5 513.5t-434.5 175.5q-279 0 -432.5 -180.5t-153.5 -516.5q0 -327 151.5 -503.5
t434.5 -176.5zM969 1533q-27 0 -49 19.5t-22 52.5q0 31 21.5 50t47.5 19q29 0 52.5 -19.5t23.5 -49.5q0 -31 -21.5 -51.5t-52.5 -20.5zM636 1533q-28 0 -50 19.5t-22 52.5q0 31 22 50t48 19q29 0 52 -19.5t23 -49.5q0 -31 -21 -51.5t-52 -20.5z" />
    <glyph glyph-name="Udieresis" unicode="&#xdc;" horiz-adv-x="1327" 
d="M1270 1485q14 -4 34.5 -6t37.5 -2h38q27 6 37 8q0 -62 -4 -144q-10 -202 -10 -254v-260q0 -272 -25 -401q-41 -213 -163 -324q-146 -131 -431 -131q-323 0 -470.5 158t-147.5 496q6 147 11 296.5t5 233.5q0 78 -5 168l-9 162q18 -4 49 -6t51 -2q52 0 101 8
q-6 -277 -10.5 -479.5t-4.5 -362.5q0 -258 91 -397q112 -174 374 -174q230 0 342 133q123 145 123 461v415q0 150 -4 243t-10 161zM827 1537q-27 0 -49 19.5t-22 52.5q0 31 21.5 50t47.5 19q29 0 52.5 -19.5t23.5 -49.5q0 -31 -21.5 -51.5t-52.5 -20.5zM494 1537
q-28 0 -50 19.5t-22 52.5q0 31 22 50t48 19q29 0 52 -19.5t23 -49.5q0 -31 -21 -51.5t-52 -20.5z" />
    <glyph glyph-name="aacute" unicode="&#xe1;" horiz-adv-x="1012" 
d="M727 125q-140 -145 -322 -145q-299 0 -299 270q0 225 250 280q141 27 282 56q62 16 93 43v47q0 149 -53.5 218t-184.5 69q-176 0 -281 -158h-16l4 115q148 124 350 124q183 0 261.5 -89t78.5 -277v-459q0 -86 14.5 -114.5t73.5 -28.5l37 4l11 -45q-19 -6 -73 -20.5
t-106 -14.5q-100 0 -120 125zM731 539q-256 -43 -342 -86q-107 -56 -107 -177q0 -100 51.5 -155t143.5 -55q80 0 161 53q93 61 93 139v281zM480 1188h-90l234 328h104z" />
    <glyph glyph-name="agrave" unicode="&#xe0;" horiz-adv-x="1012" 
d="M727 125q-140 -145 -322 -145q-299 0 -299 270q0 225 250 280q141 27 282 56q62 16 93 43v47q0 149 -53.5 218t-184.5 69q-176 0 -281 -158h-16l4 115q148 124 350 124q183 0 261.5 -89t78.5 -277v-459q0 -86 14.5 -114.5t73.5 -28.5l37 4l11 -45q-19 -6 -73 -20.5
t-106 -14.5q-100 0 -120 125zM731 539q-256 -43 -342 -86q-107 -56 -107 -177q0 -100 51.5 -155t143.5 -55q80 0 161 53q93 61 93 139v281zM952 1163h-71l-350 217q-66 39 -66 86q0 33 21.5 54.5t56.5 21.5q24 0 48 -15.5t54 -45.5z" />
    <glyph glyph-name="acircumflex" unicode="&#xe2;" horiz-adv-x="1012" 
d="M727 125q-140 -145 -322 -145q-299 0 -299 270q0 225 250 280q141 27 282 56q62 16 93 43v47q0 149 -53.5 218t-184.5 69q-176 0 -281 -158h-16l4 115q148 124 350 124q183 0 261.5 -89t78.5 -277v-459q0 -86 14.5 -114.5t73.5 -28.5l37 4l11 -45q-19 -6 -73 -20.5
t-106 -14.5q-100 0 -120 125zM731 539q-256 -43 -342 -86q-107 -56 -107 -177q0 -100 51.5 -155t143.5 -55q80 0 161 53q93 61 93 139v281zM698 1188l-157 239l-160 -239h-82l221 336h45l219 -336h-86z" />
    <glyph glyph-name="adieresis" unicode="&#xe4;" horiz-adv-x="1012" 
d="M727 125q-140 -145 -322 -145q-299 0 -299 270q0 225 250 280q141 27 282 56q62 16 93 43v47q0 149 -53.5 218t-184.5 69q-176 0 -281 -158h-16l4 115q148 124 350 124q183 0 261.5 -89t78.5 -277v-459q0 -86 14.5 -114.5t73.5 -28.5l37 4l11 -45q-19 -6 -73 -20.5
t-106 -14.5q-100 0 -120 125zM731 539q-256 -43 -342 -86q-107 -56 -107 -177q0 -100 51.5 -155t143.5 -55q80 0 161 53q93 61 93 139v281zM693 1188q-27 0 -49 19.5t-22 52.5q0 31 21.5 50t47.5 19q29 0 52.5 -19.5t23.5 -49.5q0 -31 -21.5 -51.5t-52.5 -20.5zM360 1188
q-28 0 -50 19.5t-22 52.5q0 31 22 50t48 19q29 0 52 -19.5t23 -49.5q0 -31 -21 -51.5t-52 -20.5z" />
    <glyph glyph-name="atilde" unicode="&#xe3;" horiz-adv-x="1012" 
d="M727 125q-140 -145 -322 -145q-299 0 -299 270q0 225 250 280q141 27 282 56q62 16 93 43v47q0 149 -53.5 218t-184.5 69q-176 0 -281 -158h-16l4 115q148 124 350 124q183 0 261.5 -89t78.5 -277v-459q0 -86 14.5 -114.5t73.5 -28.5l37 4l11 -45q-19 -6 -73 -20.5
t-106 -14.5q-100 0 -120 125zM731 539q-256 -43 -342 -86q-107 -56 -107 -177q0 -100 51.5 -155t143.5 -55q80 0 161 53q93 61 93 139v281zM852 1423q0 -103 -48.5 -163t-130.5 -60q-66 0 -151 76q-64 55 -119 55q-102 0 -102 -143h-72q0 100 48 160.5t128 60.5
q72 0 160 -72q67 -59 117 -59q40 0 68 37t28 108h74z" />
    <glyph glyph-name="aring" unicode="&#xe5;" horiz-adv-x="1012" 
d="M727 125q-140 -145 -322 -145q-299 0 -299 270q0 225 250 280q141 27 282 56q62 16 93 43v47q0 149 -53.5 218t-184.5 69q-176 0 -281 -158h-16l4 115q148 124 350 124q183 0 261.5 -89t78.5 -277v-459q0 -86 14.5 -114.5t73.5 -28.5l37 4l11 -45q-19 -6 -73 -20.5
t-106 -14.5q-100 0 -120 125zM731 539q-256 -43 -342 -86q-107 -56 -107 -177q0 -100 51.5 -155t143.5 -55q80 0 161 53q93 61 93 139v281zM549 1188q-86 0 -143.5 50.5t-57.5 133.5q0 80 57 132t144 52q88 0 144.5 -50.5t56.5 -133.5q0 -80 -58 -132t-143 -52zM549 1489
q-57 0 -92 -32t-35 -85t36.5 -85t90.5 -32q57 0 93 32.5t36 84.5q0 57 -37.5 87t-91.5 30z" />
    <glyph glyph-name="ccedilla" unicode="&#xe7;" horiz-adv-x="909" 
d="M969 86q-74 -57 -163 -81.5t-208 -24.5q-227 0 -367.5 144t-140.5 386q0 244 147.5 389t391.5 145q184 0 352 -88q-37 -88 -57 -186q-93 205 -295 205q-172 0 -267.5 -122t-95.5 -341q0 -213 103.5 -335t275.5 -122t326 156l-7 -80zM417 -430v74q50 -6 86 -6
q160 0 160 92q0 86 -145 86q-32 0 -64 -4v188h72v-117q225 0 225 -147q0 -170 -254 -170q-36 0 -80 4z" />
    <glyph glyph-name="eacute" unicode="&#xe9;" horiz-adv-x="1034" 
d="M280 600h572v37q0 162 -72 250t-198 88q-127 0 -214.5 -101.5t-87.5 -273.5zM971 104q-168 -124 -369 -124q-229 0 -370.5 147t-141.5 383q0 244 137 389t363 145q209 0 321.5 -120.5t112.5 -348.5v-51h-748q0 -225 94.5 -341.5t270.5 -116.5q186 0 336 147
q-4 -25 -5 -62.5t-1 -46.5zM501 1188h-90l234 328h104z" />
    <glyph glyph-name="egrave" unicode="&#xe8;" horiz-adv-x="1034" 
d="M280 600h572v37q0 162 -72 250t-198 88q-127 0 -214.5 -101.5t-87.5 -273.5zM971 104q-168 -124 -369 -124q-229 0 -370.5 147t-141.5 383q0 244 137 389t363 145q209 0 321.5 -120.5t112.5 -348.5v-51h-748q0 -225 94.5 -341.5t270.5 -116.5q186 0 336 147
q-4 -25 -5 -62.5t-1 -46.5zM986 1163h-71l-350 217q-66 39 -66 86q0 33 21.5 54.5t56.5 21.5q24 0 48 -15.5t54 -45.5z" />
    <glyph glyph-name="ecircumflex" unicode="&#xea;" horiz-adv-x="1034" 
d="M280 600h572v37q0 162 -72 250t-198 88q-127 0 -214.5 -101.5t-87.5 -273.5zM971 104q-168 -124 -369 -124q-229 0 -370.5 147t-141.5 383q0 244 137 389t363 145q209 0 321.5 -120.5t112.5 -348.5v-51h-748q0 -225 94.5 -341.5t270.5 -116.5q186 0 336 147
q-4 -25 -5 -62.5t-1 -46.5zM716 1188l-157 239l-160 -239h-82l221 336h45l219 -336h-86z" />
    <glyph glyph-name="edieresis" unicode="&#xeb;" horiz-adv-x="1034" 
d="M280 600h572v37q0 162 -72 250t-198 88q-127 0 -214.5 -101.5t-87.5 -273.5zM971 104q-168 -124 -369 -124q-229 0 -370.5 147t-141.5 383q0 244 137 389t363 145q209 0 321.5 -120.5t112.5 -348.5v-51h-748q0 -225 94.5 -341.5t270.5 -116.5q186 0 336 147
q-4 -25 -5 -62.5t-1 -46.5zM714 1188q-27 0 -49 19.5t-22 52.5q0 31 21.5 50t47.5 19q29 0 52.5 -19.5t23.5 -49.5q0 -31 -21.5 -51.5t-52.5 -20.5zM381 1188q-28 0 -50 19.5t-22 52.5q0 31 22 50t48 19q29 0 52 -19.5t23 -49.5q0 -31 -21 -51.5t-52 -20.5z" />
    <glyph glyph-name="iacute" unicode="&#xed;" horiz-adv-x="420" 
d="M164 0v1024h92v-1024h-92zM173 1188h-90l234 328h104z" />
    <glyph glyph-name="igrave" unicode="&#xec;" horiz-adv-x="420" 
d="M6 0v1024h92v-1024h-92zM501 1163h-71l-350 217q-66 39 -66 86q0 33 21.5 54.5t56.5 21.5q24 0 48 -15.5t54 -45.5z" />
    <glyph glyph-name="icircumflex" unicode="&#xee;" horiz-adv-x="420" 
d="M164 0v1024h92v-1024h-92zM369 1188l-157 239l-160 -239h-82l221 336h45l219 -336h-86z" />
    <glyph glyph-name="idieresis" unicode="&#xef;" horiz-adv-x="420" 
d="M164 0v1024h92v-1024h-92zM377 1188q-27 0 -49 19.5t-22 52.5q0 31 21.5 50t47.5 19q29 0 52.5 -19.5t23.5 -49.5q0 -31 -21.5 -51.5t-52.5 -20.5zM44 1188q-28 0 -50 19.5t-22 52.5q0 31 22 50t48 19q29 0 52 -19.5t23 -49.5q0 -31 -21 -51.5t-52 -20.5z" />
    <glyph glyph-name="ntilde" unicode="&#xf1;" 
d="M344 1024q-8 -86 -9 -120t-1 -54q78 102 160 148t180 46q131 0 207 -90q102 -123 102 -415q0 -125 5 -318.5t5 -220.5q-16 4 -41.5 6t-50.5 2q-49 0 -88 -8q0 115 5 307.5t5 231.5q0 213 -48 303t-171 90q-139 0 -204.5 -102.5t-65.5 -290.5q0 -125 5 -318.5t5 -220.5
q-16 4 -41.5 6t-50.5 2q-49 0 -88 -8q0 115 5 307.5t5 231.5q0 114 -2 184q-8 281 -8 301q39 -8 88 -8h47q33 6 45 8zM892 1423q0 -103 -48.5 -163t-130.5 -60q-66 0 -151 76q-64 55 -119 55q-102 0 -102 -143h-72q0 100 48 160.5t128 60.5q72 0 160 -72q67 -59 117 -59
q40 0 68 37t28 108h74z" />
    <glyph glyph-name="oacute" unicode="&#xf3;" horiz-adv-x="1149" 
d="M604 -20q-225 0 -369.5 148t-144.5 384t146.5 384t367.5 148q227 0 370.5 -147t143.5 -385q0 -240 -144.5 -386t-369.5 -146zM604 49q160 0 245 113.5t85 337.5q0 233 -84 354t-248 121q-328 0 -328 -461q0 -465 330 -465zM553 1188h-90l234 328h104z" />
    <glyph glyph-name="ograve" unicode="&#xf2;" horiz-adv-x="1149" 
d="M604 -20q-225 0 -369.5 148t-144.5 384t146.5 384t367.5 148q227 0 370.5 -147t143.5 -385q0 -240 -144.5 -386t-369.5 -146zM604 49q160 0 245 113.5t85 337.5q0 233 -84 354t-248 121q-328 0 -328 -461q0 -465 330 -465zM1009 1163h-71l-350 217q-66 39 -66 86
q0 33 21.5 54.5t56.5 21.5q24 0 48 -15.5t54 -45.5z" />
    <glyph glyph-name="ocircumflex" unicode="&#xf4;" horiz-adv-x="1149" 
d="M604 -20q-225 0 -369.5 148t-144.5 384t146.5 384t367.5 148q227 0 370.5 -147t143.5 -385q0 -240 -144.5 -386t-369.5 -146zM604 49q160 0 245 113.5t85 337.5q0 233 -84 354t-248 121q-328 0 -328 -461q0 -465 330 -465zM760 1188l-157 239l-160 -239h-82l221 336h45
l219 -336h-86z" />
    <glyph glyph-name="odieresis" unicode="&#xf6;" horiz-adv-x="1149" 
d="M604 -20q-225 0 -369.5 148t-144.5 384t146.5 384t367.5 148q227 0 370.5 -147t143.5 -385q0 -240 -144.5 -386t-369.5 -146zM604 49q160 0 245 113.5t85 337.5q0 233 -84 354t-248 121q-328 0 -328 -461q0 -465 330 -465zM761 1188q-27 0 -49 19.5t-22 52.5
q0 31 21.5 50t47.5 19q29 0 52.5 -19.5t23.5 -49.5q0 -31 -21.5 -51.5t-52.5 -20.5zM428 1188q-28 0 -50 19.5t-22 52.5q0 31 22 50t48 19q29 0 52 -19.5t23 -49.5q0 -31 -21 -51.5t-52 -20.5z" />
    <glyph glyph-name="otilde" unicode="&#xf5;" horiz-adv-x="1149" 
d="M604 -20q-225 0 -369.5 148t-144.5 384t146.5 384t367.5 148q227 0 370.5 -147t143.5 -385q0 -240 -144.5 -386t-369.5 -146zM604 49q160 0 245 113.5t85 337.5q0 233 -84 354t-248 121q-328 0 -328 -461q0 -465 330 -465zM923 1423q0 -103 -48.5 -163t-130.5 -60
q-66 0 -151 76q-64 55 -119 55q-102 0 -102 -143h-72q0 100 48 160.5t128 60.5q72 0 160 -72q67 -59 117 -59q40 0 68 37t28 108h74z" />
    <glyph glyph-name="uacute" unicode="&#xfa;" 
d="M839 0q4 12 7.5 37.5t3.5 54.5v37q-7 35 -7 45q-106 -194 -348 -194q-342 0 -342 354v205q0 114 -2 184q-8 281 -8 301q39 -8 88 -8h47q33 6 45 8q0 -102 -5 -274t-5 -211q0 -283 53 -371t195 -88q184 0 248 151q41 97 41 308q0 127 -2.5 279.5t-8.5 205.5q39 -8 88 -8
h47q33 6 46 8q0 -102 -5.5 -274t-5.5 -211q0 -125 5.5 -318.5t5.5 -220.5q-17 4 -42.5 6t-50.5 2q-49 0 -88 -8zM534 1188h-90l234 328h104z" />
    <glyph glyph-name="ugrave" unicode="&#xf9;" 
d="M839 0q4 12 7.5 37.5t3.5 54.5v37q-7 35 -7 45q-106 -194 -348 -194q-342 0 -342 354v205q0 114 -2 184q-8 281 -8 301q39 -8 88 -8h47q33 6 45 8q0 -102 -5 -274t-5 -211q0 -283 53 -371t195 -88q184 0 248 151q41 97 41 308q0 127 -2.5 279.5t-8.5 205.5q39 -8 88 -8
h47q33 6 46 8q0 -102 -5.5 -274t-5.5 -211q0 -125 5.5 -318.5t5.5 -220.5q-17 4 -42.5 6t-50.5 2q-49 0 -88 -8zM954 1163h-71l-350 217q-66 39 -66 86q0 33 21.5 54.5t56.5 21.5q24 0 48 -15.5t54 -45.5z" />
    <glyph glyph-name="ucircumflex" unicode="&#xfb;" 
d="M839 0q4 12 7.5 37.5t3.5 54.5v37q-7 35 -7 45q-106 -194 -348 -194q-342 0 -342 354v205q0 114 -2 184q-8 281 -8 301q39 -8 88 -8h47q33 6 45 8q0 -102 -5 -274t-5 -211q0 -283 53 -371t195 -88q184 0 248 151q41 97 41 308q0 127 -2.5 279.5t-8.5 205.5q39 -8 88 -8
h47q33 6 46 8q0 -102 -5.5 -274t-5.5 -211q0 -125 5.5 -318.5t5.5 -220.5q-17 4 -42.5 6t-50.5 2q-49 0 -88 -8zM717 1188l-157 239l-160 -239h-82l221 336h45l219 -336h-86z" />
    <glyph glyph-name="udieresis" unicode="&#xfc;" 
d="M839 0q4 12 7.5 37.5t3.5 54.5v37q-7 35 -7 45q-106 -194 -348 -194q-342 0 -342 354v205q0 114 -2 184q-8 281 -8 301q39 -8 88 -8h47q33 6 45 8q0 -102 -5 -274t-5 -211q0 -283 53 -371t195 -88q184 0 248 151q41 97 41 308q0 127 -2.5 279.5t-8.5 205.5q39 -8 88 -8
h47q33 6 46 8q0 -102 -5.5 -274t-5.5 -211q0 -125 5.5 -318.5t5.5 -220.5q-17 4 -42.5 6t-50.5 2q-49 0 -88 -8zM726 1188q-27 0 -49 19.5t-22 52.5q0 31 21.5 50t47.5 19q29 0 52.5 -19.5t23.5 -49.5q0 -31 -21.5 -51.5t-52.5 -20.5zM393 1188q-28 0 -50 19.5t-22 52.5
q0 31 22 50t48 19q29 0 52 -19.5t23 -49.5q0 -31 -21 -51.5t-52 -20.5z" />
    <glyph glyph-name="dagger" unicode="&#x2020;" horiz-adv-x="756" 
d="M708 933l-272 30l-30 -734h-36l-30 734l-292 -30v110l312 -20l-30 410h116l-30 -410l292 20v-110z" />
    <glyph glyph-name="degree" unicode="&#xb0;" horiz-adv-x="791" 
d="M397 930q-104 0 -179 75t-75 179q0 102 73.5 176t176.5 74q105 0 179.5 -73.5t74.5 -176.5q0 -105 -73.5 -179.5t-176.5 -74.5zM397 1358q-71 0 -121.5 -51.5t-50.5 -122.5q0 -73 49.5 -125.5t118.5 -52.5q70 0 120 52.5t50 125.5q0 74 -48 124t-118 50z" />
    <glyph glyph-name="cent" unicode="&#xa2;" horiz-adv-x="1055" 
d="M903 209q-91 -56 -221 -68v-198h-92v198q-194 17 -309 157.5t-115 358.5q0 215 114.5 365.5t309.5 183.5v199h92v-193q118 0 225 -47v-104q-104 63 -225 67v-903q130 10 221 80v-96zM590 1122q-153 -29 -240.5 -153.5t-87.5 -304.5q0 -183 87 -300.5t241 -138.5v897z" />
    <glyph glyph-name="sterling" unicode="&#xa3;" horiz-adv-x="1055" 
d="M80 0v86q248 103 248 365v211h-228v90h228v290q0 188 99 302t263 114q96 0 182 -35v-94q-90 45 -186 45q-125 0 -195.5 -88t-70.5 -256v-278h307v-90h-307v-177q0 -295 -213 -401h741v-84h-868z" />
    <glyph glyph-name="section" unicode="&#xa7;" horiz-adv-x="918" 
d="M618 403q95 -71 95 -200q0 -114 -89 -191.5t-231 -77.5q-107 0 -217 50v98q118 -64 219 -64q109 0 165 50.5t56 132.5q0 54 -30.5 102t-140.5 101q-177 84 -228 160.5t-51 172.5q0 172 162 256q-123 83 -123 219q0 125 82 202t227 77q110 0 195 -37v-96q-86 49 -197 49
q-211 0 -211 -188q0 -80 55.5 -132t212.5 -122q203 -94 203 -279q0 -162 -154 -283zM406 946q-144 -65 -144 -203q0 -98 59 -155.5t224 -130.5q69 51 100 100t31 129q0 77 -48 130t-222 130z" />
    <glyph glyph-name="bullet" unicode="&#x2022;" horiz-adv-x="811" 
d="M408 477q-101 0 -172.5 70t-71.5 166q0 97 71.5 169t172.5 72q99 0 169 -71t70 -170q0 -98 -70 -167t-169 -69z" />
    <glyph glyph-name="paragraph" unicode="&#xb6;" horiz-adv-x="971" 
d="M733 1348v-1348h-86v1348h-198v-1348h-87v903q-105 0 -177 76t-72 188q0 121 75.5 194t180.5 73h495v-86h-131z" />
    <glyph glyph-name="germandbls" unicode="&#xdf;" horiz-adv-x="1061" 
d="M430 -6v94q73 -29 141 -29q141 0 224.5 88t83.5 234q0 155 -109 257t-307 134v80q307 70 307 332q0 122 -64.5 193t-179.5 71q-128 0 -199 -91t-71 -255v-1100h-92v1114q0 196 101 306t270 110q149 0 240 -92t91 -242q0 -264 -256 -375v-4q170 -45 267.5 -161.5
t97.5 -270.5q0 -179 -111 -295.5t-289 -116.5q-69 0 -145 19z" />
    <glyph glyph-name="uni00AD" unicode="&#xad;" horiz-adv-x="815" 
d="M145 555v90h547v-90h-547z" />
    <glyph glyph-name="registered" unicode="&#xae;" horiz-adv-x="900" 
d="M370 1279v-175h86q44 0 70 24t26 63q0 88 -108 88h-74zM568 838l-59 128q-23 49 -44 66t-47 17h-48v-211h-65v496h140q84 0 128.5 -37t44.5 -98q0 -104 -104 -137q30 -22 58 -79l70 -145h-74zM449 1400q-131 0 -224 -93q-94 -94 -94 -226q0 -131 93 -224q94 -94 225 -94
q132 0 226 94q93 93 93 224q0 133 -93 226t-226 93zM450 706q-155 0 -267 110q-111 111 -111 265q0 156 111 266q109 111 266 111q156 0 267 -111q112 -110 112 -265t-111 -266q-112 -110 -267 -110z" />
    <glyph glyph-name="copyright" unicode="&#xa9;" horiz-adv-x="1804" 
d="M903 -25q-311 0 -529 216.5t-218 523.5q0 310 219.5 526.5t525.5 216.5q308 0 528 -217t220 -524q0 -308 -218.5 -525t-527.5 -217zM901 1382q-272 0 -468.5 -196t-196.5 -471q0 -273 195 -468.5t470 -195.5q277 0 472.5 196t195.5 468q0 275 -196.5 471t-471.5 196z
M1182 270q-123 -71 -250 -71q-209 0 -352.5 141t-143.5 350q0 246 145.5 390.5t366.5 144.5q127 0 230 -54v-86q-106 58 -246 58q-170 0 -287 -117.5t-117 -314.5q0 -192 121.5 -310t292.5 -118q130 0 240 67v-80z" />
    <glyph glyph-name="trademark" unicode="&#x2122;" horiz-adv-x="1585" 
d="M1294 772v533h-4l-227 -533h-68l-217 533h-4v-533h-82v662h115l223 -545h4l234 545h108v-662h-82zM373 1356v-584h-82v584h-221v78h526v-78h-223z" />
    <glyph glyph-name="acute" unicode="&#xb4;" horiz-adv-x="508" 
d="M227 1188h-90l234 328h104z" />
    <glyph glyph-name="dieresis" unicode="&#xa8;" horiz-adv-x="817" 
d="M575 1188q-27 0 -49 19.5t-22 52.5q0 31 21.5 50t47.5 19q29 0 52.5 -19.5t23.5 -49.5q0 -31 -21.5 -51.5t-52.5 -20.5zM242 1188q-28 0 -50 19.5t-22 52.5q0 31 22 50t48 19q29 0 52 -19.5t23 -49.5q0 -31 -21 -51.5t-52 -20.5z" />
    <glyph glyph-name="AE" unicode="&#xc6;" horiz-adv-x="1706" 
d="M846 0v446h-502l-219 -446h-109l697 1434h803v-97h-572v-571h531v-90h-531v-586h604v-90h-702zM846 1337h-78l-383 -800h461v800z" />
    <glyph glyph-name="Oslash" unicode="&#xd8;" horiz-adv-x="1559" 
d="M317 147l-170 -202l-63 51l178 213q-153 200 -153 493q0 343 185.5 549.5t506.5 206.5q235 0 399 -131l139 166l64 -53l-141 -168q188 -201 188 -533q0 -356 -184 -560t-492 -204q-274 0 -457 172zM1139 1253q-144 115 -355 115q-250 0 -411.5 -181t-161.5 -474
q0 -258 117 -426zM1198 1196l-817 -973q153 -157 391 -157q266 0 421 173.5t155 483.5q0 298 -150 473z" />
    <glyph glyph-name="plusminus" unicode="&#xb1;" horiz-adv-x="1331" 
d="M709 633v-412h-84v412h-412v84h412v411h84v-411h411v-84h-411zM213 0v84h907v-84h-907z" />
    <glyph glyph-name="yen" unicode="&#xa5;" horiz-adv-x="1055" 
d="M602 745h344v-83h-373v-246h373v-84h-373v-332h-92v332h-372v84h372v246h-372v83h342l-377 689h102l307 -572q37 -68 47 -96h5q20 66 43 100l311 568h96z" />
    <glyph glyph-name="mu" unicode="&#xb5;" horiz-adv-x="1116" 
d="M860 0v186h-4q-105 -211 -330 -211q-176 0 -262 123h-8v-489h-92v1415h92v-569q0 -210 69.5 -303t215.5 -93q144 0 231.5 105.5t87.5 279.5v580h92v-1024h-92z" />
    <glyph glyph-name="ordfeminine" unicode="&#xaa;" horiz-adv-x="745" 
d="M557 717v143h-4q-37 -75 -106.5 -117.5t-147.5 -42.5q-105 0 -164 59t-59 144q0 200 256 236l225 32q0 203 -166 203q-134 0 -254 -92v96q129 76 262 76q248 0 248 -274v-463h-90zM369 1069q-114 -16 -157.5 -50.5t-43.5 -111.5q0 -57 39 -92t110 -35q96 0 168 83t72 188
v45z" />
    <glyph glyph-name="ordmasculine" unicode="&#xba;" horiz-adv-x="811" 
d="M420 696q-158 0 -253 106t-95 271q0 179 98.5 280t255.5 101q158 0 250 -101t92 -278q0 -163 -94 -271t-254 -108zM424 1374q-117 0 -187.5 -81t-70.5 -222q0 -133 70 -213t186 -80q119 0 184.5 79.5t65.5 219.5q0 139 -65 218t-183 79z" />
    <glyph glyph-name="ae" unicode="&#xe6;" horiz-adv-x="1718" 
d="M868 508q0 -211 97.5 -330t267.5 -119q172 0 336 127v-98q-159 -113 -355 -113q-136 0 -240 74.5t-151 210.5h-4q-133 -285 -391 -285q-150 0 -236 80.5t-86 208.5q0 143 99 225t287 91l284 12q0 373 -239 373q-186 0 -338 -134v109q161 109 348 109q230 0 295 -254h4
q126 254 383 254q190 0 293.5 -133t103.5 -367v-41h-758zM1530 592q-6 177 -85 275t-218 98q-144 0 -238.5 -96.5t-116.5 -276.5h658zM776 508l-264 -8q-156 -5 -232.5 -58.5t-76.5 -173.5q0 -98 63.5 -153.5t171.5 -55.5q136 0 237 107.5t101 259.5v82z" />
    <glyph glyph-name="oslash" unicode="&#xf8;" horiz-adv-x="1149" 
d="M961 870q98 -140 98 -360q0 -239 -129.5 -387t-354.5 -148q-192 0 -319 113l-166 -184l-61 57l170 189q-109 146 -109 356q0 255 136.5 399t359.5 144q199 0 321 -115l172 190l62 -55zM846 866q-99 99 -264 99q-181 0 -288.5 -122t-107.5 -339q0 -167 76 -285zM897 799
l-582 -643q104 -97 263 -97q185 0 285 120t100 333q0 171 -66 287z" />
    <glyph glyph-name="questiondown" unicode="&#xbf;" horiz-adv-x="881" 
d="M557 626q10 -25 17.5 -65.5t7.5 -80.5q0 -47 -12.5 -85.5t-35 -72.5t-54 -66t-69.5 -65q-32 -29 -63 -60.5t-55 -67.5t-38.5 -78.5t-14.5 -93.5q0 -55 18.5 -98.5t51.5 -74t79.5 -46.5t102.5 -16q94 0 173.5 33t149.5 90v-107q-71 -54 -149.5 -80t-174.5 -26
q-74 0 -137.5 21t-110 61.5t-73 99t-26.5 133.5q0 57 16 104t41.5 87t58.5 75t67 68q52 50 86 84.5t53 62.5t26.5 54.5t7.5 62.5q0 46 -8 83.5t-16 63.5h81zM522 1042q34 0 56.5 -23.5t22.5 -57.5q0 -35 -22.5 -57.5t-56.5 -22.5q-35 0 -58.5 22.5t-23.5 57.5
q0 34 23.5 57.5t58.5 23.5z" />
    <glyph glyph-name="uni00A0" unicode="&#xa0;" horiz-adv-x="561" 
 />
    <glyph glyph-name="exclamdown" unicode="&#xa1;" horiz-adv-x="582" 
d="M293 881q-34 0 -58 22.5t-24 57.5q0 34 24 57.5t58 23.5t57 -23.5t23 -57.5q0 -35 -23 -57.5t-57 -22.5zM242 -408l10 1031h86l10 -1031h-106z" />
    <glyph glyph-name="logicalnot" unicode="&#xac;" horiz-adv-x="1331" 
d="M1034 147v408h-821v84h907v-492h-86z" />
    <glyph glyph-name="florin" unicode="&#x192;" horiz-adv-x="1055" 
d="M911 1339q-32 13 -69 13q-178 0 -207 -201l-33 -231h172v-82h-184l-98 -705q-31 -221 -107.5 -316.5t-200.5 -95.5q-34 0 -71 13v82q41 -13 67 -13q176 0 219 324l97 711h-105v82h117l33 231q20 141 96.5 212t191.5 71q45 0 82 -11v-84z" />
    <glyph glyph-name="uni0394" unicode="&#x394;" horiz-adv-x="1288" 
d="M82 0v59l518 1375h94l512 -1375v-59h-1124zM678 1200q-12 34 -18.5 59t-14.5 50h-4q-6 -23 -14.5 -52t-18.5 -55l-407 -1112h884z" />
    <glyph glyph-name="guillemotleft" unicode="&#xab;" horiz-adv-x="952" 
d="M717 201l-277 336l277 344h114l-282 -344l280 -336h-112zM399 201l-276 336l276 344h113l-281 -344l281 -336h-113z" />
    <glyph glyph-name="guillemotright" unicode="&#xbb;" horiz-adv-x="952" 
d="M553 201h-113l283 344l-283 336h113l278 -336zM238 201h-117l285 344l-285 336h115l276 -336z" />
    <glyph glyph-name="ellipsis" unicode="&#x2026;" horiz-adv-x="1364" 
d="M1139 -16q-34 0 -57 23.5t-23 58.5q0 34 23 56.5t57 22.5t58 -22.5t24 -56.5q0 -35 -24 -58.5t-58 -23.5zM678 -16q-34 0 -57 23.5t-23 58.5q0 34 23 56.5t57 22.5t58 -22.5t24 -56.5q0 -35 -24 -58.5t-58 -23.5zM221 -16q-34 0 -57 23.5t-23 58.5q0 34 23 56.5t57 22.5
t58 -22.5t24 -56.5q0 -35 -24 -58.5t-58 -23.5z" />
    <glyph glyph-name="Agrave" unicode="&#xc0;" horiz-adv-x="1288" 
d="M59 0q356 774 672 1511h41q106 -264 211 -520q94 -227 211 -504q129 -307 208 -487q-47 8 -106 8h-46t-65 -8q-43 131 -82 233q-51 136 -104 261l-37 86l-266 4l-268 -4q-29 -64 -88 -213q-70 -177 -138 -367q-12 4 -31.5 6t-39.5 2q-31 0 -48.5 -4t-23.5 -4zM696 1214
l-231 -534l163 -4l291 4l-37 90zM1193 1511h-71l-350 217q-66 39 -66 86q0 33 21.5 54.5t56.5 21.5q24 0 48 -15.5t54 -45.5z" />
    <glyph glyph-name="Atilde" unicode="&#xc3;" horiz-adv-x="1288" 
d="M59 0q356 774 672 1511h41q106 -264 211 -520q94 -227 211 -504q129 -307 208 -487q-47 8 -106 8h-46t-65 -8q-43 131 -82 233q-51 136 -104 261l-37 86l-266 4l-268 -4q-29 -64 -88 -213q-70 -177 -138 -367q-12 4 -31.5 6t-39.5 2q-31 0 -48.5 -4t-23.5 -4zM696 1214
l-231 -534l163 -4l291 4l-37 90zM1034 1768q0 -103 -48.5 -163t-130.5 -60q-66 0 -151 76q-64 55 -119 55q-102 0 -102 -143h-72q0 100 48 160.5t128 60.5q72 0 160 -72q67 -59 117 -59q40 0 68 37t28 108h74z" />
    <glyph glyph-name="Otilde" unicode="&#xd5;" horiz-adv-x="1559" 
d="M910 -29q-373 0 -587 206t-214 562q0 351 219 561.5t582 210.5q370 0 584 -207.5t214 -564.5q0 -344 -220 -556t-578 -212zM910 53q278 0 430.5 178.5t152.5 509.5q0 338 -148.5 513.5t-434.5 175.5q-279 0 -432.5 -180.5t-153.5 -516.5q0 -327 151.5 -503.5
t434.5 -176.5zM1110 1767q0 -103 -48.5 -163t-130.5 -60q-66 0 -151 76q-64 55 -119 55q-102 0 -102 -143h-72q0 100 48 160.5t128 60.5q72 0 160 -72q67 -59 117 -59q40 0 68 37t28 108h74z" />
    <glyph glyph-name="OE" unicode="&#x152;" horiz-adv-x="1935" 
d="M1077 0q-174 -25 -282 -25q-326 0 -506 203t-180 524q0 344 187 550t515 206q141 0 266 -24h670v-91h-571v-575h530v-90h-530v-588h604v-90h-703zM1077 1341q-130 27 -272 27q-273 0 -433.5 -183t-160.5 -472q0 -292 152 -469.5t430 -177.5q139 0 284 30v1245z" />
    <glyph glyph-name="oe" unicode="&#x153;" horiz-adv-x="1886" 
d="M1057 508q0 -209 96.5 -329t267.5 -120q174 0 336 127v-98q-157 -113 -350 -113q-294 0 -395 297h-4q-116 -297 -433 -297q-226 0 -355.5 149t-129.5 382q0 258 137 400.5t359 142.5q156 0 268 -80t156 -217h4q115 297 407 297q190 0 292 -132.5t102 -367.5v-41h-758z
M1718 592q-6 177 -85 275t-218 98q-145 0 -240 -98t-114 -275h657zM582 965q-181 0 -288.5 -122t-107.5 -339q0 -201 105 -323t287 -122q185 0 285 120t100 333q0 219 -99.5 336t-281.5 117z" />
    <glyph glyph-name="endash" unicode="&#x2013;" horiz-adv-x="1024" 
d="M0 555v90h1024v-90h-1024z" />
    <glyph glyph-name="emdash" unicode="&#x2014;" horiz-adv-x="2048" 
d="M0 555v90h2048v-90h-2048z" />
    <glyph glyph-name="quotedblleft" unicode="&#x201c;" horiz-adv-x="686" 
d="M465 985h-105l156 449h74zM219 985h-106l153 449h76z" />
    <glyph glyph-name="quotedblright" unicode="&#x201d;" horiz-adv-x="686" 
d="M436 985h-76l123 449h107zM186 985h-73l125 449h104z" />
    <glyph glyph-name="quoteleft" unicode="&#x2018;" horiz-adv-x="438" 
d="M219 985h-106l153 449h76z" />
    <glyph glyph-name="quoteright" unicode="&#x2019;" horiz-adv-x="438" 
d="M186 985h-73l125 449h104z" />
    <glyph glyph-name="divide" unicode="&#xf7;" horiz-adv-x="1331" 
d="M668 866q-32 0 -55 23t-23 55t23 54t55 22t53.5 -22t21.5 -54t-21.5 -55t-53.5 -23zM213 555v84h907v-84h-907zM668 174q-32 0 -55 23t-23 55t23 54t55 22t53.5 -22t21.5 -54t-21.5 -55t-53.5 -23z" />
    <glyph glyph-name="ydieresis" unicode="&#xff;" horiz-adv-x="928" 
d="M450 6l-90 240q-41 102 -102 246q-72 165 -238 532q47 -8 106 -8h64q29 6 41 8q33 -117 82 -249t151 -380l76 -186l78 180q160 367 244 635q30 -8 73 -8h35q25 6 37 8q-49 -94 -98 -201.5t-109 -244.5l-291 -658q-86 -194 -120 -282q-54 -134 -78 -230q-31 6 -40 7t-34 1
l-76 -8q62 105 111 203q27 51 129 280zM636 1188q-27 0 -49 19.5t-22 52.5q0 31 21.5 50t47.5 19q29 0 52.5 -19.5t23.5 -49.5q0 -31 -21.5 -51.5t-52.5 -20.5zM303 1188q-28 0 -50 19.5t-22 52.5q0 31 22 50t48 19q29 0 52 -19.5t23 -49.5q0 -31 -21 -51.5t-52 -20.5z" />
    <glyph glyph-name="Ydieresis" unicode="&#x178;" horiz-adv-x="1106" 
d="M571 0q0 55 7 163.5t7 145.5q0 64 -5 171.5t-5 125.5q-139 242 -174 301.5t-172 292t-168 285.5q20 -4 53 -6t66 -2h71q31 6 46 8q53 -123 119.5 -252t134 -244t153.5 -244q225 367 391 740q17 -4 39.5 -6t40.5 -2q43 0 82 8q-272 -441 -494 -844l-6 -227q0 -103 3 -194
t10 -220q-21 4 -46.5 6t-50.5 2h-63q-27 -6 -39 -8zM771 1535q-27 0 -49 19.5t-22 52.5q0 31 21.5 50t47.5 19q29 0 52.5 -19.5t23.5 -49.5q0 -31 -21.5 -51.5t-52.5 -20.5zM438 1535q-28 0 -50 19.5t-22 52.5q0 31 22 50t48 19q29 0 52 -19.5t23 -49.5q0 -31 -21 -51.5
t-52 -20.5z" />
    <glyph glyph-name="Euro" unicode="&#x20ac;" horiz-adv-x="1055" 
d="M963 53q-130 -78 -275 -78q-178 0 -303 135t-162 390h-145v84h137q-4 48 -4 102q0 71 6 135h-139v84h149q44 264 178 408.5t324 144.5q128 0 234 -53v-102q-118 71 -242 71q-146 0 -254 -119.5t-145 -349.5h542v-84h-553q-4 -34 -4 -123q0 -58 4 -114h553v-84h-542
q33 -219 134 -330t244 -111q126 0 263 93v-99z" />
    <glyph glyph-name="guilsinglleft" unicode="&#x2039;" horiz-adv-x="635" 
d="M401 201l-278 336l278 344h113l-283 -344l281 -336h-111z" />
    <glyph glyph-name="guilsinglright" unicode="&#x203a;" horiz-adv-x="635" 
d="M238 201h-115l285 344l-283 336h113l276 -336z" />
    <glyph glyph-name="daggerdbl" unicode="&#x2021;" horiz-adv-x="756" 
d="M708 519l-292 30l30 -320h-116l30 320l-312 -30v110l292 -20l38 222l-38 222l-292 -20v110l312 -30l-30 320h116l-30 -320l292 30v-110l-272 20l-38 -222l38 -222l272 20v-110z" />
    <glyph glyph-name="periodcentered" unicode="&#xb7;" horiz-adv-x="455" 
d="M227 625q-34 0 -57 24t-23 58t23 56.5t57 22.5t58 -22.5t24 -56.5t-24 -58t-58 -24z" />
    <glyph glyph-name="quotesinglbase" unicode="&#x201a;" horiz-adv-x="438" 
d="M152 -225h-74l125 444h104z" />
    <glyph glyph-name="quotedblbase" unicode="&#x201e;" horiz-adv-x="686" 
d="M401 -229h-75l123 448h106zM152 -229h-74l125 448h104z" />
    <glyph glyph-name="perthousand" unicode="&#x2030;" horiz-adv-x="2445" 
d="M414 729q-154 0 -243 101t-89 262q0 175 94.5 272.5t247.5 97.5q150 0 238 -97t88 -271q0 -156 -91.5 -260.5t-244.5 -104.5zM422 1380q-115 0 -181.5 -76.5t-66.5 -213.5q0 -129 64.5 -205t177.5 -76q114 0 178.5 78t64.5 209q0 141 -64 212.5t-173 71.5zM416 -33h-99
l863 1465h96zM2021 -25q-154 0 -242.5 101t-88.5 262q0 177 96 274t246 97t237.5 -98.5t87.5 -270.5q0 -156 -91.5 -260.5t-244.5 -104.5zM2030 627q-113 0 -180.5 -76.5t-67.5 -214.5q0 -128 64 -204.5t177 -76.5q115 0 179.5 77.5t64.5 209.5q0 142 -64 213.5t-173 71.5z
M1198 -25q-153 0 -242.5 101t-89.5 262q0 177 96 274t246 97t238 -98t88 -271q0 -156 -91.5 -260.5t-244.5 -104.5zM1206 627q-114 0 -181 -78t-67 -213q0 -129 64.5 -205t177.5 -76q115 0 179.5 77.5t64.5 209.5q0 141 -64 213t-174 72z" />
    <glyph glyph-name="Acircumflex" unicode="&#xc2;" horiz-adv-x="1288" 
d="M59 0q356 774 672 1511h41q106 -264 211 -520q94 -227 211 -504q129 -307 208 -487q-47 8 -106 8h-46t-65 -8q-43 131 -82 233q-51 136 -104 261l-37 86l-266 4l-268 -4q-29 -64 -88 -213q-70 -177 -138 -367q-12 4 -31.5 6t-39.5 2q-31 0 -48.5 -4t-23.5 -4zM696 1214
l-231 -534l163 -4l291 4l-37 90zM868 1535l-157 239l-160 -239h-82l221 336h45l219 -336h-86z" />
    <glyph glyph-name="Ecircumflex" unicode="&#xca;" horiz-adv-x="1024" 
d="M370 741v-106q0 -72 6.5 -276.5t6.5 -258.5h45q90 0 239.5 6.5t282.5 18.5l-2 -66l2 -67q-41 4 -154.5 6t-218.5 2h-393q6 72 10 307.5t4 444.5q0 440 -2 531t-12 202q49 0 149.5 -5t137.5 -5q78 0 263 5t218 5l-4 -74l4 -70q-162 33 -524 33h-51q0 -51 -2.5 -122.5
t-4.5 -135.5v-282h172q45 0 178.5 6t192.5 6l-4 -62l4 -61q-192 18 -371 18h-172zM682 1537l-157 239l-160 -239h-82l221 336h45l219 -336h-86z" />
    <glyph glyph-name="Aacute" unicode="&#xc1;" horiz-adv-x="1288" 
d="M59 0q356 774 672 1511h41q106 -264 211 -520q94 -227 211 -504q129 -307 208 -487q-47 8 -106 8h-46t-65 -8q-43 131 -82 233q-51 136 -104 261l-37 86l-266 4l-268 -4q-29 -64 -88 -213q-70 -177 -138 -367q-12 4 -31.5 6t-39.5 2q-31 0 -48.5 -4t-23.5 -4zM696 1214
l-231 -534l163 -4l291 4l-37 90zM633 1530h-90l234 328h104z" />
    <glyph glyph-name="Edieresis" unicode="&#xcb;" horiz-adv-x="1024" 
d="M370 741v-106q0 -72 6.5 -276.5t6.5 -258.5h45q90 0 239.5 6.5t282.5 18.5l-2 -66l2 -67q-41 4 -154.5 6t-218.5 2h-393q6 72 10 307.5t4 444.5q0 440 -2 531t-12 202q49 0 149.5 -5t137.5 -5q78 0 263 5t218 5l-4 -74l4 -70q-162 33 -524 33h-51q0 -51 -2.5 -122.5
t-4.5 -135.5v-282h172q45 0 178.5 6t192.5 6l-4 -62l4 -61q-192 18 -371 18h-172zM697 1536q-27 0 -49 19.5t-22 52.5q0 31 21.5 50t47.5 19q29 0 52.5 -19.5t23.5 -49.5q0 -31 -21.5 -51.5t-52.5 -20.5zM364 1536q-28 0 -50 19.5t-22 52.5q0 31 22 50t48 19q29 0 52 -19.5
t23 -49.5q0 -31 -21 -51.5t-52 -20.5z" />
    <glyph glyph-name="Egrave" unicode="&#xc8;" horiz-adv-x="1024" 
d="M370 741v-106q0 -72 6.5 -276.5t6.5 -258.5h45q90 0 239.5 6.5t282.5 18.5l-2 -66l2 -67q-41 4 -154.5 6t-218.5 2h-393q6 72 10 307.5t4 444.5q0 440 -2 531t-12 202q49 0 149.5 -5t137.5 -5q78 0 263 5t218 5l-4 -74l4 -70q-162 33 -524 33h-51q0 -51 -2.5 -122.5
t-4.5 -135.5v-282h172q45 0 178.5 6t192.5 6l-4 -62l4 -61q-192 18 -371 18h-172zM944 1511h-71l-350 217q-66 39 -66 86q0 33 21.5 54.5t56.5 21.5q24 0 48 -15.5t54 -45.5z" />
    <glyph glyph-name="Iacute" unicode="&#xcd;" horiz-adv-x="467" 
d="M400 1485q-6 -72 -10.5 -300.5t-4.5 -436.5q0 -168 1 -388.5t14 -359.5q-45 8 -101 8q-55 0 -100 -8q6 72 10 305.5t4 442.5q0 165 -1 381.5t-13 355.5q45 -8 100 -8q56 0 101 8zM260 1536h-90l234 328h104z" />
    <glyph glyph-name="Icircumflex" unicode="&#xce;" horiz-adv-x="467" 
d="M400 1485q-6 -72 -10.5 -300.5t-4.5 -436.5q0 -168 1 -388.5t14 -359.5q-45 8 -101 8q-55 0 -100 -8q6 72 10 305.5t4 442.5q0 165 -1 381.5t-13 355.5q45 -8 100 -8q56 0 101 8zM390 1537l-157 239l-160 -239h-82l221 336h45l219 -336h-86z" />
    <glyph glyph-name="Idieresis" unicode="&#xcf;" horiz-adv-x="467" 
d="M400 1485q-6 -72 -10.5 -300.5t-4.5 -436.5q0 -168 1 -388.5t14 -359.5q-45 8 -101 8q-55 0 -100 -8q6 72 10 305.5t4 442.5q0 165 -1 381.5t-13 355.5q45 -8 100 -8q56 0 101 8zM398 1536q-27 0 -49 19.5t-22 52.5q0 31 21.5 50t47.5 19q29 0 52.5 -19.5t23.5 -49.5
q0 -31 -21.5 -51.5t-52.5 -20.5zM65 1536q-28 0 -50 19.5t-22 52.5q0 31 22 50t48 19q29 0 52 -19.5t23 -49.5q0 -31 -21 -51.5t-52 -20.5z" />
    <glyph glyph-name="Igrave" unicode="&#xcc;" horiz-adv-x="467" 
d="M234 1485q-6 -72 -10.5 -300.5t-4.5 -436.5q0 -168 1 -388.5t14 -359.5q-45 8 -101 8q-55 0 -100 -8q6 72 10 305.5t4 442.5q0 165 -1 381.5t-13 355.5q45 -8 100 -8q56 0 101 8zM451 1511h-71l-350 217q-66 39 -66 86q0 33 21.5 54.5t56.5 21.5q24 0 48 -15.5t54 -45.5z
" />
    <glyph glyph-name="Oacute" unicode="&#xd3;" horiz-adv-x="1559" 
d="M910 -29q-373 0 -587 206t-214 562q0 351 219 561.5t582 210.5q370 0 584 -207.5t214 -564.5q0 -344 -220 -556t-578 -212zM910 53q278 0 430.5 178.5t152.5 509.5q0 338 -148.5 513.5t-434.5 175.5q-279 0 -432.5 -180.5t-153.5 -516.5q0 -327 151.5 -503.5
t434.5 -176.5zM750 1536h-90l234 328h104z" />
    <glyph glyph-name="Ocircumflex" unicode="&#xd4;" horiz-adv-x="1559" 
d="M910 -29q-373 0 -587 206t-214 562q0 351 219 561.5t582 210.5q370 0 584 -207.5t214 -564.5q0 -344 -220 -556t-578 -212zM910 53q278 0 430.5 178.5t152.5 509.5q0 338 -148.5 513.5t-434.5 175.5q-279 0 -432.5 -180.5t-153.5 -516.5q0 -327 151.5 -503.5
t434.5 -176.5zM954 1536l-157 239l-160 -239h-82l221 336h45l219 -336h-86z" />
    <glyph glyph-name="Ograve" unicode="&#xd2;" horiz-adv-x="1559" 
d="M910 -29q-373 0 -587 206t-214 562q0 351 219 561.5t582 210.5q370 0 584 -207.5t214 -564.5q0 -344 -220 -556t-578 -212zM910 53q278 0 430.5 178.5t152.5 509.5q0 338 -148.5 513.5t-434.5 175.5q-279 0 -432.5 -180.5t-153.5 -516.5q0 -327 151.5 -503.5
t434.5 -176.5zM1290 1510h-71l-350 217q-66 39 -66 86q0 33 21.5 54.5t56.5 21.5q24 0 48 -15.5t54 -45.5z" />
    <glyph glyph-name="Uacute" unicode="&#xda;" horiz-adv-x="1327" 
d="M1270 1485q14 -4 34.5 -6t37.5 -2h38q27 6 37 8q0 -62 -4 -144q-10 -202 -10 -254v-260q0 -272 -25 -401q-41 -213 -163 -324q-146 -131 -431 -131q-323 0 -470.5 158t-147.5 496q6 147 11 296.5t5 233.5q0 78 -5 168l-9 162q18 -4 49 -6t51 -2q52 0 101 8
q-6 -277 -10.5 -479.5t-4.5 -362.5q0 -258 91 -397q112 -174 374 -174q230 0 342 133q123 145 123 461v415q0 150 -4 243t-10 161zM630 1535h-90l234 328h104z" />
    <glyph glyph-name="Ucircumflex" unicode="&#xdb;" horiz-adv-x="1327" 
d="M1270 1485q14 -4 34.5 -6t37.5 -2h38q27 6 37 8q0 -62 -4 -144q-10 -202 -10 -254v-260q0 -272 -25 -401q-41 -213 -163 -324q-146 -131 -431 -131q-323 0 -470.5 158t-147.5 496q6 147 11 296.5t5 233.5q0 78 -5 168l-9 162q18 -4 49 -6t51 -2q52 0 101 8
q-6 -277 -10.5 -479.5t-4.5 -362.5q0 -258 91 -397q112 -174 374 -174q230 0 342 133q123 145 123 461v415q0 150 -4 243t-10 161zM826 1537l-157 239l-160 -239h-82l221 336h45l219 -336h-86z" />
    <glyph glyph-name="Ugrave" unicode="&#xd9;" horiz-adv-x="1327" 
d="M1270 1485q14 -4 34.5 -6t37.5 -2h38q27 6 37 8q0 -62 -4 -144q-10 -202 -10 -254v-260q0 -272 -25 -401q-41 -213 -163 -324q-146 -131 -431 -131q-323 0 -470.5 158t-147.5 496q6 147 11 296.5t5 233.5q0 78 -5 168l-9 162q18 -4 49 -6t51 -2q52 0 101 8
q-6 -277 -10.5 -479.5t-4.5 -362.5q0 -258 91 -397q112 -174 374 -174q230 0 342 133q123 145 123 461v415q0 150 -4 243t-10 161zM1055 1511h-71l-350 217q-66 39 -66 86q0 33 21.5 54.5t56.5 21.5q24 0 48 -15.5t54 -45.5z" />
    <glyph glyph-name="dotlessi" unicode="&#x131;" horiz-adv-x="420" 
d="M164 0v1024h92v-1024h-92z" />
    <glyph glyph-name="circumflex" unicode="&#x2c6;" horiz-adv-x="766" 
d="M528 1188l-157 239l-160 -239h-82l221 336h45l219 -336h-86z" />
    <glyph glyph-name="tilde" unicode="&#x2dc;" horiz-adv-x="649" 
d="M664 1423q0 -103 -48.5 -163t-130.5 -60q-66 0 -151 76q-64 55 -119 55q-102 0 -102 -143h-72q0 100 48 160.5t128 60.5q72 0 160 -72q67 -59 117 -59q40 0 68 37t28 108h74z" />
    <glyph glyph-name="uni02C9" unicode="&#x2c9;" horiz-adv-x="635" 
d="M61 1188v84h508v-84h-508z" />
    <glyph glyph-name="breve" unicode="&#x2d8;" horiz-adv-x="610" 
d="M573 1423q-16 -108 -89.5 -171.5t-182.5 -63.5q-110 0 -182.5 62t-81.5 173h84q6 -75 55.5 -117t126.5 -42q68 0 120.5 43.5t61.5 115.5h88z" />
    <glyph glyph-name="dotaccent" unicode="&#x2d9;" horiz-adv-x="365" 
d="M182 1188q-31 0 -54.5 22t-23.5 56t23.5 53.5t52.5 19.5q31 0 55.5 -19.5t24.5 -53.5q0 -32 -23 -55t-55 -23z" />
    <glyph glyph-name="ring" unicode="&#x2da;" horiz-adv-x="594" 
d="M297 1188q-86 0 -143.5 50.5t-57.5 133.5q0 80 57 132t144 52q88 0 144.5 -50.5t56.5 -133.5q0 -80 -58 -132t-143 -52zM297 1489q-57 0 -92 -32t-35 -85t36.5 -85t90.5 -32q57 0 93 32.5t36 84.5q0 57 -37.5 87t-91.5 30z" />
    <glyph glyph-name="cedilla" unicode="&#xb8;" horiz-adv-x="412" 
d="M57 -430v74q50 -6 86 -6q160 0 160 92q0 86 -145 86q-32 0 -64 -4v188h72v-117q225 0 225 -147q0 -170 -254 -170q-36 0 -80 4z" />
    <glyph glyph-name="hungarumlaut" unicode="&#x2dd;" horiz-adv-x="633" 
d="M365 1188h-74l211 317h110zM143 1188h-73l211 317h110z" />
    <glyph glyph-name="ogonek" unicode="&#x2db;" horiz-adv-x="362" 
d="M305 0q-170 -135 -170 -240q0 -88 84 -88q38 0 80 17v-70q-49 -18 -94 -18q-70 0 -113 40.5t-43 112.5q0 55 42.5 122t125.5 124h88z" />
    <glyph glyph-name="caron" unicode="&#x2c7;" horiz-adv-x="766" 
d="M412 1188h-45l-220 336h86l158 -240l160 240h82z" />
    <glyph glyph-name="Lslash" unicode="&#x141;" horiz-adv-x="938" 
d="M184 0v569l-114 -69v96l114 70v768h99v-709l366 223v-96l-366 -223v-539h575v-90h-674z" />
    <glyph glyph-name="lslash" unicode="&#x142;" horiz-adv-x="502" 
d="M297 700v-700h-92v631l-180 -137v96l180 137v789h92v-719l182 135v-96z" />
    <glyph glyph-name="Scaron" unicode="&#x160;" horiz-adv-x="1018" 
d="M139 86q27 84 33 111q14 59 14 118q49 -122 143.5 -190t215.5 -68q139 0 225 86t86 234q0 104 -51.5 164.5t-167.5 109.5l-176 74q-148 59 -218.5 146t-70.5 219q0 184 127 302.5t329 118.5q179 0 330 -79q-35 -76 -59 -168q-115 168 -299 168q-119 0 -189.5 -75
t-70.5 -200q0 -96 50 -154.5t167 -109.5l176 -76q156 -65 222.5 -148t66.5 -225q0 -211 -141.5 -342t-376.5 -131q-215 0 -365 115zM613 1567h-45l-220 336h86l158 -240l160 240h82z" />
    <glyph glyph-name="scaron" unicode="&#x161;" horiz-adv-x="795" 
d="M775 322q0 -148 -105.5 -245t-277.5 -97q-168 0 -281 77q14 39 28.5 84t22.5 84q107 -164 266 -164q97 0 153 52.5t56 144.5q0 74 -40 113t-130 65l-100 29q-125 35 -180.5 99.5t-55.5 178.5q0 131 91.5 216t242.5 85q76 0 144.5 -18t126.5 -53q-35 -80 -45 -137
q-123 143 -252 143q-82 0 -133.5 -49t-51.5 -133q0 -74 38 -115t126 -68l148 -43q110 -32 159.5 -89.5t49.5 -159.5zM503 1188h-45l-220 336h86l158 -240l160 240h82z" />
    <glyph glyph-name="Zcaron" unicode="&#x17d;" horiz-adv-x="1167" 
d="M66 0q233 328 477 690q236 350 453 688l-170 6q-92 0 -236 -8q-321 -18 -415 -18l4 63l-4 64q65 0 299.5 -4t273.5 -4q104 0 253.5 2t319.5 6q-528 -703 -954 -1374l258 -5q121 0 348.5 11.5t309.5 11.5l-5 -66l5 -63q-21 0 -275 3t-420 5q-129 0 -280.5 -3t-241.5 -5z
M696 1535h-45l-220 336h86l158 -240l160 240h82z" />
    <glyph glyph-name="zcaron" unicode="&#x17e;" horiz-adv-x="950" 
d="M57 0v45q225 279 389 490q189 241 297 399h-86q-219 0 -483 -29l4 56l-8 63q41 -4 153.5 -6t212.5 -2q80 0 257 4t184 4v-43q-156 -197 -248 -315q-74 -95 -223 -297q-125 -168 -201 -279q223 0 377.5 9.5t281.5 23.5l-4 -49l6 -74q-53 0 -223 3t-274 5q-74 0 -239 -4
t-173 -4zM591 1188h-45l-220 336h86l158 -240l160 240h82z" />
    <glyph glyph-name="brokenbar" unicode="&#xa6;" horiz-adv-x="463" 
d="M184 715v852h95v-852h-95zM184 -481v852h95v-852h-95z" />
    <glyph glyph-name="Eth" unicode="&#xd0;" horiz-adv-x="1380" 
d="M184 0v668h-149v88h149v678h359q358 0 543.5 -177.5t185.5 -519.5q0 -332 -201.5 -534.5t-548.5 -202.5h-338zM283 1343v-587h403v-88h-403v-578h225q318 0 489.5 165t171.5 478q0 610 -641 610h-245z" />
    <glyph glyph-name="eth" unicode="&#xf0;" horiz-adv-x="1090" 
d="M801 956l4 5q-102 180 -219 296l-299 -149l-35 70l276 133q-127 115 -252 202h150q81 -58 186 -155l301 149l35 -71l-280 -136q163 -169 247 -377t84 -413q0 -235 -121 -385t-331 -150q-220 0 -338.5 144t-118.5 387q0 241 128.5 392t338.5 151q147 0 244 -93zM557 965
q-167 0 -269 -127t-102 -334t96.5 -326t266.5 -119q163 0 258.5 122t95.5 331q0 453 -346 453z" />
    <glyph glyph-name="Yacute" unicode="&#xdd;" horiz-adv-x="1106" 
d="M571 0q0 55 7 163.5t7 145.5q0 64 -5 171.5t-5 125.5q-139 242 -174 301.5t-172 292t-168 285.5q20 -4 53 -6t66 -2h71q31 6 46 8q53 -123 119.5 -252t134 -244t153.5 -244q225 367 391 740q17 -4 39.5 -6t40.5 -2q43 0 82 8q-272 -441 -494 -844l-6 -227q0 -103 3 -194
t10 -220q-21 4 -46.5 6t-50.5 2h-63q-27 -6 -39 -8zM587 1567h-90l234 328h104z" />
    <glyph glyph-name="yacute" unicode="&#xfd;" horiz-adv-x="928" 
d="M450 6l-90 240q-41 102 -102 246q-72 165 -238 532q47 -8 106 -8h64q29 6 41 8q33 -117 82 -249t151 -380l76 -186l78 180q160 367 244 635q30 -8 73 -8h35q25 6 37 8q-49 -94 -98 -201.5t-109 -244.5l-291 -658q-86 -194 -120 -282q-54 -134 -78 -230q-31 6 -40 7t-34 1
l-76 -8q62 105 111 203q27 51 129 280zM448 1188h-90l234 328h104z" />
    <glyph glyph-name="Thorn" unicode="&#xde;" horiz-adv-x="1114" 
d="M283 338v-338h-99v1434h99v-238h247q455 0 455 -403q0 -204 -133 -329.5t-367 -125.5h-202zM283 1106v-678h204q191 0 293.5 91.5t102.5 260.5q0 326 -371 326h-229z" />
    <glyph glyph-name="thorn" unicode="&#xfe;" horiz-adv-x="1147" 
d="M260 182h-4v-653h-92v1987h92v-703h4q55 113 157.5 174.5t225.5 61.5q195 0 304.5 -134.5t109.5 -365.5q0 -257 -125.5 -415.5t-331.5 -158.5q-230 0 -340 207zM256 563v-129q0 -154 97 -264.5t255 -110.5q157 0 255 134.5t98 353.5q0 192 -90 305t-240 113
q-179 0 -277 -120t-98 -282z" />
    <glyph glyph-name="multiply" unicode="&#xd7;" horiz-adv-x="1331" 
d="M999 203l-333 336l-334 -336l-60 59l334 334l-334 336l60 59l334 -336l333 336l60 -59l-334 -336l334 -334z" />
    <glyph glyph-name="glyph224" horiz-adv-x="674" 
d="M600 584h-471v82h195v682l-209 -70v88l295 94v-794h190v-82z" />
    <glyph glyph-name="glyph225" horiz-adv-x="674" 
d="M596 584h-518v100l239 234q61 59 97.5 102t56 77t25.5 62.5t6 59.5q0 153 -158 153q-109 0 -221 -98v102q56 38 112 58t115 20q57 0 102 -16t76.5 -45.5t48.5 -70.5t17 -91q0 -39 -9.5 -77t-34 -81t-67 -94t-108.5 -115l-193 -186v-4h414v-90z" />
    <glyph glyph-name="glyph226" horiz-adv-x="674" 
d="M561 811q0 -54 -19 -100t-55 -79.5t-88 -53t-118 -19.5q-107 0 -193 47v96q100 -63 195 -63q91 0 141.5 47t50.5 125q0 168 -235 168h-70v80h61q215 0 215 172q0 137 -153 137q-71 0 -172 -53v90q49 23 96.5 34t93.5 11q52 0 93.5 -15t70.5 -42.5t44.5 -65.5t15.5 -84
q0 -162 -148 -215v-4q85 -19 129.5 -77t44.5 -136z" />
    <glyph glyph-name="onehalf" unicode="&#xbd;" horiz-adv-x="1622" 
d="M600 584h-471v82h195v682l-209 -70v88l295 94v-794h190v-82zM430 0h-98l862 1434h96zM1542 0h-518v100l240 234q60 59 96.5 102t56 77t25.5 62.5t6 59.5q0 153 -158 153q-111 0 -221 -98v103q112 77 227 77q57 0 102 -16t76.5 -45.5t48.5 -70.5t17 -91q0 -38 -9.5 -76
t-34 -81t-67 -94t-108.5 -115l-193 -187v-4h414v-90z" />
    <glyph glyph-name="onequarter" unicode="&#xbc;" horiz-adv-x="1513" 
d="M600 584h-471v82h195v682l-209 -70v88l295 94v-794h190v-82zM430 0h-98l862 1434h96zM1358 219v-219h-82v219h-393v64l385 567h90v-553h110v-78h-110zM1274 741q-33 -61 -45 -77l-246 -367h293v369l2 75h-4z" />
    <glyph glyph-name="threequarters" unicode="&#xbe;" horiz-adv-x="1513" 
d="M561 811q0 -54 -19 -100t-55 -79.5t-88 -53t-118 -19.5q-107 0 -193 47v96q100 -63 195 -63q91 0 141.5 47t50.5 125q0 168 -235 168h-70v80h61q215 0 215 172q0 137 -153 137q-71 0 -172 -53v90q49 23 96.5 34t93.5 11q52 0 93.5 -15t70.5 -42.5t44.5 -65.5t15.5 -84
q0 -162 -148 -215v-4q85 -19 129.5 -77t44.5 -136zM430 0h-98l862 1434h96zM1358 219v-219h-82v219h-393v64l385 567h90v-553h110v-78h-110zM1274 741q-33 -61 -45 -77l-246 -367h293v369l2 75h-4z" />
    <glyph glyph-name="Gbreve" unicode="&#x11e;" horiz-adv-x="1368" 
d="M1493 66q-159 -46 -302.5 -70.5t-274.5 -24.5q-373 0 -590 203t-217 545q0 360 232.5 576t625.5 216q318 0 535 -139q-19 -55 -30 -97t-22 -93q-170 248 -516 248q-274 0 -442 -186.5t-168 -504.5q0 -315 175 -500.5t460 -185.5q176 0 348 74q4 45 5 117.5t1 97.5
q0 68 -5 143.5t-9 132.5q18 -4 48 -6t52 -2h49q37 6 52 8q0 -43 -7.5 -171t-7.5 -168q0 -125 8 -213zM1071 1770q-16 -108 -89.5 -171.5t-182.5 -63.5q-110 0 -182.5 62t-81.5 173h84q6 -75 55.5 -117t126.5 -42q68 0 120.5 43.5t61.5 115.5h88z" />
    <glyph glyph-name="gbreve" unicode="&#x11f;" horiz-adv-x="1147" 
d="M338 393q-217 68 -217 291q0 166 115.5 263t316.5 97q57 0 141 -10t113 -10q49 0 98 4q70 10 113 14v-96l-135 6h-43q81 -110 81 -247q0 -162 -104 -254.5t-287 -92.5q-28 0 -67 4.5t-51 4.5q-103 0 -103 -103q0 -63 40 -90t130 -27h121q229 0 332.5 -62t103.5 -232
q0 -199 -151.5 -325t-401.5 -126q-182 0 -287.5 85t-105.5 228q0 215 242 293q-78 19 -122 67t-44 115q0 113 172 203zM477 0q-119 0 -188.5 -73.5t-69.5 -184.5q0 -123 82 -198.5t217 -75.5q164 0 266.5 86t102.5 217q0 143 -99 190q-80 39 -311 39zM760 700
q0 283 -226 283q-110 0 -175.5 -76t-65.5 -207q0 -137 63.5 -210.5t177.5 -73.5q226 0 226 284zM877 1423q-16 -108 -89.5 -171.5t-182.5 -63.5q-110 0 -182.5 62t-81.5 173h84q6 -75 55.5 -117t126.5 -42q68 0 120.5 43.5t61.5 115.5h88z" />
    <glyph glyph-name="Idotaccent" unicode="&#x130;" horiz-adv-x="467" 
d="M400 1485q-6 -72 -10.5 -300.5t-4.5 -436.5q0 -168 1 -388.5t14 -359.5q-45 8 -101 8q-55 0 -100 -8q6 72 10 305.5t4 442.5q0 165 -1 381.5t-13 355.5q45 -8 100 -8q56 0 101 8zM231 1537q-31 0 -54.5 22t-23.5 56t23.5 53.5t52.5 19.5q31 0 55.5 -19.5t24.5 -53.5
q0 -32 -23 -55t-55 -23z" />
    <glyph glyph-name="Scedilla" unicode="&#x15e;" horiz-adv-x="1018" 
d="M139 86q27 84 33 111q14 59 14 118q49 -122 143.5 -190t215.5 -68q139 0 225 86t86 234q0 104 -51.5 164.5t-167.5 109.5l-176 74q-148 59 -218.5 146t-70.5 219q0 184 127 302.5t329 118.5q179 0 330 -79q-35 -76 -59 -168q-115 168 -299 168q-119 0 -189.5 -75
t-70.5 -200q0 -96 50 -154.5t167 -109.5l176 -76q156 -65 222.5 -148t66.5 -225q0 -211 -141.5 -342t-376.5 -131q-215 0 -365 115zM444 -430v74q50 -6 86 -6q160 0 160 92q0 86 -145 86q-32 0 -64 -4v188h72v-117q225 0 225 -147q0 -170 -254 -170q-36 0 -80 4z" />
    <glyph glyph-name="scedilla" unicode="&#x15f;" horiz-adv-x="795" 
d="M775 322q0 -148 -105.5 -245t-277.5 -97q-168 0 -281 77q14 39 28.5 84t22.5 84q107 -164 266 -164q97 0 153 52.5t56 144.5q0 74 -40 113t-130 65l-100 29q-125 35 -180.5 99.5t-55.5 178.5q0 131 91.5 216t242.5 85q76 0 144.5 -18t126.5 -53q-35 -80 -45 -137
q-123 143 -252 143q-82 0 -133.5 -49t-51.5 -133q0 -74 38 -115t126 -68l148 -43q110 -32 159.5 -89.5t49.5 -159.5zM335 -430v74q50 -6 86 -6q160 0 160 92q0 86 -145 86q-32 0 -64 -4v188h72v-117q225 0 225 -147q0 -170 -254 -170q-36 0 -80 4z" />
    <glyph glyph-name="Cacute" unicode="&#x106;" horiz-adv-x="1272" 
d="M1354 92q-166 -121 -487 -121q-361 0 -559.5 201t-198.5 567q0 351 217 561.5t590 210.5q254 0 467 -106q-35 -109 -35 -207q-152 232 -440 232q-271 0 -422.5 -180.5t-151.5 -512.5q0 -319 150.5 -501.5t408.5 -182.5q248 0 473 183zM717 1536h-90l234 328h104z" />
    <glyph glyph-name="cacute" unicode="&#x107;" horiz-adv-x="909" 
d="M969 86q-74 -57 -163 -81.5t-208 -24.5q-227 0 -367.5 144t-140.5 386q0 244 147.5 389t391.5 145q184 0 352 -88q-37 -88 -57 -186q-93 205 -295 205q-172 0 -267.5 -122t-95.5 -341q0 -213 103.5 -335t275.5 -122t326 156l-7 -80zM524 1188h-90l234 328h104z" />
    <glyph glyph-name="Ccaron" unicode="&#x10c;" horiz-adv-x="1272" 
d="M1354 92q-166 -121 -487 -121q-361 0 -559.5 201t-198.5 567q0 351 217 561.5t590 210.5q254 0 467 -106q-35 -109 -35 -207q-152 232 -440 232q-271 0 -422.5 -180.5t-151.5 -512.5q0 -319 150.5 -501.5t408.5 -182.5q248 0 473 183zM823 1536h-45l-220 336h86l158 -240
l160 240h82z" />
    <glyph glyph-name="ccaron" unicode="&#x10d;" horiz-adv-x="909" 
d="M969 86q-74 -57 -163 -81.5t-208 -24.5q-227 0 -367.5 144t-140.5 386q0 244 147.5 389t391.5 145q184 0 352 -88q-37 -88 -57 -186q-93 205 -295 205q-172 0 -267.5 -122t-95.5 -341q0 -213 103.5 -335t275.5 -122t326 156l-7 -80zM612 1188h-45l-220 336h86l158 -240
l160 240h82z" />
    <glyph glyph-name="dcroat" unicode="&#x111;" horiz-adv-x="1147" 
d="M891 0v186h-4q-50 -97 -148 -154t-221 -57q-189 0 -308.5 138t-119.5 381q0 248 130.5 401.5t338.5 153.5q230 0 328 -189h4v371h-335v84h335v201h92v-201h135v-84h-135v-1231h-92zM891 623q0 143 -90.5 242.5t-243.5 99.5q-161 0 -266 -123.5t-105 -339.5
q0 -212 94.5 -327.5t243.5 -115.5q175 0 271 108.5t96 264.5v191z" />
    <glyph glyph-name="macron" unicode="&#xaf;" horiz-adv-x="850" 
d="M1085 1503v-106h-1085v106h1085z" />
    <glyph glyph-name="Abreve" unicode="&#x102;" horiz-adv-x="1288" 
d="M59 0q356 774 672 1511h41q106 -264 211 -520q94 -227 211 -504q129 -307 208 -487q-47 8 -106 8h-46t-65 -8q-43 131 -82 233q-51 136 -104 261l-37 86l-266 4l-268 -4q-29 -64 -88 -213q-70 -177 -138 -367q-12 4 -31.5 6t-39.5 2q-31 0 -48.5 -4t-23.5 -4zM696 1214
l-231 -534l163 -4l291 4l-37 90zM988 1772q-16 -108 -89.5 -171.5t-182.5 -63.5q-110 0 -182.5 62t-81.5 173h84q6 -75 55.5 -117t126.5 -42q68 0 120.5 43.5t61.5 115.5h88z" />
    <glyph glyph-name="abreve" unicode="&#x103;" horiz-adv-x="1012" 
d="M727 125q-140 -145 -322 -145q-299 0 -299 270q0 225 250 280q141 27 282 56q62 16 93 43v47q0 149 -53.5 218t-184.5 69q-176 0 -281 -158h-16l4 115q148 124 350 124q183 0 261.5 -89t78.5 -277v-459q0 -86 14.5 -114.5t73.5 -28.5l37 4l11 -45q-19 -6 -73 -20.5
t-106 -14.5q-100 0 -120 125zM731 539q-256 -43 -342 -86q-107 -56 -107 -177q0 -100 51.5 -155t143.5 -55q80 0 161 53q93 61 93 139v281zM812 1423q-16 -108 -89.5 -171.5t-182.5 -63.5q-110 0 -182.5 62t-81.5 173h84q6 -75 55.5 -117t126.5 -42q68 0 120.5 43.5
t61.5 115.5h88z" />
    <glyph glyph-name="Aogonek" unicode="&#x104;" horiz-adv-x="1288" 
d="M59 0q356 774 672 1511h41q106 -264 211 -520q94 -227 211 -504q129 -307 208 -487q-47 8 -106 8h-46t-65 -8q-43 131 -82 233q-51 136 -104 261l-37 86l-266 4l-268 -4q-29 -64 -88 -213q-70 -177 -138 -367q-12 4 -31.5 6t-39.5 2q-31 0 -48.5 -4t-23.5 -4zM696 1214
l-231 -534l163 -4l291 4l-37 90zM1275 0q-170 -135 -170 -240q0 -88 84 -88q38 0 80 17v-70q-49 -18 -94 -18q-70 0 -113 40.5t-43 112.5q0 55 42.5 122t125.5 124h88z" />
    <glyph glyph-name="aogonek" unicode="&#x105;" horiz-adv-x="1012" 
d="M727 125q-140 -145 -322 -145q-299 0 -299 270q0 225 250 280q141 27 282 56q62 16 93 43v47q0 149 -53.5 218t-184.5 69q-176 0 -281 -158h-16l4 115q148 124 350 124q183 0 261.5 -89t78.5 -277v-459q0 -86 14.5 -114.5t73.5 -28.5l37 4l11 -45q-19 -6 -73 -20.5
t-106 -14.5q-100 0 -120 125zM731 539q-256 -43 -342 -86q-107 -56 -107 -177q0 -100 51.5 -155t143.5 -55q80 0 161 53q93 61 93 139v281zM892 0q-170 -135 -170 -240q0 -88 84 -88q38 0 80 17v-70q-49 -18 -94 -18q-70 0 -113 40.5t-43 112.5q0 55 42.5 122t125.5 124h88z
" />
    <glyph glyph-name="Dcaron" unicode="&#x10e;" horiz-adv-x="1380" 
d="M184 1485q25 0 86 -4t76 -4q39 0 209 4t291 4q329 0 506.5 -183.5t177.5 -517.5q0 -385 -218.5 -588.5t-638.5 -203.5q-61 0 -186 4t-131 4h-80t-92 -8q6 71 10 308t4 448q0 165 -1 381.5t-13 355.5zM379 92q55 0 138 -5t89 -5q713 0 713 661q0 351 -144.5 505.5
t-470.5 154.5q-47 0 -159.5 -6t-167.5 -6q-5 -111 -6 -287t-1 -309q0 -136 2 -321t7 -382zM680 1536h-45l-220 336h86l158 -240l160 240h82z" />
    <glyph glyph-name="dcaron" unicode="&#x10f;" horiz-adv-x="1254" 
d="M895 0q10 55 10 127l-6 84q-121 -231 -373 -231q-196 0 -316 140t-120 374q0 247 130 398.5t331 151.5q223 0 344 -200q6 55 8 211.5t2 181.5q0 92 -5 235.5t-5 153.5q20 -4 39.5 -6t48.5 -2q22 0 40.5 2t51.5 6q0 -125 -5 -363.5t-5 -304.5q0 -307 3 -539.5t7 -418.5
q-43 8 -92 8q-25 0 -43.5 -2t-44.5 -6zM594 963q-154 0 -236 -127t-82 -371q0 -410 297 -410q154 0 240 126t86 362q0 207 -78 313.5t-227 106.5zM1315 1516l-126 -261h-79l93 261h112z" />
    <glyph glyph-name="Dcroat" unicode="&#x110;" horiz-adv-x="1380" 
d="M184 0v668h-149v88h149v678h359q358 0 543.5 -177.5t185.5 -519.5q0 -332 -201.5 -534.5t-548.5 -202.5h-338zM283 1343v-587h403v-88h-403v-578h225q318 0 489.5 165t171.5 478q0 610 -641 610h-245z" />
    <glyph glyph-name="Eogonek" unicode="&#x118;" horiz-adv-x="1024" 
d="M370 741v-106q0 -72 6.5 -276.5t6.5 -258.5h45q90 0 239.5 6.5t282.5 18.5l-2 -66l2 -67q-41 4 -154.5 6t-218.5 2h-393q6 72 10 307.5t4 444.5q0 440 -2 531t-12 202q49 0 149.5 -5t137.5 -5q78 0 263 5t218 5l-4 -74l4 -70q-162 33 -524 33h-51q0 -51 -2.5 -122.5
t-4.5 -135.5v-282h172q45 0 178.5 6t192.5 6l-4 -62l4 -61q-192 18 -371 18h-172zM828 0q-170 -135 -170 -240q0 -88 84 -88q38 0 80 17v-70q-49 -18 -94 -18q-70 0 -113 40.5t-43 112.5q0 55 42.5 122t125.5 124h88z" />
    <glyph glyph-name="eogonek" unicode="&#x119;" horiz-adv-x="1034" 
d="M280 600h572v37q0 162 -72 250t-198 88q-127 0 -214.5 -101.5t-87.5 -273.5zM971 104q-168 -124 -369 -124q-229 0 -370.5 147t-141.5 383q0 244 137 389t363 145q209 0 321.5 -120.5t112.5 -348.5v-51h-748q0 -225 94.5 -341.5t270.5 -116.5q186 0 336 147
q-4 -25 -5 -62.5t-1 -46.5zM687 0q-170 -135 -170 -240q0 -88 84 -88q38 0 80 17v-70q-49 -18 -94 -18q-70 0 -113 40.5t-43 112.5q0 55 42.5 122t125.5 124h88z" />
    <glyph glyph-name="Ecaron" unicode="&#x11a;" horiz-adv-x="1024" 
d="M370 741v-106q0 -72 6.5 -276.5t6.5 -258.5h45q90 0 239.5 6.5t282.5 18.5l-2 -66l2 -67q-41 4 -154.5 6t-218.5 2h-393q6 72 10 307.5t4 444.5q0 440 -2 531t-12 202q49 0 149.5 -5t137.5 -5q78 0 263 5t218 5l-4 -74l4 -70q-162 33 -524 33h-51q0 -51 -2.5 -122.5
t-4.5 -135.5v-282h172q45 0 178.5 6t192.5 6l-4 -62l4 -61q-192 18 -371 18h-172zM525 1536h-45l-220 336h86l158 -240l160 240h82z" />
    <glyph glyph-name="ecaron" unicode="&#x11b;" horiz-adv-x="1034" 
d="M280 600h572v37q0 162 -72 250t-198 88q-127 0 -214.5 -101.5t-87.5 -273.5zM971 104q-168 -124 -369 -124q-229 0 -370.5 147t-141.5 383q0 244 137 389t363 145q209 0 321.5 -120.5t112.5 -348.5v-51h-748q0 -225 94.5 -341.5t270.5 -116.5q186 0 336 147
q-4 -25 -5 -62.5t-1 -46.5zM568 1188h-45l-220 336h86l158 -240l160 240h82z" />
    <glyph glyph-name="Lacute" unicode="&#x139;" horiz-adv-x="938" 
d="M385 1485q-6 -72 -10.5 -300.5t-4.5 -436.5q0 -66 8.5 -295.5t8.5 -348.5l147 -4q279 0 443 35l-5 -69l5 -66l-504 8q-76 0 -158 -3t-131 -5q6 72 10 305.5t4 442.5q0 165 -1 381.5t-13 355.5q45 -8 100 -8q56 0 101 8zM555 1536h-90l234 328h104z" />
    <glyph glyph-name="lacute" unicode="&#x13a;" horiz-adv-x="420" 
d="M342 1626q0 -125 -5 -363.5t-5 -304.5q0 -307 3 -539.5t7 -418.5q-43 8 -92 8q-25 0 -43 -2t-45 -6q0 57 5 366.5t5 581.5q0 223 -4 387t-6 291q20 -4 39.5 -6t48.5 -2q23 0 41 2t51 6zM239 1621h-90l234 328h104z" />
    <glyph glyph-name="Lcaron" unicode="&#x13d;" horiz-adv-x="938" 
d="M385 1485q-6 -72 -10.5 -300.5t-4.5 -436.5q0 -66 8.5 -295.5t8.5 -348.5l147 -4q279 0 443 35l-5 -69l5 -66l-504 8q-76 0 -158 -3t-131 -5q6 72 10 305.5t4 442.5q0 165 -1 381.5t-13 355.5q45 -8 100 -8q56 0 101 8zM821 1434l-126 -261h-79l93 261h112z" />
    <glyph glyph-name="lcaron" unicode="&#x13e;" horiz-adv-x="527" 
d="M344 1626q0 -125 -5 -363.5t-5 -304.5q0 -307 3 -539.5t7 -418.5q-43 8 -92 8q-25 0 -43 -2t-45 -6q0 57 5 366.5t5 581.5q0 223 -4 387t-6 291q20 -4 39.5 -6t48.5 -2q23 0 41 2t51 6zM576 1516l-126 -261h-79l93 261h112z" />
    <glyph glyph-name="Nacute" unicode="&#x143;" horiz-adv-x="1452" 
d="M184 0q6 63 10 475t4 805v231h41q193 -223 375 -421q137 -150 358 -379q195 -203 334 -342l4 190q0 223 -5 449.5t-9 476.5q31 -8 68 -8t63 8q0 -160 -7 -509t-7 -513l4 -492h-29q-98 125 -243 285q-130 143 -312 336l-526 553l-6 -283q0 -6 10 -473q4 -186 4 -389
q-33 8 -70 8q-34 0 -61 -8zM703 1536h-90l234 328h104z" />
    <glyph glyph-name="nacute" unicode="&#x144;" 
d="M344 1024q-8 -86 -9 -120t-1 -54q78 102 160 148t180 46q131 0 207 -90q102 -123 102 -415q0 -125 5 -318.5t5 -220.5q-16 4 -41.5 6t-50.5 2q-49 0 -88 -8q0 115 5 307.5t5 231.5q0 213 -48 303t-171 90q-139 0 -204.5 -102.5t-65.5 -290.5q0 -125 5 -318.5t5 -220.5
q-16 4 -41.5 6t-50.5 2q-49 0 -88 -8q0 115 5 307.5t5 231.5q0 114 -2 184q-8 281 -8 301q39 -8 88 -8h47q33 6 45 8zM535 1188h-90l234 328h104z" />
    <glyph glyph-name="Ncaron" unicode="&#x147;" horiz-adv-x="1452" 
d="M184 0q6 63 10 475t4 805v231h41q193 -223 375 -421q137 -150 358 -379q195 -203 334 -342l4 190q0 223 -5 449.5t-9 476.5q31 -8 68 -8t63 8q0 -160 -7 -509t-7 -513l4 -492h-29q-98 125 -243 285q-130 143 -312 336l-526 553l-6 -283q0 -6 10 -473q4 -186 4 -389
q-33 8 -70 8q-34 0 -61 -8zM757 1536h-45l-220 336h86l158 -240l160 240h82z" />
    <glyph glyph-name="ncaron" unicode="&#x148;" 
d="M344 1024q-8 -86 -9 -120t-1 -54q78 102 160 148t180 46q131 0 207 -90q102 -123 102 -415q0 -125 5 -318.5t5 -220.5q-16 4 -41.5 6t-50.5 2q-49 0 -88 -8q0 115 5 307.5t5 231.5q0 213 -48 303t-171 90q-139 0 -204.5 -102.5t-65.5 -290.5q0 -125 5 -318.5t5 -220.5
q-16 4 -41.5 6t-50.5 2q-49 0 -88 -8q0 115 5 307.5t5 231.5q0 114 -2 184q-8 281 -8 301q39 -8 88 -8h47q33 6 45 8zM590 1188h-45l-220 336h86l158 -240l160 240h82z" />
    <glyph glyph-name="Ohungarumlaut" unicode="&#x150;" horiz-adv-x="1559" 
d="M910 -29q-373 0 -587 206t-214 562q0 351 219 561.5t582 210.5q370 0 584 -207.5t214 -564.5q0 -344 -220 -556t-578 -212zM910 53q278 0 430.5 178.5t152.5 509.5q0 338 -148.5 513.5t-434.5 175.5q-279 0 -432.5 -180.5t-153.5 -516.5q0 -327 151.5 -503.5
t434.5 -176.5zM884 1537h-74l211 317h110zM662 1537h-73l211 317h110z" />
    <glyph glyph-name="ohungarumlaut" unicode="&#x151;" horiz-adv-x="1149" 
d="M604 -20q-225 0 -369.5 148t-144.5 384t146.5 384t367.5 148q227 0 370.5 -147t143.5 -385q0 -240 -144.5 -386t-369.5 -146zM604 49q160 0 245 113.5t85 337.5q0 233 -84 354t-248 121q-328 0 -328 -461q0 -465 330 -465zM688 1188h-74l211 317h110zM466 1188h-73
l211 317h110z" />
    <glyph glyph-name="Racute" unicode="&#x154;" horiz-adv-x="1137" 
d="M370 723v-397q0 -160 15 -326q-45 8 -101 8q-55 0 -100 -8q6 72 10 305.5t4 442.5q0 165 -1 381.5t-13 355.5l96 -8q47 0 179.5 4t166.5 4q490 0 490 -352q0 -324 -434 -402q75 -102 186 -242q121 -151 210 -262.5t181 -226.5q-22 4 -59 6t-68 2l-127 -8
q-114 166 -168.5 239.5t-101.5 135.5l-236 303q-36 49 -88 49zM370 791l72 -5q485 0 485 320q0 297 -374 297l-168 -6q-8 -60 -11.5 -109t-3.5 -117v-380zM538 1536h-90l234 328h104z" />
    <glyph glyph-name="racute" unicode="&#x155;" horiz-adv-x="676" 
d="M344 1024q-6 -51 -8 -137t-2 -103q121 250 279 250q14 0 35.5 -2t45.5 -8q-6 -33 -8 -94.5t-2 -71.5l-18 -10q-51 29 -103 29q-106 0 -167.5 -92.5t-61.5 -245.5q0 -125 5 -318.5t5 -220.5q-8 2 -37.5 5t-54.5 3q-49 0 -88 -8q0 115 5 307.5t5 231.5q0 114 -2 184
q-8 281 -8 301q39 -8 88 -8h47q33 6 45 8zM399 1188h-90l234 328h104z" />
    <glyph glyph-name="Rcaron" unicode="&#x158;" horiz-adv-x="1137" 
d="M370 723v-397q0 -160 15 -326q-45 8 -101 8q-55 0 -100 -8q6 72 10 305.5t4 442.5q0 165 -1 381.5t-13 355.5l96 -8q47 0 179.5 4t166.5 4q490 0 490 -352q0 -324 -434 -402q75 -102 186 -242q121 -151 210 -262.5t181 -226.5q-22 4 -59 6t-68 2l-127 -8
q-114 166 -168.5 239.5t-101.5 135.5l-236 303q-36 49 -88 49zM370 791l72 -5q485 0 485 320q0 297 -374 297l-168 -6q-8 -60 -11.5 -109t-3.5 -117v-380zM559 1536h-45l-220 336h86l158 -240l160 240h82z" />
    <glyph glyph-name="rcaron" unicode="&#x159;" horiz-adv-x="676" 
d="M336 1024q-6 -51 -8 -137t-2 -103q121 250 279 250q14 0 35.5 -2t45.5 -8q-6 -33 -8 -94.5t-2 -71.5l-18 -10q-51 29 -103 29q-106 0 -167.5 -92.5t-61.5 -245.5q0 -125 5 -318.5t5 -220.5q-8 2 -37.5 5t-54.5 3q-49 0 -88 -8q0 115 5 307.5t5 231.5q0 114 -2 184
q-8 281 -8 301q39 -8 88 -8h47q33 6 45 8zM412 1188h-45l-220 336h86l158 -240l160 240h82z" />
    <glyph glyph-name="Sacute" unicode="&#x15a;" horiz-adv-x="1018" 
d="M139 86q27 84 33 111q14 59 14 118q49 -122 143.5 -190t215.5 -68q139 0 225 86t86 234q0 104 -51.5 164.5t-167.5 109.5l-176 74q-148 59 -218.5 146t-70.5 219q0 184 127 302.5t329 118.5q179 0 330 -79q-35 -76 -59 -168q-115 168 -299 168q-119 0 -189.5 -75
t-70.5 -200q0 -96 50 -154.5t167 -109.5l176 -76q156 -65 222.5 -148t66.5 -225q0 -211 -141.5 -342t-376.5 -131q-215 0 -365 115zM545 1535h-90l234 328h104z" />
    <glyph glyph-name="sacute" unicode="&#x15b;" horiz-adv-x="795" 
d="M775 322q0 -148 -105.5 -245t-277.5 -97q-168 0 -281 77q14 39 28.5 84t22.5 84q107 -164 266 -164q97 0 153 52.5t56 144.5q0 74 -40 113t-130 65l-100 29q-125 35 -180.5 99.5t-55.5 178.5q0 131 91.5 216t242.5 85q76 0 144.5 -18t126.5 -53q-35 -80 -45 -137
q-123 143 -252 143q-82 0 -133.5 -49t-51.5 -133q0 -74 38 -115t126 -68l148 -43q110 -32 159.5 -89.5t49.5 -159.5zM439 1188h-90l234 328h104z" />
    <glyph glyph-name="uni0162" unicode="&#x162;" horiz-adv-x="1047" 
d="M696 1382v-645q0 -166 1 -382t13 -355q-45 8 -100 8t-100 -8q6 72 10 300t4 437v645h-64q-249 0 -399 -26l4 61l-4 68q70 0 301 -4t246 -4q98 0 243.5 2t305.5 6l-6 -64q0 -41 6 -65q-74 14 -173.5 20t-209.5 6h-78zM465 -430v74q50 -6 86 -6q160 0 160 92q0 86 -145 86
q-32 0 -64 -4v188h72v-117q225 0 225 -147q0 -170 -254 -170q-36 0 -80 4z" />
    <glyph glyph-name="uni0163" unicode="&#x163;" horiz-adv-x="608" 
d="M23 934l6 45l-4 45q18 -4 58 -6t77 -2v76l-6 180q107 16 180 55q-6 -39 -10 -120t-4 -132v-59q43 0 158.5 4t130.5 4q-6 -31 -6 -92q-27 4 -113 6t-164 2l-6 -109q0 -86 -5 -265t-5 -238q0 -146 42 -209.5t144 -63.5q59 0 150 45l16 -49q-109 -71 -238 -71
q-147 0 -210.5 69.5t-63.5 226.5q0 60 5 271t5 319v74h-24zM274 -430v74q50 -6 86 -6q160 0 160 92q0 86 -145 86q-32 0 -64 -4v188h72v-117q225 0 225 -147q0 -170 -254 -170q-36 0 -80 4z" />
    <glyph glyph-name="Tcaron" unicode="&#x164;" horiz-adv-x="1047" 
d="M696 1382v-645q0 -166 1 -382t13 -355q-45 8 -100 8t-100 -8q6 72 10 300t4 437v645h-64q-249 0 -399 -26l4 61l-4 68q70 0 301 -4t246 -4q98 0 243.5 2t305.5 6l-6 -64q0 -41 6 -65q-74 14 -173.5 20t-209.5 6h-78zM565 1536h-45l-220 336h86l158 -240l160 240h82z" />
    <glyph glyph-name="tcaron" unicode="&#x165;" horiz-adv-x="664" 
d="M23 934l6 45l-4 45q18 -4 58 -6t77 -2v76l-6 180q107 16 180 55q-6 -39 -10 -120t-4 -132v-59q43 0 158.5 4t130.5 4q-6 -31 -6 -92q-27 4 -113 6t-164 2l-6 -109q0 -86 -5 -265t-5 -238q0 -146 42 -209.5t144 -63.5q59 0 150 45l16 -49q-109 -71 -238 -71
q-147 0 -210.5 69.5t-63.5 226.5q0 60 5 271t5 319v74h-24zM671 1516l-126 -261h-79l93 261h112z" />
    <glyph glyph-name="Uring" unicode="&#x16e;" horiz-adv-x="1327" 
d="M1270 1485q14 -4 34.5 -6t37.5 -2h38q27 6 37 8q0 -62 -4 -144q-10 -202 -10 -254v-260q0 -272 -25 -401q-41 -213 -163 -324q-146 -131 -431 -131q-323 0 -470.5 158t-147.5 496q6 147 11 296.5t5 233.5q0 78 -5 168l-9 162q18 -4 49 -6t51 -2q52 0 101 8
q-6 -277 -10.5 -479.5t-4.5 -362.5q0 -258 91 -397q112 -174 374 -174q230 0 342 133q123 145 123 461v415q0 150 -4 243t-10 161zM640 1535q-86 0 -143.5 50.5t-57.5 133.5q0 80 57 132t144 52q88 0 144.5 -50.5t56.5 -133.5q0 -80 -58 -132t-143 -52zM640 1836
q-57 0 -92 -32t-35 -85t36.5 -85t90.5 -32q57 0 93 32.5t36 84.5q0 57 -37.5 87t-91.5 30z" />
    <glyph glyph-name="uring" unicode="&#x16f;" 
d="M839 0q4 12 7.5 37.5t3.5 54.5v37q-7 35 -7 45q-106 -194 -348 -194q-342 0 -342 354v205q0 114 -2 184q-8 281 -8 301q39 -8 88 -8h47q33 6 45 8q0 -102 -5 -274t-5 -211q0 -283 53 -371t195 -88q184 0 248 151q41 97 41 308q0 127 -2.5 279.5t-8.5 205.5q39 -8 88 -8
h47q33 6 46 8q0 -102 -5.5 -274t-5.5 -211q0 -125 5.5 -318.5t5.5 -220.5q-17 4 -42.5 6t-50.5 2q-49 0 -88 -8zM529 1188q-86 0 -143.5 50.5t-57.5 133.5q0 80 57 132t144 52q88 0 144.5 -50.5t56.5 -133.5q0 -80 -58 -132t-143 -52zM529 1489q-57 0 -92 -32t-35 -85
t36.5 -85t90.5 -32q57 0 93 32.5t36 84.5q0 57 -37.5 87t-91.5 30z" />
    <glyph glyph-name="Uhungarumlaut" unicode="&#x170;" horiz-adv-x="1327" 
d="M1270 1485q14 -4 34.5 -6t37.5 -2h38q27 6 37 8q0 -62 -4 -144q-10 -202 -10 -254v-260q0 -272 -25 -401q-41 -213 -163 -324q-146 -131 -431 -131q-323 0 -470.5 158t-147.5 496q6 147 11 296.5t5 233.5q0 78 -5 168l-9 162q18 -4 49 -6t51 -2q52 0 101 8
q-6 -277 -10.5 -479.5t-4.5 -362.5q0 -258 91 -397q112 -174 374 -174q230 0 342 133q123 145 123 461v415q0 150 -4 243t-10 161zM725 1536h-74l211 317h110zM503 1536h-73l211 317h110z" />
    <glyph glyph-name="uhungarumlaut" unicode="&#x171;" 
d="M839 0q4 12 7.5 37.5t3.5 54.5v37q-7 35 -7 45q-106 -194 -348 -194q-342 0 -342 354v205q0 114 -2 184q-8 281 -8 301q39 -8 88 -8h47q33 6 45 8q0 -102 -5 -274t-5 -211q0 -283 53 -371t195 -88q184 0 248 151q41 97 41 308q0 127 -2.5 279.5t-8.5 205.5q39 -8 88 -8
h47q33 6 46 8q0 -102 -5.5 -274t-5.5 -211q0 -125 5.5 -318.5t5.5 -220.5q-17 4 -42.5 6t-50.5 2q-49 0 -88 -8zM634 1188h-74l211 317h110zM412 1188h-73l211 317h110z" />
    <glyph glyph-name="Zacute" unicode="&#x179;" horiz-adv-x="1167" 
d="M66 0q233 328 477 690q236 350 453 688l-170 6q-92 0 -236 -8q-321 -18 -415 -18l4 63l-4 64q65 0 299.5 -4t273.5 -4q104 0 253.5 2t319.5 6q-528 -703 -954 -1374l258 -5q121 0 348.5 11.5t309.5 11.5l-5 -66l5 -63q-21 0 -275 3t-420 5q-129 0 -280.5 -3t-241.5 -5z
M644 1537h-90l234 328h104z" />
    <glyph glyph-name="zacute" unicode="&#x17a;" horiz-adv-x="950" 
d="M57 0v45q225 279 389 490q189 241 297 399h-86q-219 0 -483 -29l4 56l-8 63q41 -4 153.5 -6t212.5 -2q80 0 257 4t184 4v-43q-156 -197 -248 -315q-74 -95 -223 -297q-125 -168 -201 -279q223 0 377.5 9.5t281.5 23.5l-4 -49l6 -74q-53 0 -223 3t-274 5q-74 0 -239 -4
t-173 -4zM542 1188h-90l234 328h104z" />
    <glyph glyph-name="Zdotaccent" unicode="&#x17b;" horiz-adv-x="1167" 
d="M66 0q233 328 477 690q236 350 453 688l-170 6q-92 0 -236 -8q-321 -18 -415 -18l4 63l-4 64q65 0 299.5 -4t273.5 -4q104 0 253.5 2t319.5 6q-528 -703 -954 -1374l258 -5q121 0 348.5 11.5t309.5 11.5l-5 -66l5 -63q-21 0 -275 3t-420 5q-129 0 -280.5 -3t-241.5 -5z
M661 1535q-31 0 -54.5 22t-23.5 56t23.5 53.5t52.5 19.5q31 0 55.5 -19.5t24.5 -53.5q0 -32 -23 -55t-55 -23z" />
    <glyph glyph-name="zdotaccent" unicode="&#x17c;" horiz-adv-x="950" 
d="M57 0v45q225 279 389 490q189 241 297 399h-86q-219 0 -483 -29l4 56l-8 63q41 -4 153.5 -6t212.5 -2q80 0 257 4t184 4v-43q-156 -197 -248 -315q-74 -95 -223 -297q-125 -168 -201 -279q223 0 377.5 9.5t281.5 23.5l-4 -49l6 -74q-53 0 -223 3t-274 5q-74 0 -239 -4
t-173 -4zM560 1188q-31 0 -54.5 22t-23.5 56t23.5 53.5t52.5 19.5q31 0 55.5 -19.5t24.5 -53.5q0 -32 -23 -55t-55 -23z" />
    <glyph glyph-name="Gamma" unicode="&#x393;" horiz-adv-x="938" 
d="M283 1343v-1343h-99v1434h674v-91h-575z" />
    <glyph glyph-name="Theta" unicode="&#x398;" horiz-adv-x="1559" 
d="M1450 739q0 -191 -52 -334t-142.5 -238.5t-214 -143.5t-267.5 -48q-162 0 -286 57t-208.5 155.5t-127.5 231t-43 283.5q0 163 45 301.5t132.5 239.5t217 158t297.5 57q149 0 269 -53.5t204.5 -148.5t130 -227.5t45.5 -289.5zM1348 723q0 160 -41.5 280.5t-116 201.5
t-178.5 122t-228 41q-123 0 -227.5 -46t-181.5 -131t-120.5 -206.5t-43.5 -271.5q0 -149 40 -269t113.5 -204t177 -129t230.5 -45t232.5 41.5t182 124t119 205.5t42.5 286zM528 672v90h502v-90h-502z" />
    <glyph glyph-name="Phi" unicode="&#x3a6;" horiz-adv-x="1573" 
d="M1464 750q0 -99 -21.5 -179t-60 -141.5t-90.5 -105.5t-113 -72t-128.5 -41.5t-135.5 -13.5h-79v-213h-99v213h-78q-128 0 -229.5 38.5t-173 109.5t-109.5 173t-38 230q0 135 43.5 236.5t118.5 169.5t175.5 102t215.5 34h75v160h99v-160h75q128 0 230.5 -39t174 -110.5
t110 -171t38.5 -219.5zM1362 748q0 106 -31 190t-89.5 142.5t-142 89t-188.5 30.5h-75v-913h79q104 0 187 30.5t140.5 89.5t88.5 144.5t31 196.5zM737 1200h-75q-91 0 -172.5 -25.5t-143.5 -80.5t-98.5 -141.5t-36.5 -207.5q0 -124 36.5 -211t98 -142t142.5 -80t171 -25h78
v913z" />
    <glyph glyph-name="alpha" unicode="&#x3b1;" horiz-adv-x="1223" 
d="M883 502q-27 93 -53.5 177t-64 147.5t-91 101t-133.5 37.5q-83 0 -148.5 -35.5t-111.5 -99.5t-70 -153.5t-24 -197.5q0 -98 22 -176t62.5 -132t98.5 -83t130 -29q61 0 113 26.5t96 76t81 119.5t69 157zM1105 -12q-35 0 -60.5 21.5t-46.5 67t-40 116t-41 168.5h-4
q-43 -104 -89 -177t-98 -119.5t-112.5 -68t-133.5 -21.5q-87 0 -159 35t-123 100t-79.5 157t-28.5 206q0 127 30 232.5t87 182t140.5 119t191.5 42.5q62 0 111.5 -17t88 -46.5t67.5 -70t52 -86.5t40 -95.5t32 -98.5h2q10 34 28 84t37.5 104t38 107t30.5 94h104
q-18 -49 -43.5 -116t-53.5 -138t-55.5 -141t-48.5 -125q23 -95 41 -163.5t32.5 -116.5t26.5 -78t23 -46.5t21.5 -22t21.5 -5.5q15 0 28 2.5t27 7.5v-80q-21 -7 -41 -10.5t-44 -3.5z" />
    <glyph glyph-name="delta" unicode="&#x3b4;" horiz-adv-x="1184" 
d="M1094 459q0 -107 -36 -196t-102 -153t-160 -99.5t-210 -35.5q-111 0 -202 36t-156.5 98.5t-101.5 147t-36 181.5q0 110 40 195.5t104.5 150t147 109t167.5 72.5q-39 25 -84.5 56t-85 71t-66 90.5t-26.5 115.5q0 59 28 104.5t78.5 76t119.5 46t150 15.5q96 0 175.5 -21.5
t144.5 -50.5v-106q-35 21 -74 38t-80 29.5t-83 19.5t-81 7q-136 0 -208 -43.5t-72 -122.5q0 -47 21.5 -84t64.5 -74t108 -77t152 -92q81 -48 148 -103.5t115 -118.5t74 -133.5t26 -148.5zM997 444q0 87 -31 156.5t-82 125.5t-115.5 101.5t-131.5 83.5q-41 -13 -91 -31.5
t-100 -44.5t-97 -61.5t-83 -82.5t-58 -108t-22 -137q0 -93 33.5 -165.5t89.5 -121.5t130.5 -74.5t156.5 -25.5t155 25.5t127.5 75t86.5 121t32 163.5z" />
    <glyph glyph-name="epsilon" unicode="&#x3b5;" horiz-adv-x="897" 
d="M827 29q-27 -11 -65.5 -20.5t-82.5 -17t-89.5 -12t-85.5 -4.5q-112 0 -192 24t-131 64.5t-75 95t-24 115.5q0 56 22 102t59 79.5t85 55t100 28.5v4q-41 8 -82 27t-73 48t-52 68t-20 88q0 78 34 131t88.5 85t123.5 45.5t139 13.5q34 0 72.5 -5t76 -12.5t70.5 -16t57 -16.5
v-96q-29 12 -64 23.5t-72 20t-74 13.5t-68 5q-148 0 -217.5 -50.5t-69.5 -142.5q0 -62 35.5 -101t89 -61t116.5 -29.5t117 -7.5h27h32.5t32 0.5t25.5 1.5v-88q-19 0 -41 1q-19 0 -44 0.5t-54 0.5q-184 0 -279.5 -52t-95.5 -165q0 -44 19 -83t60 -68t106 -45.5t157 -16.5
q38 0 79.5 6t82 15.5t78 21t67.5 23.5v-96z" />
    <glyph glyph-name="sigma" unicode="&#x3c3;" horiz-adv-x="1149" 
d="M874 944q27 -39 53 -83.5t47 -99.5t33.5 -122t12.5 -152q0 -104 -29.5 -197t-87.5 -163t-144 -111t-198 -41q-109 0 -196.5 39t-148.5 108.5t-93.5 166.5t-32.5 213q0 121 29.5 218t91.5 164.5t157.5 103.5t227.5 36h537v-80h-259zM924 500q0 80 -14 145.5t-35 119.5
t-46.5 98t-48.5 81h-168q-112 0 -192.5 -29t-132.5 -86t-76.5 -140t-24.5 -191q0 -98 28 -178.5t77.5 -138.5t118.5 -90t151 -32q84 0 151 32.5t114 90.5t72.5 139t25.5 179z" />
    <glyph glyph-name="tau" unicode="&#x3c4;" horiz-adv-x="997" 
d="M530 944v-692q0 -50 11.5 -84.5t31 -55.5t46 -30.5t57.5 -9.5q14 0 41 3t49 9v-82q-29 -8 -52 -11t-46 -3q-123 0 -176.5 76.5t-53.5 216.5v663h-170q-65 0 -124 -20t-101 -43v88q40 21 95.5 38t129.5 17h688v-80h-426z" />
    <glyph glyph-name="phi" unicode="&#x3c6;" horiz-adv-x="1415" 
d="M1327 508q0 -101 -32.5 -197t-96.5 -170.5t-159 -120t-220 -45.5h-67v-456h-93v456h-61q-114 0 -207.5 36.5t-161 105.5t-104.5 168.5t-37 224.5q0 82 17 157t45.5 140.5t65.5 120t77 96.5h106q-42 -49 -81 -104.5t-68.5 -119.5t-47.5 -137t-18 -157q0 -117 36 -201
t94 -139t131.5 -81t148.5 -26h65v734q0 118 65 187t191 69q94 0 170.5 -40.5t130 -112.5t82.5 -171.5t29 -216.5zM1231 514q0 104 -26 187.5t-69.5 142t-99.5 90t-116 31.5q-44 0 -75.5 -13t-52 -36t-30.5 -54t-10 -67v-736h67q92 0 168 34.5t130 95.5t84 144t30 181z" />
    <glyph glyph-name="Amacron" unicode="&#x100;" horiz-adv-x="1288" 
d="M59 0q356 774 672 1511h41q106 -264 211 -520q94 -227 211 -504q129 -307 208 -487q-47 8 -106 8h-46t-65 -8q-43 131 -82 233q-51 136 -104 261l-37 86l-266 4l-268 -4q-29 -64 -88 -213q-70 -177 -138 -367q-12 4 -31.5 6t-39.5 2q-31 0 -48.5 -4t-23.5 -4zM696 1214
l-231 -534l163 -4l291 4l-37 90zM457 1536v84h508v-84h-508z" />
    <glyph glyph-name="amacron" unicode="&#x101;" horiz-adv-x="1012" 
d="M727 125q-140 -145 -322 -145q-299 0 -299 270q0 225 250 280q141 27 282 56q62 16 93 43v47q0 149 -53.5 218t-184.5 69q-176 0 -281 -158h-16l4 115q148 124 350 124q183 0 261.5 -89t78.5 -277v-459q0 -86 14.5 -114.5t73.5 -28.5l37 4l11 -45q-19 -6 -73 -20.5
t-106 -14.5q-100 0 -120 125zM731 539q-256 -43 -342 -86q-107 -56 -107 -177q0 -100 51.5 -155t143.5 -55q80 0 161 53q93 61 93 139v281zM295 1188v84h508v-84h-508z" />
    <glyph glyph-name="Emacron" unicode="&#x112;" horiz-adv-x="1024" 
d="M370 741v-106q0 -72 6.5 -276.5t6.5 -258.5h45q90 0 239.5 6.5t282.5 18.5l-2 -66l2 -67q-41 4 -154.5 6t-218.5 2h-393q6 72 10 307.5t4 444.5q0 440 -2 531t-12 202q49 0 149.5 -5t137.5 -5q78 0 263 5t218 5l-4 -74l4 -70q-162 33 -524 33h-51q0 -51 -2.5 -122.5
t-4.5 -135.5v-282h172q45 0 178.5 6t192.5 6l-4 -62l4 -61q-192 18 -371 18h-172zM256 1535v84h508v-84h-508z" />
    <glyph glyph-name="emacron" unicode="&#x113;" horiz-adv-x="1034" 
d="M280 600h572v37q0 162 -72 250t-198 88q-127 0 -214.5 -101.5t-87.5 -273.5zM971 104q-168 -124 -369 -124q-229 0 -370.5 147t-141.5 383q0 244 137 389t363 145q209 0 321.5 -120.5t112.5 -348.5v-51h-748q0 -225 94.5 -341.5t270.5 -116.5q186 0 336 147
q-4 -25 -5 -62.5t-1 -46.5zM297 1188v84h508v-84h-508z" />
    <glyph glyph-name="Edotaccent" unicode="&#x116;" horiz-adv-x="1024" 
d="M370 741v-106q0 -72 6.5 -276.5t6.5 -258.5h45q90 0 239.5 6.5t282.5 18.5l-2 -66l2 -67q-41 4 -154.5 6t-218.5 2h-393q6 72 10 307.5t4 444.5q0 440 -2 531t-12 202q49 0 149.5 -5t137.5 -5q78 0 263 5t218 5l-4 -74l4 -70q-162 33 -524 33h-51q0 -51 -2.5 -122.5
t-4.5 -135.5v-282h172q45 0 178.5 6t192.5 6l-4 -62l4 -61q-192 18 -371 18h-172zM507 1536q-31 0 -54.5 22t-23.5 56t23.5 53.5t52.5 19.5q31 0 55.5 -19.5t24.5 -53.5q0 -32 -23 -55t-55 -23z" />
    <glyph glyph-name="edotaccent" unicode="&#x117;" horiz-adv-x="1034" 
d="M280 600h572v37q0 162 -72 250t-198 88q-127 0 -214.5 -101.5t-87.5 -273.5zM971 104q-168 -124 -369 -124q-229 0 -370.5 147t-141.5 383q0 244 137 389t363 145q209 0 321.5 -120.5t112.5 -348.5v-51h-748q0 -225 94.5 -341.5t270.5 -116.5q186 0 336 147
q-4 -25 -5 -62.5t-1 -46.5zM553 1188q-31 0 -54.5 22t-23.5 56t23.5 53.5t52.5 19.5q31 0 55.5 -19.5t24.5 -53.5q0 -32 -23 -55t-55 -23z" />
    <glyph glyph-name="uni0122" unicode="&#x122;" horiz-adv-x="1368" 
d="M1221 100q-222 -125 -457 -125q-293 0 -474 199t-181 522q0 326 195 544t521 218q189 0 367 -76v-108q-195 94 -381 94q-271 0 -435.5 -185t-164.5 -472q0 -302 154.5 -473.5t416.5 -171.5q194 0 340 84v473h-338v90h437v-613zM856 -118l-126 -261h-79l93 261h112z" />
    <glyph glyph-name="uni0123" unicode="&#x123;" horiz-adv-x="1147" 
d="M470 1219l126 261h79l-93 -261h-112zM983 76q0 -289 -126 -423t-392 -134q-148 0 -305 78v96q162 -90 307 -90q424 0 424 448v133h-4q-121 -209 -369 -209q-189 0 -308.5 137t-119.5 382t129 400t340 155q226 0 328 -187h4v162h92v-948zM891 631q0 136 -91.5 235
t-238.5 99q-169 0 -272 -127t-103 -336q0 -210 94.5 -326.5t249.5 -116.5q165 0 263 107t98 262v203z" />
    <glyph glyph-name="Imacron" unicode="&#x12a;" horiz-adv-x="467" 
d="M400 1485q-6 -72 -10.5 -300.5t-4.5 -436.5q0 -168 1 -388.5t14 -359.5q-45 8 -101 8q-55 0 -100 -8q6 72 10 305.5t4 442.5q0 165 -1 381.5t-13 355.5q45 -8 100 -8q56 0 101 8zM-19 1536v84h508v-84h-508z" />
    <glyph glyph-name="imacron" unicode="&#x12b;" horiz-adv-x="420" 
d="M164 0v1024h92v-1024h-92zM-44 1188v84h508v-84h-508z" />
    <glyph glyph-name="Iogonek" unicode="&#x12e;" horiz-adv-x="467" 
d="M400 1485q-6 -72 -10.5 -300.5t-4.5 -436.5q0 -168 1 -388.5t14 -359.5q-45 8 -101 8q-55 0 -100 -8q6 72 10 305.5t4 442.5q0 165 -1 381.5t-13 355.5q45 -8 100 -8q56 0 101 8zM283 0q-170 -135 -170 -240q0 -88 84 -88q38 0 80 17v-70q-49 -18 -94 -18
q-70 0 -113 40.5t-43 112.5q0 55 42.5 122t125.5 124h88z" />
    <glyph glyph-name="iogonek" unicode="&#x12f;" horiz-adv-x="420" 
d="M158 1403q0 47 30.5 77.5t78.5 30.5q45 0 77.5 -30.5t32.5 -77.5q0 -45 -32.5 -78t-77.5 -33q-48 0 -78.5 31t-30.5 80zM361 1024q0 -102 -5 -274t-5 -211q0 -125 5 -318.5t5 -220.5q-17 4 -42.5 6t-49.5 2q-50 0 -88 -8q0 115 5 307.5t5 231.5q0 114 -2 184
q-8 281 -8 301q38 -8 88 -8h47q32 6 45 8zM258 0q-170 -135 -170 -240q0 -88 84 -88q38 0 80 17v-70q-49 -18 -94 -18q-70 0 -113 40.5t-43 112.5q0 55 42.5 122t125.5 124h88z" />
    <glyph glyph-name="uni0136" unicode="&#x136;" horiz-adv-x="1079" 
d="M381 791q100 0 680 694q41 -8 96 -8q65 0 98 8q-72 -55 -205 -187q-82 -81 -161 -161l-318 -316q82 -104 205 -248q31 -36 237 -272q132 -151 263 -301q-58 8 -127 8h-53.5t-69.5 -8q-131 182 -254 336l-250 307q-86 107 -152 107v-258q0 -86 7.5 -258.5t7.5 -233.5
q-45 8 -101 8q-55 0 -100 -8q6 72 10 305.5t4 442.5q0 165 -1 381.5t-13 355.5q45 -8 100 -8q56 0 101 8q-6 -70 -10.5 -159t-4.5 -196v-331q0 -4 11 -8zM657 -118l-126 -261h-79l93 261h112z" />
    <glyph glyph-name="uni0137" unicode="&#x137;" horiz-adv-x="909" 
d="M344 1626q0 -110 -5 -326.5t-5 -304.5v-377q0 -36 37 -36q104 0 452 442q41 -8 97 -8h53q29 6 41 8q-53 -37 -123 -98q-61 -54 -158 -146l-196 -184l510 -596q-25 4 -58.5 6t-62.5 2q-64 0 -113 -8q-397 537 -459 537q-20 0 -20 -29q0 -133 5 -307t5 -201q-43 8 -92 8
q-25 0 -43 -2t-45 -6q0 57 5 366.5t5 581.5q0 223 -4 387t-6 291q20 -4 39.5 -6t48.5 -2q23 0 41 2t51 6zM557 -118l-126 -261h-79l93 261h112z" />
    <glyph glyph-name="uni013B" unicode="&#x13b;" horiz-adv-x="938" 
d="M385 1485q-6 -72 -10.5 -300.5t-4.5 -436.5q0 -66 8.5 -295.5t8.5 -348.5l147 -4q279 0 443 35l-5 -69l5 -66l-504 8q-76 0 -158 -3t-131 -5q6 72 10 305.5t4 442.5q0 165 -1 381.5t-13 355.5q45 -8 100 -8q56 0 101 8zM422 -430v74q50 -6 86 -6q160 0 160 92
q0 86 -145 86q-32 0 -64 -4v188h72v-117q225 0 225 -147q0 -170 -254 -170q-36 0 -80 4z" />
    <glyph glyph-name="uni013C" unicode="&#x13c;" horiz-adv-x="420" 
d="M342 1626q0 -125 -5 -363.5t-5 -304.5q0 -307 3 -539.5t7 -418.5q-43 8 -92 8q-25 0 -43 -2t-45 -6q0 57 5 366.5t5 581.5q0 223 -4 387t-6 291q20 -4 39.5 -6t48.5 -2q23 0 41 2t51 6zM130 -430v74q50 -6 86 -6q160 0 160 92q0 86 -145 86q-32 0 -64 -4v188h72v-117
q225 0 225 -147q0 -170 -254 -170q-36 0 -80 4z" />
    <glyph glyph-name="uni0145" unicode="&#x145;" horiz-adv-x="1452" 
d="M184 0q6 63 10 475t4 805v231h41q193 -223 375 -421q137 -150 358 -379q195 -203 334 -342l4 190q0 223 -5 449.5t-9 476.5q31 -8 68 -8t63 8q0 -160 -7 -509t-7 -513l4 -492h-29q-98 125 -243 285q-130 143 -312 336l-526 553l-6 -283q0 -6 10 -473q4 -186 4 -389
q-33 8 -70 8q-34 0 -61 -8zM794 -118l-126 -261h-79l93 261h112z" />
    <glyph glyph-name="uni0146" unicode="&#x146;" 
d="M344 1024q-8 -86 -9 -120t-1 -54q78 102 160 148t180 46q131 0 207 -90q102 -123 102 -415q0 -125 5 -318.5t5 -220.5q-16 4 -41.5 6t-50.5 2q-49 0 -88 -8q0 115 5 307.5t5 231.5q0 213 -48 303t-171 90q-139 0 -204.5 -102.5t-65.5 -290.5q0 -125 5 -318.5t5 -220.5
q-16 4 -41.5 6t-50.5 2q-49 0 -88 -8q0 115 5 307.5t5 231.5q0 114 -2 184q-8 281 -8 301q39 -8 88 -8h47q33 6 45 8zM623 -118l-126 -261h-79l93 261h112z" />
    <glyph glyph-name="Omacron" unicode="&#x14c;" horiz-adv-x="1559" 
d="M910 -29q-373 0 -587 206t-214 562q0 351 219 561.5t582 210.5q370 0 584 -207.5t214 -564.5q0 -344 -220 -556t-578 -212zM910 53q278 0 430.5 178.5t152.5 509.5q0 338 -148.5 513.5t-434.5 175.5q-279 0 -432.5 -180.5t-153.5 -516.5q0 -327 151.5 -503.5
t434.5 -176.5zM555 1536v84h508v-84h-508z" />
    <glyph glyph-name="omacron" unicode="&#x14d;" horiz-adv-x="1149" 
d="M604 -20q-225 0 -369.5 148t-144.5 384t146.5 384t367.5 148q227 0 370.5 -147t143.5 -385q0 -240 -144.5 -386t-369.5 -146zM604 49q160 0 245 113.5t85 337.5q0 233 -84 354t-248 121q-328 0 -328 -461q0 -465 330 -465zM346 1188v84h508v-84h-508z" />
    <glyph glyph-name="uni0156" unicode="&#x156;" horiz-adv-x="1137" 
d="M370 723v-397q0 -160 15 -326q-45 8 -101 8q-55 0 -100 -8q6 72 10 305.5t4 442.5q0 165 -1 381.5t-13 355.5l96 -8q47 0 179.5 4t166.5 4q490 0 490 -352q0 -324 -434 -402q75 -102 186 -242q121 -151 210 -262.5t181 -226.5q-22 4 -59 6t-68 2l-127 -8
q-114 166 -168.5 239.5t-101.5 135.5l-236 303q-36 49 -88 49zM370 791l72 -5q485 0 485 320q0 297 -374 297l-168 -6q-8 -60 -11.5 -109t-3.5 -117v-380zM624 -118l-126 -261h-79l93 261h112z" />
    <glyph glyph-name="uni0157" unicode="&#x157;" horiz-adv-x="676" 
d="M344 1024q-6 -51 -8 -137t-2 -103q121 250 279 250q14 0 35.5 -2t45.5 -8q-6 -33 -8 -94.5t-2 -71.5l-18 -10q-51 29 -103 29q-106 0 -167.5 -92.5t-61.5 -245.5q0 -125 5 -318.5t5 -220.5q-8 2 -37.5 5t-54.5 3q-49 0 -88 -8q0 115 5 307.5t5 231.5q0 114 -2 184
q-8 281 -8 301q39 -8 88 -8h47q33 6 45 8zM510 -118l-126 -261h-79l93 261h112z" />
    <glyph glyph-name="Umacron" unicode="&#x16a;" horiz-adv-x="1327" 
d="M1270 1485q14 -4 34.5 -6t37.5 -2h38q27 6 37 8q0 -62 -4 -144q-10 -202 -10 -254v-260q0 -272 -25 -401q-41 -213 -163 -324q-146 -131 -431 -131q-323 0 -470.5 158t-147.5 496q6 147 11 296.5t5 233.5q0 78 -5 168l-9 162q18 -4 49 -6t51 -2q52 0 101 8
q-6 -277 -10.5 -479.5t-4.5 -362.5q0 -258 91 -397q112 -174 374 -174q230 0 342 133q123 145 123 461v415q0 150 -4 243t-10 161zM375 1535v84h508v-84h-508z" />
    <glyph glyph-name="umacron" unicode="&#x16b;" 
d="M839 0q4 12 7.5 37.5t3.5 54.5v37q-7 35 -7 45q-106 -194 -348 -194q-342 0 -342 354v205q0 114 -2 184q-8 281 -8 301q39 -8 88 -8h47q33 6 45 8q0 -102 -5 -274t-5 -211q0 -283 53 -371t195 -88q184 0 248 151q41 97 41 308q0 127 -2.5 279.5t-8.5 205.5q39 -8 88 -8
h47q33 6 46 8q0 -102 -5.5 -274t-5.5 -211q0 -125 5.5 -318.5t5.5 -220.5q-17 4 -42.5 6t-50.5 2q-49 0 -88 -8zM271 1188v84h508v-84h-508z" />
    <glyph glyph-name="Uogonek" unicode="&#x172;" horiz-adv-x="1327" 
d="M1270 1485q14 -4 34.5 -6t37.5 -2h38q27 6 37 8q0 -62 -4 -144q-10 -202 -10 -254v-260q0 -272 -25 -401q-41 -213 -163 -324q-146 -131 -431 -131q-323 0 -470.5 158t-147.5 496q6 147 11 296.5t5 233.5q0 78 -5 168l-9 162q18 -4 49 -6t51 -2q52 0 101 8
q-6 -277 -10.5 -479.5t-4.5 -362.5q0 -258 91 -397q112 -174 374 -174q230 0 342 133q123 145 123 461v415q0 150 -4 243t-10 161zM750 0q-170 -135 -170 -240q0 -88 84 -88q38 0 80 17v-70q-49 -18 -94 -18q-70 0 -113 40.5t-43 112.5q0 55 42.5 122t125.5 124h88z" />
    <glyph glyph-name="uogonek" unicode="&#x173;" 
d="M839 0q4 12 7.5 37.5t3.5 54.5v37q-7 35 -7 45q-106 -194 -348 -194q-342 0 -342 354v205q0 114 -2 184q-8 281 -8 301q39 -8 88 -8h47q33 6 45 8q0 -102 -5 -274t-5 -211q0 -283 53 -371t195 -88q184 0 248 151q41 97 41 308q0 127 -2.5 279.5t-8.5 205.5q39 -8 88 -8
h47q33 6 46 8q0 -102 -5.5 -274t-5.5 -211q0 -125 5.5 -318.5t5.5 -220.5q-17 4 -42.5 6t-50.5 2q-49 0 -88 -8zM923 0q-170 -135 -170 -240q0 -88 84 -88q38 0 80 17v-70q-49 -18 -94 -18q-70 0 -113 40.5t-43 112.5q0 55 42.5 122t125.5 124h88z" />
    <glyph glyph-name="glyph315" horiz-adv-x="798" 
d="M465 -118l-126 -261h-79l93 261h112z" />
    <glyph glyph-name="glyph316" horiz-adv-x="798" 
d="M465 -118l-126 -261h-79l93 261h112z" />
    <glyph glyph-name="tonos" unicode="&#x384;" horiz-adv-x="559" 
d="M214 1187h-49l90 369h105z" />
    <glyph glyph-name="dieresistonos" unicode="&#x385;" horiz-adv-x="581" 
d="M581 1315q0 -31 -21.5 -51.5t-52.5 -20.5q-12 0 -24.5 4.5t-23 13.5t-17 22.5t-6.5 31.5q0 17 6.5 30t16.5 22t22.5 13.5t23.5 4.5q29 0 52.5 -19.5t23.5 -50.5zM276 1190h-49l90 369h104zM145 1315q0 -31 -21.5 -51.5t-52.5 -20.5q-12 0 -25 4.5t-23 13.5t-16.5 22.5
t-6.5 31.5q0 17 6.5 30t16.5 22t22 13.5t24 4.5q29 0 52.5 -19.5t23.5 -50.5z" />
    <glyph glyph-name="Alphatonos" unicode="&#x386;" horiz-adv-x="1288" 
d="M59 0q356 774 672 1511h41q106 -264 211 -520q94 -227 211 -504q129 -307 208 -487q-47 8 -106 8h-46t-65 -8q-43 131 -82 233q-51 136 -104 261l-37 86l-266 4l-268 -4q-29 -64 -88 -213q-70 -177 -138 -367q-12 4 -31.5 6t-39.5 2q-31 0 -48.5 -4t-23.5 -4zM696 1214
l-231 -534l163 -4l291 4l-37 90zM250 1066h-49l90 369h105z" />
    <glyph glyph-name="Epsilontonos" unicode="&#x388;" horiz-adv-x="1126" 
d="M490 741v-106q0 -72 6.5 -276.5t6.5 -258.5h45q90 0 239.5 6.5t282.5 18.5l-2 -66l2 -67q-41 4 -154.5 6t-218.5 2h-393q6 72 10 307.5t4 444.5q0 440 -2 531t-12 202q49 0 149.5 -5t137.5 -5q78 0 263 5t218 5l-4 -74l4 -70q-162 33 -524 33h-51q0 -51 -2.5 -122.5
t-4.5 -135.5v-282h172q45 0 178.5 6t192.5 6l-4 -62l4 -61q-192 18 -371 18h-172zM15 1066h-49l90 369h105z" />
    <glyph glyph-name="Etatonos" unicode="&#x389;" horiz-adv-x="1489" 
d="M503 1485q-6 -45 -10.5 -209t-4.5 -346v-80q23 -2 145 -4t306 -2l446 4v82q0 92 -4 203q-10 274 -10 352q45 -8 100 -8q56 0 101 8q-6 -72 -10.5 -300.5t-4.5 -436.5q0 -168 1 -388.5t14 -359.5q-45 8 -101 8q-55 0 -100 -8q6 201 10 345t4 302v103q-26 2 -175.5 4
t-270.5 2q-127 0 -235.5 -3t-215.5 -5v-99q0 -162 1 -358.5t14 -290.5q-45 8 -101 8q-55 0 -100 -8q6 72 10 305.5t4 442.5q0 165 -1 381.5t-13 355.5q45 -8 100 -8q56 0 101 8zM15 1066h-49l90 369h105z" />
    <glyph glyph-name="Iotatonos" unicode="&#x38a;" horiz-adv-x="640" 
d="M573 1485q-6 -72 -10.5 -300.5t-4.5 -436.5q0 -168 1 -388.5t14 -359.5q-45 8 -101 8q-55 0 -100 -8q6 72 10 305.5t4 442.5q0 165 -1 381.5t-13 355.5q45 -8 100 -8q56 0 101 8zM16 1066h-49l90 369h105z" />
    <glyph glyph-name="Omicrontonos" unicode="&#x38c;" horiz-adv-x="1661" 
d="M993 -29q-373 0 -587 206t-214 562q0 351 219 561.5t582 210.5q370 0 584 -207.5t214 -564.5q0 -344 -220 -556t-578 -212zM993 53q278 0 430.5 178.5t152.5 509.5q0 338 -148.5 513.5t-434.5 175.5q-279 0 -432.5 -180.5t-153.5 -516.5q0 -327 151.5 -503.5
t434.5 -176.5zM56 1066h-49l90 369h105z" />
    <glyph glyph-name="Upsilontonos" unicode="&#x38e;" horiz-adv-x="1208" 
d="M618 0q0 55 7 163.5t7 145.5q0 64 -5 171.5t-5 125.5q-139 242 -174 301.5t-172 292t-168 285.5q20 -4 53 -6t66 -2h71q31 6 46 8q53 -123 119.5 -252t134 -244t153.5 -244q225 367 391 740q17 -4 39.5 -6t40.5 -2q43 0 82 8q-272 -441 -494 -844l-6 -227q0 -103 3 -194
t10 -220q-21 4 -46.5 6t-50.5 2h-63q-27 -6 -39 -8zM-47 1066h-49l90 369h105z" />
    <glyph glyph-name="Omegatonos" unicode="&#x38f;" horiz-adv-x="1649" 
d="M1075 0v90q375 277 375 684q0 272 -152 433t-405 161q-264 0 -422 -161t-158 -429q0 -410 377 -688v-90h-477v90h352q-354 268 -354 690q0 308 185 493t484 185q307 0 489.5 -180t182.5 -494q0 -206 -95.5 -389t-258.5 -305h354v-90h-477zM56 1066h-49l90 369h105z" />
    <glyph glyph-name="iotadieresistonos" unicode="&#x390;" horiz-adv-x="518" 
d="M457 2q-22 -8 -43.5 -11t-38.5 -3q-56 0 -96 18.5t-65.5 52t-37.5 80.5t-12 105v780h92v-782q0 -56 14 -89.5t34 -51.5t42 -23.5t39 -5.5q26 0 42 2.5t30 7.5v-80zM541 1315q0 -31 -21.5 -51.5t-52.5 -20.5q-12 0 -24.5 4.5t-23 13.5t-17 22.5t-6.5 31.5q0 17 6.5 30
t16.5 22t22.5 13.5t23.5 4.5q29 0 52.5 -19.5t23.5 -50.5zM236 1190h-49l90 369h104zM105 1315q0 -31 -21.5 -51.5t-52.5 -20.5q-12 0 -25 4.5t-23 13.5t-16.5 22.5t-6.5 31.5q0 17 6.5 30t16.5 22t22 13.5t24 4.5q29 0 52.5 -19.5t23.5 -50.5z" />
    <glyph glyph-name="Alpha" unicode="&#x391;" horiz-adv-x="1288" 
d="M59 0q356 774 672 1511h41q106 -264 211 -520q94 -227 211 -504q129 -307 208 -487q-47 8 -106 8h-46t-65 -8q-43 131 -82 233q-51 136 -104 261l-37 86l-266 4l-268 -4q-29 -64 -88 -213q-70 -177 -138 -367q-12 4 -31.5 6t-39.5 2q-31 0 -48.5 -4t-23.5 -4zM696 1214
l-231 -534l163 -4l291 4l-37 90z" />
    <glyph glyph-name="Beta" unicode="&#x392;" horiz-adv-x="1114" 
d="M366 739v-215q0 -147 2 -241.5t11 -182.5q84 -18 147 -18q193 0 302.5 90t109.5 250q0 170 -102.5 248t-317.5 78zM553 1485q256 0 384 -79t128 -255q0 -141 -83 -231.5t-253 -122.5q405 -43 405 -359q0 -217 -147.5 -331.5t-437.5 -114.5q-50 0 -140 4t-116 4
q-29 0 -54.5 -1t-54.5 -7q6 71 10 308t4 448q0 165 -1 381.5t-13 355.5l106 -8q19 0 107 4t156 4zM366 834l6 -3q27 -4 61 -6t62 -2q195 0 284 79t89 237q0 137 -76 202q-82 72 -254 72q-63 0 -88 -2q-47 -8 -67 -10q-6 -31 -11.5 -137.5t-5.5 -141.5v-288z" />
    <glyph glyph-name="Epsilon" unicode="&#x395;" horiz-adv-x="1024" 
d="M370 741v-106q0 -72 6.5 -276.5t6.5 -258.5h45q90 0 239.5 6.5t282.5 18.5l-2 -66l2 -67q-41 4 -154.5 6t-218.5 2h-393q6 72 10 307.5t4 444.5q0 440 -2 531t-12 202q49 0 149.5 -5t137.5 -5q78 0 263 5t218 5l-4 -74l4 -70q-162 33 -524 33h-51q0 -51 -2.5 -122.5
t-4.5 -135.5v-282h172q45 0 178.5 6t192.5 6l-4 -62l4 -61q-192 18 -371 18h-172z" />
    <glyph glyph-name="Zeta" unicode="&#x396;" horiz-adv-x="1167" 
d="M66 0q233 328 477 690q236 350 453 688l-170 6q-92 0 -236 -8q-321 -18 -415 -18l4 63l-4 64q65 0 299.5 -4t273.5 -4q104 0 253.5 2t319.5 6q-528 -703 -954 -1374l258 -5q121 0 348.5 11.5t309.5 11.5l-5 -66l5 -63q-21 0 -275 3t-420 5q-129 0 -280.5 -3t-241.5 -5z
" />
    <glyph glyph-name="Eta" unicode="&#x397;" horiz-adv-x="1386" 
d="M385 1485q-6 -45 -10.5 -209t-4.5 -346v-80q23 -2 145 -4t306 -2l446 4v82q0 92 -4 203q-10 274 -10 352q45 -8 100 -8q56 0 101 8q-6 -72 -10.5 -300.5t-4.5 -436.5q0 -168 1 -388.5t14 -359.5q-45 8 -101 8q-55 0 -100 -8q6 201 10 345t4 302v103q-26 2 -175.5 4
t-270.5 2q-127 0 -235.5 -3t-215.5 -5v-99q0 -162 1 -358.5t14 -290.5q-45 8 -101 8q-55 0 -100 -8q6 72 10 305.5t4 442.5q0 165 -1 381.5t-13 355.5q45 -8 100 -8q56 0 101 8z" />
    <glyph glyph-name="Iota" unicode="&#x399;" horiz-adv-x="467" 
d="M385 1485q-6 -72 -10.5 -300.5t-4.5 -436.5q0 -168 1 -388.5t14 -359.5q-45 8 -101 8q-55 0 -100 -8q6 72 10 305.5t4 442.5q0 165 -1 381.5t-13 355.5q45 -8 100 -8q56 0 101 8z" />
    <glyph glyph-name="Kappa" unicode="&#x39a;" horiz-adv-x="1079" 
d="M381 791q100 0 680 694q41 -8 96 -8q65 0 98 8q-72 -55 -205 -187q-82 -81 -161 -161l-318 -316q82 -104 205 -248q31 -36 237 -272q132 -151 263 -301q-58 8 -127 8h-53.5t-69.5 -8q-131 182 -254 336l-250 307q-86 107 -152 107v-258q0 -86 7.5 -258.5t7.5 -233.5
q-45 8 -101 8q-55 0 -100 -8q6 72 10 305.5t4 442.5q0 165 -1 381.5t-13 355.5q45 -8 100 -8q56 0 101 8q-6 -70 -10.5 -159t-4.5 -196v-331q0 -4 11 -8z" />
    <glyph glyph-name="Lambda" unicode="&#x39b;" horiz-adv-x="1288" 
d="M1118 0l-440 1200q-12 34 -18.5 59t-14.5 50h-4q-6 -23 -14.5 -52t-18.5 -55l-440 -1202h-109l541 1434h94l535 -1434h-111z" />
    <glyph glyph-name="Mu" unicode="&#x39c;" horiz-adv-x="1706" 
d="M184 0q41 176 100.5 581.5t124.5 929.5h37q154 -311 307.5 -610t300.5 -569q310 549 643 1179h29q43 -413 49 -475q35 -305 58 -504q32 -266 65 -532q-20 4 -47 6t-51 2q-55 0 -98 -8q0 264 -20.5 481t-49.5 387q-6 39 -43 215q-143 -239 -272 -481q-99 -184 -183 -364
q-71 -156 -100 -238h-31q-26 96 -82 213q-47 102 -125 244l-338 624q-49 -342 -77.5 -649t-28.5 -432q-35 8 -80 8h-53q-25 -6 -35 -8z" />
    <glyph glyph-name="Nu" unicode="&#x39d;" horiz-adv-x="1444" 
d="M184 0q6 63 10 475t4 805v231h41q193 -223 375 -421q137 -150 358 -379q195 -203 334 -342l4 190q0 223 -5 449.5t-9 476.5q31 -8 68 -8t63 8q0 -160 -7 -509t-7 -513l4 -492h-29q-98 125 -243 285q-130 143 -312 336l-526 553l-6 -283q0 -6 10 -473q4 -186 4 -389
q-33 8 -70 8q-34 0 -61 -8z" />
    <glyph glyph-name="Xi" unicode="&#x39e;" horiz-adv-x="1044" 
d="M96 1343v91h852v-91h-852zM242 678v90h561v-90h-561zM68 0v90h909v-90h-909z" />
    <glyph glyph-name="Omicron" unicode="&#x39f;" horiz-adv-x="1559" 
d="M910 -29q-373 0 -587 206t-214 562q0 351 219 561.5t582 210.5q370 0 584 -207.5t214 -564.5q0 -344 -220 -556t-578 -212zM910 53q278 0 430.5 178.5t152.5 509.5q0 338 -148.5 513.5t-434.5 175.5q-279 0 -432.5 -180.5t-153.5 -516.5q0 -327 151.5 -503.5
t434.5 -176.5z" />
    <glyph glyph-name="Pi" unicode="&#x3a0;" horiz-adv-x="1417" 
d="M1135 0v1343h-852v-1343h-99v1434h1049v-1434h-98z" />
    <glyph glyph-name="Rho" unicode="&#x3a1;" horiz-adv-x="1114" 
d="M370 672v-305q0 -11 11 -205q4 -78 4 -162q-45 8 -101 8q-55 0 -100 -8q6 72 10 305.5t4 442.5q0 165 -1 381.5t-13 355.5l106 -8q56 0 195 4t166 4q235 0 362 -98.5t127 -278.5q0 -209 -155.5 -324.5t-446.5 -115.5zM370 754l99 -4q467 0 467 340q0 170 -100.5 241.5
t-319.5 71.5l-135 -6q0 -90 -5.5 -250t-5.5 -197v-196z" />
    <glyph glyph-name="Sigma" unicode="&#x3a3;" horiz-adv-x="1057" 
d="M18 0v35l543 706l-463 645v48h856v-91h-704l430 -600l-498 -653h817v-90h-981z" />
    <glyph glyph-name="Tau" unicode="&#x3a4;" horiz-adv-x="1047" 
d="M696 1382v-645q0 -166 1 -382t13 -355q-45 8 -100 8t-100 -8q6 72 10 300t4 437v645h-64q-249 0 -399 -26l4 61l-4 68q70 0 301 -4t246 -4q98 0 243.5 2t305.5 6l-6 -64q0 -41 6 -65q-74 14 -173.5 20t-209.5 6h-78z" />
    <glyph glyph-name="Upsilon" unicode="&#x3a5;" horiz-adv-x="1106" 
d="M571 0q0 55 7 163.5t7 145.5q0 64 -5 171.5t-5 125.5q-139 242 -174 301.5t-172 292t-168 285.5q20 -4 53 -6t66 -2h71q31 6 46 8q53 -123 119.5 -252t134 -244t153.5 -244q225 367 391 740q17 -4 39.5 -6t40.5 -2q43 0 82 8q-272 -441 -494 -844l-6 -227q0 -103 3 -194
t10 -220q-21 4 -46.5 6t-50.5 2h-63q-27 -6 -39 -8z" />
    <glyph glyph-name="Chi" unicode="&#x3a7;" horiz-adv-x="1153" 
d="M61 0l436 657l53 78l-38 70q-99 172 -404 680q47 -8 115 -8q20 0 44.5 1t67.5 7q191 -371 279 -512l49 -78l51 76q113 166 299 514q33 -8 78 -8q12 0 30.5 1t49.5 7q-117 -168 -199 -289q-110 -147 -145 -215q-39 -59 -78 -119l-37 -55l47 -76l443 -731q-25 4 -55.5 6
t-61.5 2h-51.5t-69.5 -8q-84 170 -155 297q-64 113 -154 264l-53 86l-52 -76q-53 -75 -131 -209q-86 -147 -198 -362q-17 4 -38.5 6t-39.5 2q-47 0 -82 -8z" />
    <glyph glyph-name="Psi" unicode="&#x3a8;" horiz-adv-x="1589" 
d="M844 500h92q93 0 169.5 26t130.5 78.5t84 131.5t30 184v514h98v-521q0 -102 -32.5 -193.5t-97 -160t-160 -109t-222.5 -40.5h-92v-410h-99v410h-92q-129 0 -225 40.5t-160 109t-95.5 160t-31.5 193.5v521h99v-514q0 -92 25.5 -169.5t77.5 -133t129 -86.5t181 -31h92v934
h99v-934z" />
    <glyph glyph-name="uni03A9" unicode="&#x3a9;" horiz-adv-x="1546" 
d="M973 0v90q375 277 375 684q0 272 -152 433t-405 161q-264 0 -422 -161t-158 -429q0 -410 377 -688v-90h-477v90h352q-354 268 -354 690q0 308 185 493t484 185q307 0 489.5 -180t182.5 -494q0 -206 -95.5 -389t-258.5 -305h354v-90h-477z" />
    <glyph glyph-name="Iotadieresis" unicode="&#x3aa;" horiz-adv-x="467" 
d="M400 1485q-6 -72 -10.5 -300.5t-4.5 -436.5q0 -168 1 -388.5t14 -359.5q-45 8 -101 8q-55 0 -100 -8q6 72 10 305.5t4 442.5q0 165 -1 381.5t-13 355.5q45 -8 100 -8q56 0 101 8zM397 1536q-27 0 -49 19.5t-22 52.5q0 31 21.5 50t47.5 19q29 0 52.5 -19.5t23.5 -49.5
q0 -31 -21.5 -51.5t-52.5 -20.5zM64 1536q-28 0 -50 19.5t-22 52.5q0 31 22 50t48 19q29 0 52 -19.5t23 -49.5q0 -31 -21 -51.5t-52 -20.5z" />
    <glyph glyph-name="Upsilondieresis" unicode="&#x3ab;" horiz-adv-x="1106" 
d="M571 0q0 55 7 163.5t7 145.5q0 64 -5 171.5t-5 125.5q-139 242 -174 301.5t-172 292t-168 285.5q20 -4 53 -6t66 -2h71q31 6 46 8q53 -123 119.5 -252t134 -244t153.5 -244q225 367 391 740q17 -4 39.5 -6t40.5 -2q43 0 82 8q-272 -441 -494 -844l-6 -227q0 -103 3 -194
t10 -220q-21 4 -46.5 6t-50.5 2h-63q-27 -6 -39 -8zM779 1535q-27 0 -49 19.5t-22 52.5q0 31 21.5 50t47.5 19q29 0 52.5 -19.5t23.5 -49.5q0 -31 -21.5 -51.5t-52.5 -20.5zM446 1535q-28 0 -50 19.5t-22 52.5q0 31 22 50t48 19q29 0 52 -19.5t23 -49.5q0 -31 -21 -51.5
t-52 -20.5z" />
    <glyph glyph-name="alphatonos" unicode="&#x3ac;" horiz-adv-x="1223" 
d="M899 502q-27 93 -53.5 177t-64 147.5t-91 101t-133.5 37.5q-83 0 -148.5 -35.5t-111.5 -99.5t-70 -153.5t-24 -197.5q0 -98 22 -176t62.5 -132t98.5 -83t130 -29q61 0 113 26.5t96 76t81 119.5t69 157zM1121 -12q-35 0 -60.5 21.5t-46.5 67t-40 116t-41 168.5h-4
q-43 -104 -89 -177t-98 -119.5t-112.5 -68t-133.5 -21.5q-87 0 -159 35t-123 100t-79.5 157t-28.5 206q0 127 30 232.5t87 182t140.5 119t191.5 42.5q62 0 111.5 -17t88 -46.5t67.5 -70t52 -86.5t40 -95.5t32 -98.5h2q10 34 28 84t37.5 104t38 107t30.5 94h104
q-18 -49 -43.5 -116t-53.5 -138t-55.5 -141t-48.5 -125q23 -95 41 -163.5t32.5 -116.5t26.5 -78t23 -46.5t21.5 -22t21.5 -5.5q15 0 28 2.5t27 7.5v-80q-21 -7 -41 -10.5t-44 -3.5zM582 1187h-49l90 369h105z" />
    <glyph glyph-name="epsilontonos" unicode="&#x3ad;" horiz-adv-x="897" 
d="M827 29q-27 -11 -65.5 -20.5t-82.5 -17t-89.5 -12t-85.5 -4.5q-112 0 -192 24t-131 64.5t-75 95t-24 115.5q0 56 22 102t59 79.5t85 55t100 28.5v4q-41 8 -82 27t-73 48t-52 68t-20 88q0 78 34 131t88.5 85t123.5 45.5t139 13.5q34 0 72.5 -5t76 -12.5t70.5 -16t57 -16.5
v-96q-29 12 -64 23.5t-72 20t-74 13.5t-68 5q-148 0 -217.5 -50.5t-69.5 -142.5q0 -62 35.5 -101t89 -61t116.5 -29.5t117 -7.5h27h32.5t32 0.5t25.5 1.5v-88q-19 0 -41 1q-19 0 -44 0.5t-54 0.5q-184 0 -279.5 -52t-95.5 -165q0 -44 19 -83t60 -68t106 -45.5t157 -16.5
q38 0 79.5 6t82 15.5t78 21t67.5 23.5v-96zM463 1187h-49l90 369h105z" />
    <glyph glyph-name="etatonos" unicode="&#x3ae;" horiz-adv-x="1116" 
d="M860 -424v1008q0 90 -13.5 160t-45.5 118t-84.5 73.5t-130.5 25.5q-81 0 -143 -33t-103.5 -84.5t-62.5 -116t-21 -127.5v-600h-92v713q0 31 -1.5 71t-5 82t-8.5 83t-12 75h92q3 -15 7 -38t7 -50t5 -55t2 -52h4q34 73 79 116.5t92.5 66.5t94.5 30t86 7q85 0 150 -28.5
t108.5 -82t65.5 -131t22 -174.5v-1057h-92zM538 1187h-49l90 369h105z" />
    <glyph glyph-name="iotatonos" unicode="&#x3af;" horiz-adv-x="518" 
d="M457 2q-22 -8 -43.5 -11t-38.5 -3q-56 0 -96 18.5t-65.5 52t-37.5 80.5t-12 105v780h92v-782q0 -56 14 -89.5t34 -51.5t42 -23.5t39 -5.5q26 0 42 2.5t30 7.5v-80zM207 1187h-49l90 369h105z" />
    <glyph glyph-name="upsilondieresistonos" unicode="&#x3b0;" horiz-adv-x="1155" 
d="M252 457q0 -103 24.5 -178t70 -124t110 -72.5t145.5 -23.5q71 0 135 25.5t112 76.5t76.5 128.5t28.5 181.5q0 144 -35.5 286.5t-95.5 266.5h98q28 -56 51 -120.5t39.5 -134.5t25.5 -143t9 -147q0 -122 -33.5 -216t-92.5 -158t-140.5 -97t-177.5 -33q-113 0 -196 34.5
t-138 96t-81.5 146.5t-26.5 186v355q0 44 -5.5 73.5t-15.5 47.5t-24 25.5t-31 7.5q-14 0 -24 -1.5t-25 -5.5v77q18 6 38 9t39 3q66 0 103 -47.5t37 -144.5v-380zM843 1315q0 -31 -21.5 -51.5t-52.5 -20.5q-12 0 -24.5 4.5t-23 13.5t-17 22.5t-6.5 31.5q0 17 6.5 30t16.5 22
t22.5 13.5t23.5 4.5q29 0 52.5 -19.5t23.5 -50.5zM538 1190h-49l90 369h104zM407 1315q0 -31 -21.5 -51.5t-52.5 -20.5q-12 0 -25 4.5t-23 13.5t-16.5 22.5t-6.5 31.5q0 17 6.5 30t16.5 22t22 13.5t24 4.5q29 0 52.5 -19.5t23.5 -50.5z" />
    <glyph glyph-name="beta" unicode="&#x3b2;" horiz-adv-x="1061" 
d="M975 387q0 -88 -27 -163.5t-78 -130.5t-125.5 -86.5t-169.5 -31.5q-49 0 -94.5 8.5t-86 22.5t-75.5 31t-63 35v-467h-92v1511q0 103 29.5 181t81 130t121 78.5t149.5 26.5q77 0 138.5 -25t104 -69.5t65.5 -106t23 -133.5q0 -65 -18.5 -121.5t-53 -104t-84 -85.5
t-110.5 -64v-4q91 -23 159 -64t114 -97t69 -124.5t23 -146.5zM879 381q0 67 -23 130t-73 114.5t-129 90t-191 56.5v80q67 15 124.5 42t100.5 68.5t67.5 96.5t24.5 125q0 54 -14 102t-44 84t-76 57t-110 21q-60 0 -111 -20.5t-88.5 -62.5t-59 -107.5t-21.5 -155.5v-934
q31 -18 66 -37.5t74 -35.5t83 -26t92 -10q69 0 126 22t97.5 63t62.5 101t22 136z" />
    <glyph glyph-name="gamma" unicode="&#x3b3;" horiz-adv-x="1063" 
d="M989 967q0 -136 -31 -264t-89 -253.5t-140.5 -251t-185.5 -255.5v-105t-0.5 -115t-1.5 -111t-2 -93h-101q4 46 6 106t2.5 124.5t0 129.5t-0.5 121q-22 110 -61 233t-92 253.5t-119 266t-143 271.5h110q78 -138 137.5 -263t105.5 -241.5t81 -226.5t63 -219h4
q76 100 142 207t114.5 216.5t76.5 218.5t28 214q0 28 -0.5 48.5t-3.5 45.5h96q2 -15 3 -28.5t1 -28.5z" />
    <glyph glyph-name="zeta" unicode="&#x3b6;" horiz-adv-x="905" 
d="M895 -164q0 -26 -5 -46.5t-13 -38t-17.5 -32t-19.5 -28.5h-90q11 16 21 29.5t17 27t11 28t4 34.5q0 35 -13.5 64.5t-49.5 53t-97.5 40.5t-157.5 28q-93 11 -168.5 44.5t-129 89t-82.5 133.5t-29 179q0 133 49.5 260t136.5 249t206 240.5t257 235.5v5h-489v84h604v-82
q-65 -56 -139 -125.5t-148 -148.5t-142.5 -165.5t-121 -177.5t-84 -184.5t-31.5 -186.5q0 -85 21 -146.5t63 -104t104.5 -68t145.5 -39.5q43 -7 88.5 -15.5t88.5 -20.5t81 -30t67 -43.5t45.5 -60.5t16.5 -82z" />
    <glyph glyph-name="eta" unicode="&#x3b7;" horiz-adv-x="1116" 
d="M860 -424v1008q0 90 -13.5 160t-45.5 118t-84.5 73.5t-130.5 25.5q-81 0 -143 -33t-103.5 -84.5t-62.5 -116t-21 -127.5v-600h-92v713q0 31 -1.5 71t-5 82t-8.5 83t-12 75h92q3 -15 7 -38t7 -50t5 -55t2 -52h4q34 73 79 116.5t92.5 66.5t94.5 30t86 7q85 0 150 -28.5
t108.5 -82t65.5 -131t22 -174.5v-1057h-92z" />
    <glyph glyph-name="theta" unicode="&#x3b8;" horiz-adv-x="1147" 
d="M1057 770q0 -192 -33.5 -340t-96.5 -249.5t-154.5 -153.5t-207.5 -52q-110 0 -198 50t-149.5 147.5t-94.5 241t-33 329.5t31.5 334t94.5 250.5t158 157.5t222 55q121 0 208.5 -54t143.5 -154.5t82.5 -242.5t26.5 -319zM963 813q0 83 -7.5 163t-25 151.5t-46 131.5
t-70.5 104t-99 68.5t-131 24.5q-67 0 -122.5 -24t-99.5 -67t-77 -103t-55 -131.5t-33 -152t-11 -165.5h777zM186 729q0 -174 29 -300.5t81 -208.5t123.5 -121.5t155.5 -39.5q85 0 156 42t122.5 126t80.5 209.5t29 292.5h-777z" />
    <glyph glyph-name="iota" unicode="&#x3b9;" horiz-adv-x="518" 
d="M457 2q-22 -8 -43.5 -11t-38.5 -3q-56 0 -96 18.5t-65.5 52t-37.5 80.5t-12 105v780h92v-782q0 -56 14 -89.5t34 -51.5t42 -23.5t39 -5.5q26 0 42 2.5t30 7.5v-80z" />
    <glyph glyph-name="kappa" unicode="&#x3ba;" horiz-adv-x="1073" 
d="M854 0l-405 537l-193 -222v-315h-92v1024h92v-580l344 396q37 42 70 78t64.5 62t61.5 41t62 15q14 0 25.5 -0.5t25.5 -3.5v-82q-8 1 -11 1.5t-5.5 0.5h-6h-12.5q-47 0 -97.5 -47t-121.5 -129l-143 -166l461 -610h-119z" />
    <glyph glyph-name="lambda" unicode="&#x3bb;" horiz-adv-x="1020" 
d="M877 0l-336 922l-404 -922h-100l459 1028l-72 211q-12 36 -29 71.5t-42 64t-59 46t-81 17.5q-22 0 -45.5 -4t-46.5 -9v88q25 4 49 6.5t47 2.5q59 0 104 -17t80.5 -50.5t63 -84t51.5 -117.5l459 -1253h-98z" />
    <glyph glyph-name="uni03BC" unicode="&#x3bc;" horiz-adv-x="1130" 
d="M862 182q-49 -96 -135 -151.5t-195 -55.5q-60 0 -102.5 10t-73.5 27.5t-53 40.5t-43 49h-4v-497h-92v1419h92v-578q0 -72 10 -141.5t40.5 -124t87 -88t149.5 -33.5q66 0 124 25.5t100.5 75.5t67.5 124.5t25 172.5v567h92v-795q0 -44 5.5 -74t15.5 -48.5t24 -26.5t31 -8
q14 0 24 1.5t25 5.5v-77q-18 -6 -38 -9t-39 -3q-66 0 -98 50t-36 142h-4z" />
    <glyph glyph-name="nu" unicode="&#x3bd;" horiz-adv-x="1077" 
d="M958 864q0 -84 -20.5 -170.5t-54 -169.5t-76.5 -160.5t-87 -145.5t-85.5 -123.5t-73.5 -94.5h-110l-418 1024h104l381 -930q32 40 70 92.5t76.5 113t74 128t63 137.5t44 141t16.5 140q0 54 -5 95t-17 83h102q8 -32 12 -74t4 -86z" />
    <glyph glyph-name="xi" unicode="&#x3be;" horiz-adv-x="911" 
d="M874 -170q0 -53 -17.5 -93.5t-37.5 -68.5h-90q23 32 36 64.5t13 70.5q0 30 -7.5 60t-37 56t-87.5 47.5t-159 33.5q-94 12 -168 44t-125.5 83t-78.5 120t-27 154q0 76 26.5 145.5t75 126t116.5 97.5t151 60q-51 15 -93.5 41t-73.5 61.5t-48.5 79t-17.5 94.5
q0 75 34.5 129.5t85.5 92.5t109 62t106 37v5h-361v84h576v-84q-46 -10 -97.5 -23.5t-102 -32t-96.5 -43.5t-81 -58t-56 -75t-21 -94q0 -51 23 -91.5t63.5 -71t95 -51t118.5 -32.5q34 0 59.5 1t57.5 3v-88q-18 2 -38 2h-42q-116 0 -204.5 -32t-148 -84t-90 -118t-30.5 -134
q0 -61 15.5 -112.5t52.5 -92t99 -69t155 -42.5q103 -15 173.5 -39t114 -57t62 -75t18.5 -93z" />
    <glyph glyph-name="omicron" unicode="&#x3bf;" horiz-adv-x="1149" 
d="M1059 510q0 -107 -29 -204t-89 -170.5t-151 -117t-215 -43.5q-122 0 -213 43t-151.5 115.5t-90.5 169t-30 203.5q0 144 42 247t111 169t158.5 96.5t184.5 30.5q108 0 195.5 -36t149 -104.5t95 -169t33.5 -229.5zM963 512q0 114 -27 199.5t-76.5 141.5t-120 84t-157.5 28
q-90 0 -163 -31t-125 -90t-80 -144.5t-28 -195.5q0 -98 26.5 -180t76.5 -141t123 -91.5t166 -32.5q99 0 171.5 33.5t120 94t70.5 143.5t23 182z" />
    <glyph glyph-name="rho" unicode="&#x3c1;" horiz-adv-x="1149" 
d="M1059 541q0 -134 -32.5 -239t-92.5 -178t-146 -111t-194 -38q-59 0 -108 10.5t-90 29t-74.5 43t-61.5 53.5h-4v-506h-92v930q0 121 29.5 216.5t85 161.5t136 101t181.5 35q121 0 208.5 -43.5t144 -115t83.5 -163t27 -186.5zM961 541q0 90 -24 167.5t-69.5 134.5
t-112.5 89.5t-153 32.5q-95 0 -160.5 -35.5t-107 -94.5t-60 -136t-18.5 -160v-312q24 -36 58.5 -67t78 -53.5t95 -35t108.5 -12.5q83 0 150.5 29.5t115 89.5t73.5 150.5t26 212.5z" />
    <glyph glyph-name="sigma1" unicode="&#x3c2;" horiz-adv-x="942" 
d="M877 -170q0 -53 -18 -93.5t-38 -68.5h-96q23 28 39 63.5t16 82.5q0 44 -16.5 75t-51.5 53t-90 36t-133 24q-101 13 -176 53.5t-124.5 100t-74 132t-24.5 150.5q0 142 38.5 255.5t108 192.5t166 121t211.5 42q31 0 62.5 -4.5t60.5 -11t53.5 -15t40.5 -17.5v-104
q-46 31 -107.5 49.5t-121.5 18.5q-104 0 -181.5 -44t-130 -116.5t-78.5 -165.5t-26 -190q0 -80 24 -141.5t69 -106.5t109.5 -73.5t146.5 -41.5q103 -17 169 -40t104.5 -54t53.5 -71t15 -91z" />
    <glyph glyph-name="upsilon" unicode="&#x3c5;" horiz-adv-x="1165" 
d="M252 457q0 -103 24.5 -178t70 -124t110 -72.5t145.5 -23.5q71 0 135 25.5t112 76.5t76.5 128.5t28.5 181.5q0 144 -35.5 286.5t-95.5 266.5h98q28 -56 51 -120.5t39.5 -134.5t25.5 -143t9 -147q0 -122 -33.5 -216t-92.5 -158t-140.5 -97t-177.5 -33q-113 0 -196 34.5
t-138 96t-81.5 146.5t-26.5 186v355q0 44 -5.5 73.5t-15.5 47.5t-24 25.5t-31 7.5q-14 0 -24 -1.5t-25 -5.5v77q18 6 38 9t39 3q66 0 103 -47.5t37 -144.5v-380z" />
    <glyph glyph-name="chi" unicode="&#x3c7;" horiz-adv-x="1102" 
d="M1022 -479q-45 0 -80 14t-66.5 48.5t-63.5 92t-71 144.5l-193 440l-402 -727h-105l462 818l-198 440q-23 51 -43 85t-38.5 53.5t-37.5 27.5t-39 8q-25 0 -47 -9v86q12 3 25.5 5t30.5 2q37 0 67 -9.5t56.5 -32t50 -59t47.5 -90.5l184 -417l326 583h102l-383 -676l254 -565
q37 -83 78.5 -130.5t97.5 -47.5q30 0 51 6v-83q-15 -3 -31 -5t-34 -2z" />
    <glyph glyph-name="psi" unicode="&#x3c8;" horiz-adv-x="1536" 
d="M721 -481v456h-57q-108 0 -201.5 37t-162.5 109.5t-108.5 179.5t-39.5 248v475h96v-475q0 -122 34 -214t91.5 -153.5t132.5 -92t158 -30.5h57v1272h92v-1272h57q80 0 155 30t133.5 90.5t94 152.5t35.5 217v475h96v-473q0 -141 -41 -249t-111.5 -180.5t-163.5 -109.5
t-198 -37h-57v-456h-92z" />
    <glyph glyph-name="omega" unicode="&#x3c9;" horiz-adv-x="1655" 
d="M1536 463q0 -111 -26.5 -201t-77.5 -153.5t-125.5 -98.5t-169.5 -35q-60 0 -109 19.5t-87 52.5t-66 75.5t-46 88.5h-4q-17 -45 -46 -87.5t-68.5 -75.5t-90 -53t-110.5 -20q-96 0 -169 36t-122.5 100.5t-74.5 154t-25 197.5q0 84 12.5 163t31.5 150.5t41.5 134t43.5 113.5
h98q-22 -55 -45.5 -123t-42.5 -142.5t-31 -151t-12 -148.5q0 -97 22 -171.5t60 -125.5t90.5 -77t114.5 -26q61 0 112.5 25.5t89 77t58 129.5t20.5 184v275h92v-275q0 -108 20.5 -186.5t57.5 -129.5t88 -75.5t113 -24.5t114.5 28.5t91 81t60 126t21.5 164.5q0 72 -12 148.5
t-31 151t-42.5 142.5t-45.5 123h96q21 -51 44 -113.5t42.5 -134t32 -150.5t12.5 -163z" />
    <glyph glyph-name="iotadieresis" unicode="&#x3ca;" horiz-adv-x="518" 
d="M457 2q-22 -8 -43.5 -11t-38.5 -3q-56 0 -96 18.5t-65.5 52t-37.5 80.5t-12 105v780h92v-782q0 -56 14 -89.5t34 -51.5t42 -23.5t39 -5.5q26 0 42 2.5t30 7.5v-80zM376 1188q-27 0 -49 19.5t-22 52.5q0 31 21.5 50t47.5 19q29 0 52.5 -19.5t23.5 -49.5q0 -31 -21.5 -51.5
t-52.5 -20.5zM43 1188q-28 0 -50 19.5t-22 52.5q0 31 22 50t48 19q29 0 52 -19.5t23 -49.5q0 -31 -21 -51.5t-52 -20.5z" />
    <glyph glyph-name="upsilondieresis" unicode="&#x3cb;" horiz-adv-x="1165" 
d="M252 457q0 -103 24.5 -178t70 -124t110 -72.5t145.5 -23.5q71 0 135 25.5t112 76.5t76.5 128.5t28.5 181.5q0 144 -35.5 286.5t-95.5 266.5h98q28 -56 51 -120.5t39.5 -134.5t25.5 -143t9 -147q0 -122 -33.5 -216t-92.5 -158t-140.5 -97t-177.5 -33q-113 0 -196 34.5
t-138 96t-81.5 146.5t-26.5 186v355q0 44 -5.5 73.5t-15.5 47.5t-24 25.5t-31 7.5q-14 0 -24 -1.5t-25 -5.5v77q18 6 38 9t39 3q66 0 103 -47.5t37 -144.5v-380zM715 1188q-27 0 -49 19.5t-22 52.5q0 31 21.5 50t47.5 19q29 0 52.5 -19.5t23.5 -49.5q0 -31 -21.5 -51.5
t-52.5 -20.5zM382 1188q-28 0 -50 19.5t-22 52.5q0 31 22 50t48 19q29 0 52 -19.5t23 -49.5q0 -31 -21 -51.5t-52 -20.5z" />
    <glyph glyph-name="omicrontonos" unicode="&#x3cc;" horiz-adv-x="1149" 
d="M604 -20q-225 0 -369.5 148t-144.5 384t146.5 384t367.5 148q227 0 370.5 -147t143.5 -385q0 -240 -144.5 -386t-369.5 -146zM604 49q160 0 245 113.5t85 337.5q0 233 -84 354t-248 121q-328 0 -328 -461q0 -465 330 -465zM562 1187h-49l90 369h105z" />
    <glyph glyph-name="upsilontonos" unicode="&#x3cd;" horiz-adv-x="1165" 
d="M252 457q0 -103 24.5 -178t70 -124t110 -72.5t145.5 -23.5q71 0 135 25.5t112 76.5t76.5 128.5t28.5 181.5q0 144 -35.5 286.5t-95.5 266.5h98q28 -56 51 -120.5t39.5 -134.5t25.5 -143t9 -147q0 -122 -33.5 -216t-92.5 -158t-140.5 -97t-177.5 -33q-113 0 -196 34.5
t-138 96t-81.5 146.5t-26.5 186v355q0 44 -5.5 73.5t-15.5 47.5t-24 25.5t-31 7.5q-14 0 -24 -1.5t-25 -5.5v77q18 6 38 9t39 3q66 0 103 -47.5t37 -144.5v-380zM552 1187h-49l90 369h105z" />
    <glyph glyph-name="omegatonos" unicode="&#x3ce;" horiz-adv-x="1655" 
d="M1536 463q0 -111 -26.5 -201t-77.5 -153.5t-125.5 -98.5t-169.5 -35q-60 0 -109 19.5t-87 52.5t-66 75.5t-46 88.5h-4q-17 -45 -46 -87.5t-68.5 -75.5t-90 -53t-110.5 -20q-96 0 -169 36t-122.5 100.5t-74.5 154t-25 197.5q0 84 12.5 163t31.5 150.5t41.5 134t43.5 113.5
h98q-22 -55 -45.5 -123t-42.5 -142.5t-31 -151t-12 -148.5q0 -97 22 -171.5t60 -125.5t90.5 -77t114.5 -26q61 0 112.5 25.5t89 77t58 129.5t20.5 184v275h92v-275q0 -108 20.5 -186.5t57.5 -129.5t88 -75.5t113 -24.5t114.5 28.5t91 81t60 126t21.5 164.5q0 72 -12 148.5
t-31 151t-42.5 142.5t-45.5 123h96q21 -51 44 -113.5t42.5 -134t32 -150.5t12.5 -163zM816 1187h-49l90 369h105z" />
    <glyph glyph-name="uni0401" unicode="&#x401;" horiz-adv-x="1024" 
d="M370 741v-106q0 -72 6.5 -276.5t6.5 -258.5h45q90 0 239.5 6.5t282.5 18.5l-2 -66l2 -67q-41 4 -154.5 6t-218.5 2h-393q6 72 10 307.5t4 444.5q0 440 -2 531t-12 202q49 0 149.5 -5t137.5 -5q78 0 263 5t218 5l-4 -74l4 -70q-162 33 -524 33h-51q0 -51 -2.5 -122.5
t-4.5 -135.5v-282h172q45 0 178.5 6t192.5 6l-4 -62l4 -61q-192 18 -371 18h-172zM697 1536q-27 0 -49 19.5t-22 52.5q0 31 21.5 50t47.5 19q29 0 52.5 -19.5t23.5 -49.5q0 -31 -21.5 -51.5t-52.5 -20.5zM364 1536q-28 0 -50 19.5t-22 52.5q0 31 22 50t48 19q29 0 52 -19.5
t23 -49.5q0 -31 -21 -51.5t-52 -20.5z" />
    <glyph glyph-name="uni0402" unicode="&#x402;" horiz-adv-x="1409" 
d="M1286 375q0 -80 -22.5 -152.5t-68.5 -127.5t-117.5 -87.5t-168.5 -32.5q-45 0 -87.5 8t-71.5 17v100q31 -12 74 -22t85 -10q72 0 123.5 25.5t84.5 68t48 97.5t15 114q0 74 -23.5 136t-69.5 106.5t-114.5 69t-159.5 24.5h-281v-709h-98v1343h-373v91h926v-91h-455v-544
h295q99 0 183.5 -25.5t145.5 -78t95.5 -132.5t34.5 -188z" />
    <glyph glyph-name="uni0403" unicode="&#x403;" horiz-adv-x="889" 
d="M377 1374q0 -51 -2.5 -122.5t-4.5 -135.5v-874q0 -105 3.5 -160t11.5 -82q-45 8 -101 8q-55 0 -100 -8q6 72 10 305.5t4 442.5q0 165 -1 381.5t-13 355.5q49 0 149.5 -5t137.5 -5q78 0 263 5t218 5l-4 -74l4 -70q-162 33 -524 33h-51zM505 1556h-90l234 328h104z" />
    <glyph glyph-name="uni0404" unicode="&#x404;" horiz-adv-x="1272" 
d="M774 -25q-148 0 -270.5 52t-210 145.5t-136 225t-48.5 290.5q0 186 57 329.5t154 241.5t226.5 148.5t274.5 50.5q111 0 186.5 -17t129.5 -36v-105q-62 28 -138.5 48t-179.5 20q-123 0 -229 -40.5t-186.5 -118t-130.5 -189.5t-60 -256h702v-92h-704q4 -156 53.5 -270
t129 -189t180.5 -111t208 -36q113 0 202.5 22.5t152.5 54.5v-96q-27 -11 -62.5 -23.5t-80 -23.5t-99.5 -18t-121 -7z" />
    <glyph glyph-name="uni0405" unicode="&#x405;" horiz-adv-x="1018" 
d="M139 86q27 84 33 111q14 59 14 118q49 -122 143.5 -190t215.5 -68q139 0 225 86t86 234q0 104 -51.5 164.5t-167.5 109.5l-176 74q-148 59 -218.5 146t-70.5 219q0 184 127 302.5t329 118.5q179 0 330 -79q-35 -76 -59 -168q-115 168 -299 168q-119 0 -189.5 -75
t-70.5 -200q0 -96 50 -154.5t167 -109.5l176 -76q156 -65 222.5 -148t66.5 -225q0 -211 -141.5 -342t-376.5 -131q-215 0 -365 115z" />
    <glyph glyph-name="uni0407" unicode="&#x407;" horiz-adv-x="467" 
d="M400 1485q-6 -72 -10.5 -300.5t-4.5 -436.5q0 -168 1 -388.5t14 -359.5q-45 8 -101 8q-55 0 -100 -8q6 72 10 305.5t4 442.5q0 165 -1 381.5t-13 355.5q45 -8 100 -8q56 0 101 8zM397 1536q-27 0 -49 19.5t-22 52.5q0 31 21.5 50t47.5 19q29 0 52.5 -19.5t23.5 -49.5
q0 -31 -21.5 -51.5t-52.5 -20.5zM64 1536q-28 0 -50 19.5t-22 52.5q0 31 22 50t48 19q29 0 52 -19.5t23 -49.5q0 -31 -21 -51.5t-52 -20.5z" />
    <glyph glyph-name="uni0409" unicode="&#x409;" horiz-adv-x="1995" 
d="M1042 0v1341h-454q-17 -133 -37 -275t-41 -274t-40.5 -245t-35.5 -187q-17 -78 -41 -146.5t-60 -120t-86.5 -81.5t-119.5 -30q-32 0 -55 4t-41 10v100q40 -20 92 -20q45 0 79 23t59.5 66t45 104.5t36.5 138.5q11 48 23.5 115t27 148.5t29 174t29 190.5t28.5 199t26 199
h635v-637h325q85 0 158.5 -21.5t127.5 -67.5t85 -118.5t31 -175.5q0 -85 -28 -160t-82.5 -131.5t-135 -89.5t-184.5 -33h-396zM1765 406q0 81 -23 138t-68 93t-111 53t-152 17h-270v-617h276q92 0 158 24t108 66t62 100t20 126z" />
    <glyph glyph-name="uni040A" unicode="&#x40a;" horiz-adv-x="2056" 
d="M1929 414q0 -85 -28 -160t-82.5 -131.5t-134.5 -89.5t-185 -33h-395v707h-821v-707h-99v1434h99v-637h821v637h98v-637h326q84 0 157.5 -21.5t127.5 -67.5t85 -118.5t31 -175.5zM1827 406q0 81 -23 138t-68 93t-111 53t-152 17h-271v-617h277q92 0 158 24t108 66t62 100
t20 126z" />
    <glyph glyph-name="uni040B" unicode="&#x40b;" horiz-adv-x="1421" 
d="M1190 0v383q0 81 -17.5 145.5t-55.5 109t-99 68t-148 23.5h-297v-729h-98v1343h-414v91h926v-91h-414v-524h301q97 0 174 -24t130 -76t81.5 -134t28.5 -198v-387h-98z" />
    <glyph glyph-name="uni040C" unicode="&#x40c;" horiz-adv-x="1079" 
d="M381 791q100 0 680 694q41 -8 96 -8q65 0 98 8q-72 -55 -205 -187q-82 -81 -161 -161l-318 -316q82 -104 205 -248q31 -36 237 -272q132 -151 263 -301q-58 8 -127 8h-53.5t-69.5 -8q-131 182 -254 336l-250 307q-86 107 -152 107v-258q0 -86 7.5 -258.5t7.5 -233.5
q-45 8 -101 8q-55 0 -100 -8q6 72 10 305.5t4 442.5q0 165 -1 381.5t-13 355.5q45 -8 100 -8q56 0 101 8q-6 -70 -10.5 -159t-4.5 -196v-331q0 -4 11 -8zM587 1556h-90l234 328h104z" />
    <glyph glyph-name="uni040E" unicode="&#x40e;" horiz-adv-x="1098" 
d="M1253 1485q37 -8 76 -8l75 8q-34 -60 -206 -389q-199 -385 -326 -635q-170 -338 -225 -461l-78 8l-86 -8q80 127 143 236q23 38 51 92q-22 49 -155 311q-178 348 -266 512q-148 274 -195 334l129 -8l121 8q119 -262 151 -332q50 -102 135 -273t171 -343l16 -7
q29 52 121 232q131 258 194 387q105 217 154 336zM581 1586q58 0 104.5 17t80 46t53 67t24.5 79h98q-10 -54 -37.5 -105.5t-72.5 -91.5t-108 -64t-143 -24t-140 24t-101 64t-65.5 91.5t-34.5 105.5h98q5 -41 22 -79t47 -67t73 -46t100 -17h2z" />
    <glyph glyph-name="uni040F" unicode="&#x40f;" horiz-adv-x="1386" 
d="M738 0v-384h-96v384h-458v1434h99v-1344h821v1344h98v-1434h-464z" />
    <glyph glyph-name="uni0410" unicode="&#x410;" horiz-adv-x="1343" 
d="M-10 0q356 774 672 1511h41q106 -264 211 -520q94 -227 211 -504q129 -307 208 -487q-47 8 -106 8h-46t-65 -8q-43 131 -82 233q-51 136 -104 261l-37 86l-266 4l-268 -4q-29 -64 -88 -213q-70 -177 -138 -367q-12 4 -31.5 6t-39.5 2q-31 0 -48.5 -4t-23.5 -4zM627 1214
l-231 -534l163 -4l291 4l-37 90z" />
    <glyph glyph-name="uni0411" unicode="&#x411;" horiz-adv-x="1288" 
d="M380 743l-6 -213q0 -149 2 -246.5t10 -185.5q84 -18 148 -18q192 0 301.5 90t109.5 250q0 334 -420 334q-18 0 -71.5 -5.5t-73.5 -5.5zM374 821l157 4q318 0 474 -123q131 -104 131 -286q0 -424 -588 -424l-256 8q-33 0 -62.5 -1t-60.5 -7q6 71 10 308t4 448
q0 165 -1 381.5t-13 355.5q41 0 184.5 -6t194.5 -6q47 0 266 4t266 4l-6 -64l6 -63q-96 0 -196 6q-299 18 -336 18h-75t-85 -6q-8 -84 -11 -184.5t-3 -366.5z" />
    <glyph glyph-name="uni0412" unicode="&#x412;" horiz-adv-x="1294" 
d="M382 739v-215q0 -147 2 -241.5t11 -182.5q84 -18 147 -18q193 0 302.5 90t109.5 250q0 170 -102.5 248t-317.5 78zM569 1485q256 0 384 -79t128 -255q0 -141 -83 -231.5t-253 -122.5q405 -43 405 -359q0 -217 -147.5 -331.5t-437.5 -114.5q-50 0 -140 4t-116 4
q-29 0 -54.5 -1t-54.5 -7q6 71 10 308t4 448q0 165 -1 381.5t-13 355.5l106 -8q19 0 107 4t156 4zM382 834l6 -3q27 -4 61 -6t62 -2q195 0 284 79t89 237q0 137 -76 202q-82 72 -254 72q-63 0 -88 -2q-47 -8 -67 -10q-6 -31 -11.5 -137.5t-5.5 -141.5v-288z" />
    <glyph glyph-name="uni0413" unicode="&#x413;" horiz-adv-x="1069" 
d="M395 1374q0 -51 -2.5 -122.5t-4.5 -135.5v-874q0 -105 3.5 -160t11.5 -82q-45 8 -101 8q-55 0 -100 -8q6 72 10 305.5t4 442.5q0 165 -1 381.5t-13 355.5q49 0 149.5 -5t137.5 -5q78 0 263 5t218 5l-4 -74l4 -70q-162 33 -524 33h-51z" />
    <glyph glyph-name="uni0414" unicode="&#x414;" horiz-adv-x="1579" 
d="M145 102q61 134 205 463q161 371 243 563q127 299 158 383h78l590 -1409h121q-7 -45 -11 -152.5t-4 -191.5h-18q-70 172 -130.5 207t-260.5 35h-666q-201 0 -265.5 -40t-129.5 -202h-19v45q0 64 -1 145t-11 154h121zM1214 102l-461 1147q-135 -288 -240 -540
q-124 -299 -229 -607h930z" />
    <glyph glyph-name="uni0415" unicode="&#x415;" horiz-adv-x="1075" 
d="M386 741v-106q0 -72 6.5 -276.5t6.5 -258.5h45q90 0 239.5 6.5t282.5 18.5l-2 -66l2 -67q-41 4 -154.5 6t-218.5 2h-393q6 72 10 307.5t4 444.5q0 440 -2 531t-12 202q49 0 149.5 -5t137.5 -5q78 0 263 5t218 5l-4 -74l4 -70q-162 33 -524 33h-51q0 -51 -2.5 -122.5
t-4.5 -135.5v-282h172q45 0 178.5 6t192.5 6l-4 -62l4 -61q-192 18 -371 18h-172z" />
    <glyph glyph-name="uni0416" unicode="&#x416;" horiz-adv-x="2007" 
d="M1096 1485q0 -23 -7.5 -180.5t-7.5 -247.5v-260l12 -9q80 0 660 697q20 -4 47 -6t51 -2q53 0 97 8q-68 -51 -207 -189q-31 -30 -164 -161l-318 -316q78 -98 211 -248q19 -20 248 -272q119 -129 268 -301q-71 10 -127 10q-38 0 -58.5 -2t-63.5 -8q-132 182 -254 336
l-250 307q-41 51 -79 79t-73 28v-191q0 -117 1 -266.5t14 -290.5q-21 4 -47.5 6t-51.5 2h-61q-29 -6 -41 -8q6 72 10 244t4 315v189q-33 0 -70.5 -29t-78.5 -78l-250 -307q-123 -154 -254 -336q-55 8 -82 9t-41 1q-55 0 -127 -10q104 121 268 299q226 248 248 272
q117 131 211 250l-317 316q-82 79 -162 159q-139 136 -211 191q20 -4 47 -6t51 -2q55 0 98 8q580 -697 660 -697l10 9q0 170 -7 411.5t-7 276.5q20 -4 50 -6t50 -2q55 0 101 8z" />
    <glyph glyph-name="uni0417" unicode="&#x417;" horiz-adv-x="1296" 
d="M573 741l-194 -6q8 17 8 47q0 29 -8 45l170 -4q161 0 244 87t83 225q0 125 -57 200q-72 95 -223 95q-131 0 -223.5 -46.5t-139.5 -130.5l-69 123q73 66 190 100.5t254 34.5q219 0 351 -96t132 -276q0 -267 -346 -348q185 0 306.5 -103.5t121.5 -269.5q0 -223 -152.5 -335
t-439.5 -112q-133 0 -264 31t-221 94q12 29 21.5 72t13.5 82q57 -78 185 -137.5t249 -59.5q184 0 283.5 95.5t99.5 267.5q0 147 -100.5 236t-274.5 89z" />
    <glyph glyph-name="uni0418" unicode="&#x418;" horiz-adv-x="1691" 
d="M1302 1214l-1014 -1214q-12 8 -28 8l-31 -8q6 72 10 305.5t4 442.5q0 165 -1 381.5t-13 355.5q45 -8 100 -8q56 0 101 8q0 -23 -7.5 -180.5t-7.5 -247.5q0 -193 3.5 -343.5t9.5 -346.5l946 1116l57 -6q39 0 66 8q-6 -72 -10.5 -300.5t-4.5 -436.5q0 -168 1 -388.5
t14 -359.5q-45 8 -101 8q-55 0 -100 -8q6 201 10 345t4 302q0 123 -3 267.5t-5 299.5z" />
    <glyph glyph-name="uni0419" unicode="&#x419;" horiz-adv-x="1691" 
d="M1302 1214l-1014 -1214q-10 8 -28 8q-17 0 -31 -8q6 72 10 305.5t4 442.5q0 165 -1 381.5t-13 355.5q45 -8 100 -8q56 0 101 8q0 -23 -7.5 -180.5t-7.5 -247.5q0 -193 3.5 -343.5t9.5 -346.5l946 1116l57 -6q39 0 66 8q-6 -72 -10.5 -300.5t-4.5 -436.5q0 -168 1 -388.5
t14 -359.5q-45 8 -101 8q-55 0 -100 -8q6 201 10 345t4 302q0 123 -3 267.5t-5 299.5zM1276 1903q-54 -236 -267 -236q-57 0 -200 33q-72 16 -115 16q-57 0 -85 -22.5t-48 -81.5h-70q47 246 268 246q35 0 160 -29t154 -29q49 0 79.5 24.5t51.5 78.5h72z" />
    <glyph glyph-name="uni041A" unicode="&#x41a;" horiz-adv-x="1298" 
d="M391 791q100 0 680 694q41 -8 96 -8q65 0 98 8q-72 -55 -205 -187q-82 -81 -161 -161l-318 -316q82 -104 205 -248q31 -36 237 -272q132 -151 263 -301q-58 8 -127 8h-53.5t-69.5 -8q-131 182 -254 336l-250 307q-86 107 -152 107v-258q0 -86 7.5 -258.5t7.5 -233.5
q-45 8 -101 8q-55 0 -100 -8q6 72 10 305.5t4 442.5q0 165 -1 381.5t-13 355.5q45 -8 100 -8q56 0 101 8q-6 -70 -10.5 -159t-4.5 -196v-331q0 -4 11 -8z" />
    <glyph glyph-name="uni041B" unicode="&#x41b;" horiz-adv-x="1409" 
d="M170 0q-35 8 -80 8l-80 -8q31 59 182 395q215 477 285 641q149 353 188 475h84q29 -71 154 -374q135 -326 283 -674q159 -379 204 -463q-41 4 -63.5 6t-40.5 2q-27 0 -49.5 -2t-57.5 -6l-493 1249h-21q-143 -342 -278 -672.5t-217 -576.5z" />
    <glyph glyph-name="uni041C" unicode="&#x41c;" horiz-adv-x="1904" 
d="M75 0q41 176 100.5 581.5t124.5 929.5h37q154 -311 307.5 -610t300.5 -569q310 549 643 1179h29q43 -413 49 -475q35 -305 58 -504q32 -266 65 -532q-20 4 -47 6t-51 2q-55 0 -98 -8q0 264 -20.5 481t-49.5 387q-6 39 -43 215q-143 -239 -272 -481q-99 -184 -183 -364
q-71 -156 -100 -238h-31q-26 96 -82 213q-47 102 -125 244l-338 624q-49 -342 -77.5 -649t-28.5 -432q-35 8 -80 8h-53q-25 -6 -35 -8z" />
    <glyph glyph-name="uni041D" unicode="&#x41d;" horiz-adv-x="1662" 
d="M399 1485q-6 -45 -10.5 -209t-4.5 -346v-80q23 -2 145 -4t306 -2l446 4v82q0 92 -4 203q-10 274 -10 352q45 -8 100 -8q56 0 101 8q-6 -72 -10.5 -300.5t-4.5 -436.5q0 -168 1 -388.5t14 -359.5q-45 8 -101 8q-55 0 -100 -8q6 201 10 345t4 302v103q-26 2 -175.5 4
t-270.5 2q-127 0 -235.5 -3t-215.5 -5v-99q0 -162 1 -358.5t14 -290.5q-45 8 -101 8q-55 0 -100 -8q6 72 10 305.5t4 442.5q0 165 -1 381.5t-13 355.5q45 -8 100 -8q56 0 101 8z" />
    <glyph glyph-name="uni041E" unicode="&#x41e;" horiz-adv-x="1781" 
d="M891 -29q-373 0 -587 206t-214 562q0 351 219 561.5t582 210.5q370 0 584 -207.5t214 -564.5q0 -344 -220 -556t-578 -212zM891 53q278 0 430.5 178.5t152.5 509.5q0 338 -148.5 513.5t-434.5 175.5q-279 0 -432.5 -180.5t-153.5 -516.5q0 -327 151.5 -503.5
t434.5 -176.5z" />
    <glyph glyph-name="uni041F" unicode="&#x41f;" horiz-adv-x="1691" 
d="M389 1343q0 -145 -2.5 -336.5t-4.5 -357.5q0 -141 5.5 -323.5t9.5 -325.5q-45 8 -101 8q-55 0 -100 -8q6 72 10 305.5t4 442.5q0 165 -1 381.5t-13 355.5q35 -4 243 -6t382 -2q123 0 296 2t359 6q-6 -72 -10 -300.5t-4 -436.5q0 -168 1 -388.5t13 -359.5q-45 8 -100 8
q-56 0 -101 -8q6 72 10.5 269.5t4.5 379.5v94v93v84v73v62v53v43v35v28v25q0 82 -7 104q-118 0 -230 2.5t-204 4.5q-131 0 -246.5 -2t-213.5 -5z" />
    <glyph glyph-name="uni0420" unicode="&#x420;" horiz-adv-x="1193" 
d="M376 672v-305q0 -11 11 -205q4 -78 4 -162q-45 8 -101 8q-55 0 -100 -8q6 72 10 305.5t4 442.5q0 165 -1 381.5t-13 355.5l106 -8q56 0 195 4t166 4q235 0 362 -98.5t127 -278.5q0 -209 -155.5 -324.5t-446.5 -115.5zM376 754l99 -4q467 0 467 340q0 170 -100.5 241.5
t-319.5 71.5l-135 -6q0 -90 -5.5 -250t-5.5 -197v-196z" />
    <glyph glyph-name="uni0421" unicode="&#x421;" horiz-adv-x="1423" 
d="M1333 92q-166 -121 -487 -121q-361 0 -559.5 201t-198.5 567q0 351 217 561.5t590 210.5q254 0 467 -106q-35 -109 -35 -207q-152 232 -440 232q-271 0 -422.5 -180.5t-151.5 -512.5q0 -319 150.5 -501.5t408.5 -182.5q248 0 473 183z" />
    <glyph glyph-name="uni0422" unicode="&#x422;" horiz-adv-x="1181" 
d="M678 1382v-645q0 -166 1 -382t13 -355q-45 8 -100 8t-100 -8q6 72 10 300t4 437v645h-64q-249 0 -399 -26l4 61l-4 68q70 0 301 -4t246 -4q98 0 243.5 2t305.5 6l-6 -64q0 -41 6 -65q-74 14 -173.5 20t-209.5 6h-78z" />
    <glyph glyph-name="uni0423" unicode="&#x423;" horiz-adv-x="1452" 
d="M1247 1485q37 -8 76 -8l75 8q-34 -60 -206 -389q-199 -385 -326 -635q-170 -338 -225 -461l-78 8l-86 -8q80 127 143 236q23 38 51 92q-22 49 -155 311q-178 348 -266 512q-148 274 -195 334l129 -8l121 8q119 -262 151 -332q50 -102 135 -273t171 -343l16 -7
q29 52 121 232q131 258 194 387q105 217 154 336z" />
    <glyph glyph-name="uni0424" unicode="&#x424;" horiz-adv-x="1931" 
d="M1057 1309q0 -88 -2 -251t-4 -317q0 -151 2 -282t4 -244q245 0 406 158.5t161 386.5q0 225 -148 381q-159 168 -419 168zM872 1309q-260 0 -417 -162q-150 -154 -150 -387q0 -230 160 -387.5t407 -157.5q0 123 2 262t4 264zM1065 1485l-6 -94q366 0 577 -179
q203 -170 203 -448q0 -270 -205 -447q-215 -184 -575 -184l6 -133q-19 4 -49.5 6t-51.5 2l-100 -8l6 133q-362 0 -577 184q-203 175 -203 443q0 278 203 450q213 181 577 181l-6 94q12 -4 41 -6t64 -2q26 0 54 3t42 5z" />
    <glyph glyph-name="uni0425" unicode="&#x425;" horiz-adv-x="1214" 
d="M45 0l436 657l53 78l-38 70q-99 172 -404 680q47 -8 115 -8q20 0 44.5 1t67.5 7q191 -371 279 -512l49 -78l51 76q113 166 299 514q33 -8 78 -8q12 0 30.5 1t49.5 7q-117 -168 -199 -289q-110 -147 -145 -215q-39 -59 -78 -119l-37 -55l47 -76l443 -731q-25 4 -55.5 6
t-61.5 2h-51.5t-69.5 -8q-84 170 -155 297q-64 113 -154 264l-53 86l-52 -76q-53 -75 -131 -209q-86 -147 -198 -362q-17 4 -38.5 6t-39.5 2q-47 0 -82 -8z" />
    <glyph glyph-name="uni0426" unicode="&#x426;" horiz-adv-x="1691" 
d="M1487 1485q0 -113 -4 -240q-11 -319 -11 -401q0 -125 4.5 -405.5t4.5 -329.5h120q-18 -103 -18 -207l6 -142h-20q-58 146 -113 193t-170 47q-53 0 -233.5 -4t-216.5 -4q-105 0 -223.5 3t-250.5 5q-92 0 -147 -8q6 71 10 308t4 448q0 165 -1 381.5t-13 355.5q18 -4 51 -6
t49 -2q29 0 58.5 3t42.5 5q0 -2 -7.5 -310.5t-7.5 -453.5q0 -117 2 -278.5t7 -333.5h882q0 77 4 409t4 336q0 113 -4 250q-10 344 -10 381q53 -8 100 -8q15 0 35.5 1t65.5 7z" />
    <glyph glyph-name="uni0427" unicode="&#x427;" horiz-adv-x="1566" 
d="M163 1485q10 -2 43 -5t55 -3q15 0 38.5 1t62.5 7q0 -74 -2 -125q-11 -252 -11 -256q0 -219 119 -338q107 -107 283 -107q127 0 260 91q182 124 182 344q0 118 -2 203t-12 188q45 -8 100 -8t101 8q-7 -72 -11 -300.5t-4 -436.5q0 -168 1 -388.5t14 -359.5q-46 8 -101 8
t-100 -8q6 213 10 386t4 415q-69 -111 -206.5 -179.5t-317.5 -68.5q-250 0 -383 160q-109 131 -109 307q0 96 -7 242.5t-7 222.5z" />
    <glyph glyph-name="uni0428" unicode="&#x428;" horiz-adv-x="2142" 
d="M1989 1485q0 -113 -4 -240q-11 -319 -11 -401q0 -158 5.5 -408t9.5 -444q-88 8 -201 8q-51 0 -195.5 -4t-191.5 -4q-250 8 -350 8q-90 0 -253 -4t-243 -4q-264 8 -365 8q-92 0 -147 -8q6 71 10 308t4 448q0 165 -1 381.5t-13 355.5q18 -4 51 -6t49 -2q29 0 58.5 3t42.5 5
q0 -2 -7.5 -310.5t-7.5 -453.5q0 -117 2 -278.5t7 -333.5h684q0 81 4 336t4 303q0 165 -1 381.5t-14 355.5q19 -4 51.5 -6t49.5 -2q28 0 58 3t42 5q0 -2 -7 -310.5t-7 -453.5q0 -117 2 -278.5t6 -333.5h684q0 77 4 409t4 336q0 113 -4 250q-10 344 -10 381q53 -8 100 -8
q15 0 35.5 1t65.5 7z" />
    <glyph glyph-name="uni0429" unicode="&#x429;" horiz-adv-x="2193" 
d="M1989 1485q0 -113 -4 -240q-11 -319 -11 -401q0 -125 4 -405.5t4 -329.5h121q-18 -103 -18 -207l6 -142h-20q-58 146 -113 193t-170 47q-51 0 -195.5 -4t-191.5 -4q-250 8 -350 8q-90 0 -253 -4t-243 -4q-264 8 -365 8q-92 0 -147 -8q6 71 10 308t4 448q0 165 -1 381.5
t-13 355.5q18 -4 51 -6t49 -2q29 0 58.5 3t42.5 5q0 -2 -7.5 -310.5t-7.5 -453.5q0 -117 2 -278.5t7 -333.5h684q0 81 4 336t4 303q0 165 -1 381.5t-14 355.5q19 -4 51.5 -6t49.5 -2q28 0 58 3t42 5q0 -2 -7 -310.5t-7 -453.5q0 -117 2 -278.5t6 -333.5h684q0 77 4 409
t4 336q0 113 -4 250q-10 344 -10 381q53 -8 100 -8q15 0 35.5 1t65.5 7z" />
    <glyph glyph-name="uni042A" unicode="&#x42a;" horiz-adv-x="1382" 
d="M474 745l-6 -213q0 -149 2 -246.5t11 -185.5q84 -18 147 -18q193 0 302.5 90t109.5 250q0 334 -420 334q-19 0 -72 -5.5t-74 -5.5zM483 1485q-7 -74 -11 -266.5t-4 -397.5q37 6 73 8t85 2q248 0 389 -61q217 -94 217 -332q0 -217 -147.5 -331.5t-438.5 -114.5
q-51 0 -117.5 3t-142.5 5h-50.5t-53.5 -8q6 71 10 308t4 448q0 122 -3 285t-5 351q-131 0 -258 -28l4 61l-4 68q37 0 123 -4t129 -4q84 0 126 2t75 6z" />
    <glyph glyph-name="uni042B" unicode="&#x42b;" horiz-adv-x="1732" 
d="M375 745l-7 -213q0 -149 2 -246.5t11 -185.5q84 -18 147 -18q193 0 302.5 90t109.5 250q0 334 -420 334q-19 0 -72 -5.5t-73 -5.5zM383 1485q-6 -74 -10.5 -266.5t-4.5 -397.5q37 6 73 8t85 2q248 0 389 -61q217 -94 217 -332q0 -217 -147.5 -331.5t-437.5 -114.5
q-52 0 -118.5 3t-142.5 5h-50.5t-53.5 -8q6 71 10 308t4 448q0 165 -1 381.5t-13 355.5q45 -8 100 -8q56 0 101 8zM1540 1485q-6 -72 -10.5 -300.5t-4.5 -436.5q0 -168 1.5 -388.5t13.5 -359.5q-45 8 -101 8q-55 0 -100 -8q6 72 10 305.5t4 442.5q0 165 -1 381.5t-13 355.5
q45 -8 100 -8q56 0 101 8z" />
    <glyph glyph-name="uni042C" unicode="&#x42c;" horiz-adv-x="1288" 
d="M381 745l-7 -213q0 -149 2 -246.5t11 -185.5q84 -18 147 -18q193 0 302.5 90t109.5 250q0 334 -420 334q-19 0 -72 -5.5t-73 -5.5zM389 1485q-8 -152 -11.5 -305.5t-3.5 -358.5q37 6 73 8t85 2q248 0 389 -61q217 -94 217 -332q0 -217 -147.5 -331.5t-437.5 -114.5
q-52 0 -118.5 3t-142.5 5h-50.5t-53.5 -8q6 71 10 308t4 448q0 165 -1 381.5t-13 355.5q45 -8 100 -8q56 0 101 8z" />
    <glyph glyph-name="uni042D" unicode="&#x42d;" horiz-adv-x="1452" 
d="M1154 834q0 227 -164 405q-176 191 -434 191q-145 0 -280 -78q-91 -52 -136 -109l-14 2q-16 94 -45 168q225 98 467 98q360 0 584 -198q235 -209 235 -568q0 -358 -203.5 -566t-560.5 -208q-135 0 -266 31t-215 94q8 31 17.5 77t13.5 75q67 -74 149 -121q131 -74 283 -74
q258 0 413.5 185.5t155.5 498.5h-473q-76 0 -165 -4t-161 -6q7 23 7 59l-7 58q39 -4 123 -7t203 -3h473z" />
    <glyph glyph-name="uni042E" unicode="&#x42e;" horiz-adv-x="2170" 
d="M483 674h-207q0 -154 1 -350.5t14 -323.5q-45 8 -101 8q-55 0 -100 -8q6 72 10 305.5t4 442.5q0 165 -1 381.5t-13 355.5q45 -8 100 -8q56 0 101 8q-6 -68 -10.5 -282t-4.5 -412h205q0 327 222.5 523.5t576.5 196.5q371 0 585 -207.5t214 -564.5q0 -344 -220.5 -556
t-578.5 -212q-356 0 -576.5 189.5t-220.5 513.5zM1280 53q278 0 431 178.5t153 509.5q0 338 -148.5 513.5t-435.5 175.5q-279 0 -432.5 -180.5t-153.5 -516.5q0 -327 151.5 -503.5t434.5 -176.5z" />
    <glyph glyph-name="uni042F" unicode="&#x42f;" horiz-adv-x="1290" 
d="M960 723v-397q0 -160 -15 -326q46 8 101 8t100 -8q-6 72 -10 305.5t-4 442.5q0 165 1 381.5t13 355.5l-96 -8q-47 0 -179 4t-167 4q-490 0 -490 -352q0 -324 435 -402q-76 -102 -187 -242q-121 -151 -210 -262.5t-181 -226.5q23 4 59.5 6t67.5 2l127 -8
q115 166 169 239.5t101 135.5l236 303q37 49 88 49zM960 791l-72 -5q-485 0 -485 320q0 297 375 297l167 -6q9 -60 12 -109t3 -117v-380z" />
    <glyph glyph-name="uni0430" unicode="&#x430;" horiz-adv-x="1044" 
d="M159 807v123q80 55 166 84.5t180 29.5q174 0 265.5 -89t91.5 -271v-506q0 -47 8 -71.5t41 -24.5q28 0 50 7t40 17l16 -49q-49 -30 -86 -43.5t-65 -13.5q-70 0 -103 18q-57 31 -67 117l-76 -65q-43 -37 -100 -60q-78 -30 -168 -30q-119 0 -203 73.5t-84 192.5
q0 157 113 229q82 51 286 82q144 21 188 46.5t44 98.5q0 123 -66.5 192t-187.5 69q-107 0 -184 -60q-60 -45 -76 -96h-23zM696 539l-162 -33q-162 -33 -227.5 -84t-65.5 -148q0 -102 51.5 -155t141.5 -53q123 0 192.5 99t69.5 265v109z" />
    <glyph glyph-name="uni0431" unicode="&#x431;" horiz-adv-x="1114" 
d="M270 840q127 204 350 204q203 0 321.5 -133t118.5 -364q0 -254 -133 -410.5t-348 -156.5q-203 0 -332 104q-172 139 -172 438q0 592 195 781q178 174 723 174q-15 -33 -15 -125q-53 6 -105.5 13t-135.5 7q-250 0 -353 -108q-114 -121 -114 -424zM571 963
q-154 0 -236 -127t-82 -371q0 -410 297 -410q154 0 240 126t86 362q0 207 -78 313.5t-227 106.5z" />
    <glyph glyph-name="uni0432" unicode="&#x432;" horiz-adv-x="1017" 
d="M53 0q4 35 6 208t2 329q0 149 -4 256.5t-8 250.5q74 -8 176 -8q62 0 137.5 2t161.5 6q197 0 301.5 -63t104.5 -182q0 -103 -82 -164q-68 -51 -174 -64v-8q182 -33 245 -98q56 -57 56 -154q0 -164 -148 -254q-127 -77 -297 -77q-172 0 -321 135q-56 -43 -115 -115h-41z
M518 66q92 0 174 61q92 70 92 170q0 94 -74.5 158.5t-179.5 64.5q-37 0 -76.5 -1t-72.5 -7l6 47l-6 47q18 -4 59 -6t68 -2q231 0 231 186q0 78 -61.5 126t-177.5 48q-70 0 -130.5 -9t-132.5 -29q-16 -148 -16 -256v-293q0 -156 92 -236q80 -69 205 -69z" />
    <glyph glyph-name="uni0433" unicode="&#x433;" horiz-adv-x="897" 
d="M810 215l-4 -127q-78 -55 -167 -81.5t-228 -26.5q-156 0 -246 71.5t-90 192.5q0 162 123 229q51 29 260 80q104 25 149 88q37 51 37 127q0 70 -53 117q-63 57 -178 57q-107 0 -184 -59q-60 -45 -76 -97h-23v123q80 56 168 85.5t183 29.5q172 0 264 -88q71 -68 71 -156
q0 -157 -127 -225q-14 -8 -299 -98q-51 -17 -93 -69t-42 -112q0 -92 65.5 -153.5t164.5 -61.5q92 0 168.5 38t156.5 116z" />
    <glyph glyph-name="uni0434" unicode="&#x434;" horiz-adv-x="1189" 
d="M897 145v13q-115 -178 -346 -178q-209 0 -329 141t-120 401q0 250 118 386t331 136q229 0 358 -215q0 56 -2 100t-6 95q43 -8 92 -8q43 0 74 8q0 -61 -5.5 -242.5t-5.5 -242.5q0 -101 3.5 -218.5t7.5 -216.5q0 -290 -95 -462q-129 -236 -417 -236q-101 0 -170 16
q-109 27 -199 99q33 88 47 229q49 -127 138 -194.5t220 -67.5q134 0 205 72q101 100 101 352v233zM604 963q-154 0 -236 -127t-82 -371q0 -410 297 -410q154 0 240 126t86 362q0 207 -78 313.5t-227 106.5z" />
    <glyph glyph-name="uni0435" unicode="&#x435;" horiz-adv-x="1097" 
d="M267 600h572v37q0 162 -72 250t-198 88q-127 0 -214.5 -101.5t-87.5 -273.5zM958 104q-168 -124 -369 -124q-229 0 -370.5 147t-141.5 383q0 244 137 389t363 145q209 0 321.5 -120.5t112.5 -348.5v-51h-748q0 -225 94.5 -341.5t270.5 -116.5q186 0 336 147
q-4 -25 -5 -62.5t-1 -46.5z" />
    <glyph glyph-name="uni0436" unicode="&#x436;" horiz-adv-x="1617" 
d="M730 1024q39 -8 89 -8h47q32 6 45 8v-8q-4 -49 -7.5 -115.5t-3.5 -132.5v-150q0 -36 37 -36q105 0 453 442q41 -8 96 -8h53q29 6 41 8q-53 -37 -122 -98q-62 -54 -158 -146l-197 -184l510 -596q-24 4 -58 6t-63 2q-63 0 -112 -8q-398 537 -459 537q-21 0 -21 -29
q0 -131 5.5 -302t5.5 -206q-17 4 -42.5 6t-49.5 2q-50 0 -89 -8q0 119 5.5 299t5.5 209t-21 29q-26 0 -142 -133.5t-317 -403.5q-49 8 -112 8h-50.5t-70.5 -8l510 596l-197 184q-92 88 -155 144q-72 63 -125 100q47 -8 94 -8q55 0 96 8q166 -211 301 -336q115 -106 152 -106
t37 36q0 89 -5.5 234t-5.5 172z" />
    <glyph glyph-name="uni0437" unicode="&#x437;" horiz-adv-x="942" 
d="M583 547q152 -27 227.5 -83t75.5 -169q0 -145 -141 -230t-346 -85q-106 0 -192.5 21.5t-149.5 55.5l55 166q58 -73 138.5 -120.5t171.5 -47.5q153 0 225 84q49 58 49 129q0 107 -75 171.5t-189 64.5l-142 -8l5 47l-5 47l142 -8q94 0 149 43q68 53 68 155
q0 86 -62.5 140.5t-164.5 54.5q-101 0 -175 -43q-59 -35 -98 -90l-18 2l-39 112q78 45 164 66.5t180 21.5q164 0 272 -57q131 -69 131 -205q0 -106 -80 -164q-61 -45 -176 -63v-8z" />
    <glyph glyph-name="uni0438" unicode="&#x438;" horiz-adv-x="1191" 
d="M847 0q4 12 7.5 37.5t3.5 54.5v37q-7 35 -7 45q-106 -194 -348 -194q-342 0 -342 354v205q0 114 -2 184q-8 281 -8 301q39 -8 88 -8h47q33 6 45 8q0 -102 -5 -274t-5 -211q0 -283 53 -371t195 -88q184 0 248 151q41 97 41 308q0 127 -2.5 279.5t-8.5 205.5q39 -8 88 -8
h47q33 6 46 8q0 -102 -5.5 -274t-5.5 -211q0 -125 5.5 -318.5t5.5 -220.5q-17 4 -42.5 6t-50.5 2q-49 0 -88 -8z" />
    <glyph glyph-name="uni0439" unicode="&#x439;" horiz-adv-x="1191" 
d="M847 0q4 12 7.5 37.5t3.5 54.5v37q-7 35 -7 45q-106 -194 -348 -194q-342 0 -342 354v205q0 114 -2 184q-8 281 -8 301q39 -8 88 -8h47q33 6 45 8q0 -102 -5 -274t-5 -211q0 -283 53 -371t195 -88q184 0 248 151q41 97 41 308q0 127 -2.5 279.5t-8.5 205.5q39 -8 88 -8
h47q33 6 46 8q0 -102 -5.5 -274t-5.5 -211q0 -125 5.5 -318.5t5.5 -220.5q-17 4 -42.5 6t-50.5 2q-49 0 -88 -8zM301 1143q38 217 204 217q45 0 101 -14q127 -33 145 -33q45 0 65.5 19.5t36.5 76.5h54q-37 -225 -207 -225q-37 0 -92 14q-142 37 -152 37q-69 0 -100 -92h-55z
" />
    <glyph glyph-name="uni043A" unicode="&#x43a;" horiz-adv-x="1054" 
d="M347 1024v-8q-4 -49 -7 -115.5t-3 -132.5v-150q0 -36 37 -36q104 0 452 442q41 -8 97 -8h53q29 6 41 8q-53 -37 -123 -98q-61 -54 -158 -146l-196 -184l510 -596q-25 4 -58.5 6t-62.5 2q-64 0 -113 -8q-397 537 -459 537q-20 0 -20 -29q0 -131 5 -302t5 -206
q-16 4 -41.5 6t-50.5 2q-49 0 -88 -8q0 115 5 307.5t5 231.5q0 114 -2 184q-8 281 -8 301q39 -8 88 -8h47q33 6 45 8z" />
    <glyph glyph-name="uni043B" unicode="&#x43b;" horiz-adv-x="1046" 
d="M30 0q49 104 139 303q82 182 160 369q92 223 137 352l66 -6l67 6q76 -209 185 -475q127 -313 233 -549q-24 4 -44.5 6t-53.5 2l-94 -8q-99 322 -316 821q-24 -22 -92 -178q-55 -129 -131 -328q-55 -143 -117 -315q-24 6 -35.5 7t-33.5 1q-37 0 -70 -8z" />
    <glyph glyph-name="uni043C" unicode="&#x43c;" horiz-adv-x="1449" 
d="M73 0l147 1024h60q131 -260 233 -442q121 -217 222 -367q73 127 209.5 382t222.5 427h59q16 -141 49 -418q72 -594 74 -606q-31 4 -48.5 6t-47.5 2l-95 -8q0 162 -18 352q-10 109 -41 342q-108 -176 -201 -338q-106 -188 -190 -356h-49q-92 180 -193 354
q-90 158 -205 340q-51 -379 -59 -461q-14 -135 -14 -233q-29 8 -58 8q-28 0 -57 -8z" />
    <glyph glyph-name="uni043D" unicode="&#x43d;" horiz-adv-x="1208" 
d="M345 1024q0 -68 -5 -229.5t-5 -198.5q61 -6 158.5 -8t109.5 -2q90 0 160 3t104 7q0 70 -5 232.5t-5 195.5q39 -8 88 -8h47q33 6 45 8q0 -102 -5 -274t-5 -211q0 -125 5 -318.5t5 -220.5q-16 4 -41.5 6t-50.5 2q-49 0 -88 -8q0 88 5 275.5t5 224.5q-57 6 -121.5 8
t-142.5 2q-88 0 -209 -6q-22 0 -59 -4q0 -117 5 -300.5t5 -199.5q-16 4 -41.5 6t-50.5 2q-49 0 -88 -8q0 115 5 307.5t5 231.5q0 114 -2 184q-8 281 -8 301q39 -8 88 -8h47q33 6 45 8z" />
    <glyph glyph-name="uni043E" unicode="&#x43e;" horiz-adv-x="1183" 
d="M591 -20q-225 0 -369.5 148t-144.5 384t146.5 384t367.5 148q227 0 370.5 -147t143.5 -385q0 -240 -144.5 -386t-369.5 -146zM591 49q160 0 245 113.5t85 337.5q0 233 -84 354t-248 121q-328 0 -328 -461q0 -465 330 -465z" />
    <glyph glyph-name="uni043F" unicode="&#x43f;" horiz-adv-x="1146" 
d="M347 1024q-8 -86 -9 -120t-1 -54q78 102 160 148t180 46q131 0 207 -90q102 -123 102 -415q0 -125 5 -318.5t5 -220.5q-16 4 -41.5 6t-50.5 2q-49 0 -88 -8q0 115 5 307.5t5 231.5q0 213 -48 303t-171 90q-139 0 -204.5 -102.5t-65.5 -290.5q0 -125 5 -318.5t5 -220.5
q-16 4 -41.5 6t-50.5 2q-49 0 -88 -8q0 115 5 307.5t5 231.5q0 114 -2 184q-8 281 -8 301q39 -8 88 -8h47q33 6 45 8z" />
    <glyph glyph-name="uni0440" unicode="&#x440;" horiz-adv-x="1212" 
d="M345 1024q-8 -82 -9 -118t-1 -62q68 104 152 152t204 48q211 0 325 -136t114 -398q0 -248 -125 -389t-330 -141q-223 0 -340 178v-281q0 -57 5 -226t5 -253q-39 8 -90 8q-49 0 -90 -8q0 57 5 366.5t5 581.5q0 223 -4 387t-6 291q20 -4 39.5 -6t48.5 -2q23 0 41 2t51 6z
M640 963q-153 0 -235 -127t-82 -371q0 -410 297 -410q153 0 239 126t86 362q0 207 -77.5 313.5t-227.5 106.5z" />
    <glyph glyph-name="uni0441" unicode="&#x441;" horiz-adv-x="1003" 
d="M954 86q-74 -57 -163 -81.5t-208 -24.5q-227 0 -367.5 144t-140.5 386q0 244 147.5 389t391.5 145q184 0 352 -88q-37 -88 -57 -186q-93 205 -295 205q-172 0 -267.5 -122t-95.5 -341q0 -213 103.5 -335t275.5 -122t326 156l-7 -80z" />
    <glyph glyph-name="uni0442" unicode="&#x442;" horiz-adv-x="995" 
d="M32 1024q80 0 241.5 -4t215.5 -4q82 0 267 4t198 4l-4 -59l4 -60q-91 17 -158.5 23t-212.5 6q0 -55 -4 -215t-4 -180q0 -125 5 -318.5t5 -220.5q-16 4 -42 6t-50 2q-49 0 -88 -8q0 115 5 307.5t5 231.5q0 69 -4 204.5t-4 190.5q-117 0 -214.5 -8t-160.5 -21q6 23 6 60z
" />
    <glyph glyph-name="uni0443" unicode="&#x443;" horiz-adv-x="1013" 
d="M450 6l-90 240q-41 102 -102 246q-72 165 -238 532q47 -8 106 -8h64q29 6 41 8q33 -117 82 -249t151 -380l76 -186l78 180q160 367 244 635q30 -8 73 -8h35q25 6 37 8q-49 -94 -98 -201.5t-109 -244.5l-291 -658q-86 -194 -120 -282q-54 -134 -78 -230q-31 6 -40 7t-34 1
l-76 -8q62 105 111 203q27 51 129 280z" />
    <glyph glyph-name="uni0444" unicode="&#x444;" horiz-adv-x="1710" 
d="M766 526q0 203 -67.5 317.5t-196.5 114.5q-127 0 -200 -111.5t-73 -320.5q0 -178 60 -299q73 -149 219 -149q114 0 186 114.5t72 333.5zM925 170q0 -242 4.5 -411t18.5 -332q-16 4 -55 6t-43 2h-46.5t-58.5 -8q0 98 10.5 337.5t10.5 405.5q-45 -72 -113 -119
q-86 -59 -188 -59q-156 0 -277 147q-135 164 -135 416q0 211 104 342q117 147 334 147q92 0 172 -67q49 -41 103 -121q0 145 -2 236q-9 360 -9 383l91 -9h45q32 7 45 9q0 -123 -5.5 -346.5t-5.5 -272.5q39 66 105 117q90 71 182 71q225 0 334 -149q92 -127 92 -344
q0 -252 -129 -414q-117 -145 -270 -145q-105 0 -195 57q-71 47 -119 121zM925 526q0 -219 74 -338q68 -110 184 -110q146 0 220 149q59 121 59 299q0 209 -71.5 320.5t-200.5 111.5q-127 0 -196 -115.5t-69 -316.5z" />
    <glyph glyph-name="uni0445" unicode="&#x445;" horiz-adv-x="1019" 
d="M475 430l-154 -194q-96 -121 -151 -236q-17 4 -38.5 6t-39.5 2q-43 0 -82 -8q86 90 156 174q37 45 112 145l144 187l-103 143q-63 88 -135 182.5t-149 192.5q49 -8 110 -8h68q30 6 43 8l96 -143l176 -252l129 168q62 77 101.5 133.5t58.5 93.5q20 -4 36.5 -6t41.5 -2
q20 0 38.5 2t41.5 6q-164 -182 -267 -309l-129 -160l203 -283q27 -36 59 -82q64 -84 152 -190q-55 8 -117 8h-45.5t-64.5 -8q-37 61 -94 150q-50 73 -117 169z" />
    <glyph glyph-name="uni0446" unicode="&#x446;" horiz-adv-x="1148" 
d="M763 174q-106 -194 -348 -194q-342 0 -342 354v205q0 114 -2 184q-8 281 -8 301q39 -8 88 -8h47q33 6 45 8q0 -102 -5 -274t-5 -211q0 -283 53 -371t195 -88q184 0 248 151q41 97 41 308q0 114 -2 184q-9 281 -9 301q39 -8 88 -8h47q33 6 46 8q0 -102 -5.5 -274
t-5.5 -211q0 -336 8.5 -407t49.5 -71q34 0 133 29l6 -8q0 -279 -62 -375q-69 -108 -286 -141l-19 43q133 22 174 96t41 295h-41q-88 0 -122 29q-48 39 -48 145z" />
    <glyph glyph-name="uni0447" unicode="&#x447;" horiz-adv-x="987" 
d="M729 592q-55 -98 -117 -139q-88 -62 -237 -62q-105 0 -199 70q-123 92 -123 252q0 78 -2 168t-8 143q39 -8 94 -8h51q27 6 35 8q0 -76 -3 -146.5t-7 -156.5q0 -98 66.5 -160.5t173.5 -62.5q104 0 174 55q102 82 102 266q0 41 -2 96.5t-8 108.5q39 -8 88 -8h47q33 6 45 8
q0 -102 -5 -274t-5 -211q0 -125 5 -318.5t5 -220.5q-16 4 -42 6t-50 2q-49 0 -88 -8q0 121 5 334t5 258z" />
    <glyph glyph-name="uni0448" unicode="&#x448;" horiz-adv-x="1658" 
d="M1392 182q-80 -106 -155.5 -154t-169.5 -48q-105 0 -183.5 58t-107.5 159q-127 -217 -346 -217q-156 0 -241 91t-85 267l6 201q0 114 -2 184q-8 281 -8 301q39 -8 88 -8h47q33 6 45 8q0 -102 -5 -274t-5 -211q0 -271 42 -357t177 -86q154 0 215 133q47 103 47 310
q0 114 -2 184q-8 281 -8 301q39 -8 88 -8h47q33 6 45 8q0 -102 -5 -274t-5 -211q0 -271 40 -357t165 -86q166 0 229 133q47 99 47 310q0 100 -4 234t-6 251q39 -8 88 -8h47q33 6 45 8q0 -102 -5 -274t-5 -211q0 -125 5 -318.5t5 -220.5q-16 4 -41.5 6t-50.5 2q-49 0 -88 -8
q10 88 10 182z" />
    <glyph glyph-name="uni0449" unicode="&#x449;" horiz-adv-x="1771" 
d="M1386 174q-78 -102 -151.5 -148t-167.5 -46q-105 0 -183.5 58t-107.5 159q-127 -217 -346 -217q-156 0 -241 91t-85 267l6 201q0 114 -2 184q-8 281 -8 301q39 -8 88 -8h47q33 6 45 8q0 -102 -5 -274t-5 -211q0 -271 42 -357t177 -86q154 0 215 133q47 103 47 310
q0 114 -2 184q-8 281 -8 301q39 -8 88 -8h47q33 6 45 8q0 -102 -5 -274t-5 -211q0 -271 40 -357t165 -86q166 0 229 133q47 99 47 310q0 114 -2 184q-8 281 -8 301q39 -8 88 -8h47q33 6 45 8q0 -102 -5 -274t-5 -211q0 -344 8 -411t49 -67q35 0 133 29l7 -8q0 -279 -62 -375
q-69 -108 -287 -141l-18 43q133 22 174 96t41 295h-41q-88 0 -123 29q-47 39 -47 145z" />
    <glyph glyph-name="uni044A" unicode="&#x44a;" horiz-adv-x="1132" 
d="M16 1024q8 0 55 -4t92 -4q27 0 113 4t123 4q0 -78 -8 -239.5t-8 -245.5v-191q0 -143 79 -223q70 -70 172 -70q105 0 165.5 67.5t60.5 217.5q0 137 -56.5 212t-169.5 75q-22 0 -63 -10.5t-72 -28.5l-26 39q14 18 61 39q66 28 129 28q205 0 305 -110q82 -90 82 -228
q0 -182 -107.5 -279t-303.5 -97q-48 0 -111 22q-92 33 -154 100q-32 -26 -51.5 -43.5t-52.5 -58.5h-51q0 76 3 243t7 296q0 114 -2 213.5t-4 187.5q-60 0 -110 -7t-95 -18l4 48z" />
    <glyph glyph-name="uni044B" unicode="&#x44b;" horiz-adv-x="1409" 
d="M1322 1024q0 -102 -5 -274t-5 -211q0 -125 5 -318.5t5 -220.5q-16 4 -41.5 6t-50.5 2q-49 0 -88 -8q0 115 5 307.5t5 231.5q0 114 -2 184q-8 281 -8 301q39 -8 88 -8h47q33 6 45 8zM120 0h-47q0 70 5 281t5 258q0 114 -2 184q-8 281 -8 301q39 -8 88 -8h47q33 6 45 8
q0 -102 -5 -274t-5 -211v-191q0 -143 78 -223q69 -70 172 -70q104 0 164.5 67.5t60.5 217.5q0 137 -56.5 212t-168.5 75q-23 0 -64 -10.5t-71 -28.5l-27 39q14 18 61 39q66 28 130 28q204 0 305 -110q82 -90 82 -228q0 -184 -106.5 -280t-305.5 -96q-47 0 -111 22
q-92 33 -153 100q-37 -24 -58.5 -43.5t-54.5 -58.5z" />
    <glyph glyph-name="uni044C" unicode="&#x44c;" horiz-adv-x="983" 
d="M116 0h-47q0 63 5 261t5 278q0 114 -2 184q-8 281 -8 301q39 -8 88 -8h47q33 6 45 8q0 -102 -5 -274t-5 -211v-191q0 -143 78 -223q69 -70 172 -70q104 0 164.5 67.5t60.5 217.5q0 137 -56.5 212t-168.5 75q-23 0 -64 -10.5t-71 -28.5l-27 39q14 18 61 39q66 28 130 28
q204 0 305 -110q82 -90 82 -228q0 -184 -106.5 -280t-305.5 -96q-47 0 -111 22q-92 33 -153 100q-37 -24 -58.5 -43.5t-54.5 -58.5z" />
    <glyph glyph-name="uni044D" unicode="&#x44d;" horiz-adv-x="1003" 
d="M788 565q0 195 -99.5 302.5t-263.5 107.5q-202 0 -295 -205q-20 98 -57 186q168 88 352 88q244 0 391.5 -145t147.5 -389t-139.5 -387t-368.5 -143q-117 0 -208 25.5t-163 80.5l4 45l-6 80q154 -156 326 -156q168 0 273.5 116t105.5 318h-209q-72 0 -135.5 -4t-122.5 -10
v105q57 -5 136 -10t122 -5h209z" />
    <glyph glyph-name="uni044E" unicode="&#x44e;" horiz-adv-x="1497" 
d="M235 498q0 -115 5 -293t5 -205q-16 4 -41.5 6t-50.5 2q-49 0 -88 -8q0 115 5 307.5t5 231.5q0 114 -2 184q-8 281 -8 301q39 -8 88 -8h47q33 6 45 8q0 -98 -2 -160q-8 -246 -8 -270h156q26 203 168.5 326.5t345.5 123.5q227 0 370.5 -147t143.5 -385q0 -240 -144.5 -386
t-369.5 -146q-222 0 -368 144t-146 374h-156zM905 49q159 0 244 113.5t85 337.5q0 233 -84 354t-247 121q-328 0 -328 -461q0 -465 330 -465z" />
    <glyph glyph-name="uni044F" unicode="&#x44f;" horiz-adv-x="983" 
d="M930 1028q0 -90 -5.5 -240.5t-5.5 -248.5q0 -125 5.5 -318.5t5.5 -220.5q-17 4 -42.5 6t-50.5 2q-49 0 -88 -8q0 115 5.5 307.5t5.5 231.5v170q0 135 -76 204q-62 58 -150 58q-96 0 -164 -62q-79 -71 -79 -196q0 -129 69 -199q62 -61 150 -61q35 0 53 6l12 4l11 -27
q-54 -41 -129 -141q-115 -160 -213 -295q-7 2 -38.5 5t-72.5 3q-37 0 -72 -2t-53 -6q90 88 199 211q71 80 176 205l-19 4q-102 22 -178 100q-86 90 -86 207q0 150 115 235t276 85q92 0 156 -23q86 -31 141 -100l101 104h41z" />
    <glyph glyph-name="uni0451" unicode="&#x451;" horiz-adv-x="1097" 
d="M267 600h572v37q0 162 -72 250t-198 88q-127 0 -214.5 -101.5t-87.5 -273.5zM958 104q-168 -124 -369 -124q-229 0 -370.5 147t-141.5 383q0 244 137 389t363 145q209 0 321.5 -120.5t112.5 -348.5v-51h-748q0 -225 94.5 -341.5t270.5 -116.5q186 0 336 147
q-4 -25 -5 -62.5t-1 -46.5zM263 1403q0 47 31 77.5t78 30.5q45 0 78 -30.5t33 -77.5q0 -45 -33 -78t-78 -33q-47 0 -78 31t-31 80zM595 1403q0 47 31 77.5t78 30.5q45 0 77.5 -30.5t32.5 -77.5q0 -45 -32.5 -78t-77.5 -33q-47 0 -78 31t-31 80z" />
    <glyph glyph-name="uni0452" unicode="&#x452;" horiz-adv-x="1153" 
d="M1024 395q0 -195 -26 -346t-79.5 -253.5t-134.5 -156t-192 -53.5q-20 0 -48 5.5t-52 13.5v90q22 -8 52 -15.5t50 -7.5q94 0 158 50t103 143.5t56 226.5t17 299q0 148 -21.5 252.5t-63 170.5t-102.5 96t-139 30q-59 0 -117 -25t-104 -75t-74 -124.5t-28 -172.5v-543h-93
v1231h-135v84h135v201h93v-201h389v-84h-389v-420h4q24 42 55.5 81t72.5 68t92 46.5t113 17.5q107 0 184 -44t127 -125.5t73.5 -198t23.5 -261.5z" />
    <glyph glyph-name="uni0453" unicode="&#x453;" horiz-adv-x="694" 
d="M899 215l-4 -127q-78 -55 -167 -81.5t-228 -26.5q-156 0 -246 71.5t-90 192.5q0 162 123 229q51 29 260 80q104 25 149 88q37 51 37 127q0 70 -53 117q-63 57 -178 57q-107 0 -184 -59q-60 -45 -76 -97h-23v123q80 56 168 85.5t183 29.5q172 0 264 -88q71 -68 71 -156
q0 -157 -127 -225q-14 -8 -299 -98q-51 -17 -93 -69t-42 -112q0 -92 65.5 -153.5t164.5 -61.5q92 0 168.5 38t156.5 116zM463 1188h-90l234 328h104z" />
    <glyph glyph-name="uni0454" unicode="&#x454;" horiz-adv-x="918" 
d="M827 45q-38 -25 -107 -47.5t-165 -22.5q-106 0 -192 38t-146.5 106.5t-93.5 164t-33 210.5q0 126 39 228t107.5 175t162.5 112.5t205 39.5q69 0 127 -14.5t100 -33.5v-104q-42 26 -101.5 47t-139.5 21q-86 0 -157 -30.5t-123 -85.5t-83.5 -131t-38.5 -167h502v-80h-504
q4 -97 33.5 -173.5t79 -129.5t116 -81t144.5 -28q90 0 158 25t110 57v-96v0z" />
    <glyph glyph-name="uni0455" unicode="&#x455;" horiz-adv-x="795" 
d="M775 322q0 -148 -105.5 -245t-277.5 -97q-168 0 -281 77q14 39 28.5 84t22.5 84q107 -164 266 -164q97 0 153 52.5t56 144.5q0 74 -40 113t-130 65l-100 29q-125 35 -180.5 99.5t-55.5 178.5q0 131 91.5 216t242.5 85q76 0 144.5 -18t126.5 -53q-35 -80 -45 -137
q-123 143 -252 143q-82 0 -133.5 -49t-51.5 -133q0 -74 38 -115t126 -68l148 -43q110 -32 159.5 -89.5t49.5 -159.5z" />
    <glyph glyph-name="uni0457" unicode="&#x457;" horiz-adv-x="420" 
d="M164 0v1024h92v-1024h-92zM377 1188q-27 0 -49 19.5t-22 52.5q0 31 21.5 50t47.5 19q29 0 52.5 -19.5t23.5 -49.5q0 -31 -21.5 -51.5t-52.5 -20.5zM44 1188q-28 0 -50 19.5t-22 52.5q0 31 22 50t48 19q29 0 52 -19.5t23 -49.5q0 -31 -21 -51.5t-52 -20.5z" />
    <glyph glyph-name="uni0459" unicode="&#x459;" horiz-adv-x="1583" 
d="M1473 307q0 -78 -27 -136t-71 -96t-99.5 -56.5t-112.5 -18.5h-393v940h-299q-17 -228 -44.5 -405.5t-72 -299.5t-109.5 -185.5t-157 -63.5q-15 0 -30.5 2.5t-26.5 5.5v82q8 -3 26 -5.5t29 -2.5q67 0 117 62.5t86 184t60.5 300t39.5 409.5h473v-420h293q74 0 133 -20
t100 -58.5t63 -93.5t22 -125zM1376 307q0 45 -14.5 84t-44.5 67.5t-75 45t-105 16.5h-275v-436h277q64 0 109.5 17.5t73.5 48t41 71t13 86.5z" />
    <glyph glyph-name="uni045A" unicode="&#x45a;" horiz-adv-x="1673" 
d="M1563 303q0 -78 -27 -135.5t-71 -94.5t-99.5 -55t-112.5 -18h-393v512h-604v-512h-92v1024h92v-428h604v428h92v-428h293q74 0 133 -19.5t100 -57t63 -92t22 -124.5zM1466 303q0 45 -14.5 83.5t-44 66.5t-74.5 43.5t-106 15.5h-275v-428h277q64 0 109.5 17t73.5 46.5
t41 69.5t13 86z" />
    <glyph glyph-name="uni045B" unicode="&#x45b;" horiz-adv-x="1118" 
d="M883 0v590q0 181 -66.5 265.5t-206.5 84.5q-29 0 -65 -7.5t-72.5 -25.5t-71.5 -48t-62 -74t-43.5 -104t-16.5 -138v-543h-93v1231h-135v84h135v201h93v-201h389v-84h-389v-416h4q24 44 58.5 82t78.5 66.5t97.5 44.5t117.5 16q86 0 150 -28.5t106 -82t63 -130t21 -173.5
v-610h-92z" />
    <glyph glyph-name="uni045C" unicode="&#x45c;" horiz-adv-x="891" 
d="M344 1024v-8q-4 -49 -7 -115.5t-3 -132.5v-150q0 -36 37 -36q104 0 452 442q41 -8 97 -8h53q29 6 41 8q-53 -37 -123 -98q-61 -54 -158 -146l-196 -184l510 -596q-25 4 -58.5 6t-62.5 2q-64 0 -113 -8q-397 537 -459 537q-20 0 -20 -29q0 -131 5 -302t5 -206
q-16 4 -41.5 6t-50.5 2q-49 0 -88 -8q0 115 5 307.5t5 231.5q0 114 -2 184q-8 281 -8 301q39 -8 88 -8h47q33 6 45 8zM511 1188h-90l234 328h104z" />
    <glyph glyph-name="uni045E" unicode="&#x45e;" horiz-adv-x="928" 
d="M450 6l-90 240q-41 102 -102 246q-72 165 -238 532q47 -8 106 -8h64q29 6 41 8q33 -117 82 -249t151 -380l76 -186l78 180q160 367 244 635q30 -8 73 -8h35q25 6 37 8q-49 -94 -98 -201.5t-109 -244.5l-291 -658q-86 -194 -120 -282q-54 -134 -78 -230q-31 6 -40 7t-34 1
l-76 -8q62 105 111 203q27 51 129 280zM476 1266q58 0 104.5 17t80 46t53 67t24.5 79h98q-10 -54 -37.5 -105.5t-72.5 -91.5t-108 -64t-143 -24t-140 24t-101 64t-65.5 91.5t-34.5 105.5h98q5 -41 22 -79t47 -67t73 -46t100 -17h2z" />
    <glyph glyph-name="uni045F" unicode="&#x45f;" horiz-adv-x="1116" 
d="M602 0v-373h-84v373h-354v1024h92v-940h604v940h92v-1024h-350z" />
    <glyph glyph-name="uni0490" unicode="&#x490;" horiz-adv-x="918" 
d="M283 1343v-1343h-99v1434h578v264h96v-355h-575z" />
    <glyph glyph-name="uni0491" unicode="&#x491;" horiz-adv-x="743" 
d="M256 940v-940h-92v1024h434v270h84v-354h-426z" />
    <glyph glyph-name="uni2015" unicode="&#x2015;" horiz-adv-x="2048" 
d="M0 555v90h2048v-90h-2048z" />
    <glyph glyph-name="uni2116" unicode="&#x2116;" horiz-adv-x="2254" 
d="M129 0q6 63 10 475t4 805v231h41q193 -223 375 -421q137 -150 358 -379q195 -203 334 -342l4 190q0 223 -5 449.5t-9 476.5q31 -8 68 -8t63 8q0 -160 -7 -509t-7 -513l4 -492h-29q-98 123 -243 285q-130 143 -312 336l-526 553l-6 -283q0 -6 10 -473q4 -186 4 -389
q-33 8 -70 8q-34 0 -61 -8zM1851 1325q142 0 234 -96t92 -254q0 -168 -96.5 -262.5t-251.5 -94.5q-141 0 -227.5 96.5t-86.5 258.5q0 153 95.5 252.5t240.5 99.5zM1849 1260q-82 0 -128 -75t-46 -206q0 -158 41 -226.5t133 -68.5q168 0 168 279q0 157 -38 227t-130 70z
M1542 307v139h572v-139h-572z" />
    <glyph glyph-name="pi" unicode="&#x3c0;" horiz-adv-x="1284" 
d="M930 940v-692q0 -176 137 -176q14 0 63 10v-80q-39 -14 -86 -14q-101 0 -153.5 68t-52.5 188v696h-471v-682q0 -150 -23 -258h-94q24 98 24 258v682q-119 -4 -237 -68v97q110 55 237 55h869v-84h-213z" />
    <glyph glyph-name="currency" unicode="&#xa4;" horiz-adv-x="1139" 
d="M946 293l-135 135q-105 -86 -242 -86q-140 0 -241 86l-135 -135l-60 61l137 131q-84 116 -84 240q0 140 84 240l-137 133l60 61l135 -135q113 84 241 84q137 0 240 -84l137 135l60 -61l-138 -133q84 -101 84 -240q0 -132 -84 -240l138 -131zM571 1024q-128 0 -214.5 -88
t-86.5 -209t89.5 -211t209.5 -90q122 0 210.5 89t88.5 212q0 126 -90 211.5t-207 85.5z" />
    <glyph glyph-name="uni0406" unicode="&#x406;" horiz-adv-x="467" 
d="M385 1485q-6 -72 -10.5 -300.5t-4.5 -436.5q0 -168 1 -388.5t14 -359.5q-45 8 -101 8q-55 0 -100 -8q6 72 10 305.5t4 442.5q0 165 -1 381.5t-13 355.5q45 -8 100 -8q56 0 101 8z" />
    <glyph glyph-name="uni0408" unicode="&#x408;" horiz-adv-x="664" 
d="M483 1485q-6 -72 -10 -300.5t-4 -436.5v-549q0 -248 -98.5 -363t-340.5 -139l-12 63q176 23 231 140q48 98 48 370v478q0 165 -1.5 381.5t-13.5 355.5q45 -8 101 -8q55 0 100 8z" />
    <glyph glyph-name="uni0456" unicode="&#x456;" horiz-adv-x="420" 
d="M133 1403q0 47 30.5 77.5t78.5 30.5q45 0 77.5 -30.5t32.5 -77.5q0 -45 -32.5 -78t-77.5 -33q-48 0 -78.5 31t-30.5 80zM336 1024q0 -102 -5 -274t-5 -211q0 -125 5 -318.5t5 -220.5q-17 4 -42.5 6t-49.5 2q-50 0 -88 -8q0 115 5 307.5t5 231.5q0 114 -2 184
q-8 281 -8 301q38 -8 88 -8h47q32 6 45 8z" />
    <glyph glyph-name="uni0458" unicode="&#x458;" horiz-adv-x="420" 
d="M-238 -592l-14 45q154 19 197 154q32 102 32 420v512q0 114 -2 184q-8 281 -8 301q39 -8 88 -8h47q33 6 45 8q0 -102 -5 -274t-5 -211q0 -78 5 -336t5 -295q0 -250 -83 -363.5t-302 -136.5zM-57 1403q0 47 30.5 77.5t77.5 30.5q45 0 78 -30.5t33 -77.5q0 -45 -33 -78
t-78 -33q-47 0 -77.5 31t-30.5 80z" />
    <glyph glyph-name="glyph475" horiz-adv-x="1190" 
d="M604 1266q58 0 104.5 17t80 46t53 67t24.5 79h98q-10 -54 -37.5 -105.5t-72.5 -91.5t-108 -64t-143 -24t-140 24t-101 64t-65.5 91.5t-34.5 105.5h98q5 -41 22 -79t47 -67t73 -46t100 -17h2z" />
    <glyph glyph-name="uni00B2" unicode="&#xb2;" horiz-adv-x="674" 
d="M596 884h-518v100l239 234q61 59 97.5 102t56 77t25.5 62.5t6 59.5q0 153 -158 153q-109 0 -221 -98v102q56 38 112 58t115 20q57 0 102 -16t76.5 -45.5t48.5 -70.5t17 -91q0 -39 -9.5 -77t-34 -81t-67 -94t-108.5 -115l-193 -186v-4h414v-90z" />
    <glyph glyph-name="uni00B3" unicode="&#xb3;" horiz-adv-x="674" 
d="M561 1111q0 -54 -19 -100t-55 -79.5t-88 -53t-118 -19.5q-107 0 -193 47v96q100 -63 195 -63q91 0 141.5 47t50.5 125q0 168 -235 168h-70v80h61q215 0 215 172q0 137 -153 137q-71 0 -172 -53v90q49 23 96.5 34t93.5 11q52 0 93.5 -15t70.5 -42.5t44.5 -65.5t15.5 -84
q0 -162 -148 -215v-4q85 -19 129.5 -77t44.5 -136z" />
    <glyph glyph-name="uni00B9" unicode="&#xb9;" horiz-adv-x="674" 
d="M600 884h-471v82h195v682l-209 -70v88l295 94v-794h190v-82z" />
    <glyph glyph-name="uniF002" unicode="&#xf002;" horiz-adv-x="1993" 
d="M1006 -221q-31 16 -86.5 51.5t-125 87.5t-148 118t-155.5 143t-148 162t-125 174t-86 181t-32 183q0 43 11 91t32.5 95t53 90t73 75.5t92.5 52t112 19.5q68 0 140 -22.5t147 -67.5l225 -389l-328 -225l328 -738l61 615l410 328l-246 409q75 45 150 67.5t146 22.5
q64 0 117.5 -19.5t96.5 -52t75.5 -76t54 -90.5t32 -95t10.5 -91q0 -91 -32 -182.5t-85.5 -181t-123.5 -174.5t-146 -161.5t-153 -142.5t-144.5 -118t-121 -87.5t-81.5 -51.5z" />
    <glyph glyph-name="uniF003" unicode="&#xf003;" horiz-adv-x="1990" 
d="M1890 859q0 -92 -31.5 -184.5t-85 -181.5t-123.5 -173t-146 -159.5t-153.5 -139.5t-146.5 -113.5t-124 -82.5t-86 -45q-28 12 -81 45t-121 83t-146 114.5t-154.5 140t-147 160t-124.5 174t-86.5 182.5t-32.5 185q0 42 10.5 91t32 98t54 94t75.5 79.5t96.5 55t118.5 20.5
q59 0 122.5 -17.5t128.5 -54t129.5 -91.5t125.5 -130q54 69 118 121.5t131.5 88t135.5 54t132 18.5q66 0 120 -20.5t96 -55t73 -79t51 -92.5t29.5 -96t9.5 -89z" />
    <glyph glyph-name="uniF001" unicode="&#xf001;" horiz-adv-x="1648" 
d="M1541 527q-31 -120 -98.5 -220.5t-162 -174t-211.5 -115t-247 -41.5q-129 0 -245.5 41.5t-210.5 115t-161.5 174t-98.5 220.5h60q41 0 76.5 15t62 41t41.5 61t15 76q0 40 -15 75.5t-41.5 62t-62 41.5t-76.5 15h-58q32 119 99 219t161 172.5t209.5 112.5t244.5 40
q128 0 244 -41t210 -113.5t162 -172t100 -217.5h-665q-41 0 -76 -15t-61.5 -41.5t-41.5 -62t-15 -75.5q0 -41 15 -76t41.5 -61t61.5 -41t76 -15h668z" />
    <glyph glyph-name="uni2028" unicode="&#x2028;" horiz-adv-x="0" 
 />
    <glyph glyph-name="uni2029" unicode="&#x2029;" horiz-adv-x="0" 
 />
    <glyph glyph-name="uni202A" unicode="&#x202a;" horiz-adv-x="0" 
 />
    <glyph glyph-name="uni202B" unicode="&#x202b;" horiz-adv-x="0" 
 />
    <glyph glyph-name="uni202C" unicode="&#x202c;" horiz-adv-x="0" 
 />
    <glyph glyph-name="uni202D" unicode="&#x202d;" horiz-adv-x="0" 
 />
    <glyph glyph-name="uni202E" unicode="&#x202e;" horiz-adv-x="0" 
 />
    <glyph glyph-name="uni202F" unicode="&#x202f;" horiz-adv-x="280" 
 />
    <glyph glyph-name="uni2000" unicode="&#x2000;" horiz-adv-x="1024" 
 />
    <glyph glyph-name="uni2001" unicode="&#x2001;" horiz-adv-x="2048" 
 />
    <glyph glyph-name="uni2002" unicode="&#x2002;" horiz-adv-x="1024" 
 />
    <glyph glyph-name="uni2003" unicode="&#x2003;" horiz-adv-x="2048" 
 />
    <glyph glyph-name="uni2004" unicode="&#x2004;" horiz-adv-x="687" 
 />
    <glyph glyph-name="uni2005" unicode="&#x2005;" horiz-adv-x="512" 
 />
    <glyph glyph-name="uni2006" unicode="&#x2006;" horiz-adv-x="341" 
 />
    <glyph glyph-name="uni2007" unicode="&#x2007;" horiz-adv-x="1104" 
 />
    <glyph glyph-name="uni2008" unicode="&#x2008;" horiz-adv-x="444" 
 />
    <glyph glyph-name="uni2009" unicode="&#x2009;" horiz-adv-x="410" 
 />
    <glyph glyph-name="uni200A" unicode="&#x200a;" horiz-adv-x="256" 
 />
    <glyph glyph-name="uni200B" unicode="&#x200b;" horiz-adv-x="0" 
 />
    <glyph glyph-name="uni200C" unicode="&#x200c;" horiz-adv-x="0" 
 />
    <glyph glyph-name="uni200D" unicode="&#x200d;" horiz-adv-x="0" 
 />
    <glyph glyph-name="uni200E" unicode="&#x200e;" horiz-adv-x="0" 
 />
    <glyph glyph-name="uni200F" unicode="&#x200f;" horiz-adv-x="0" 
 />
    <glyph glyph-name="fraction" unicode="&#x2044;" horiz-adv-x="246" 
d="M-244 0h-98l862 1434h96z" />
    <glyph glyph-name="fraction" unicode="&#x2215;" horiz-adv-x="246" 
d="M-244 0h-98l862 1434h96z" />
    <glyph glyph-name="Wcircumflex" unicode="&#x174;" horiz-adv-x="1833" 
d="M516 0q-199 655 -465 1485q47 -8 104 -8h64q29 6 41 8q88 -330 175 -627t202 -653q215 588 407 1280q31 -8 70 -8h41q20 6 29 8q63 -207 129 -406q96 -295 139 -424q63 -186 149 -428q111 316 201 616t178 642q31 -8 70 -8h43q22 6 31 8l-496 -1485q-35 8 -76 8
q-49 0 -78 -12q-176 596 -399 1216q-119 -358 -185.5 -557.5t-133.5 -402.5q-48 -135 -89 -252q-32 8 -75 8h-31t-45 -8zM1100 1536l-157 239l-160 -239h-82l221 336h45l219 -336h-86z" />
    <glyph glyph-name="wcircumflex" unicode="&#x175;" horiz-adv-x="1386" 
d="M416 0q-62 254 -379 1024q20 -4 46 -6t50 -2q56 0 99 8q65 -264 270 -795q162 359 285 795q14 -4 28.5 -6t36.5 -2l62 8q71 -266 149 -487q68 -195 123 -306q68 142 164 400q61 168 137 393q37 -8 68 -8q28 0 65 8q-168 -377 -266 -618q-111 -271 -148 -406q-26 8 -63 8
q-39 0 -64 -8q-18 123 -266 782q-98 -235 -168.5 -439t-105.5 -343q-27 8 -62 8q-39 0 -61 -8zM882 1188l-157 239l-160 -239h-82l221 336h45l219 -336h-86z" />
    <glyph glyph-name="Ycircumflex" unicode="&#x176;" horiz-adv-x="1106" 
d="M571 0q0 55 7 163.5t7 145.5q0 64 -5 171.5t-5 125.5q-139 242 -174 301.5t-172 292t-168 285.5q20 -4 53 -6t66 -2h71q31 6 46 8q53 -123 119.5 -252t134 -244t153.5 -244q225 367 391 740q17 -4 39.5 -6t40.5 -2q43 0 82 8q-272 -441 -494 -844l-6 -227q0 -103 3 -194
t10 -220q-21 4 -46.5 6t-50.5 2h-63q-27 -6 -39 -8zM759 1535l-157 239l-160 -239h-82l221 336h45l219 -336h-86z" />
    <glyph glyph-name="ycircumflex" unicode="&#x177;" horiz-adv-x="928" 
d="M450 6l-90 240q-41 102 -102 246q-72 165 -238 532q47 -8 106 -8h64q29 6 41 8q33 -117 82 -249t151 -380l76 -186l78 180q160 367 244 635q30 -8 73 -8h35q25 6 37 8q-49 -94 -98 -201.5t-109 -244.5l-291 -658q-86 -194 -120 -282q-54 -134 -78 -230q-31 6 -40 7t-34 1
l-76 -8q62 105 111 203q27 51 129 280zM613 1188l-157 239l-160 -239h-82l221 336h45l219 -336h-86z" />
    <glyph glyph-name="Wgrave" unicode="&#x1e80;" horiz-adv-x="1833" 
d="M516 0q-199 655 -465 1485q47 -8 104 -8h64q29 6 41 8q88 -330 175 -627t202 -653q215 588 407 1280q31 -8 70 -8h41q20 6 29 8q63 -207 129 -406q96 -295 139 -424q63 -186 149 -428q111 316 201 616t178 642q31 -8 70 -8h43q22 6 31 8l-496 -1485q-35 8 -76 8
q-49 0 -78 -12q-176 596 -399 1216q-119 -358 -185.5 -557.5t-133.5 -402.5q-48 -135 -89 -252q-32 8 -75 8h-31t-45 -8zM1339 1511h-71l-350 217q-66 39 -66 86q0 33 21.5 54.5t56.5 21.5q24 0 48 -15.5t54 -45.5z" />
    <glyph glyph-name="wgrave" unicode="&#x1e81;" horiz-adv-x="1386" 
d="M416 0q-62 254 -379 1024q20 -4 46 -6t50 -2q56 0 99 8q65 -264 270 -795q162 359 285 795q14 -4 28.5 -6t36.5 -2l62 8q71 -266 149 -487q68 -195 123 -306q68 142 164 400q61 168 137 393q37 -8 68 -8q28 0 65 8q-168 -377 -266 -618q-111 -271 -148 -406q-26 8 -63 8
q-39 0 -64 -8q-18 123 -266 782q-98 -235 -168.5 -439t-105.5 -343q-27 8 -62 8q-39 0 -61 -8zM1117 1163h-71l-350 217q-66 39 -66 86q0 33 21.5 54.5t56.5 21.5q24 0 48 -15.5t54 -45.5z" />
    <glyph glyph-name="Wacute" unicode="&#x1e82;" horiz-adv-x="1833" 
d="M516 0q-199 655 -465 1485q47 -8 104 -8h64q29 6 41 8q88 -330 175 -627t202 -653q215 588 407 1280q31 -8 70 -8h41q20 6 29 8q63 -207 129 -406q96 -295 139 -424q63 -186 149 -428q111 316 201 616t178 642q31 -8 70 -8h43q22 6 31 8l-496 -1485q-35 8 -76 8
q-49 0 -78 -12q-176 596 -399 1216q-119 -358 -185.5 -557.5t-133.5 -402.5q-48 -135 -89 -252q-32 8 -75 8h-31t-45 -8zM965 1536h-90l234 328h104z" />
    <glyph glyph-name="wacute" unicode="&#x1e83;" horiz-adv-x="1386" 
d="M416 0q-62 254 -379 1024q20 -4 46 -6t50 -2q56 0 99 8q65 -264 270 -795q162 359 285 795q14 -4 28.5 -6t36.5 -2l62 8q71 -266 149 -487q68 -195 123 -306q68 142 164 400q61 168 137 393q37 -8 68 -8q28 0 65 8q-168 -377 -266 -618q-111 -271 -148 -406q-26 8 -63 8
q-39 0 -64 -8q-18 123 -266 782q-98 -235 -168.5 -439t-105.5 -343q-27 8 -62 8q-39 0 -61 -8zM765 1188h-90l234 328h104z" />
    <glyph glyph-name="Wdieresis" unicode="&#x1e84;" horiz-adv-x="1833" 
d="M516 0q-199 655 -465 1485q47 -8 104 -8h64q29 6 41 8q88 -330 175 -627t202 -653q215 588 407 1280q31 -8 70 -8h41q20 6 29 8q63 -207 129 -406q96 -295 139 -424q63 -186 149 -428q111 316 201 616t178 642q31 -8 70 -8h43q22 6 31 8l-496 -1485q-35 8 -76 8
q-49 0 -78 -12q-176 596 -399 1216q-119 -358 -185.5 -557.5t-133.5 -402.5q-48 -135 -89 -252q-32 8 -75 8h-31t-45 -8zM1109 1537q-27 0 -49 19.5t-22 52.5q0 31 21.5 50t47.5 19q29 0 52.5 -19.5t23.5 -49.5q0 -31 -21.5 -51.5t-52.5 -20.5zM776 1537q-28 0 -50 19.5
t-22 52.5q0 31 22 50t48 19q29 0 52 -19.5t23 -49.5q0 -31 -21 -51.5t-52 -20.5z" />
    <glyph glyph-name="wdieresis" unicode="&#x1e85;" horiz-adv-x="1386" 
d="M416 0q-62 254 -379 1024q20 -4 46 -6t50 -2q56 0 99 8q65 -264 270 -795q162 359 285 795q14 -4 28.5 -6t36.5 -2l62 8q71 -266 149 -487q68 -195 123 -306q68 142 164 400q61 168 137 393q37 -8 68 -8q28 0 65 8q-168 -377 -266 -618q-111 -271 -148 -406q-26 8 -63 8
q-39 0 -64 -8q-18 123 -266 782q-98 -235 -168.5 -439t-105.5 -343q-27 8 -62 8q-39 0 -61 -8zM892 1188q-27 0 -49 19.5t-22 52.5q0 31 21.5 50t47.5 19q29 0 52.5 -19.5t23.5 -49.5q0 -31 -21.5 -51.5t-52.5 -20.5zM559 1188q-28 0 -50 19.5t-22 52.5q0 31 22 50t48 19
q29 0 52 -19.5t23 -49.5q0 -31 -21 -51.5t-52 -20.5z" />
    <glyph glyph-name="Ygrave" unicode="&#x1ef2;" horiz-adv-x="1106" 
d="M571 0q0 55 7 163.5t7 145.5q0 64 -5 171.5t-5 125.5q-139 242 -174 301.5t-172 292t-168 285.5q20 -4 53 -6t66 -2h71q31 6 46 8q53 -123 119.5 -252t134 -244t153.5 -244q225 367 391 740q17 -4 39.5 -6t40.5 -2q43 0 82 8q-272 -441 -494 -844l-6 -227q0 -103 3 -194
t10 -220q-21 4 -46.5 6t-50.5 2h-63q-27 -6 -39 -8zM1000 1511h-71l-350 217q-66 39 -66 86q0 33 21.5 54.5t56.5 21.5q24 0 48 -15.5t54 -45.5z" />
    <glyph glyph-name="ygrave" unicode="&#x1ef3;" horiz-adv-x="928" 
d="M450 6l-90 240q-41 102 -102 246q-72 165 -238 532q47 -8 106 -8h64q29 6 41 8q33 -117 82 -249t151 -380l76 -186l78 180q160 367 244 635q30 -8 73 -8h35q25 6 37 8q-49 -94 -98 -201.5t-109 -244.5l-291 -658q-86 -194 -120 -282q-54 -134 -78 -230q-31 6 -40 7t-34 1
l-76 -8q62 105 111 203q27 51 129 280zM847 1163h-71l-350 217q-66 39 -66 86q0 33 21.5 54.5t56.5 21.5q24 0 48 -15.5t54 -45.5z" />
    <glyph glyph-name="onethird" unicode="&#x2153;" horiz-adv-x="1622" 
d="M600 584h-471v82h195v682l-209 -70v88l295 94v-794h190v-82zM430 0h-98l862 1434h96zM1507 228q0 -54 -19 -100t-55 -79.5t-88 -53t-118 -19.5q-107 0 -193 47v96q100 -63 195 -63q91 0 141.5 47t50.5 125q0 168 -235 168h-70v80h61q215 0 215 172q0 137 -153 137
q-71 0 -172 -53v90q49 23 96.5 34t93.5 11q52 0 93.5 -15t70.5 -42.5t44.5 -65.5t15.5 -84q0 -162 -148 -215v-4q85 -19 129.5 -77t44.5 -136z" />
    <glyph glyph-name="twothirds" unicode="&#x2154;" horiz-adv-x="1622" 
d="M596 584h-518v100l239 234q61 59 97.5 102t56 77t25.5 62.5t6 59.5q0 153 -158 153q-109 0 -221 -98v102q56 38 112 58t115 20q57 0 102 -16t76.5 -45.5t48.5 -70.5t17 -91q0 -39 -9.5 -77t-34 -81t-67 -94t-108.5 -115l-193 -186v-4h414v-90zM430 0h-98l862 1434h96z
M1507 228q0 -54 -19 -100t-55 -79.5t-88 -53t-118 -19.5q-107 0 -193 47v96q100 -63 195 -63q91 0 141.5 47t50.5 125q0 168 -235 168h-70v80h61q215 0 215 172q0 137 -153 137q-71 0 -172 -53v90q49 23 96.5 34t93.5 11q52 0 93.5 -15t70.5 -42.5t44.5 -65.5t15.5 -84
q0 -162 -148 -215v-4q85 -19 129.5 -77t44.5 -136z" />
    <glyph glyph-name="glyph521" horiz-adv-x="674" 
d="M600 584h-471v82h195v682l-209 -70v88l295 94v-794h190v-82z" />
    <glyph glyph-name="glyph522" horiz-adv-x="674" 
d="M561 811q0 -54 -19 -100t-55 -79.5t-88 -53t-118 -19.5q-107 0 -193 47v96q100 -63 195 -63q91 0 141.5 47t50.5 125q0 168 -235 168h-70v80h61q215 0 215 172q0 137 -153 137q-71 0 -172 -53v90q49 23 96.5 34t93.5 11q52 0 93.5 -15t70.5 -42.5t44.5 -65.5t15.5 -84
q0 -162 -148 -215v-4q85 -19 129.5 -77t44.5 -136z" />
    <glyph glyph-name="glyph523" horiz-adv-x="674" 
d="M596 584h-518v100l239 234q61 59 97.5 102t56 77t25.5 62.5t6 59.5q0 153 -158 153q-109 0 -221 -98v102q56 38 112 58t115 20q57 0 102 -16t76.5 -45.5t48.5 -70.5t17 -91q0 -39 -9.5 -77t-34 -81t-67 -94t-108.5 -115l-193 -186v-4h414v-90z" />
    <glyph glyph-name="radical" unicode="&#x221a;" horiz-adv-x="1331" 
d="M700 -2h-77l-320 778h-164v82h228l286 -713l344 1371h82z" />
    <glyph glyph-name="notequal" unicode="&#x2260;" horiz-adv-x="1331" 
d="M586 362l-187 -362h-92l189 362h-283v84h326l155 304h-481v84h526l183 354h90l-183 -354h291v-84h-334l-157 -304h491v-84h-534z" />
    <glyph glyph-name="lessequal" unicode="&#x2264;" horiz-adv-x="1331" 
d="M250 672v18l833 467v-94l-677 -379v-4l677 -334v-96zM213 63v84h907v-84h-907z" />
    <glyph glyph-name="greaterequal" unicode="&#x2265;" horiz-adv-x="1331" 
d="M250 250v96l678 334v4l-678 379v94l833 -467v-18zM213 63v84h907v-84h-907z" />
    <glyph glyph-name="Ccircumflex" unicode="&#x108;" horiz-adv-x="1272" 
d="M1354 92q-166 -121 -487 -121q-361 0 -559.5 201t-198.5 567q0 351 217 561.5t590 210.5q254 0 467 -106q-35 -109 -35 -207q-152 232 -440 232q-271 0 -422.5 -180.5t-151.5 -512.5q0 -319 150.5 -501.5t408.5 -182.5q248 0 473 183zM941 1537l-157 239l-160 -239h-82
l221 336h45l219 -336h-86z" />
    <glyph glyph-name="ccircumflex" unicode="&#x109;" horiz-adv-x="909" 
d="M969 86q-74 -57 -163 -81.5t-208 -24.5q-227 0 -367.5 144t-140.5 386q0 244 147.5 389t391.5 145q184 0 352 -88q-37 -88 -57 -186q-93 205 -295 205q-172 0 -267.5 -122t-95.5 -341q0 -213 103.5 -335t275.5 -122t326 156l-7 -80zM718 1188l-157 239l-160 -239h-82
l221 336h45l219 -336h-86z" />
    <glyph glyph-name="Cdotaccent" unicode="&#x10a;" horiz-adv-x="1272" 
d="M1354 92q-166 -121 -487 -121q-361 0 -559.5 201t-198.5 567q0 351 217 561.5t590 210.5q254 0 467 -106q-35 -109 -35 -207q-152 232 -440 232q-271 0 -422.5 -180.5t-151.5 -512.5q0 -319 150.5 -501.5t408.5 -182.5q248 0 473 183zM788 1536q-31 0 -54.5 22t-23.5 56
t23.5 53.5t52.5 19.5q31 0 55.5 -19.5t24.5 -53.5q0 -32 -23 -55t-55 -23z" />
    <glyph glyph-name="cdotaccent" unicode="&#x10b;" horiz-adv-x="909" 
d="M969 86q-74 -57 -163 -81.5t-208 -24.5q-227 0 -367.5 144t-140.5 386q0 244 147.5 389t391.5 145q184 0 352 -88q-37 -88 -57 -186q-93 205 -295 205q-172 0 -267.5 -122t-95.5 -341q0 -213 103.5 -335t275.5 -122t326 156l-7 -80zM574 1188q-31 0 -54.5 22t-23.5 56
t23.5 53.5t52.5 19.5q31 0 55.5 -19.5t24.5 -53.5q0 -32 -23 -55t-55 -23z" />
    <glyph glyph-name="Ebreve" unicode="&#x114;" horiz-adv-x="1024" 
d="M370 741v-106q0 -72 6.5 -276.5t6.5 -258.5h45q90 0 239.5 6.5t282.5 18.5l-2 -66l2 -67q-41 4 -154.5 6t-218.5 2h-393q6 72 10 307.5t4 444.5q0 440 -2 531t-12 202q49 0 149.5 -5t137.5 -5q78 0 263 5t218 5l-4 -74l4 -70q-162 33 -524 33h-51q0 -51 -2.5 -122.5
t-4.5 -135.5v-282h172q45 0 178.5 6t192.5 6l-4 -62l4 -61q-192 18 -371 18h-172zM788 1772q-16 -108 -89.5 -171.5t-182.5 -63.5q-110 0 -182.5 62t-81.5 173h84q6 -75 55.5 -117t126.5 -42q68 0 120.5 43.5t61.5 115.5h88z" />
    <glyph glyph-name="ebreve" unicode="&#x115;" horiz-adv-x="1034" 
d="M280 600h572v37q0 162 -72 250t-198 88q-127 0 -214.5 -101.5t-87.5 -273.5zM971 104q-168 -124 -369 -124q-229 0 -370.5 147t-141.5 383q0 244 137 389t363 145q209 0 321.5 -120.5t112.5 -348.5v-51h-748q0 -225 94.5 -341.5t270.5 -116.5q186 0 336 147
q-4 -25 -5 -62.5t-1 -46.5zM822 1423q-16 -108 -89.5 -171.5t-182.5 -63.5q-110 0 -182.5 62t-81.5 173h84q6 -75 55.5 -117t126.5 -42q68 0 120.5 43.5t61.5 115.5h88z" />
    <glyph glyph-name="Gcircumflex" unicode="&#x11c;" horiz-adv-x="1368" 
d="M1493 66q-159 -46 -302.5 -70.5t-274.5 -24.5q-373 0 -590 203t-217 545q0 360 232.5 576t625.5 216q318 0 535 -139q-19 -55 -30 -97t-22 -93q-170 248 -516 248q-274 0 -442 -186.5t-168 -504.5q0 -315 175 -500.5t460 -185.5q176 0 348 74q4 45 5 117.5t1 97.5
q0 68 -5 143.5t-9 132.5q18 -4 48 -6t52 -2h49q37 6 52 8q0 -43 -7.5 -171t-7.5 -168q0 -125 8 -213zM951 1538l-157 239l-160 -239h-82l221 336h45l219 -336h-86z" />
    <glyph glyph-name="gcircumflex" unicode="&#x11d;" horiz-adv-x="1147" 
d="M338 393q-217 68 -217 291q0 166 115.5 263t316.5 97q57 0 141 -10t113 -10q49 0 98 4q70 10 113 14v-96l-135 6h-43q81 -110 81 -247q0 -162 -104 -254.5t-287 -92.5q-28 0 -67 4.5t-51 4.5q-103 0 -103 -103q0 -63 40 -90t130 -27h121q229 0 332.5 -62t103.5 -232
q0 -199 -151.5 -325t-401.5 -126q-182 0 -287.5 85t-105.5 228q0 215 242 293q-78 19 -122 67t-44 115q0 113 172 203zM477 0q-119 0 -188.5 -73.5t-69.5 -184.5q0 -123 82 -198.5t217 -75.5q164 0 266.5 86t102.5 217q0 143 -99 190q-80 39 -311 39zM760 700
q0 283 -226 283q-110 0 -175.5 -76t-65.5 -207q0 -137 63.5 -210.5t177.5 -73.5q226 0 226 284zM760 1188l-157 239l-160 -239h-82l221 336h45l219 -336h-86z" />
    <glyph glyph-name="Gdotaccent" unicode="&#x120;" horiz-adv-x="1368" 
d="M1493 66q-159 -46 -302.5 -70.5t-274.5 -24.5q-373 0 -590 203t-217 545q0 360 232.5 576t625.5 216q318 0 535 -139q-19 -55 -30 -97t-22 -93q-170 248 -516 248q-274 0 -442 -186.5t-168 -504.5q0 -315 175 -500.5t460 -185.5q176 0 348 74q4 45 5 117.5t1 97.5
q0 68 -5 143.5t-9 132.5q18 -4 48 -6t52 -2h49q37 6 52 8q0 -43 -7.5 -171t-7.5 -168q0 -125 8 -213zM789 1536q-31 0 -54.5 22t-23.5 56t23.5 53.5t52.5 19.5q31 0 55.5 -19.5t24.5 -53.5q0 -32 -23 -55t-55 -23z" />
    <glyph glyph-name="gdotaccent" unicode="&#x121;" horiz-adv-x="1147" 
d="M338 393q-217 68 -217 291q0 166 115.5 263t316.5 97q57 0 141 -10t113 -10q49 0 98 4q70 10 113 14v-96l-135 6h-43q81 -110 81 -247q0 -162 -104 -254.5t-287 -92.5q-28 0 -67 4.5t-51 4.5q-103 0 -103 -103q0 -63 40 -90t130 -27h121q229 0 332.5 -62t103.5 -232
q0 -199 -151.5 -325t-401.5 -126q-182 0 -287.5 85t-105.5 228q0 215 242 293q-78 19 -122 67t-44 115q0 113 172 203zM477 0q-119 0 -188.5 -73.5t-69.5 -184.5q0 -123 82 -198.5t217 -75.5q164 0 266.5 86t102.5 217q0 143 -99 190q-80 39 -311 39zM760 700
q0 283 -226 283q-110 0 -175.5 -76t-65.5 -207q0 -137 63.5 -210.5t177.5 -73.5q226 0 226 284zM589 1188q-31 0 -54.5 22t-23.5 56t23.5 53.5t52.5 19.5q31 0 55.5 -19.5t24.5 -53.5q0 -32 -23 -55t-55 -23z" />
    <glyph glyph-name="Hcircumflex" unicode="&#x124;" horiz-adv-x="1386" 
d="M385 1485q-6 -45 -10.5 -209t-4.5 -346v-80q23 -2 145 -4t306 -2l446 4v82q0 92 -4 203q-10 274 -10 352q45 -8 100 -8q56 0 101 8q-6 -72 -10.5 -300.5t-4.5 -436.5q0 -168 1 -388.5t14 -359.5q-45 8 -101 8q-55 0 -100 -8q6 201 10 345t4 302v103q-26 2 -175.5 4
t-270.5 2q-127 0 -235.5 -3t-215.5 -5v-99q0 -162 1 -358.5t14 -290.5q-45 8 -101 8q-55 0 -100 -8q6 72 10 305.5t4 442.5q0 165 -1 381.5t-13 355.5q45 -8 100 -8q56 0 101 8zM833 1536l-157 239l-160 -239h-82l221 336h45l219 -336h-86z" />
    </font>
</defs>
</svg>
